G04*
G04 #@! TF.GenerationSoftware,Altium Limited,Altium Designer,24.1.2 (44)*
G04*
G04 Layer_Physical_Order=3*
G04 Layer_Color=16440176*
%FSLAX44Y44*%
%MOMM*%
G71*
G04*
G04 #@! TF.SameCoordinates,C821B7F3-8F75-4133-9FF0-222E6F013E41*
G04*
G04*
G04 #@! TF.FilePolarity,Positive*
G04*
G01*
G75*
%ADD10C,0.2540*%
%ADD14C,0.3810*%
%ADD23C,1.2300*%
%ADD132C,2.3000*%
%ADD134C,1.2580*%
%ADD135C,0.3000*%
%ADD136C,1.4580*%
%ADD137C,1.3700*%
%ADD138R,1.3700X1.3700*%
%ADD139C,1.6000*%
%ADD140R,1.6000X1.6000*%
%ADD141C,1.0000*%
%ADD142C,6.0000*%
%ADD143C,0.4000*%
%ADD146R,2.1496X2.2498*%
G36*
X72648Y837500D02*
X60019Y831975D01*
X36000Y840536D01*
X16458Y833570D01*
X9459Y814000D01*
X18057Y789957D01*
X12506Y777344D01*
X206Y791390D01*
X5266Y814000D01*
X206Y836610D01*
X11965Y837939D01*
Y837959D01*
X12003Y837997D01*
X12081Y837997D01*
X13429Y849800D01*
X36000Y844737D01*
X58571Y849800D01*
X72648Y837500D01*
D02*
G37*
G36*
X837944Y838035D02*
X837959D01*
X837997Y837997D01*
X837997Y837917D01*
X849806Y836531D01*
X849739Y835705D01*
X849538Y834400D01*
X847395Y824398D01*
X844871Y814000D01*
X847395Y803602D01*
X849538Y793599D01*
X849739Y792295D01*
X849806Y791469D01*
X837506Y777359D01*
X832007Y790005D01*
X840530Y814000D01*
X833584Y833555D01*
X814000Y840536D01*
X789981Y831974D01*
X777352Y837500D01*
X791429Y849800D01*
X814000Y844737D01*
X836571Y849800D01*
X837944Y838035D01*
D02*
G37*
G36*
X156323Y835651D02*
X416322D01*
X426322Y835651D01*
X696321D01*
X706321Y835651D01*
X777049D01*
X786182Y831655D01*
X786542Y830112D01*
X784548Y826199D01*
X783002Y821442D01*
X782220Y816501D01*
Y811499D01*
X783002Y806558D01*
X784548Y801801D01*
X786819Y797344D01*
X789760Y793297D01*
X793297Y789760D01*
X797344Y786819D01*
X801801Y784548D01*
X806558Y783002D01*
X811499Y782220D01*
X816501D01*
X821442Y783002D01*
X826199Y784548D01*
X830142Y786557D01*
X831678Y786209D01*
X835657Y777059D01*
Y756195D01*
X702818Y756195D01*
X702123Y756057D01*
X701535Y755663D01*
X701141Y755074D01*
X701003Y754380D01*
Y504190D01*
X701141Y503495D01*
X701535Y502907D01*
X702123Y502513D01*
X702818Y502375D01*
X767598Y502375D01*
X785585Y484388D01*
Y118862D01*
X773263Y106540D01*
X772090Y107026D01*
Y112530D01*
X763970D01*
Y104410D01*
X769474D01*
X769960Y103237D01*
X752415Y85692D01*
X751242Y86178D01*
Y144653D01*
X751104Y145347D01*
X750710Y145936D01*
X741197Y155449D01*
X741426Y157017D01*
X742599Y157694D01*
X744206Y159301D01*
X745342Y161269D01*
X745930Y163464D01*
Y165736D01*
X745342Y167931D01*
X744206Y169899D01*
X742599Y171506D01*
X740631Y172642D01*
X738436Y173230D01*
X736164D01*
X733969Y172642D01*
X732001Y171506D01*
X730394Y169899D01*
X729717Y168726D01*
X728149Y168497D01*
X725250Y171396D01*
Y195768D01*
X725247Y195782D01*
X725250Y195797D01*
Y235768D01*
X725247Y235782D01*
X725250Y235797D01*
Y275768D01*
X725247Y275782D01*
X725250Y275797D01*
Y315768D01*
X725247Y315782D01*
X725250Y315797D01*
Y332195D01*
X735365Y332195D01*
X736060Y332333D01*
X736648Y332727D01*
X737042Y333316D01*
X737180Y334010D01*
Y344864D01*
X737042Y345559D01*
X736648Y346147D01*
X736060Y346541D01*
X735365Y346679D01*
X710201D01*
X709506Y346541D01*
X708917Y346147D01*
X708524Y345559D01*
X708386Y344864D01*
Y105904D01*
X665525D01*
Y197082D01*
X665387Y197776D01*
X664993Y198365D01*
X663955Y199403D01*
X663366Y199797D01*
X662672Y199935D01*
X642620D01*
X641926Y199797D01*
X641337Y199403D01*
X640405Y198472D01*
X640012Y197883D01*
X639874Y197189D01*
Y105955D01*
X594528D01*
X594528Y192987D01*
X594390Y193681D01*
X593996Y194270D01*
X587755Y200511D01*
X587943Y201457D01*
X589006Y202520D01*
X589582Y203909D01*
Y205413D01*
X589006Y206802D01*
X587943Y207866D01*
X586554Y208441D01*
X585050D01*
X583661Y207866D01*
X582597Y206802D01*
X582022Y205413D01*
Y203909D01*
X582080Y203770D01*
X581231Y202500D01*
X541559D01*
X541417Y202845D01*
X540353Y203908D01*
X538964Y204483D01*
X537460D01*
X536071Y203908D01*
X535008Y202845D01*
X534865Y202500D01*
X529590D01*
X529537Y202543D01*
Y219663D01*
X550990D01*
X552428Y219949D01*
X553647Y220764D01*
X576553Y243670D01*
X593257Y226966D01*
Y201492D01*
X593235Y201437D01*
Y199933D01*
X593810Y198544D01*
X594874Y197481D01*
X594929Y197458D01*
X621047Y171339D01*
Y130629D01*
X621024Y130574D01*
Y129070D01*
X621600Y127681D01*
X622663Y126617D01*
X624052Y126042D01*
X625556D01*
X626945Y126617D01*
X628009Y127681D01*
X628584Y129070D01*
Y130574D01*
X628561Y130629D01*
Y172896D01*
X628275Y174334D01*
X627461Y175553D01*
X600772Y202241D01*
Y228522D01*
X600486Y229960D01*
X599671Y231179D01*
X580296Y250554D01*
Y337493D01*
X602097Y359293D01*
X602911Y360512D01*
X603197Y361950D01*
Y407560D01*
X602911Y408998D01*
X602097Y410217D01*
X596007Y416306D01*
Y455746D01*
X624052Y483791D01*
X624866Y485010D01*
X625153Y486448D01*
Y527980D01*
X639104Y541932D01*
X669537D01*
X669592Y541909D01*
X671096D01*
X672485Y542484D01*
X673549Y543548D01*
X674124Y544937D01*
Y546441D01*
X673549Y547830D01*
X672485Y548894D01*
X671096Y549469D01*
X669592D01*
X669537Y549446D01*
X639104D01*
X623757Y564793D01*
Y650693D01*
X623780Y650748D01*
Y652252D01*
X623204Y653641D01*
X622141Y654705D01*
X620752Y655280D01*
X619248D01*
X617859Y654705D01*
X616796Y653641D01*
X616220Y652252D01*
Y650748D01*
X616243Y650693D01*
Y563237D01*
X616529Y561799D01*
X617343Y560580D01*
X632234Y545689D01*
X618739Y532193D01*
X617924Y530974D01*
X617638Y529537D01*
Y488004D01*
X589593Y459959D01*
X588779Y458740D01*
X588493Y457303D01*
Y415557D01*
X588470Y415502D01*
Y413998D01*
X589045Y412609D01*
X590109Y411545D01*
X590164Y411523D01*
X595683Y406004D01*
Y363506D01*
X573882Y341706D01*
X573068Y340487D01*
X572782Y339049D01*
Y250526D01*
X549434Y227178D01*
X476285D01*
X474847Y226892D01*
X473629Y226077D01*
X463808Y216257D01*
X440775D01*
X440550Y216692D01*
X440386Y217527D01*
X441273Y218414D01*
X441848Y219803D01*
Y220862D01*
X442907D01*
X444297Y221438D01*
X445360Y222501D01*
X445935Y223890D01*
Y224949D01*
X446994D01*
X448384Y225525D01*
X449447Y226588D01*
X450023Y227978D01*
Y229036D01*
X451082D01*
X452471Y229612D01*
X453534Y230675D01*
X454110Y232065D01*
Y233568D01*
X453534Y234958D01*
X452471Y236021D01*
X451082Y236597D01*
X449578D01*
X448188Y236021D01*
X447125Y234958D01*
X446550Y233568D01*
Y232509D01*
X445491D01*
X444101Y231934D01*
X443038Y230871D01*
X442463Y229481D01*
Y228422D01*
X441404D01*
X440014Y227847D01*
X438951Y226784D01*
X438375Y225394D01*
Y224335D01*
X437316D01*
X435927Y223760D01*
X434864Y222696D01*
X434288Y221307D01*
Y219803D01*
X434864Y218414D01*
X435751Y217527D01*
X435586Y216692D01*
X435361Y216257D01*
X429282D01*
X429226Y216280D01*
X427723D01*
X426333Y215704D01*
X425270Y214641D01*
X425247Y214586D01*
X421233Y210572D01*
X325770D01*
X325306Y210624D01*
X324741Y210732D01*
X324199Y210881D01*
X323679Y211072D01*
X323175Y211305D01*
X322687Y211582D01*
X322211Y211905D01*
X321846Y212198D01*
X313774Y220270D01*
X314260Y221443D01*
X348726D01*
X350163Y221729D01*
X351382Y222544D01*
X372289Y243451D01*
X373787Y243153D01*
X373955Y242747D01*
X375019Y241683D01*
X376408Y241108D01*
X377912D01*
X379301Y241683D01*
X380364Y242747D01*
X380940Y244136D01*
Y245640D01*
X380364Y247029D01*
X379301Y248092D01*
X378895Y248260D01*
X378597Y249759D01*
X413120Y284281D01*
X414532Y283897D01*
X414868Y283085D01*
X415932Y282022D01*
X417321Y281446D01*
X418825D01*
X420214Y282022D01*
X421116Y282923D01*
X421469Y282832D01*
X422163Y282518D01*
X422289Y282437D01*
Y281118D01*
X422864Y279729D01*
X423928Y278665D01*
X425317Y278090D01*
X425451D01*
X434638Y268903D01*
X435647Y268229D01*
X436837Y267992D01*
X499582D01*
X500772Y268229D01*
X501781Y268903D01*
X505618Y272740D01*
X505752D01*
X507141Y273316D01*
X508204Y274379D01*
X508780Y275768D01*
Y277272D01*
X508686Y277500D01*
X509534Y278770D01*
X512436D01*
X512840Y278365D01*
X514229Y277790D01*
X515733D01*
X517122Y278365D01*
X517446Y278689D01*
X518848Y278295D01*
X518941Y277908D01*
X518920Y277669D01*
X503643Y262393D01*
X404196D01*
X404101Y262487D01*
X402711Y263063D01*
X401208D01*
X399818Y262487D01*
X398755Y261424D01*
X398180Y260035D01*
Y258531D01*
X398755Y257142D01*
X399818Y256078D01*
X400123Y255952D01*
X400371Y254706D01*
X396369Y250704D01*
X395232Y250233D01*
X394169Y249170D01*
X393593Y247781D01*
Y246277D01*
X394169Y244888D01*
X395232Y243824D01*
X396621Y243249D01*
X398125D01*
X399514Y243824D01*
X400578Y244888D01*
X401153Y246277D01*
Y246693D01*
X406064Y251604D01*
X507978D01*
X509168Y251841D01*
X510177Y252515D01*
X529737Y272075D01*
X530411Y273084D01*
X530648Y274274D01*
X530648Y274274D01*
Y363713D01*
X530742Y363808D01*
X531318Y365197D01*
Y366701D01*
X530742Y368090D01*
X529679Y369154D01*
X528290Y369729D01*
X526786D01*
X526129Y370831D01*
X526081Y371387D01*
X530777Y376083D01*
X531727D01*
X531822Y375988D01*
X533212Y375413D01*
X534715D01*
X536105Y375988D01*
X537168Y377052D01*
X537743Y378441D01*
Y379945D01*
X537168Y381334D01*
X536105Y382397D01*
X534715Y382973D01*
X533212D01*
X531822Y382397D01*
X531727Y382303D01*
X529489D01*
X528299Y382066D01*
X527290Y381392D01*
X520137Y374239D01*
X519463Y373230D01*
X519227Y372040D01*
Y284329D01*
X519033Y284214D01*
X517957Y283940D01*
X517122Y284774D01*
X515733Y285350D01*
X514229D01*
X513358Y284989D01*
X435611D01*
X433894Y286706D01*
X434142Y287952D01*
X434274Y288007D01*
X435337Y289070D01*
X435913Y290459D01*
Y291963D01*
X435337Y293352D01*
X434274Y294416D01*
X432885Y294991D01*
X431381D01*
X429991Y294416D01*
X428928Y293352D01*
X428353Y291963D01*
Y291786D01*
X427899Y291413D01*
X422048D01*
X421522Y292683D01*
X421715Y292876D01*
X422529Y294095D01*
X422815Y295533D01*
Y358623D01*
X422838Y358678D01*
Y360182D01*
X422263Y361572D01*
X421199Y362635D01*
X419810Y363210D01*
X418306D01*
X416917Y362635D01*
X415854Y361572D01*
X415278Y360182D01*
Y358678D01*
X415301Y358623D01*
Y297089D01*
X347169Y228958D01*
X308685D01*
X308320Y229022D01*
X308025Y229121D01*
X307821Y229230D01*
X307677Y229348D01*
X307560Y229491D01*
X307450Y229695D01*
X307351Y229991D01*
X307287Y230355D01*
Y257003D01*
X307310Y257058D01*
Y258562D01*
X307287Y258617D01*
Y273103D01*
X331218D01*
X332656Y273389D01*
X333875Y274203D01*
X337896Y278225D01*
X363272D01*
X363327Y278202D01*
X364831D01*
X366220Y278777D01*
X367284Y279841D01*
X367859Y281230D01*
Y282734D01*
X367284Y284123D01*
X366220Y285187D01*
X364831Y285762D01*
X363327D01*
X363272Y285739D01*
X336340D01*
X334902Y285453D01*
X333683Y284639D01*
X329662Y280617D01*
X305293D01*
X280689Y305221D01*
X279470Y306035D01*
X278032Y306321D01*
X276237D01*
X276094Y306380D01*
X274590D01*
X274188Y306213D01*
X240837D01*
X240782Y306236D01*
X239278D01*
X237889Y305661D01*
X236826Y304597D01*
X236803Y304542D01*
X226134Y293873D01*
X126236D01*
X125940Y293899D01*
X125520Y293969D01*
X125215Y294050D01*
X125096Y294098D01*
Y299896D01*
X105536D01*
Y280336D01*
X125096D01*
Y286134D01*
X125215Y286182D01*
X125520Y286263D01*
X125940Y286333D01*
X126236Y286359D01*
X227323D01*
X227994Y285565D01*
X228151Y285156D01*
X227839Y284401D01*
Y282897D01*
X228414Y281508D01*
X229478Y280445D01*
X230867Y279869D01*
X232371D01*
X233760Y280445D01*
X234823Y281508D01*
X235399Y282897D01*
Y284401D01*
X234823Y285790D01*
X233760Y286854D01*
X232371Y287429D01*
X232113D01*
X231587Y288699D01*
X241586Y298699D01*
X275147D01*
X275688Y298807D01*
X276476D01*
X299773Y275510D01*
Y258617D01*
X299750Y258562D01*
Y257058D01*
X299773Y257003D01*
Y230355D01*
X299708Y229991D01*
X299610Y229695D01*
X299500Y229491D01*
X299383Y229348D01*
X299239Y229230D01*
X299036Y229121D01*
X298740Y229022D01*
X298375Y228958D01*
X262030D01*
X260593Y228672D01*
X259374Y227857D01*
X221434Y189917D01*
X221379Y189895D01*
X220315Y188831D01*
X219740Y187442D01*
Y185938D01*
X220315Y184549D01*
X221379Y183486D01*
X222768Y182910D01*
X224272D01*
X225661Y183486D01*
X226724Y184549D01*
X226747Y184604D01*
X263587Y221443D01*
X299675D01*
X300140Y221392D01*
X300705Y221284D01*
X301246Y221135D01*
X301767Y220944D01*
X302270Y220710D01*
X302759Y220433D01*
X303234Y220110D01*
X303599Y219818D01*
X316533Y206884D01*
X316825Y206519D01*
X317148Y206044D01*
X317425Y205555D01*
X317659Y205052D01*
X317850Y204531D01*
X317999Y203990D01*
X318107Y203425D01*
X318158Y202960D01*
Y146121D01*
X318444Y144683D01*
X319259Y143464D01*
X342355Y120368D01*
X342567Y120065D01*
X342707Y119786D01*
X342773Y119565D01*
X342792Y119380D01*
X342773Y119196D01*
X342707Y118974D01*
X342567Y118695D01*
X342355Y118392D01*
X334892Y110929D01*
X334837Y110906D01*
X333774Y109843D01*
X333198Y108454D01*
Y106950D01*
X333774Y105561D01*
X334837Y104497D01*
X336227Y103922D01*
X337730D01*
X339119Y104497D01*
X340183Y105561D01*
X340206Y105616D01*
X348587Y113997D01*
X348952Y114290D01*
X349428Y114613D01*
X349916Y114890D01*
X350420Y115123D01*
X350941Y115314D01*
X351482Y115463D01*
X352047Y115571D01*
X352512Y115623D01*
X390925D01*
X422280Y84268D01*
X421794Y83095D01*
X161412D01*
X160718Y82957D01*
X160129Y82563D01*
X159735Y81974D01*
X159597Y81280D01*
Y14349D01*
X150858D01*
X140858Y14349D01*
X72951D01*
X63818Y18345D01*
X63458Y19888D01*
X65452Y23801D01*
X66997Y28558D01*
X67780Y33499D01*
Y38501D01*
X66997Y43442D01*
X65452Y48199D01*
X63181Y52656D01*
X60240Y56703D01*
X56703Y60240D01*
X52656Y63181D01*
X48199Y65452D01*
X43442Y66997D01*
X38501Y67780D01*
X33499D01*
X28558Y66997D01*
X23801Y65452D01*
X19918Y63473D01*
X18367Y63844D01*
X14355Y72961D01*
Y92165D01*
X266720D01*
X267414Y92303D01*
X268003Y92697D01*
X276873Y101567D01*
X277267Y102156D01*
X277405Y102850D01*
Y189732D01*
X277267Y190426D01*
X276873Y191015D01*
X274835Y193053D01*
X274246Y193447D01*
X273552Y193585D01*
X251372D01*
X250677Y193447D01*
X250088Y193053D01*
X247637Y190602D01*
X247243Y190013D01*
X247105Y189318D01*
Y151851D01*
X186586D01*
X185989Y153049D01*
X186564Y154439D01*
Y155942D01*
X185989Y157332D01*
X184925Y158395D01*
X183536Y158970D01*
X182032D01*
X180643Y158395D01*
X179580Y157332D01*
X179004Y155942D01*
Y154439D01*
X179580Y153049D01*
X178982Y151851D01*
X125096D01*
Y170308D01*
X105536D01*
Y151851D01*
X101553D01*
X101377Y151816D01*
X101199D01*
X101033Y151748D01*
X100858Y151713D01*
X100709Y151613D01*
X100544Y151545D01*
X100418Y151419D01*
X100269Y151319D01*
X99229Y150823D01*
X97840Y151398D01*
X96336D01*
X94947Y150823D01*
X93907Y151319D01*
X93758Y151419D01*
X93632Y151545D01*
X93467Y151613D01*
X93318Y151713D01*
X93143Y151748D01*
X92978Y151816D01*
X92799D01*
X92623Y151851D01*
X50106D01*
X39915Y162042D01*
Y258411D01*
X41185Y258796D01*
X41564Y258228D01*
X51259Y248533D01*
X52268Y247859D01*
X53458Y247623D01*
X107995D01*
X108521Y246353D01*
X107490Y245321D01*
X106202Y243091D01*
X105536Y240604D01*
Y238029D01*
X106202Y235541D01*
X107490Y233311D01*
X109311Y231490D01*
X111541Y230203D01*
X114028Y229536D01*
X116604D01*
X119091Y230203D01*
X121321Y231490D01*
X123142Y233311D01*
X124430Y235541D01*
X125096Y238029D01*
Y240604D01*
X124430Y243091D01*
X123142Y245321D01*
X122111Y246353D01*
X122637Y247623D01*
X265663D01*
X266853Y247859D01*
X267862Y248533D01*
X272001Y252673D01*
X274993D01*
X275088Y252578D01*
X276478Y252002D01*
X277981D01*
X279370Y252578D01*
X280434Y253641D01*
X281009Y255030D01*
Y256534D01*
X280434Y257923D01*
X279370Y258987D01*
X277981Y259562D01*
X276478D01*
X275088Y258987D01*
X274993Y258892D01*
X270713D01*
X270713Y258892D01*
X269523Y258655D01*
X268514Y257981D01*
X268514Y257981D01*
X264375Y253842D01*
X120102D01*
X119761Y255112D01*
X121788Y256282D01*
X123750Y258244D01*
X125138Y260648D01*
X125856Y263328D01*
Y263446D01*
X115316D01*
X104776D01*
Y263328D01*
X105494Y260648D01*
X106882Y258244D01*
X108844Y256282D01*
X110871Y255112D01*
X110530Y253842D01*
X54746D01*
X46873Y261715D01*
Y393451D01*
X47929Y394156D01*
X48241Y394027D01*
X49745D01*
X51134Y394603D01*
X52197Y395666D01*
X52773Y397055D01*
Y397189D01*
X54024Y398441D01*
X136274D01*
X137464Y398677D01*
X138472Y399351D01*
X156381Y417260D01*
X226986D01*
X234789Y409457D01*
Y369700D01*
X233519Y369081D01*
X232521Y369495D01*
X231017D01*
X229628Y368919D01*
X228564Y367856D01*
X227989Y366466D01*
Y364963D01*
X228012Y364908D01*
Y354700D01*
X206637Y333326D01*
X194818D01*
X194231Y334596D01*
X194667Y335648D01*
Y337151D01*
X194092Y338541D01*
X193997Y338636D01*
Y351271D01*
X218498Y375772D01*
X219172Y376781D01*
X219409Y377971D01*
Y393945D01*
X219503Y394040D01*
X220079Y395429D01*
Y396933D01*
X219503Y398323D01*
X218440Y399386D01*
X217051Y399961D01*
X215547D01*
X214158Y399386D01*
X213094Y398323D01*
X212519Y396933D01*
Y395429D01*
X213094Y394040D01*
X213189Y393945D01*
Y381108D01*
X213063Y381030D01*
X211919Y380719D01*
X211100Y381538D01*
X209711Y382113D01*
X208207D01*
X206818Y381538D01*
X205755Y380474D01*
X205179Y379085D01*
Y378951D01*
X176994Y350766D01*
X176320Y349757D01*
X176083Y348567D01*
Y338897D01*
X175988Y338803D01*
X175413Y337413D01*
Y335910D01*
X175988Y334520D01*
X175387Y333326D01*
X138266D01*
Y342953D01*
X178616Y383303D01*
X178671Y383326D01*
X179734Y384389D01*
X180310Y385779D01*
Y387282D01*
X179734Y388672D01*
X178671Y389735D01*
X177282Y390310D01*
X175778D01*
X174389Y389735D01*
X173326Y388672D01*
X173303Y388616D01*
X131852Y347166D01*
X131038Y345947D01*
X130752Y344509D01*
Y330375D01*
X130729Y330320D01*
Y328816D01*
X131304Y327427D01*
X132368Y326364D01*
X133757Y325788D01*
X135261D01*
X135316Y325811D01*
X208194D01*
X209631Y326097D01*
X210850Y326912D01*
X233519Y349580D01*
X234789Y349054D01*
Y331252D01*
X235026Y330062D01*
X235700Y329053D01*
X247191Y317562D01*
X247192Y317562D01*
X248200Y316888D01*
X249390Y316651D01*
X280141D01*
X281331Y316888D01*
X282340Y317562D01*
X295405Y330626D01*
X296903Y330328D01*
X297011Y330068D01*
X298074Y329004D01*
X299464Y328429D01*
X300968D01*
X302357Y329004D01*
X303420Y330068D01*
X303996Y331457D01*
Y331591D01*
X306251Y333847D01*
X382556D01*
X384893Y331510D01*
Y322358D01*
X381492Y318957D01*
X381358D01*
X379969Y318382D01*
X378905Y317318D01*
X378330Y315929D01*
Y314425D01*
X378905Y313036D01*
X379969Y311973D01*
X381358Y311397D01*
X382862D01*
X384251Y311973D01*
X385315Y313036D01*
X385890Y314425D01*
Y314559D01*
X390202Y318871D01*
X390876Y319880D01*
X391112Y321070D01*
Y332798D01*
X390876Y333988D01*
X390202Y334997D01*
X386043Y339155D01*
X385034Y339829D01*
X383844Y340066D01*
X306641D01*
X306115Y341336D01*
X362351Y397572D01*
X444551D01*
X466937Y375186D01*
X467946Y374512D01*
X469136Y374275D01*
X469707D01*
X469967Y374016D01*
X471356Y373440D01*
X472860D01*
X474249Y374016D01*
X475312Y375079D01*
X475888Y376468D01*
Y377972D01*
X475833Y378104D01*
X476539Y379160D01*
X486916D01*
X486964Y379112D01*
X488354Y378536D01*
X489858D01*
X491247Y379112D01*
X492310Y380175D01*
X492886Y381564D01*
Y383068D01*
X492310Y384457D01*
X491247Y385521D01*
X489858Y386096D01*
X488354D01*
X486964Y385521D01*
X486824Y385380D01*
X482805D01*
X482441Y385987D01*
X482193Y386650D01*
X482708Y387892D01*
Y389396D01*
X482132Y390785D01*
X481069Y391848D01*
X479680Y392424D01*
X479546D01*
X456225Y415745D01*
X455216Y416419D01*
X454026Y416656D01*
X353995D01*
X353995Y416656D01*
X352805Y416419D01*
X351796Y415745D01*
X271964Y335913D01*
X270609D01*
X270082Y337183D01*
X270746Y337847D01*
X271322Y339236D01*
Y339370D01*
X308701Y376750D01*
X309375Y377759D01*
X309612Y378949D01*
Y474693D01*
X323515Y488596D01*
X409828D01*
X411018Y488833D01*
X412027Y489507D01*
X426381Y503861D01*
X427651Y503335D01*
Y502943D01*
X428227Y501553D01*
X429290Y500490D01*
X430679Y499914D01*
X432183D01*
X433572Y500490D01*
X434636Y501553D01*
X435211Y502943D01*
Y503077D01*
X448127Y515993D01*
X448655Y515816D01*
X449300Y515370D01*
Y514097D01*
X449876Y512708D01*
X450939Y511645D01*
X452328Y511069D01*
X453832D01*
X455221Y511645D01*
X456285Y512708D01*
X456860Y514097D01*
Y515601D01*
X456285Y516990D01*
X455221Y518054D01*
X453832Y518629D01*
X452560D01*
X452113Y519274D01*
X451937Y519802D01*
X457206Y525071D01*
X457880Y526080D01*
X458117Y527270D01*
Y533926D01*
X458117Y533926D01*
X457880Y535116D01*
X457206Y536125D01*
X457206Y536125D01*
X454248Y539083D01*
X454065Y539205D01*
X454450Y540475D01*
X501650D01*
X502345Y540613D01*
X502933Y541007D01*
X503327Y541595D01*
X503465Y542290D01*
Y569563D01*
X503327Y570257D01*
X502933Y570846D01*
X502345Y571239D01*
X501650Y571378D01*
X397877D01*
X397702Y571343D01*
X397523D01*
X397358Y571274D01*
X397183Y571239D01*
X397034Y571140D01*
X396869Y571072D01*
X396743Y570945D01*
X396594Y570846D01*
X396495Y570697D01*
X396368Y570571D01*
X396061Y570111D01*
X395411Y569676D01*
X394644Y569524D01*
X393877Y569676D01*
X393227Y570111D01*
X392920Y570571D01*
X392793Y570697D01*
X392694Y570846D01*
X392545Y570945D01*
X392419Y571072D01*
X392254Y571140D01*
X392105Y571239D01*
X391930Y571274D01*
X391765Y571343D01*
X391586D01*
X391411Y571378D01*
X386816D01*
X386641Y571343D01*
X386462D01*
X386297Y571274D01*
X386121Y571239D01*
X385973Y571140D01*
X385808Y571072D01*
X385681Y570945D01*
X385533Y570846D01*
X385433Y570697D01*
X385307Y570571D01*
X385000Y570111D01*
X384349Y569676D01*
X383583Y569524D01*
X382816Y569676D01*
X382166Y570111D01*
X381858Y570571D01*
X381732Y570697D01*
X381633Y570846D01*
X381484Y570945D01*
X381358Y571072D01*
X381193Y571140D01*
X381044Y571239D01*
X380869Y571274D01*
X380704Y571343D01*
X380525D01*
X380349Y571378D01*
X375755D01*
X375579Y571343D01*
X375401D01*
X375236Y571274D01*
X375060Y571239D01*
X374912Y571140D01*
X374747Y571072D01*
X374620Y570945D01*
X374472Y570846D01*
X374372Y570697D01*
X374246Y570571D01*
X373938Y570111D01*
X373288Y569676D01*
X372522Y569524D01*
X371755Y569676D01*
X371105Y570111D01*
X370797Y570571D01*
X370671Y570697D01*
X370572Y570846D01*
X370423Y570945D01*
X370297Y571072D01*
X370131Y571140D01*
X369983Y571239D01*
X369808Y571274D01*
X369642Y571343D01*
X369464D01*
X369288Y571378D01*
X364694D01*
X364518Y571343D01*
X364339D01*
X364174Y571274D01*
X363999Y571239D01*
X363850Y571140D01*
X363685Y571072D01*
X363559Y570945D01*
X363410Y570846D01*
X363311Y570697D01*
X363185Y570571D01*
X362877Y570111D01*
X362227Y569676D01*
X361460Y569524D01*
X360694Y569676D01*
X360043Y570111D01*
X359736Y570571D01*
X359610Y570697D01*
X359510Y570846D01*
X359362Y570945D01*
X359235Y571072D01*
X359070Y571140D01*
X358922Y571239D01*
X358746Y571274D01*
X358581Y571343D01*
X358402D01*
X358227Y571378D01*
X281309D01*
X281133Y571343D01*
X280955D01*
X280790Y571274D01*
X280614Y571239D01*
X280466Y571140D01*
X280300Y571072D01*
X280174Y570945D01*
X280025Y570846D01*
X279926Y570697D01*
X279800Y570571D01*
X279492Y570111D01*
X278842Y569676D01*
X278075Y569524D01*
X277309Y569676D01*
X276659Y570111D01*
X276351Y570571D01*
X276225Y570697D01*
X276125Y570846D01*
X275977Y570945D01*
X275850Y571072D01*
X275685Y571140D01*
X275537Y571239D01*
X275361Y571274D01*
X275196Y571343D01*
X275017D01*
X274842Y571378D01*
X270247D01*
X270072Y571343D01*
X269893D01*
X269728Y571274D01*
X269553Y571239D01*
X269404Y571140D01*
X269239Y571072D01*
X269113Y570945D01*
X268964Y570846D01*
X268865Y570697D01*
X268738Y570571D01*
X268431Y570111D01*
X267781Y569676D01*
X267014Y569524D01*
X266247Y569676D01*
X265597Y570111D01*
X265290Y570571D01*
X265163Y570697D01*
X265064Y570846D01*
X264916Y570945D01*
X264789Y571072D01*
X264624Y571140D01*
X264475Y571239D01*
X264300Y571274D01*
X264135Y571343D01*
X263956D01*
X263781Y571378D01*
X259186D01*
X259011Y571343D01*
X258832D01*
X258667Y571274D01*
X258492Y571239D01*
X258343Y571140D01*
X258178Y571072D01*
X258052Y570945D01*
X257903Y570846D01*
X257804Y570697D01*
X257677Y570571D01*
X257370Y570111D01*
X256720Y569676D01*
X255953Y569524D01*
X255186Y569676D01*
X254536Y570111D01*
X254229Y570571D01*
X254102Y570697D01*
X254003Y570846D01*
X253855Y570945D01*
X253728Y571072D01*
X253563Y571140D01*
X253414Y571239D01*
X253239Y571274D01*
X253074Y571343D01*
X252895D01*
X252720Y571378D01*
X248125D01*
X247950Y571343D01*
X247771D01*
X247606Y571274D01*
X247431Y571239D01*
X247282Y571140D01*
X247117Y571072D01*
X246990Y570945D01*
X246842Y570846D01*
X246742Y570697D01*
X246616Y570571D01*
X246309Y570111D01*
X245659Y569676D01*
X244892Y569524D01*
X244125Y569676D01*
X243475Y570111D01*
X243168Y570571D01*
X243041Y570697D01*
X242942Y570846D01*
X242793Y570945D01*
X242667Y571072D01*
X242502Y571140D01*
X242353Y571239D01*
X242178Y571274D01*
X242013Y571343D01*
X241834D01*
X241658Y571378D01*
X184695D01*
Y667475D01*
X335280D01*
X335975Y667613D01*
X336563Y668007D01*
X336957Y668596D01*
X337095Y669290D01*
Y684160D01*
X336957Y684854D01*
X336563Y685443D01*
X335975Y685836D01*
X335280Y685975D01*
X184695D01*
Y795020D01*
X184557Y795714D01*
X184163Y796303D01*
X183575Y796697D01*
X182880Y796835D01*
X68580D01*
X67885Y796697D01*
X67297Y796303D01*
X66903Y795714D01*
X66765Y795020D01*
Y776568D01*
X66682Y776443D01*
X66544Y775749D01*
Y732790D01*
X66682Y732095D01*
X67076Y731507D01*
X67664Y731113D01*
X68359Y730975D01*
X121934D01*
X122629Y731113D01*
X123894Y730431D01*
X123876Y696761D01*
X123876Y696761D01*
X123876Y696760D01*
X123942Y696424D01*
X124013Y696066D01*
X123524Y695457D01*
X122461Y694394D01*
X121885Y693004D01*
Y691501D01*
X122461Y690111D01*
X123524Y689048D01*
X123950Y688872D01*
X123941Y688828D01*
X123871Y688474D01*
X123852Y654595D01*
X14355D01*
Y695502D01*
X14355Y705502D01*
Y777038D01*
X18367Y786156D01*
X19918Y786527D01*
X23801Y784548D01*
X28558Y783002D01*
X33499Y782220D01*
X38501D01*
X43442Y783002D01*
X48199Y784548D01*
X52656Y786819D01*
X56703Y789760D01*
X60240Y793297D01*
X63181Y797344D01*
X65452Y801801D01*
X66997Y806558D01*
X67780Y811499D01*
Y816501D01*
X66997Y821442D01*
X65452Y826199D01*
X63458Y830112D01*
X63818Y831656D01*
X72951Y835651D01*
X146323D01*
X156323Y835651D01*
D02*
G37*
G36*
X150446Y765224D02*
Y625231D01*
X149269Y624611D01*
X147880Y625187D01*
X146376D01*
X144987Y624611D01*
X143924Y623548D01*
X143348Y622159D01*
Y620655D01*
X143924Y619266D01*
X144987Y618202D01*
X146376Y617627D01*
X147880D01*
X149269Y618202D01*
X150446Y617583D01*
Y575308D01*
X149694D01*
X148305Y574732D01*
X147241Y573669D01*
X146666Y572279D01*
Y571500D01*
X143165D01*
Y572279D01*
X142589Y573669D01*
X141526Y574732D01*
X140136Y575308D01*
X138633D01*
X137243Y574732D01*
X136180Y573669D01*
X135604Y572279D01*
Y571500D01*
X132103D01*
Y572279D01*
X131528Y573669D01*
X130464Y574732D01*
X129075Y575308D01*
X127571D01*
X126182Y574732D01*
X125119Y573669D01*
X124543Y572279D01*
Y571500D01*
X54841D01*
X54314Y572770D01*
X54933Y573389D01*
X55509Y574778D01*
Y576282D01*
X54933Y577671D01*
X53870Y578735D01*
X52481Y579310D01*
X50977D01*
X49588Y578735D01*
X48524Y577671D01*
X47949Y576282D01*
Y574778D01*
X48524Y573389D01*
X49143Y572770D01*
X48617Y571500D01*
X43779D01*
X43253Y572770D01*
X43872Y573389D01*
X44448Y574778D01*
Y576282D01*
X43872Y577671D01*
X42809Y578735D01*
X41419Y579310D01*
X39916D01*
X38526Y578735D01*
X37463Y577671D01*
X36888Y576282D01*
Y574778D01*
X37463Y573389D01*
X38087Y572765D01*
X38100Y571500D01*
X38100Y571127D01*
Y487705D01*
X37660Y487266D01*
X37085Y485876D01*
Y484373D01*
X37660Y482983D01*
X38100Y482544D01*
Y161290D01*
X49354Y150036D01*
X92623D01*
X93472Y148766D01*
X93308Y148370D01*
Y146866D01*
X93883Y145477D01*
X94947Y144413D01*
X96336Y143838D01*
X97840D01*
X99229Y144413D01*
X100293Y145477D01*
X100868Y146866D01*
Y148370D01*
X100704Y148766D01*
X101553Y150036D01*
X248920D01*
Y189318D01*
X251372Y191770D01*
X273552D01*
X275590Y189732D01*
Y102850D01*
X266720Y93980D01*
X14355D01*
Y145503D01*
X14355Y155503D01*
Y415503D01*
X14355Y425503D01*
Y652780D01*
X125666D01*
X125686Y688473D01*
X126417D01*
X127807Y689048D01*
X128870Y690111D01*
X129445Y691501D01*
Y693004D01*
X128870Y694394D01*
X127807Y695457D01*
X126417Y696032D01*
X125690Y696760D01*
X125730Y767080D01*
X148590D01*
X150446Y765224D01*
D02*
G37*
G36*
X182880Y684160D02*
X335280D01*
Y669290D01*
X182880D01*
Y569563D01*
X241658D01*
X242167Y568802D01*
X243417Y567967D01*
X244892Y567673D01*
X246367Y567967D01*
X247617Y568802D01*
X248125Y569563D01*
X252720D01*
X253228Y568802D01*
X254478Y567967D01*
X255953Y567673D01*
X257428Y567967D01*
X258678Y568802D01*
X259186Y569563D01*
X263781D01*
X264289Y568802D01*
X265539Y567967D01*
X267014Y567673D01*
X268489Y567967D01*
X269739Y568802D01*
X270247Y569563D01*
X274842D01*
X275350Y568802D01*
X276600Y567967D01*
X278075Y567673D01*
X279550Y567967D01*
X280801Y568802D01*
X281309Y569563D01*
X358227D01*
X358735Y568802D01*
X359985Y567967D01*
X361460Y567673D01*
X362935Y567967D01*
X364186Y568802D01*
X364694Y569563D01*
X369288D01*
X369796Y568802D01*
X371047Y567967D01*
X372522Y567673D01*
X373996Y567967D01*
X375247Y568802D01*
X375755Y569563D01*
X380349D01*
X380858Y568802D01*
X382108Y567967D01*
X383583Y567673D01*
X385058Y567967D01*
X386308Y568802D01*
X386816Y569563D01*
X391411D01*
X391919Y568802D01*
X393169Y567967D01*
X394644Y567673D01*
X396119Y567967D01*
X397369Y568802D01*
X397877Y569563D01*
X501650D01*
Y542290D01*
X441119D01*
X439699Y542573D01*
X438279Y542290D01*
X324715D01*
X324351Y542533D01*
X322876Y542826D01*
X321401Y542533D01*
X321038Y542290D01*
X218240D01*
X216820Y542573D01*
X215400Y542290D01*
X208998D01*
X207578Y542573D01*
X206158Y542290D01*
X201262D01*
X196378Y547175D01*
X195369Y547849D01*
X194179Y548086D01*
X185515D01*
X184325Y547849D01*
X183316Y547175D01*
X178431Y542290D01*
X101672D01*
X100252Y542573D01*
X98831Y542290D01*
X92430D01*
X91009Y542573D01*
X89589Y542290D01*
X84694D01*
X80430Y546554D01*
X79421Y547228D01*
X78231Y547465D01*
X68220D01*
X67030Y547228D01*
X66021Y546554D01*
X61757Y542290D01*
X40640D01*
Y569563D01*
X125090D01*
X125598Y568802D01*
X126848Y567967D01*
X128323Y567673D01*
X129798Y567967D01*
X131049Y568802D01*
X131557Y569563D01*
X136151D01*
X136659Y568802D01*
X137910Y567967D01*
X139384Y567673D01*
X140859Y567967D01*
X142110Y568802D01*
X142618Y569563D01*
X147212D01*
X147720Y568802D01*
X148971Y567967D01*
X150446Y567673D01*
X151921Y567967D01*
X153171Y568802D01*
X154006Y570053D01*
X154300Y571528D01*
X154006Y573002D01*
X153171Y574253D01*
X152400Y574768D01*
Y576414D01*
X152408Y576421D01*
X153670Y576976D01*
X154501Y576421D01*
X155976Y576127D01*
X157451Y576421D01*
X158701Y577256D01*
X159537Y578506D01*
X159830Y579981D01*
X159537Y581456D01*
X158701Y582707D01*
X157451Y583542D01*
X155976Y583835D01*
X154501Y583542D01*
X153670Y582986D01*
X152408Y583541D01*
X152400Y583549D01*
Y769629D01*
X121934D01*
Y732790D01*
X68359D01*
Y775749D01*
X68580Y775970D01*
Y795020D01*
X182880D01*
Y684160D01*
D02*
G37*
G36*
X217886Y540510D02*
X218065D01*
X218240Y540475D01*
X284570D01*
X284601Y540428D01*
X284959Y539205D01*
X284159Y538405D01*
X283584Y537016D01*
Y535512D01*
X284159Y534123D01*
X285223Y533060D01*
X286612Y532484D01*
X288116D01*
X289505Y533060D01*
X290568Y534123D01*
X291144Y535512D01*
Y537016D01*
X290568Y538405D01*
X289769Y539205D01*
X290127Y540428D01*
X290158Y540475D01*
X298638D01*
X299487Y539205D01*
X299366Y538915D01*
Y537411D01*
X298722Y536447D01*
X296511D01*
X295321Y536210D01*
X294312Y535536D01*
X265642Y506865D01*
X264705Y506977D01*
X264483Y507027D01*
X264218Y507169D01*
X263641Y508032D01*
X259271Y512403D01*
X259797Y513673D01*
X259872D01*
X261261Y514248D01*
X262324Y515312D01*
X262900Y516701D01*
Y518205D01*
X262324Y519594D01*
X261261Y520657D01*
X259872Y521233D01*
X258368D01*
X256979Y520657D01*
X255915Y519594D01*
X255340Y518205D01*
Y518130D01*
X254070Y517604D01*
X237640Y534033D01*
X236631Y534707D01*
X235441Y534944D01*
X219056D01*
X218961Y535039D01*
X217572Y535614D01*
X216068D01*
X214679Y535039D01*
X213615Y533976D01*
X213040Y532586D01*
Y531082D01*
X213615Y529693D01*
X214679Y528630D01*
X215335Y528358D01*
X215083Y527088D01*
X209057D01*
X208805Y528358D01*
X209461Y528630D01*
X210525Y529693D01*
X211100Y531082D01*
Y532586D01*
X210525Y533976D01*
X209461Y535039D01*
X208072Y535614D01*
X207938D01*
X204251Y539302D01*
X204737Y540475D01*
X206158D01*
X206333Y540510D01*
X206512D01*
X207578Y540722D01*
X208644Y540510D01*
X208823D01*
X208998Y540475D01*
X215400D01*
X215575Y540510D01*
X215754D01*
X216820Y540722D01*
X217886Y540510D01*
D02*
G37*
G36*
X196393Y538364D02*
X196387Y538338D01*
X195770Y537191D01*
X194648D01*
X193258Y536615D01*
X192195Y535552D01*
X191619Y534163D01*
Y532659D01*
X192195Y531269D01*
X193258Y530206D01*
X194648Y529631D01*
X194781D01*
X202633Y521779D01*
X203642Y521105D01*
X204832Y520868D01*
X208160D01*
X208413Y519598D01*
X207416Y519185D01*
X206352Y518122D01*
X205777Y516732D01*
Y515229D01*
X206352Y513839D01*
X207416Y512776D01*
X208805Y512201D01*
X210309D01*
X211698Y512776D01*
X212761Y513839D01*
X213337Y515229D01*
Y516732D01*
X212761Y518122D01*
X211698Y519185D01*
X210700Y519598D01*
X210953Y520868D01*
X225169D01*
X229447Y516590D01*
X229097Y515145D01*
X228366Y514842D01*
X227302Y513778D01*
X226727Y512389D01*
Y510885D01*
X227302Y509496D01*
X228366Y508433D01*
X229755Y507857D01*
X231259D01*
X232648Y508433D01*
X233711Y509496D01*
X234014Y510227D01*
X235460Y510577D01*
X252653Y493385D01*
Y453827D01*
X251480Y453341D01*
X217658Y487163D01*
X216649Y487837D01*
X215459Y488074D01*
X166387D01*
X146108Y508353D01*
X146634Y509622D01*
X147443D01*
X148833Y510198D01*
X149896Y511261D01*
X150471Y512651D01*
Y514154D01*
X149896Y515544D01*
X148833Y516607D01*
X147443Y517183D01*
X145939D01*
X144550Y516607D01*
X143487Y515544D01*
X142911Y514154D01*
Y513345D01*
X141641Y512820D01*
X120427Y534033D01*
X119418Y534707D01*
X118229Y534944D01*
X102487D01*
X102393Y535039D01*
X101003Y535614D01*
X99500D01*
X98110Y535039D01*
X97047Y533976D01*
X96472Y532586D01*
Y531083D01*
X95502Y530623D01*
X95500Y530623D01*
X94532Y531716D01*
Y532586D01*
X93956Y533976D01*
X92893Y535039D01*
X91504Y535614D01*
X91369D01*
X87682Y539302D01*
X88168Y540475D01*
X89589D01*
X89764Y540510D01*
X89943D01*
X91009Y540722D01*
X92076Y540510D01*
X92254D01*
X92430Y540475D01*
X98831D01*
X99007Y540510D01*
X99185D01*
X100252Y540722D01*
X101318Y540510D01*
X101496D01*
X101672Y540475D01*
X156154D01*
X156687Y539212D01*
X156112Y537823D01*
Y536319D01*
X156687Y534930D01*
X157750Y533866D01*
X159140Y533291D01*
X160644D01*
X162033Y533866D01*
X163096Y534930D01*
X163672Y536319D01*
Y537823D01*
X163096Y539212D01*
X163629Y540475D01*
X175443D01*
X176463Y539205D01*
X176421Y538991D01*
Y526388D01*
X176658Y525198D01*
X177332Y524189D01*
X183376Y518145D01*
X184384Y517471D01*
X185575Y517235D01*
X191613D01*
X193662Y515186D01*
Y513899D01*
X192220Y512457D01*
X192086D01*
X190697Y511882D01*
X189634Y510818D01*
X189058Y509429D01*
Y507925D01*
X189634Y506536D01*
X190697Y505473D01*
X192086Y504897D01*
X193590D01*
X194979Y505473D01*
X196043Y506536D01*
X196618Y507925D01*
Y508059D01*
X198971Y510412D01*
X199645Y511421D01*
X199881Y512611D01*
Y516474D01*
X199645Y517664D01*
X198971Y518673D01*
X198971Y518673D01*
X195100Y522543D01*
X194091Y523217D01*
X192901Y523454D01*
X186863D01*
X182640Y527677D01*
Y536422D01*
X183910Y536674D01*
X184126Y536153D01*
X185189Y535090D01*
X186579Y534515D01*
X188082D01*
X189472Y535090D01*
X190535Y536153D01*
X191110Y537543D01*
Y539047D01*
X190535Y540436D01*
X190375Y540596D01*
X190901Y541866D01*
X192891D01*
X196393Y538364D01*
D02*
G37*
G36*
X414780Y539205D02*
X414695Y539001D01*
Y537497D01*
X415271Y536107D01*
X416334Y535044D01*
X417723Y534469D01*
X418568D01*
X419094Y533199D01*
X386241Y500346D01*
X319630D01*
X318440Y500109D01*
X317431Y499435D01*
X315526Y497530D01*
X314256Y497933D01*
X313680Y499322D01*
X312617Y500386D01*
X311228Y500961D01*
X309724D01*
X308335Y500386D01*
X307271Y499322D01*
X306696Y497933D01*
Y496429D01*
X307271Y495040D01*
X308335Y493977D01*
X309724Y493401D01*
X310127Y492131D01*
X286425Y468429D01*
X283291D01*
X283196Y468524D01*
X281807Y469100D01*
X280303D01*
X278914Y468524D01*
X278203Y467813D01*
X276933Y468311D01*
Y478722D01*
X317853Y519642D01*
X322645D01*
X323171Y518372D01*
X322921Y518122D01*
X322345Y516732D01*
Y515229D01*
X322921Y513839D01*
X323097Y513663D01*
X323124Y513562D01*
X322771Y512192D01*
X322242Y511994D01*
X321219Y512418D01*
X319715D01*
X318326Y511842D01*
X317262Y510779D01*
X316687Y509389D01*
Y507886D01*
X317262Y506496D01*
X318326Y505433D01*
X319715Y504858D01*
X321219D01*
X322608Y505433D01*
X322703Y505528D01*
X338981D01*
X340171Y505765D01*
X341180Y506439D01*
X343495Y508754D01*
X344069Y508646D01*
X344849Y508312D01*
X345340Y507126D01*
X346404Y506063D01*
X347793Y505487D01*
X349297D01*
X350686Y506063D01*
X351750Y507126D01*
X352325Y508516D01*
Y510019D01*
X351750Y511409D01*
X350686Y512472D01*
X349297Y513047D01*
X347793D01*
X347280Y512835D01*
X346010Y513683D01*
Y531359D01*
X345773Y532549D01*
X345099Y533558D01*
X339574Y539083D01*
X339392Y539205D01*
X339777Y540475D01*
X400401D01*
X400927Y539205D01*
X400455Y538734D01*
X399880Y537344D01*
Y535840D01*
X400455Y534451D01*
X401519Y533388D01*
X402908Y532812D01*
X404412D01*
X405801Y533388D01*
X406864Y534451D01*
X407440Y535840D01*
Y537344D01*
X406864Y538734D01*
X406393Y539205D01*
X406919Y540475D01*
X413932D01*
X414780Y539205D01*
D02*
G37*
G36*
X443296Y532877D02*
X443136Y532716D01*
X442532Y532023D01*
X442490Y531954D01*
X442465Y531897D01*
X442457Y531854D01*
X440477Y533834D01*
X440520Y533842D01*
X440576Y533867D01*
X440646Y533909D01*
X440728Y533968D01*
X440933Y534136D01*
X441190Y534371D01*
X441500Y534674D01*
X443296Y532877D01*
D02*
G37*
G36*
X326728D02*
X326568Y532716D01*
X325963Y532023D01*
X325922Y531954D01*
X325897Y531897D01*
X325889Y531854D01*
X323909Y533834D01*
X323952Y533842D01*
X324008Y533867D01*
X324077Y533909D01*
X324160Y533968D01*
X324364Y534136D01*
X324622Y534371D01*
X324932Y534674D01*
X326728Y532877D01*
D02*
G37*
G36*
X206439Y534514D02*
X207132Y533909D01*
X207201Y533867D01*
X207257Y533842D01*
X207300Y533834D01*
X205320Y531854D01*
X205312Y531897D01*
X205287Y531954D01*
X205245Y532023D01*
X205187Y532105D01*
X205019Y532310D01*
X204784Y532567D01*
X204481Y532877D01*
X206277Y534674D01*
X206439Y534514D01*
D02*
G37*
G36*
X89870D02*
X90563Y533909D01*
X90632Y533867D01*
X90689Y533842D01*
X90732Y533834D01*
X88752Y531854D01*
X88744Y531897D01*
X88719Y531954D01*
X88677Y532023D01*
X88618Y532105D01*
X88451Y532310D01*
X88215Y532567D01*
X87913Y532877D01*
X89709Y534674D01*
X89870Y534514D01*
D02*
G37*
G36*
X305937Y531786D02*
X305912Y531796D01*
X305864Y531806D01*
X305793Y531815D01*
X305585Y531829D01*
X304670Y531843D01*
X304295Y534383D01*
X304521Y534385D01*
X305219Y534429D01*
X305341Y534450D01*
X305443Y534474D01*
X305524Y534501D01*
X305584Y534533D01*
X305623Y534568D01*
X305937Y531786D01*
D02*
G37*
G36*
X197407Y533348D02*
X197432Y533292D01*
X197474Y533222D01*
X197533Y533140D01*
X197701Y532935D01*
X197936Y532678D01*
X198238Y532368D01*
X196442Y530572D01*
X196281Y530732D01*
X195588Y531336D01*
X195519Y531378D01*
X195462Y531403D01*
X195419Y531411D01*
X197399Y533391D01*
X197407Y533348D01*
D02*
G37*
G36*
X423650Y531340D02*
X423602Y531334D01*
X423541Y531311D01*
X423468Y531271D01*
X423382Y531214D01*
X423284Y531140D01*
X423049Y530940D01*
X422602Y530514D01*
X420920Y532424D01*
X421081Y532585D01*
X421734Y533328D01*
X421760Y533378D01*
X421769Y533415D01*
X423650Y531340D01*
D02*
G37*
G36*
X76070Y533274D02*
X76095Y533218D01*
X76137Y533148D01*
X76196Y533066D01*
X76364Y532861D01*
X76599Y532604D01*
X76901Y532294D01*
X75106Y530498D01*
X74944Y530658D01*
X74251Y531262D01*
X74182Y531304D01*
X74125Y531329D01*
X74082Y531337D01*
X76062Y533317D01*
X76070Y533274D01*
D02*
G37*
G36*
X218284Y533210D02*
X218342Y533188D01*
X218420Y533168D01*
X218520Y533151D01*
X218783Y533125D01*
X219132Y533110D01*
X219565Y533104D01*
Y530564D01*
X219338Y530563D01*
X218420Y530501D01*
X218342Y530481D01*
X218284Y530459D01*
X218248Y530434D01*
Y533234D01*
X218284Y533210D01*
D02*
G37*
G36*
X101716D02*
X101773Y533188D01*
X101852Y533168D01*
X101952Y533151D01*
X102215Y533125D01*
X102563Y533110D01*
X102997Y533104D01*
Y530564D01*
X102769Y530563D01*
X101852Y530501D01*
X101773Y530481D01*
X101716Y530459D01*
X101680Y530434D01*
Y533234D01*
X101716Y533210D01*
D02*
G37*
G36*
X323643Y540824D02*
X323707Y540781D01*
X323872Y540713D01*
X324021Y540613D01*
X324196Y540578D01*
X324361Y540510D01*
X324540D01*
X324715Y540475D01*
X326537D01*
X326922Y539205D01*
X326740Y539083D01*
X326740Y539083D01*
X323271Y535614D01*
X323137D01*
X321748Y535039D01*
X320684Y533976D01*
X320109Y532586D01*
Y531082D01*
X320684Y529693D01*
X321748Y528630D01*
X323137Y528054D01*
X323641Y526784D01*
X322718Y525862D01*
X316565D01*
X315375Y525625D01*
X314366Y524951D01*
X271922Y482507D01*
X270747Y482896D01*
X270651Y482971D01*
Y503079D01*
X297799Y530227D01*
X299929D01*
X301055Y530003D01*
X301055Y530003D01*
X305370D01*
X306448Y529557D01*
X307951D01*
X309341Y530132D01*
X310404Y531196D01*
X310979Y532585D01*
Y534089D01*
X310404Y535478D01*
X309341Y536541D01*
X307951Y537117D01*
X307123D01*
X306926Y537411D01*
Y538915D01*
X306806Y539205D01*
X307655Y540475D01*
X321038D01*
X321213Y540510D01*
X321392D01*
X321557Y540578D01*
X321732Y540613D01*
X321881Y540713D01*
X322046Y540781D01*
X322110Y540824D01*
X322876Y540976D01*
X323643Y540824D01*
D02*
G37*
G36*
X333157Y529848D02*
X333104Y529845D01*
X333040Y529824D01*
X332963Y529786D01*
X332874Y529731D01*
X332774Y529659D01*
X332536Y529462D01*
X332249Y529197D01*
X332088Y529038D01*
X330542Y531084D01*
X331398Y532027D01*
X333157Y529848D01*
D02*
G37*
G36*
X449937Y529835D02*
X449894Y529826D01*
X449838Y529801D01*
X449768Y529760D01*
X449686Y529701D01*
X449481Y529533D01*
X449224Y529298D01*
X448914Y528995D01*
X447118Y530791D01*
X447278Y530953D01*
X447882Y531646D01*
X447924Y531715D01*
X447949Y531771D01*
X447957Y531814D01*
X449937Y529835D01*
D02*
G37*
G36*
X81499Y512227D02*
X82192Y511622D01*
X82261Y511580D01*
X82318Y511555D01*
X82361Y511547D01*
X80381Y509567D01*
X80373Y509610D01*
X80348Y509667D01*
X80306Y509736D01*
X80247Y509819D01*
X80079Y510023D01*
X79844Y510280D01*
X79542Y510591D01*
X81338Y512387D01*
X81499Y512227D01*
D02*
G37*
G36*
X195677Y509720D02*
X195518Y509558D01*
X194913Y508866D01*
X194871Y508796D01*
X194846Y508740D01*
X194838Y508697D01*
X192858Y510677D01*
X192901Y510685D01*
X192957Y510710D01*
X193027Y510752D01*
X193109Y510810D01*
X193314Y510978D01*
X193571Y511213D01*
X193881Y511516D01*
X195677Y509720D01*
D02*
G37*
G36*
X434270Y504737D02*
X434110Y504576D01*
X433506Y503883D01*
X433464Y503814D01*
X433439Y503757D01*
X433431Y503714D01*
X431451Y505694D01*
X431494Y505702D01*
X431550Y505727D01*
X431620Y505769D01*
X431702Y505828D01*
X431907Y505996D01*
X432164Y506231D01*
X432474Y506534D01*
X434270Y504737D01*
D02*
G37*
G36*
X258333Y504545D02*
Y498297D01*
X257063Y497771D01*
X228656Y526177D01*
X227647Y526851D01*
X226457Y527088D01*
X219611D01*
X219095Y528358D01*
X219471Y528725D01*
X234153D01*
X258333Y504545D01*
D02*
G37*
G36*
X440765Y540510D02*
X440944D01*
X441119Y540475D01*
X443105D01*
X443490Y539205D01*
X443308Y539083D01*
X439839Y535614D01*
X439705D01*
X438316Y535039D01*
X437253Y533976D01*
X436677Y532586D01*
Y531082D01*
X437253Y529693D01*
X438316Y528630D01*
X439705Y528054D01*
X439983D01*
X440509Y526784D01*
X410326Y496601D01*
X409249Y497320D01*
X409399Y497681D01*
Y499185D01*
X408823Y500574D01*
X407760Y501638D01*
X406371Y502213D01*
X404867D01*
X403477Y501638D01*
X402414Y500574D01*
X401839Y499185D01*
Y497681D01*
X402414Y496292D01*
X402621Y496085D01*
X402095Y494815D01*
X391302D01*
X390776Y496085D01*
X424248Y529557D01*
X424520D01*
X425909Y530132D01*
X426973Y531196D01*
X427548Y532585D01*
Y534089D01*
X426973Y535478D01*
X425909Y536541D01*
X424520Y537117D01*
X423429D01*
X422891Y537291D01*
X422255Y538176D01*
Y539001D01*
X422171Y539205D01*
X423019Y540475D01*
X438279D01*
X438454Y540510D01*
X438633D01*
X439699Y540722D01*
X440765Y540510D01*
D02*
G37*
G36*
X57274Y482511D02*
X57389Y481863D01*
X57579Y481292D01*
X57846Y480797D01*
X58189Y480378D01*
X58608Y480035D01*
X59103Y479768D01*
X59675Y479577D01*
X60322Y479463D01*
X61046Y479425D01*
Y475615D01*
X60322Y475577D01*
X59675Y475463D01*
X59103Y475272D01*
X58608Y475005D01*
X58189Y474663D01*
X57846Y474243D01*
X57579Y473748D01*
X57389Y473177D01*
X57274Y472529D01*
X57236Y471805D01*
X53426Y477520D01*
X57236Y483235D01*
X57274Y482511D01*
D02*
G37*
G36*
X282520Y466695D02*
X282577Y466673D01*
X282656Y466653D01*
X282755Y466636D01*
X283019Y466610D01*
X283367Y466595D01*
X283800Y466590D01*
Y464049D01*
X283573Y464048D01*
X282656Y463986D01*
X282577Y463966D01*
X282520Y463944D01*
X282484Y463919D01*
Y466720D01*
X282520Y466695D01*
D02*
G37*
G36*
X268813Y454976D02*
X268875Y454059D01*
X268895Y453980D01*
X268917Y453923D01*
X268942Y453887D01*
X266142D01*
X266166Y453923D01*
X266189Y453980D01*
X266208Y454059D01*
X266225Y454158D01*
X266251Y454422D01*
X266266Y454770D01*
X266272Y455203D01*
X268812D01*
X268813Y454976D01*
D02*
G37*
G36*
X116270Y446798D02*
Y435488D01*
X116175Y435393D01*
X115600Y434004D01*
Y432500D01*
X116175Y431110D01*
X117239Y430047D01*
X118628Y429472D01*
X118791D01*
X125833Y422430D01*
Y422326D01*
X126408Y420936D01*
X127471Y419873D01*
X128760Y419339D01*
X128889Y419238D01*
X129475Y418027D01*
X129398Y417892D01*
X55092D01*
X54997Y417987D01*
X53608Y418563D01*
X52104D01*
X50715Y417987D01*
X49651Y416924D01*
X49076Y415534D01*
Y414031D01*
X49256Y413595D01*
X48602Y412389D01*
X48020Y412262D01*
X46873Y413146D01*
Y418557D01*
X50710Y422393D01*
X57860D01*
X59050Y422630D01*
X60059Y423304D01*
X87976Y451220D01*
X88110D01*
X89499Y451796D01*
X90562Y452859D01*
X90953Y453802D01*
X91241Y454090D01*
X95244D01*
X95339Y453996D01*
X96728Y453420D01*
X98232D01*
X99621Y453996D01*
X99716Y454090D01*
X108978D01*
X116270Y446798D01*
D02*
G37*
G36*
X266660Y436393D02*
X267353Y435788D01*
X267423Y435746D01*
X267479Y435721D01*
X267522Y435713D01*
X265542Y433733D01*
X265534Y433776D01*
X265509Y433832D01*
X265467Y433902D01*
X265408Y433984D01*
X265241Y434189D01*
X265005Y434446D01*
X264703Y434756D01*
X266499Y436552D01*
X266660Y436393D01*
D02*
G37*
G36*
Y417647D02*
X267353Y417043D01*
X267423Y417001D01*
X267479Y416976D01*
X267522Y416968D01*
X265542Y414988D01*
X265534Y415031D01*
X265509Y415087D01*
X265467Y415157D01*
X265408Y415239D01*
X265241Y415444D01*
X265005Y415701D01*
X264703Y416011D01*
X266499Y417807D01*
X266660Y417647D01*
D02*
G37*
G36*
X270381Y397266D02*
X270221Y397104D01*
X269616Y396412D01*
X269575Y396342D01*
X269550Y396286D01*
X269542Y396243D01*
X267562Y398223D01*
X267605Y398231D01*
X267661Y398256D01*
X267730Y398298D01*
X267813Y398356D01*
X268017Y398524D01*
X268275Y398759D01*
X268585Y399062D01*
X270381Y397266D01*
D02*
G37*
G36*
X217674Y394717D02*
X217652Y394660D01*
X217633Y394581D01*
X217616Y394481D01*
X217590Y394218D01*
X217574Y393870D01*
X217569Y393436D01*
X215029D01*
X215028Y393664D01*
X214965Y394581D01*
X214946Y394660D01*
X214924Y394717D01*
X214899Y394753D01*
X217699D01*
X217674Y394717D01*
D02*
G37*
G36*
X270381Y378521D02*
X270221Y378359D01*
X269616Y377667D01*
X269575Y377597D01*
X269550Y377541D01*
X269542Y377498D01*
X267562Y379478D01*
X267605Y379486D01*
X267661Y379511D01*
X267730Y379553D01*
X267813Y379611D01*
X268017Y379779D01*
X268275Y380014D01*
X268585Y380317D01*
X270381Y378521D01*
D02*
G37*
G36*
X208939Y376333D02*
X208896Y376325D01*
X208840Y376300D01*
X208771Y376258D01*
X208688Y376200D01*
X208484Y376032D01*
X208226Y375797D01*
X207916Y375494D01*
X206120Y377290D01*
X206280Y377452D01*
X206884Y378144D01*
X206926Y378214D01*
X206951Y378270D01*
X206959Y378313D01*
X208939Y376333D01*
D02*
G37*
G36*
X270381Y359776D02*
X270221Y359614D01*
X269616Y358922D01*
X269575Y358852D01*
X269550Y358796D01*
X269542Y358753D01*
X267562Y360733D01*
X267605Y360741D01*
X267661Y360766D01*
X267730Y360808D01*
X267813Y360866D01*
X268017Y361034D01*
X268275Y361269D01*
X268585Y361572D01*
X270381Y359776D01*
D02*
G37*
G36*
Y341031D02*
X270221Y340869D01*
X269616Y340176D01*
X269575Y340107D01*
X269550Y340051D01*
X269542Y340008D01*
X267562Y341988D01*
X267605Y341996D01*
X267661Y342021D01*
X267730Y342062D01*
X267813Y342121D01*
X268017Y342289D01*
X268275Y342524D01*
X268585Y342827D01*
X270381Y341031D01*
D02*
G37*
G36*
X180464Y339179D02*
X180527Y338262D01*
X180546Y338183D01*
X180568Y338126D01*
X180593Y338090D01*
X177793D01*
X177818Y338126D01*
X177840Y338183D01*
X177859Y338262D01*
X177876Y338362D01*
X177902Y338625D01*
X177918Y338973D01*
X177923Y339407D01*
X180463D01*
X180464Y339179D01*
D02*
G37*
G36*
X192158Y338917D02*
X192221Y338000D01*
X192240Y337921D01*
X192262Y337864D01*
X192287Y337828D01*
X189487D01*
X189512Y337864D01*
X189534Y337921D01*
X189553Y338000D01*
X189570Y338100D01*
X189596Y338363D01*
X189612Y338711D01*
X189617Y339145D01*
X192157D01*
X192158Y338917D01*
D02*
G37*
G36*
X47522Y539205D02*
X47307Y538687D01*
Y537183D01*
X47882Y535793D01*
X48391Y535284D01*
X48430Y535227D01*
X51574Y532082D01*
Y477520D01*
Y457476D01*
X51860Y456038D01*
X52675Y454819D01*
X58307Y449187D01*
X59526Y448372D01*
X60964Y448086D01*
X69043D01*
X69098Y448064D01*
X70602D01*
X71991Y448639D01*
X73054Y449702D01*
X73630Y451092D01*
Y452595D01*
X73054Y453985D01*
X71991Y455048D01*
X70602Y455624D01*
X69098D01*
X69043Y455601D01*
X62520D01*
X59089Y459032D01*
Y472365D01*
X59153Y472730D01*
X59251Y473026D01*
X59361Y473229D01*
X59479Y473373D01*
X59622Y473490D01*
X59826Y473600D01*
X60122Y473699D01*
X60486Y473763D01*
X103981D01*
X129184Y448560D01*
X130403Y447745D01*
X131280Y447571D01*
X131692Y447400D01*
X133195D01*
X133251Y447423D01*
X220157D01*
X228404Y439176D01*
X228427Y439121D01*
X229490Y438057D01*
X230879Y437482D01*
X232383D01*
X233773Y438057D01*
X234836Y439121D01*
X235411Y440510D01*
Y442014D01*
X234836Y443403D01*
X233773Y444467D01*
X233717Y444489D01*
X224370Y453837D01*
X223151Y454651D01*
X221713Y454937D01*
X133433D01*
X108194Y480177D01*
X106975Y480991D01*
X105537Y481277D01*
X60486D01*
X60122Y481342D01*
X59826Y481440D01*
X59622Y481550D01*
X59479Y481667D01*
X59361Y481811D01*
X59251Y482014D01*
X59153Y482310D01*
X59089Y482674D01*
Y526646D01*
X60359Y527172D01*
X78601Y508930D01*
Y508796D01*
X79176Y507406D01*
X80239Y506343D01*
X81629Y505768D01*
X83132D01*
X84522Y506343D01*
X85585Y507406D01*
X86161Y508796D01*
Y510299D01*
X85585Y511689D01*
X84522Y512752D01*
X83132Y513327D01*
X82998D01*
X65294Y531032D01*
Y535091D01*
X66564Y535617D01*
X67126Y535056D01*
X68515Y534480D01*
X69109D01*
X70093Y534152D01*
X70283Y533307D01*
Y532585D01*
X70858Y531196D01*
X71921Y530132D01*
X73311Y529557D01*
X73445D01*
X78416Y524585D01*
X79425Y523911D01*
X80615Y523675D01*
X114548D01*
X160615Y477607D01*
X161624Y476933D01*
X162814Y476696D01*
X210371D01*
X240460Y446607D01*
Y438940D01*
X240697Y437750D01*
X241371Y436741D01*
X263762Y414350D01*
Y414216D01*
X264337Y412827D01*
X265401Y411764D01*
X266790Y411188D01*
X268294D01*
X268426Y411243D01*
X269482Y410537D01*
Y402561D01*
X266924Y400003D01*
X266790D01*
X265401Y399428D01*
X264337Y398364D01*
X263762Y396975D01*
Y395471D01*
X264337Y394082D01*
X265401Y393018D01*
X266790Y392443D01*
X268294D01*
X269683Y393018D01*
X270746Y394082D01*
X271322Y395471D01*
Y395605D01*
X273711Y397995D01*
X274981Y397469D01*
Y389315D01*
X266924Y381258D01*
X266790D01*
X265401Y380683D01*
X264337Y379619D01*
X263762Y378230D01*
Y376726D01*
X264337Y375337D01*
X265401Y374273D01*
X266790Y373698D01*
X268294D01*
X269683Y374273D01*
X270746Y375337D01*
X271322Y376726D01*
Y376860D01*
X279665Y385204D01*
X280935Y384678D01*
Y376524D01*
X275298Y370887D01*
X275298Y370887D01*
X266924Y362513D01*
X266790D01*
X265401Y361937D01*
X264337Y360874D01*
X263762Y359485D01*
Y357981D01*
X264337Y356592D01*
X265401Y355528D01*
X266790Y354953D01*
X268294D01*
X269683Y355528D01*
X270746Y356592D01*
X271322Y357981D01*
Y358115D01*
X279696Y366489D01*
X279696Y366489D01*
X286244Y373037D01*
X286918Y374046D01*
X287155Y375236D01*
X287155Y375236D01*
Y435425D01*
X286918Y436615D01*
X286244Y437624D01*
X276933Y446935D01*
Y462328D01*
X278203Y462826D01*
X278914Y462115D01*
X280303Y461539D01*
X281807D01*
X283196Y462115D01*
X283291Y462210D01*
X287713D01*
X288903Y462447D01*
X289912Y463121D01*
X302123Y475331D01*
X303393Y474805D01*
Y380237D01*
X266924Y343768D01*
X266790D01*
X265401Y343192D01*
X264337Y342129D01*
X263762Y340740D01*
Y339236D01*
X264337Y337847D01*
X265001Y337183D01*
X264475Y335913D01*
X259817D01*
X255823Y339907D01*
Y413931D01*
X255586Y415121D01*
X254912Y416130D01*
X236399Y434643D01*
X235390Y435317D01*
X234200Y435554D01*
X149381D01*
X149381Y435554D01*
X148191Y435317D01*
X147182Y434643D01*
X134566Y422027D01*
X134348Y422082D01*
X133393Y422649D01*
Y423829D01*
X132817Y425219D01*
X131754Y426282D01*
X130365Y426857D01*
X130201D01*
X123160Y433899D01*
Y434004D01*
X122584Y435393D01*
X122490Y435488D01*
Y448086D01*
X122253Y449276D01*
X121579Y450285D01*
X112465Y459399D01*
X111456Y460073D01*
X110266Y460310D01*
X99716D01*
X99621Y460405D01*
X98232Y460980D01*
X96728D01*
X95339Y460405D01*
X95244Y460310D01*
X89953D01*
X89953Y460310D01*
X88763Y460073D01*
X87754Y459399D01*
X87135Y458780D01*
X86606D01*
X85217Y458204D01*
X84153Y457141D01*
X83578Y455752D01*
Y455618D01*
X56572Y428613D01*
X49422D01*
X49422Y428613D01*
X48231Y428376D01*
X47222Y427702D01*
X41564Y422043D01*
X41185Y421475D01*
X39915Y421861D01*
Y437899D01*
X41185Y438425D01*
X41622Y437988D01*
X43011Y437412D01*
X44515D01*
X45904Y437988D01*
X46968Y439051D01*
X47543Y440441D01*
Y441944D01*
X46968Y443334D01*
X45904Y444397D01*
X44515Y444972D01*
X43011D01*
X41622Y444397D01*
X41185Y443960D01*
X39915Y444486D01*
Y482544D01*
X39777Y483238D01*
X39383Y483827D01*
X39199Y484011D01*
X38900Y484734D01*
Y485515D01*
X39199Y486238D01*
X39383Y486422D01*
X39777Y487011D01*
X39915Y487705D01*
Y539324D01*
X40640Y540475D01*
X46673D01*
X47522Y539205D01*
D02*
G37*
G36*
X303055Y333252D02*
X302895Y333090D01*
X302290Y332397D01*
X302248Y332328D01*
X302224Y332272D01*
X302215Y332229D01*
X300236Y334209D01*
X300279Y334217D01*
X300335Y334242D01*
X300404Y334284D01*
X300487Y334342D01*
X300691Y334510D01*
X300949Y334745D01*
X301259Y335048D01*
X303055Y333252D01*
D02*
G37*
G36*
X384949Y316220D02*
X384789Y316059D01*
X384185Y315366D01*
X384143Y315296D01*
X384118Y315240D01*
X384110Y315197D01*
X382130Y317177D01*
X382173Y317185D01*
X382229Y317210D01*
X382299Y317252D01*
X382381Y317311D01*
X382586Y317478D01*
X382843Y317714D01*
X383153Y318016D01*
X384949Y316220D01*
D02*
G37*
G36*
X123293Y293564D02*
X123409Y293240D01*
X123601Y292955D01*
X123869Y292707D01*
X124215Y292497D01*
X124638Y292326D01*
X125137Y292192D01*
X125713Y292097D01*
X126366Y292040D01*
X127095Y292021D01*
Y288211D01*
X126366Y288192D01*
X125713Y288135D01*
X125137Y288040D01*
X124638Y287906D01*
X124215Y287735D01*
X123869Y287525D01*
X123601Y287278D01*
X123409Y286992D01*
X123293Y286668D01*
X123255Y286306D01*
Y293926D01*
X123293Y293564D01*
D02*
G37*
G36*
X305473Y230191D02*
X305587Y229544D01*
X305778Y228972D01*
X306045Y228477D01*
X306388Y228058D01*
X306807Y227715D01*
X307302Y227448D01*
X307873Y227258D01*
X308521Y227143D01*
X309245Y227105D01*
X311939Y223295D01*
X311242Y223269D01*
X310675Y223188D01*
X310238Y223053D01*
X309932Y222864D01*
X309755Y222622D01*
X309709Y222326D01*
X309792Y221975D01*
X310006Y221571D01*
X310349Y221113D01*
X310823Y220601D01*
X305435D01*
X304885Y221113D01*
X304313Y221571D01*
X303718Y221975D01*
X303101Y222326D01*
X302462Y222622D01*
X301800Y222864D01*
X301117Y223053D01*
X300410Y223188D01*
X299682Y223269D01*
X298931Y223295D01*
X297815Y227105D01*
X298539Y227143D01*
X299187Y227258D01*
X299758Y227448D01*
X300253Y227715D01*
X300672Y228058D01*
X301015Y228477D01*
X301282Y228972D01*
X301473Y229544D01*
X301587Y230191D01*
X301625Y230915D01*
X305435D01*
X305473Y230191D01*
D02*
G37*
G36*
X522023Y117647D02*
X522000Y117592D01*
Y116088D01*
X522575Y114699D01*
X523639Y113636D01*
X525028Y113060D01*
X526532D01*
X527921Y113636D01*
X528984Y114699D01*
X529560Y116088D01*
Y117592D01*
X529537Y117647D01*
Y186102D01*
X529590Y186145D01*
X568770D01*
X571390Y183526D01*
Y104870D01*
X571366Y104834D01*
X571227Y104140D01*
Y83095D01*
X524385D01*
X523691Y82957D01*
X523102Y82563D01*
X523013Y82474D01*
X522290Y82175D01*
X521508D01*
X520786Y82474D01*
X520697Y82563D01*
X520108Y82957D01*
X519413Y83095D01*
X517567D01*
X517314Y84365D01*
X517974Y84638D01*
X519037Y85701D01*
X519612Y87091D01*
Y88594D01*
X519037Y89984D01*
X517974Y91047D01*
X516584Y91622D01*
X515081D01*
X513691Y91047D01*
X512628Y89984D01*
X512052Y88594D01*
Y87091D01*
X512628Y85701D01*
X513691Y84638D01*
X514350Y84365D01*
X514098Y83095D01*
X459033D01*
X458339Y82957D01*
X457750Y82563D01*
X457682Y82632D01*
X456463Y83446D01*
X455025Y83732D01*
X433443D01*
X395138Y122037D01*
X395080Y122075D01*
X394571Y122584D01*
X393182Y123160D01*
X391678D01*
X391623Y123137D01*
X352512D01*
X352047Y123189D01*
X351482Y123296D01*
X350941Y123446D01*
X350420Y123637D01*
X349916Y123870D01*
X349428Y124147D01*
X348952Y124471D01*
X348587Y124763D01*
X325673Y147677D01*
Y174264D01*
X326943Y174516D01*
X326996Y174389D01*
X328059Y173326D01*
X329448Y172750D01*
X330952D01*
X332341Y173326D01*
X332458Y173442D01*
X332472Y173443D01*
X431358D01*
X431429Y173372D01*
X432819Y172796D01*
X434322D01*
X435712Y173372D01*
X436775Y174435D01*
X437351Y175824D01*
Y177328D01*
X436775Y178717D01*
X435712Y179781D01*
X434322Y180356D01*
X432819D01*
X431429Y179781D01*
X431312Y179664D01*
X431299Y179663D01*
X332413D01*
X332341Y179734D01*
X330952Y180310D01*
X329448D01*
X328059Y179734D01*
X326996Y178671D01*
X326943Y178544D01*
X325673Y178796D01*
Y201660D01*
X325737Y202025D01*
X325835Y202320D01*
X325945Y202524D01*
X326063Y202668D01*
X326206Y202785D01*
X326410Y202895D01*
X326706Y202994D01*
X327070Y203058D01*
X422790D01*
X424227Y203344D01*
X425446Y204158D01*
X430031Y208743D01*
X465365D01*
X466802Y209029D01*
X468021Y209843D01*
X470935Y212757D01*
X471968Y212551D01*
X472297Y212323D01*
X473293Y211326D01*
X474683Y210750D01*
X476187D01*
X477576Y211326D01*
X478639Y212389D01*
X479215Y213778D01*
Y215282D01*
X478639Y216672D01*
X477643Y217668D01*
X477414Y217997D01*
X477289Y218622D01*
X478196Y219663D01*
X522023D01*
Y117647D01*
D02*
G37*
G36*
X320560Y210902D02*
X321133Y210444D01*
X321727Y210040D01*
X322344Y209690D01*
X322984Y209394D01*
X323645Y209151D01*
X324329Y208962D01*
X325035Y208828D01*
X325764Y208747D01*
X326515Y208720D01*
X327630Y204910D01*
X326907Y204872D01*
X326259Y204758D01*
X325687Y204567D01*
X325192Y204300D01*
X324773Y203958D01*
X324430Y203538D01*
X324163Y203043D01*
X323973Y202472D01*
X323858Y201824D01*
X323820Y201100D01*
X320010Y202216D01*
X319984Y202967D01*
X319903Y203695D01*
X319768Y204401D01*
X319579Y205085D01*
X319337Y205747D01*
X319041Y206386D01*
X318690Y207003D01*
X318286Y207598D01*
X317828Y208170D01*
X317316Y208720D01*
X320010Y211414D01*
X320560Y210902D01*
D02*
G37*
G36*
X432159Y175160D02*
X432123Y175183D01*
X432066Y175204D01*
X431988Y175223D01*
X431889Y175239D01*
X431626Y175263D01*
X431072Y175282D01*
X430845Y175283D01*
X430807Y177823D01*
X431034Y177824D01*
X431953Y177890D01*
X432032Y177910D01*
X432090Y177934D01*
X432126Y177960D01*
X432159Y175160D01*
D02*
G37*
G36*
X331647Y177923D02*
X331704Y177902D01*
X331782Y177883D01*
X331882Y177868D01*
X332144Y177843D01*
X332698Y177824D01*
X332926Y177823D01*
X332964Y175283D01*
X332737Y175282D01*
X331818Y175216D01*
X331739Y175196D01*
X331681Y175173D01*
X331644Y175147D01*
X331612Y177946D01*
X331647Y177923D01*
D02*
G37*
G36*
X347302Y123467D02*
X347874Y123009D01*
X348469Y122605D01*
X349085Y122255D01*
X349725Y121959D01*
X350386Y121716D01*
X351070Y121528D01*
X351776Y121393D01*
X352505Y121312D01*
X353256Y121285D01*
Y117475D01*
X352505Y117448D01*
X351776Y117367D01*
X351070Y117233D01*
X350386Y117044D01*
X349725Y116802D01*
X349085Y116505D01*
X348469Y116155D01*
X347874Y115751D01*
X347302Y115293D01*
X346752Y114781D01*
X343269Y116686D01*
X343753Y117225D01*
X344131Y117764D01*
X344400Y118302D01*
X344562Y118841D01*
X344616Y119380D01*
X344562Y119919D01*
X344400Y120458D01*
X344131Y120997D01*
X343753Y121535D01*
X343269Y122074D01*
X346752Y123979D01*
X347302Y123467D01*
D02*
G37*
G36*
X735365Y334010D02*
X723435Y334010D01*
Y315797D01*
X723432Y315782D01*
X723435Y315768D01*
Y275797D01*
X723432Y275782D01*
X723435Y275768D01*
Y235797D01*
X723432Y235782D01*
X723435Y235768D01*
Y195797D01*
X723432Y195782D01*
X723435Y195768D01*
Y170645D01*
X728698Y165382D01*
X728596Y164600D01*
X728892Y162347D01*
X729762Y160248D01*
X731145Y158445D01*
X732948Y157062D01*
X735047Y156192D01*
X737300Y155896D01*
X738082Y155998D01*
X749427Y144653D01*
Y83609D01*
X663710Y83609D01*
Y83609D01*
X662490Y83609D01*
X662440Y83609D01*
X655161D01*
X654776Y84879D01*
X654815Y84905D01*
X655650Y86155D01*
X655944Y87630D01*
X655650Y89105D01*
X654815Y90355D01*
X653564Y91191D01*
X652089Y91484D01*
X650615Y91191D01*
X649364Y90355D01*
X648529Y89105D01*
X648235Y87630D01*
X648529Y86155D01*
X649364Y84905D01*
X649403Y84879D01*
X649018Y83609D01*
X641689D01*
Y58070D01*
X625529D01*
X625000Y58140D01*
X624471Y58070D01*
X605529D01*
X605000Y58140D01*
X604471Y58070D01*
X585529D01*
X585000Y58140D01*
X584471Y58070D01*
X573042D01*
Y69261D01*
X573140Y70000D01*
X573042Y70739D01*
Y104140D01*
X573204D01*
Y184277D01*
X569522Y187960D01*
X529590D01*
Y200685D01*
X585014D01*
X592713Y192987D01*
X592713Y104140D01*
X641689D01*
Y197189D01*
X642620Y198120D01*
X662672D01*
X663710Y197082D01*
Y104089D01*
X710201D01*
Y344864D01*
X735365D01*
Y334010D01*
D02*
G37*
G36*
X835657Y754380D02*
Y706779D01*
X835657Y696779D01*
D01*
Y696779D01*
Y426780D01*
X835657Y416780D01*
D01*
Y416780D01*
Y156780D01*
X835657Y146780D01*
D01*
Y146780D01*
Y72941D01*
X831231Y62763D01*
X830656Y63181D01*
X826199Y65452D01*
X821442Y66997D01*
X816501Y67780D01*
X811499D01*
X806558Y66997D01*
X801801Y65452D01*
X797344Y63181D01*
X793297Y60240D01*
X789760Y56703D01*
X786819Y52656D01*
X784548Y48199D01*
X783002Y43442D01*
X782220Y38501D01*
Y33499D01*
X783002Y28558D01*
X784548Y23801D01*
X786819Y19344D01*
X787217Y18797D01*
X777049Y14349D01*
X700857D01*
X690857Y14349D01*
X690857D01*
D01*
X430857D01*
X420857Y14349D01*
X420857D01*
D01*
X161412D01*
Y81280D01*
X425268D01*
X429230Y77318D01*
X430449Y76504D01*
X431886Y76218D01*
X438730D01*
X437934Y75422D01*
X436772Y73408D01*
X436199Y71270D01*
X453801D01*
X453228Y73408D01*
X452066Y75422D01*
X451270Y76218D01*
X453469D01*
X455811Y73875D01*
X455971Y73666D01*
X456182Y73329D01*
X456367Y72966D01*
X456526Y72574D01*
X456659Y72149D01*
X456764Y71689D01*
X456839Y71191D01*
X456884Y70655D01*
X456896Y70027D01*
X456930Y69872D01*
Y68938D01*
X457480Y66885D01*
X458542Y65045D01*
X460045Y63542D01*
X461885Y62480D01*
X463938Y61930D01*
X466062D01*
X468115Y62480D01*
X469955Y63542D01*
X471458Y65045D01*
X472520Y66885D01*
X473070Y68938D01*
Y71062D01*
X472520Y73115D01*
X471458Y74955D01*
X469955Y76458D01*
X468115Y77520D01*
X466062Y78070D01*
X465129D01*
X464972Y78104D01*
X464345Y78116D01*
X463809Y78161D01*
X463311Y78236D01*
X462851Y78341D01*
X462426Y78474D01*
X462034Y78633D01*
X461671Y78818D01*
X461334Y79029D01*
X461125Y79189D01*
X459033Y81280D01*
X519413D01*
X519758Y80935D01*
X521147Y80360D01*
X522651D01*
X524041Y80935D01*
X524385Y81280D01*
X571227D01*
Y75185D01*
X569955Y76458D01*
X568115Y77520D01*
X566062Y78070D01*
X563938D01*
X561885Y77520D01*
X560045Y76458D01*
X558542Y74955D01*
X557480Y73115D01*
X556930Y71062D01*
Y68938D01*
X557480Y66885D01*
X558542Y65045D01*
X560045Y63542D01*
X561885Y62480D01*
X563938Y61930D01*
X566062D01*
X568115Y62480D01*
X569955Y63542D01*
X571227Y64815D01*
Y58070D01*
X571366Y57375D01*
X571759Y56787D01*
X572348Y56393D01*
X573042Y56255D01*
X579842D01*
X578542Y54955D01*
X577480Y53115D01*
X576930Y51062D01*
Y48938D01*
X577480Y46885D01*
X578542Y45045D01*
X580045Y43542D01*
X581885Y42480D01*
X583938Y41930D01*
X586062D01*
X588115Y42480D01*
X589955Y43542D01*
X591458Y45045D01*
X592520Y46885D01*
X593070Y48938D01*
Y51062D01*
X592520Y53115D01*
X591458Y54955D01*
X590158Y56255D01*
X599842D01*
X598542Y54955D01*
X597480Y53115D01*
X596930Y51062D01*
Y48938D01*
X597480Y46885D01*
X598542Y45045D01*
X600045Y43542D01*
X601885Y42480D01*
X603938Y41930D01*
X606062D01*
X608115Y42480D01*
X609955Y43542D01*
X611458Y45045D01*
X612520Y46885D01*
X613070Y48938D01*
Y51062D01*
X612520Y53115D01*
X611458Y54955D01*
X610158Y56255D01*
X619842D01*
X618542Y54955D01*
X617480Y53115D01*
X616930Y51062D01*
Y48938D01*
X617480Y46885D01*
X618542Y45045D01*
X620045Y43542D01*
X621885Y42480D01*
X623938Y41930D01*
X626062D01*
X628115Y42480D01*
X629955Y43542D01*
X631458Y45045D01*
X632520Y46885D01*
X633070Y48938D01*
Y51062D01*
X632520Y53115D01*
X631458Y54955D01*
X630158Y56255D01*
X641689D01*
X642383Y56393D01*
X642972Y56787D01*
X643365Y57375D01*
X643504Y58070D01*
Y81280D01*
X750570D01*
X787400Y118110D01*
Y485140D01*
X768350Y504190D01*
X702818Y504190D01*
Y754380D01*
X835657Y754380D01*
D02*
G37*
G36*
X459855Y77875D02*
X460299Y77536D01*
X460774Y77238D01*
X461279Y76980D01*
X461814Y76763D01*
X462379Y76587D01*
X462973Y76452D01*
X463598Y76357D01*
X464253Y76303D01*
X464937Y76290D01*
X458710Y70063D01*
X458697Y70747D01*
X458643Y71402D01*
X458548Y72027D01*
X458413Y72621D01*
X458237Y73186D01*
X458020Y73721D01*
X457762Y74226D01*
X457464Y74701D01*
X457125Y75146D01*
X456745Y75560D01*
X459440Y78254D01*
X459855Y77875D01*
D02*
G37*
G36*
X849806Y58532D02*
X849739Y57706D01*
X849538Y56401D01*
X847395Y46399D01*
X844871Y36000D01*
X847395Y25601D01*
X849538Y15599D01*
X849739Y14294D01*
X849806Y13468D01*
X838035Y12063D01*
Y12041D01*
X837997Y12003D01*
X837924Y12003D01*
X836571Y200D01*
X835750Y267D01*
X834449Y468D01*
X824447Y2607D01*
X814000Y5135D01*
X803553Y2607D01*
X793551Y468D01*
X792250Y267D01*
X791430Y200D01*
X777352Y12500D01*
X789981Y18025D01*
X806876Y12003D01*
X814000Y9464D01*
X833583Y16444D01*
X840530Y36000D01*
X832006Y59995D01*
X837506Y72641D01*
X849806Y58532D01*
D02*
G37*
G36*
X18057Y60043D02*
X9459Y36000D01*
X16457Y16430D01*
X36000Y9464D01*
X60019Y18026D01*
X72648Y12500D01*
X58571Y200D01*
X57750Y267D01*
X56450Y468D01*
X46447Y2607D01*
X36000Y5135D01*
X25553Y2607D01*
X15550Y468D01*
X14250Y267D01*
X13429Y200D01*
X12068Y11965D01*
X12041D01*
X12003Y12003D01*
X12003Y12081D01*
X206Y13390D01*
X5266Y36000D01*
X206Y58610D01*
X12506Y72656D01*
X18057Y60043D01*
D02*
G37*
%LPC*%
G36*
X663694Y749070D02*
X661306D01*
X658999Y748452D01*
X656931Y747258D01*
X655242Y745569D01*
X654048Y743501D01*
X653430Y741194D01*
Y738806D01*
X654048Y736499D01*
X655242Y734431D01*
X656931Y732742D01*
X658999Y731548D01*
X661306Y730930D01*
X663694D01*
X666001Y731548D01*
X668069Y732742D01*
X669758Y734431D01*
X670952Y736499D01*
X671570Y738806D01*
Y741194D01*
X670952Y743501D01*
X669758Y745569D01*
X668069Y747258D01*
X666001Y748452D01*
X663694Y749070D01*
D02*
G37*
G36*
X478694D02*
X476306D01*
X473999Y748452D01*
X471931Y747258D01*
X470242Y745569D01*
X469048Y743501D01*
X468430Y741194D01*
Y738806D01*
X469048Y736499D01*
X470242Y734431D01*
X471931Y732742D01*
X473999Y731548D01*
X476306Y730930D01*
X478694D01*
X481001Y731548D01*
X483069Y732742D01*
X484758Y734431D01*
X485952Y736499D01*
X486570Y738806D01*
Y741194D01*
X485952Y743501D01*
X484758Y745569D01*
X483069Y747258D01*
X481001Y748452D01*
X478694Y749070D01*
D02*
G37*
G36*
X353694D02*
X351306D01*
X348999Y748452D01*
X346931Y747258D01*
X345242Y745569D01*
X344048Y743501D01*
X343430Y741194D01*
Y738806D01*
X344048Y736499D01*
X345242Y734431D01*
X346931Y732742D01*
X348999Y731548D01*
X351306Y730930D01*
X353694D01*
X356001Y731548D01*
X358069Y732742D01*
X359758Y734431D01*
X360952Y736499D01*
X361570Y738806D01*
Y741194D01*
X360952Y743501D01*
X359758Y745569D01*
X358069Y747258D01*
X356001Y748452D01*
X353694Y749070D01*
D02*
G37*
G36*
X663694Y701570D02*
X661306D01*
X658999Y700952D01*
X656931Y699758D01*
X655242Y698069D01*
X654048Y696001D01*
X653430Y693694D01*
Y691306D01*
X654048Y688999D01*
X655242Y686931D01*
X656931Y685242D01*
X658999Y684048D01*
X661306Y683430D01*
X663694D01*
X666001Y684048D01*
X668069Y685242D01*
X669758Y686931D01*
X670952Y688999D01*
X671570Y691306D01*
Y693694D01*
X670952Y696001D01*
X669758Y698069D01*
X668069Y699758D01*
X666001Y700952D01*
X663694Y701570D01*
D02*
G37*
G36*
X478694D02*
X476306D01*
X473999Y700952D01*
X471931Y699758D01*
X470242Y698069D01*
X469048Y696001D01*
X468430Y693694D01*
Y691306D01*
X469048Y688999D01*
X470242Y686931D01*
X471931Y685242D01*
X473999Y684048D01*
X476306Y683430D01*
X478694D01*
X481001Y684048D01*
X483069Y685242D01*
X484758Y686931D01*
X485952Y688999D01*
X486570Y691306D01*
Y693694D01*
X485952Y696001D01*
X484758Y698069D01*
X483069Y699758D01*
X481001Y700952D01*
X478694Y701570D01*
D02*
G37*
G36*
X353694D02*
X351306D01*
X348999Y700952D01*
X346931Y699758D01*
X345242Y698069D01*
X344048Y696001D01*
X343430Y693694D01*
Y691306D01*
X344048Y688999D01*
X345242Y686931D01*
X346931Y685242D01*
X348999Y684048D01*
X351306Y683430D01*
X353694D01*
X356001Y684048D01*
X358069Y685242D01*
X359758Y686931D01*
X360952Y688999D01*
X361570Y691306D01*
Y693694D01*
X360952Y696001D01*
X359758Y698069D01*
X358069Y699758D01*
X356001Y700952D01*
X353694Y701570D01*
D02*
G37*
G36*
X640660Y682827D02*
X639156D01*
X637767Y682251D01*
X636703Y681188D01*
X636128Y679799D01*
Y678295D01*
X636703Y676906D01*
X637767Y675842D01*
X639156Y675267D01*
X640660D01*
X642049Y675842D01*
X643112Y676906D01*
X643688Y678295D01*
Y679799D01*
X643112Y681188D01*
X642049Y682251D01*
X640660Y682827D01*
D02*
G37*
G36*
X521111Y682566D02*
X519607D01*
X518218Y681991D01*
X517155Y680927D01*
X516579Y679538D01*
Y678034D01*
X517155Y676645D01*
X518218Y675582D01*
X519607Y675006D01*
X521111D01*
X522500Y675582D01*
X523564Y676645D01*
X524139Y678034D01*
Y679538D01*
X523564Y680927D01*
X522500Y681991D01*
X521111Y682566D01*
D02*
G37*
G36*
X560688Y677375D02*
X559184D01*
X557795Y676799D01*
X556732Y675736D01*
X556156Y674347D01*
Y672843D01*
X556732Y671453D01*
X557795Y670390D01*
X559184Y669815D01*
X560688D01*
X562077Y670390D01*
X563141Y671453D01*
X563716Y672843D01*
Y674347D01*
X563141Y675736D01*
X562077Y676799D01*
X560688Y677375D01*
D02*
G37*
G36*
X540752D02*
X539248D01*
X537859Y676799D01*
X536796Y675736D01*
X536220Y674347D01*
Y672843D01*
X536796Y671453D01*
X537859Y670390D01*
X539248Y669815D01*
X540752D01*
X542141Y670390D01*
X543205Y671453D01*
X543780Y672843D01*
Y674347D01*
X543205Y675736D01*
X542141Y676799D01*
X540752Y677375D01*
D02*
G37*
G36*
X600712Y677233D02*
X599209D01*
X597819Y676658D01*
X596756Y675594D01*
X596180Y674205D01*
Y672701D01*
X596756Y671312D01*
X597819Y670249D01*
X599209Y669673D01*
X600712D01*
X602102Y670249D01*
X603165Y671312D01*
X603741Y672701D01*
Y674205D01*
X603165Y675594D01*
X602102Y676658D01*
X600712Y677233D01*
D02*
G37*
G36*
X331206Y654030D02*
X329702D01*
X328313Y653455D01*
X327249Y652391D01*
X326674Y651002D01*
Y649498D01*
X327249Y648109D01*
X328313Y647046D01*
X329702Y646470D01*
X331206D01*
X332595Y647046D01*
X333658Y648109D01*
X334234Y649498D01*
Y651002D01*
X333658Y652391D01*
X332595Y653455D01*
X331206Y654030D01*
D02*
G37*
G36*
X290739Y653095D02*
X289235D01*
X287846Y652519D01*
X286782Y651456D01*
X286207Y650067D01*
Y648563D01*
X286782Y647173D01*
X287846Y646110D01*
X289235Y645535D01*
X290739D01*
X292128Y646110D01*
X293191Y647173D01*
X293767Y648563D01*
Y650067D01*
X293191Y651456D01*
X292128Y652519D01*
X290739Y653095D01*
D02*
G37*
G36*
X250669Y652781D02*
X249166D01*
X247776Y652205D01*
X246713Y651142D01*
X246138Y649753D01*
Y648249D01*
X246713Y646860D01*
X247776Y645796D01*
X249166Y645221D01*
X250669D01*
X252059Y645796D01*
X253122Y646860D01*
X253697Y648249D01*
Y649753D01*
X253122Y651142D01*
X252059Y652205D01*
X250669Y652781D01*
D02*
G37*
G36*
X210724Y652404D02*
X209220D01*
X207831Y651829D01*
X206768Y650766D01*
X206192Y649376D01*
Y647873D01*
X206768Y646483D01*
X207831Y645420D01*
X209220Y644845D01*
X210724D01*
X212113Y645420D01*
X213177Y646483D01*
X213752Y647873D01*
Y649376D01*
X213177Y650766D01*
X212113Y651829D01*
X210724Y652404D01*
D02*
G37*
G36*
X489543Y524697D02*
X488039D01*
X486650Y524121D01*
X485587Y523058D01*
X485011Y521669D01*
Y520165D01*
X485587Y518775D01*
X486650Y517712D01*
X488039Y517137D01*
X489543D01*
X490932Y517712D01*
X491996Y518775D01*
X492571Y520165D01*
Y521669D01*
X491996Y523058D01*
X490932Y524121D01*
X489543Y524697D01*
D02*
G37*
G36*
X448467Y511218D02*
X446963D01*
X445574Y510643D01*
X444510Y509579D01*
X443935Y508190D01*
Y506686D01*
X444510Y505297D01*
X445574Y504234D01*
X446963Y503658D01*
X448467D01*
X449856Y504234D01*
X450919Y505297D01*
X451495Y506686D01*
Y508190D01*
X450919Y509579D01*
X449856Y510643D01*
X448467Y511218D01*
D02*
G37*
G36*
X443275Y503716D02*
X441771D01*
X440382Y503141D01*
X439319Y502078D01*
X438743Y500688D01*
Y499184D01*
X439319Y497795D01*
X440382Y496732D01*
X441771Y496156D01*
X443275D01*
X444664Y496732D01*
X445728Y497795D01*
X446303Y499184D01*
Y500688D01*
X445728Y502078D01*
X444664Y503141D01*
X443275Y503716D01*
D02*
G37*
G36*
X460975Y503589D02*
X459472D01*
X458082Y503013D01*
X457019Y501950D01*
X456443Y500561D01*
Y499057D01*
X457019Y497668D01*
X458082Y496604D01*
X459472Y496029D01*
X460975D01*
X462365Y496604D01*
X463428Y497668D01*
X464003Y499057D01*
Y500561D01*
X463428Y501950D01*
X462365Y503013D01*
X460975Y503589D01*
D02*
G37*
G36*
X528727Y479442D02*
X527223D01*
X525834Y478866D01*
X524770Y477803D01*
X524195Y476413D01*
Y474910D01*
X524770Y473520D01*
X525834Y472457D01*
X527223Y471882D01*
X528727D01*
X530116Y472457D01*
X531180Y473520D01*
X531755Y474910D01*
Y476413D01*
X531180Y477803D01*
X530116Y478866D01*
X528727Y479442D01*
D02*
G37*
G36*
X671643Y477041D02*
X670139D01*
X668750Y476466D01*
X667687Y475402D01*
X667111Y474013D01*
Y472509D01*
X667687Y471120D01*
X668750Y470057D01*
X670139Y469481D01*
X671643D01*
X673032Y470057D01*
X674096Y471120D01*
X674671Y472509D01*
Y474013D01*
X674096Y475402D01*
X673032Y476466D01*
X671643Y477041D01*
D02*
G37*
G36*
X324654Y471493D02*
X323150D01*
X321761Y470917D01*
X320698Y469854D01*
X320122Y468464D01*
Y466961D01*
X320698Y465571D01*
X321761Y464508D01*
X323150Y463932D01*
X324654D01*
X326044Y464508D01*
X327107Y465571D01*
X327682Y466961D01*
Y468464D01*
X327107Y469854D01*
X326044Y470917D01*
X324654Y471493D01*
D02*
G37*
G36*
X561340Y465929D02*
X559836D01*
X558447Y465354D01*
X557384Y464290D01*
X556808Y462901D01*
Y461397D01*
X557384Y460008D01*
X558447Y458945D01*
X559836Y458369D01*
X561340D01*
X562729Y458945D01*
X563793Y460008D01*
X564368Y461397D01*
Y462901D01*
X563793Y464290D01*
X562729Y465354D01*
X561340Y465929D01*
D02*
G37*
G36*
X540752Y655280D02*
X539248D01*
X537859Y654705D01*
X536796Y653641D01*
X536220Y652252D01*
Y650748D01*
X536796Y649359D01*
X537859Y648296D01*
X537914Y648273D01*
X543555Y642631D01*
Y547122D01*
X543533Y547067D01*
Y545564D01*
X544108Y544174D01*
X545171Y543111D01*
X546561Y542535D01*
X548064D01*
X549454Y543111D01*
X550710Y542571D01*
Y481937D01*
X534610Y465837D01*
X534476D01*
X533087Y465262D01*
X532023Y464198D01*
X531448Y462809D01*
Y461305D01*
X532023Y459916D01*
X533087Y458853D01*
X534476Y458277D01*
X535980D01*
X537369Y458853D01*
X538432Y459916D01*
X539008Y461305D01*
Y461439D01*
X556019Y478450D01*
X556693Y479459D01*
X556930Y480649D01*
Y631319D01*
X557024Y631413D01*
X557600Y632803D01*
Y634307D01*
X557024Y635696D01*
X555961Y636759D01*
X554572Y637335D01*
X553068D01*
X552340Y637033D01*
X551070Y637810D01*
Y644187D01*
X550784Y645625D01*
X549969Y646844D01*
X543227Y653586D01*
X543205Y653641D01*
X542141Y654705D01*
X540752Y655280D01*
D02*
G37*
G36*
X672503Y638452D02*
X665663D01*
X664473Y638215D01*
X663464Y637541D01*
X662898Y636976D01*
X662693D01*
X661304Y636400D01*
X660240Y635337D01*
X659665Y633948D01*
Y632444D01*
X660240Y631055D01*
X661304Y629991D01*
X662693Y629416D01*
X664197D01*
X665586Y629991D01*
X666649Y631055D01*
X667138Y632233D01*
X671215D01*
X676202Y627246D01*
Y470678D01*
X671039Y465515D01*
X648646D01*
X647456Y465279D01*
X646448Y464604D01*
X638315Y456472D01*
X635787D01*
X635692Y456567D01*
X634302Y457142D01*
X632799D01*
X631409Y456567D01*
X630346Y455504D01*
X629771Y454114D01*
Y452611D01*
X630346Y451221D01*
X631409Y450158D01*
X632799Y449582D01*
X634302D01*
X635692Y450158D01*
X635787Y450253D01*
X639603D01*
X640793Y450489D01*
X641802Y451163D01*
X646380Y455741D01*
X647331Y454971D01*
X646756Y453582D01*
Y452078D01*
X647331Y450689D01*
X648394Y449625D01*
X649784Y449050D01*
X651288D01*
X652677Y449625D01*
X653740Y450689D01*
X654316Y452078D01*
Y453582D01*
X653740Y454971D01*
X652677Y456035D01*
X651288Y456610D01*
X649784D01*
X648394Y456035D01*
X647624Y456986D01*
X649934Y459296D01*
X672327D01*
X673517Y459533D01*
X674526Y460207D01*
X681510Y467191D01*
X682185Y468200D01*
X682421Y469390D01*
Y628534D01*
X682185Y629724D01*
X681510Y630733D01*
X674702Y637541D01*
X673693Y638215D01*
X672503Y638452D01*
D02*
G37*
G36*
X481153Y459677D02*
X479650D01*
X478260Y459101D01*
X477197Y458038D01*
X476622Y456648D01*
Y455145D01*
X477197Y453755D01*
X478260Y452692D01*
X479650Y452117D01*
X481153D01*
X482543Y452692D01*
X483606Y453755D01*
X484182Y455145D01*
Y456648D01*
X483606Y458038D01*
X482543Y459101D01*
X481153Y459677D01*
D02*
G37*
G36*
X548160Y459231D02*
X546656D01*
X545267Y458655D01*
X544204Y457592D01*
X543628Y456203D01*
Y454699D01*
X544204Y453310D01*
X545267Y452246D01*
X546656Y451671D01*
X548160D01*
X549549Y452246D01*
X550613Y453310D01*
X551188Y454699D01*
Y456203D01*
X550613Y457592D01*
X549549Y458655D01*
X548160Y459231D01*
D02*
G37*
G36*
X450752Y456280D02*
X449248D01*
X447859Y455704D01*
X446795Y454641D01*
X446220Y453252D01*
Y451748D01*
X446795Y450359D01*
X447859Y449296D01*
X449248Y448720D01*
X450752D01*
X452141Y449296D01*
X453204Y450359D01*
X453780Y451748D01*
Y453252D01*
X453204Y454641D01*
X452141Y455704D01*
X450752Y456280D01*
D02*
G37*
G36*
X324602Y454627D02*
X323098D01*
X321709Y454052D01*
X320645Y452989D01*
X320070Y451599D01*
Y450096D01*
X320645Y448706D01*
X321709Y447643D01*
X323098Y447067D01*
X324602D01*
X325991Y447643D01*
X327054Y448706D01*
X327630Y450096D01*
Y451599D01*
X327054Y452989D01*
X325991Y454052D01*
X324602Y454627D01*
D02*
G37*
G36*
X486637Y452487D02*
X485133D01*
X483744Y451912D01*
X482680Y450848D01*
X482105Y449459D01*
Y447955D01*
X482680Y446566D01*
X483744Y445503D01*
X485133Y444927D01*
X486637D01*
X488026Y445503D01*
X489089Y446566D01*
X489665Y447955D01*
Y449459D01*
X489089Y450848D01*
X488026Y451912D01*
X486637Y452487D01*
D02*
G37*
G36*
X417705Y448445D02*
X416202D01*
X414812Y447870D01*
X413749Y446806D01*
X413174Y445417D01*
Y443913D01*
X413749Y442524D01*
X414812Y441461D01*
X416202Y440885D01*
X417705D01*
X419095Y441461D01*
X420158Y442524D01*
X420734Y443913D01*
Y445417D01*
X420158Y446806D01*
X419095Y447870D01*
X417705Y448445D01*
D02*
G37*
G36*
X386832Y437535D02*
X385328D01*
X383939Y436959D01*
X382876Y435896D01*
X382300Y434507D01*
Y433003D01*
X382876Y431614D01*
X383939Y430550D01*
X385328Y429975D01*
X386832D01*
X388221Y430550D01*
X389285Y431614D01*
X389860Y433003D01*
Y434507D01*
X389285Y435896D01*
X388221Y436959D01*
X386832Y437535D01*
D02*
G37*
G36*
X470802Y436280D02*
X469298D01*
X467909Y435704D01*
X466846Y434641D01*
X466270Y433252D01*
Y431748D01*
X466846Y430359D01*
X467909Y429296D01*
X469298Y428720D01*
X470802D01*
X472191Y429296D01*
X473255Y430359D01*
X473830Y431748D01*
Y433252D01*
X473255Y434641D01*
X472191Y435704D01*
X470802Y436280D01*
D02*
G37*
G36*
X450752D02*
X449248D01*
X447859Y435704D01*
X446795Y434641D01*
X446220Y433252D01*
Y431748D01*
X446795Y430359D01*
X447859Y429296D01*
X449248Y428720D01*
X450752D01*
X452141Y429296D01*
X453204Y430359D01*
X453780Y431748D01*
Y433252D01*
X453204Y434641D01*
X452141Y435704D01*
X450752Y436280D01*
D02*
G37*
G36*
X324602Y435882D02*
X323098D01*
X321709Y435307D01*
X320645Y434244D01*
X320070Y432854D01*
Y431351D01*
X320645Y429961D01*
X321518Y429089D01*
X320948Y428017D01*
X320902Y427962D01*
X319415D01*
X318026Y427387D01*
X316963Y426323D01*
X316387Y424934D01*
Y423430D01*
X316963Y422041D01*
X318026Y420978D01*
X319415Y420402D01*
X320919D01*
X322308Y420978D01*
X323372Y422041D01*
X323947Y423430D01*
Y424934D01*
X323372Y426323D01*
X322499Y427196D01*
X323069Y428268D01*
X323115Y428322D01*
X324602D01*
X325991Y428898D01*
X327054Y429961D01*
X327630Y431351D01*
Y432854D01*
X327054Y434244D01*
X325991Y435307D01*
X324602Y435882D01*
D02*
G37*
G36*
Y417137D02*
X323098D01*
X321709Y416562D01*
X320645Y415499D01*
X320070Y414109D01*
Y412606D01*
X320645Y411216D01*
X321709Y410153D01*
X323098Y409577D01*
X324602D01*
X325991Y410153D01*
X327054Y411216D01*
X327630Y412606D01*
Y414109D01*
X327054Y415499D01*
X325991Y416562D01*
X324602Y417137D01*
D02*
G37*
G36*
X423018Y393164D02*
X421515D01*
X420125Y392589D01*
X419062Y391525D01*
X418486Y390136D01*
Y389439D01*
X417238Y388581D01*
X416813Y388757D01*
X415309D01*
X413919Y388182D01*
X412856Y387118D01*
X412281Y385729D01*
Y384225D01*
X412856Y382836D01*
X413919Y381772D01*
X415309Y381197D01*
X416813D01*
X417317Y381406D01*
X417814Y381078D01*
X418396Y380479D01*
Y379189D01*
X418584Y378736D01*
X418409Y378509D01*
X417560Y377891D01*
X416453Y378349D01*
X414949D01*
X413560Y377773D01*
X412497Y376710D01*
X411921Y375321D01*
Y373817D01*
X412497Y372428D01*
X413560Y371364D01*
X414949Y370789D01*
X416453D01*
X417842Y371364D01*
X418906Y372428D01*
X419481Y373817D01*
Y375321D01*
X419294Y375773D01*
X419469Y376001D01*
X420318Y376619D01*
X421425Y376161D01*
X422928D01*
X424318Y376736D01*
X425381Y377799D01*
X425956Y379189D01*
Y380692D01*
X425381Y382082D01*
X424318Y383145D01*
X422928Y383721D01*
X421675D01*
X421044Y384124D01*
X420492Y384709D01*
X420492Y384718D01*
X421515Y385604D01*
X423018D01*
X424408Y386179D01*
X425471Y387243D01*
X426046Y388632D01*
Y390136D01*
X425471Y391525D01*
X424408Y392589D01*
X423018Y393164D01*
D02*
G37*
G36*
X202103Y412761D02*
X200599D01*
X199210Y412185D01*
X198147Y411122D01*
X197571Y409733D01*
Y408229D01*
X198003Y407187D01*
X198011Y406992D01*
Y394008D01*
X197687Y393683D01*
X197111Y392294D01*
Y390790D01*
X197687Y389400D01*
X198750Y388337D01*
X200139Y387762D01*
X201643D01*
X203032Y388337D01*
X204096Y389400D01*
X204671Y390790D01*
Y392294D01*
X204239Y393336D01*
X204231Y393531D01*
Y406515D01*
X204556Y406840D01*
X205131Y408229D01*
Y409733D01*
X204556Y411122D01*
X203493Y412185D01*
X202103Y412761D01*
D02*
G37*
G36*
X117255Y374976D02*
X115751D01*
X114362Y374401D01*
X113299Y373338D01*
X112723Y371948D01*
Y370444D01*
X113299Y369055D01*
X114362Y367992D01*
X115751Y367416D01*
X117255D01*
X118644Y367992D01*
X119708Y369055D01*
X120283Y370444D01*
Y371948D01*
X119708Y373338D01*
X118644Y374401D01*
X117255Y374976D01*
D02*
G37*
G36*
X105879Y374700D02*
X104375D01*
X102986Y374124D01*
X101923Y373061D01*
X101347Y371671D01*
Y370168D01*
X101923Y368778D01*
X102986Y367715D01*
X104375Y367139D01*
X105879D01*
X107269Y367715D01*
X108332Y368778D01*
X108907Y370168D01*
Y371671D01*
X108332Y373061D01*
X107269Y374124D01*
X105879Y374700D01*
D02*
G37*
G36*
X588762Y368270D02*
X587258D01*
X585869Y367695D01*
X584805Y366631D01*
X584230Y365242D01*
Y363738D01*
X584805Y362349D01*
X585869Y361286D01*
X587258Y360710D01*
X588762D01*
X590151Y361286D01*
X591214Y362349D01*
X591790Y363738D01*
Y365242D01*
X591214Y366631D01*
X590151Y367695D01*
X588762Y368270D01*
D02*
G37*
G36*
X580437Y363327D02*
X578933D01*
X577544Y362751D01*
X576480Y361688D01*
X575905Y360299D01*
Y358795D01*
X576480Y357406D01*
X577544Y356342D01*
X578933Y355767D01*
X580437D01*
X581826Y356342D01*
X582890Y357406D01*
X583465Y358795D01*
Y360299D01*
X582890Y361688D01*
X581826Y362751D01*
X580437Y363327D01*
D02*
G37*
G36*
X116853Y359855D02*
X115349D01*
X113959Y359280D01*
X112896Y358216D01*
X112321Y356827D01*
Y355323D01*
X112896Y353934D01*
X113959Y352870D01*
X115349Y352295D01*
X116853D01*
X118242Y352870D01*
X119305Y353934D01*
X119881Y355323D01*
Y356827D01*
X119305Y358216D01*
X118242Y359280D01*
X116853Y359855D01*
D02*
G37*
G36*
X106511Y359581D02*
X105007D01*
X103618Y359006D01*
X102554Y357942D01*
X101979Y356553D01*
Y355049D01*
X102554Y353660D01*
X103618Y352597D01*
X105007Y352021D01*
X106511D01*
X107900Y352597D01*
X108963Y353660D01*
X109539Y355049D01*
Y356553D01*
X108963Y357942D01*
X107900Y359006D01*
X106511Y359581D01*
D02*
G37*
G36*
X612776Y357679D02*
X611272D01*
X609883Y357104D01*
X608819Y356041D01*
X608244Y354651D01*
Y353148D01*
X608819Y351758D01*
X609883Y350695D01*
X611272Y350120D01*
X612776D01*
X614165Y350695D01*
X615228Y351758D01*
X615804Y353148D01*
Y354651D01*
X615228Y356041D01*
X614165Y357104D01*
X612776Y357679D01*
D02*
G37*
G36*
X603719Y353087D02*
X602215D01*
X600826Y352511D01*
X599763Y351448D01*
X599187Y350059D01*
Y349139D01*
X598094Y348271D01*
X598014Y348250D01*
X597942Y348280D01*
X596438D01*
X595049Y347705D01*
X593986Y346641D01*
X593410Y345252D01*
Y343748D01*
X593986Y342359D01*
X595049Y341296D01*
X596438Y340720D01*
X597942D01*
X599332Y341296D01*
X600395Y342359D01*
X600970Y343748D01*
Y344668D01*
X602063Y345536D01*
X602144Y345556D01*
X602215Y345527D01*
X603719D01*
X605108Y346102D01*
X606172Y347165D01*
X606747Y348555D01*
Y350059D01*
X606172Y351448D01*
X605108Y352511D01*
X603719Y353087D01*
D02*
G37*
G36*
X432958Y346280D02*
X431454D01*
X430065Y345704D01*
X429002Y344641D01*
X428426Y343252D01*
Y341748D01*
X429002Y340359D01*
X430065Y339296D01*
X431454Y338720D01*
X432958D01*
X434347Y339296D01*
X435410Y340359D01*
X435986Y341748D01*
Y343252D01*
X435410Y344641D01*
X434347Y345704D01*
X432958Y346280D01*
D02*
G37*
G36*
X475676Y346103D02*
X474172D01*
X472782Y345528D01*
X471719Y344464D01*
X471144Y343075D01*
Y341571D01*
X471719Y340182D01*
X472782Y339118D01*
X474172Y338543D01*
X475676D01*
X477065Y339118D01*
X478128Y340182D01*
X478704Y341571D01*
Y343075D01*
X478128Y344464D01*
X477065Y345528D01*
X475676Y346103D01*
D02*
G37*
G36*
X499862Y476220D02*
X498358D01*
X496969Y475644D01*
X495905Y474581D01*
X495330Y473192D01*
Y471688D01*
X495905Y470299D01*
X496000Y470204D01*
Y339138D01*
X495760Y338898D01*
X495184Y337508D01*
Y336005D01*
X495760Y334615D01*
X496823Y333552D01*
X498212Y332976D01*
X499716D01*
X501105Y333552D01*
X502169Y334615D01*
X502744Y336005D01*
Y337508D01*
X502220Y338775D01*
Y470204D01*
X502314Y470299D01*
X502890Y471688D01*
Y473192D01*
X502314Y474581D01*
X501251Y475644D01*
X499862Y476220D01*
D02*
G37*
G36*
X475718Y328943D02*
X474214D01*
X472825Y328368D01*
X471761Y327305D01*
X471186Y325915D01*
Y324412D01*
X471761Y323022D01*
X472825Y321959D01*
X474214Y321383D01*
X475718D01*
X477107Y321959D01*
X478170Y323022D01*
X478746Y324412D01*
Y325915D01*
X478170Y327305D01*
X477107Y328368D01*
X475718Y328943D01*
D02*
G37*
G36*
X432958Y328780D02*
X431454D01*
X430065Y328205D01*
X429002Y327141D01*
X428426Y325752D01*
Y324248D01*
X429002Y322859D01*
X430065Y321796D01*
X431454Y321220D01*
X432958D01*
X434347Y321796D01*
X435410Y322859D01*
X435986Y324248D01*
Y325752D01*
X435410Y327141D01*
X434347Y328205D01*
X432958Y328780D01*
D02*
G37*
G36*
X432348Y312053D02*
X430844D01*
X429455Y311477D01*
X428391Y310414D01*
X427816Y309025D01*
Y307521D01*
X428391Y306131D01*
X429455Y305068D01*
X430844Y304493D01*
X432348D01*
X433737Y305068D01*
X434801Y306131D01*
X435376Y307521D01*
Y309025D01*
X434801Y310414D01*
X433737Y311477D01*
X432348Y312053D01*
D02*
G37*
G36*
X475682Y311670D02*
X474179D01*
X472789Y311094D01*
X471726Y310031D01*
X471151Y308641D01*
Y307138D01*
X471726Y305748D01*
X472789Y304685D01*
X474179Y304110D01*
X475682D01*
X477072Y304685D01*
X478135Y305748D01*
X478711Y307138D01*
Y308641D01*
X478135Y310031D01*
X477072Y311094D01*
X475682Y311670D01*
D02*
G37*
G36*
X475750Y294476D02*
X474246D01*
X472857Y293901D01*
X471793Y292837D01*
X471218Y291448D01*
Y289944D01*
X471793Y288555D01*
X472857Y287491D01*
X474246Y286916D01*
X475750D01*
X477139Y287491D01*
X478203Y288555D01*
X478778Y289944D01*
Y291448D01*
X478203Y292837D01*
X477139Y293901D01*
X475750Y294476D01*
D02*
G37*
G36*
X391271Y285762D02*
X389767D01*
X388378Y285187D01*
X388004Y284812D01*
X381059D01*
X381059Y284812D01*
X379869Y284576D01*
X378860Y283902D01*
X378860Y283901D01*
X371103Y276145D01*
X353702D01*
X353702Y276145D01*
X352512Y275908D01*
X351503Y275234D01*
X336894Y260625D01*
X336760D01*
X335370Y260049D01*
X334307Y258986D01*
X333731Y257597D01*
Y256093D01*
X334307Y254704D01*
X335370Y253640D01*
X336760Y253065D01*
X338263D01*
X339653Y253640D01*
X340716Y254704D01*
X341292Y256093D01*
Y256227D01*
X354990Y269925D01*
X372391D01*
X373581Y270162D01*
X374590Y270836D01*
X382347Y278593D01*
X388824D01*
X389767Y278202D01*
X391271D01*
X392660Y278777D01*
X393724Y279841D01*
X394299Y281230D01*
Y282734D01*
X393724Y284123D01*
X392660Y285187D01*
X391271Y285762D01*
D02*
G37*
G36*
X116704Y275256D02*
X116586D01*
Y265986D01*
X125856D01*
Y266104D01*
X125138Y268784D01*
X123750Y271188D01*
X121788Y273150D01*
X119384Y274538D01*
X116704Y275256D01*
D02*
G37*
G36*
X114046D02*
X113928D01*
X111248Y274538D01*
X108844Y273150D01*
X106882Y271188D01*
X105494Y268784D01*
X104776Y266104D01*
Y265986D01*
X114046D01*
Y275256D01*
D02*
G37*
G36*
X763836Y274830D02*
X761564D01*
X759369Y274242D01*
X757401Y273106D01*
X755794Y271499D01*
X754658Y269531D01*
X754070Y267336D01*
Y265064D01*
X754658Y262869D01*
X755794Y260901D01*
X757401Y259294D01*
X759369Y258158D01*
X761564Y257570D01*
X763836D01*
X766031Y258158D01*
X767999Y259294D01*
X769606Y260901D01*
X770742Y262869D01*
X771330Y265064D01*
Y267336D01*
X770742Y269531D01*
X769606Y271499D01*
X767999Y273106D01*
X766031Y274242D01*
X763836Y274830D01*
D02*
G37*
G36*
X738436D02*
X736164D01*
X733969Y274242D01*
X732001Y273106D01*
X730394Y271499D01*
X729258Y269531D01*
X728670Y267336D01*
Y265064D01*
X729258Y262869D01*
X730394Y260901D01*
X732001Y259294D01*
X733969Y258158D01*
X736164Y257570D01*
X738436D01*
X740631Y258158D01*
X742599Y259294D01*
X744206Y260901D01*
X745342Y262869D01*
X745930Y265064D01*
Y267336D01*
X745342Y269531D01*
X744206Y271499D01*
X742599Y273106D01*
X740631Y274242D01*
X738436Y274830D01*
D02*
G37*
G36*
X531267Y248492D02*
X529763D01*
X528374Y247916D01*
X527311Y246853D01*
X526735Y245464D01*
Y243960D01*
X527311Y242571D01*
X528374Y241507D01*
X529763Y240932D01*
X531267D01*
X532657Y241507D01*
X533720Y242571D01*
X534295Y243960D01*
Y245464D01*
X533720Y246853D01*
X532657Y247916D01*
X531267Y248492D01*
D02*
G37*
G36*
X470702Y242544D02*
X469198D01*
X467809Y241968D01*
X466745Y240905D01*
X466170Y239516D01*
Y238012D01*
X466745Y236623D01*
X467809Y235559D01*
X469198Y234984D01*
X470702D01*
X472091Y235559D01*
X473155Y236623D01*
X473730Y238012D01*
Y239516D01*
X473155Y240905D01*
X472091Y241968D01*
X470702Y242544D01*
D02*
G37*
G36*
X524257Y241169D02*
X522753D01*
X521364Y240594D01*
X520300Y239530D01*
X519725Y238141D01*
Y236637D01*
X520300Y235248D01*
X521364Y234185D01*
X522753Y233609D01*
X524257D01*
X525646Y234185D01*
X526709Y235248D01*
X527285Y236637D01*
Y238141D01*
X526709Y239530D01*
X525646Y240594D01*
X524257Y241169D01*
D02*
G37*
G36*
X539943Y240961D02*
X538440D01*
X537050Y240385D01*
X535987Y239322D01*
X535411Y237933D01*
Y236429D01*
X535987Y235040D01*
X537050Y233976D01*
X538440Y233401D01*
X539943D01*
X541333Y233976D01*
X542396Y235040D01*
X542971Y236429D01*
Y237933D01*
X542396Y239322D01*
X541333Y240385D01*
X539943Y240961D01*
D02*
G37*
G36*
X763836Y249430D02*
X761564D01*
X759369Y248842D01*
X757401Y247706D01*
X755794Y246099D01*
X754658Y244131D01*
X754070Y241936D01*
Y239664D01*
X754658Y237469D01*
X755794Y235501D01*
X757401Y233894D01*
X759369Y232758D01*
X761564Y232170D01*
X763836D01*
X766031Y232758D01*
X767999Y233894D01*
X769606Y235501D01*
X770742Y237469D01*
X771330Y239664D01*
Y241936D01*
X770742Y244131D01*
X769606Y246099D01*
X767999Y247706D01*
X766031Y248842D01*
X763836Y249430D01*
D02*
G37*
G36*
X738436D02*
X736164D01*
X733969Y248842D01*
X732001Y247706D01*
X730394Y246099D01*
X729258Y244131D01*
X728670Y241936D01*
Y239664D01*
X729258Y237469D01*
X730394Y235501D01*
X732001Y233894D01*
X733969Y232758D01*
X736164Y232170D01*
X738436D01*
X740631Y232758D01*
X742599Y233894D01*
X744206Y235501D01*
X745342Y237469D01*
X745930Y239664D01*
Y241936D01*
X745342Y244131D01*
X744206Y246099D01*
X742599Y247706D01*
X740631Y248842D01*
X738436Y249430D01*
D02*
G37*
G36*
X486319Y236597D02*
X484816D01*
X483426Y236021D01*
X482363Y234958D01*
X481787Y233568D01*
Y232065D01*
X482363Y230675D01*
X483426Y229612D01*
X484816Y229036D01*
X486319D01*
X487709Y229612D01*
X488772Y230675D01*
X489347Y232065D01*
Y233568D01*
X488772Y234958D01*
X487709Y236021D01*
X486319Y236597D01*
D02*
G37*
G36*
X185801Y226368D02*
X184298D01*
X182908Y225793D01*
X181845Y224729D01*
X181269Y223340D01*
Y221836D01*
X181845Y220447D01*
X182908Y219384D01*
X184298Y218808D01*
X185801D01*
X187191Y219384D01*
X188254Y220447D01*
X188829Y221836D01*
Y223340D01*
X188254Y224729D01*
X187191Y225793D01*
X185801Y226368D01*
D02*
G37*
G36*
X763836Y224030D02*
X761564D01*
X759369Y223442D01*
X757401Y222306D01*
X755794Y220699D01*
X754658Y218731D01*
X754070Y216536D01*
Y214264D01*
X754658Y212069D01*
X755794Y210101D01*
X757401Y208494D01*
X759369Y207358D01*
X761564Y206770D01*
X763836D01*
X766031Y207358D01*
X767999Y208494D01*
X769606Y210101D01*
X770742Y212069D01*
X771330Y214264D01*
Y216536D01*
X770742Y218731D01*
X769606Y220699D01*
X767999Y222306D01*
X766031Y223442D01*
X763836Y224030D01*
D02*
G37*
G36*
X738436D02*
X736164D01*
X733969Y223442D01*
X732001Y222306D01*
X730394Y220699D01*
X729258Y218731D01*
X728670Y216536D01*
Y214264D01*
X729258Y212069D01*
X730394Y210101D01*
X732001Y208494D01*
X733969Y207358D01*
X736164Y206770D01*
X738436D01*
X740631Y207358D01*
X742599Y208494D01*
X744206Y210101D01*
X745342Y212069D01*
X745930Y214264D01*
Y216536D01*
X745342Y218731D01*
X744206Y220699D01*
X742599Y222306D01*
X740631Y223442D01*
X738436Y224030D01*
D02*
G37*
G36*
X116604Y223696D02*
X114028D01*
X111541Y223029D01*
X109311Y221742D01*
X107490Y219921D01*
X106202Y217691D01*
X105536Y215204D01*
Y212628D01*
X106202Y210141D01*
X107490Y207911D01*
X109311Y206090D01*
X111541Y204802D01*
X114028Y204136D01*
X116604D01*
X119091Y204802D01*
X121321Y206090D01*
X123142Y207911D01*
X124430Y210141D01*
X125096Y212628D01*
Y215204D01*
X124430Y217691D01*
X123142Y219921D01*
X121321Y221742D01*
X119091Y223029D01*
X116604Y223696D01*
D02*
G37*
G36*
X763836Y198630D02*
X761564D01*
X759369Y198042D01*
X757401Y196906D01*
X755794Y195299D01*
X754658Y193331D01*
X754070Y191136D01*
Y188864D01*
X754658Y186669D01*
X755794Y184701D01*
X757401Y183094D01*
X759369Y181958D01*
X761564Y181370D01*
X763836D01*
X766031Y181958D01*
X767999Y183094D01*
X769606Y184701D01*
X770742Y186669D01*
X771330Y188864D01*
Y191136D01*
X770742Y193331D01*
X769606Y195299D01*
X767999Y196906D01*
X766031Y198042D01*
X763836Y198630D01*
D02*
G37*
G36*
X738436D02*
X736164D01*
X733969Y198042D01*
X732001Y196906D01*
X730394Y195299D01*
X729258Y193331D01*
X728670Y191136D01*
Y188864D01*
X729258Y186669D01*
X730394Y184701D01*
X732001Y183094D01*
X733969Y181958D01*
X736164Y181370D01*
X738436D01*
X740631Y181958D01*
X742599Y183094D01*
X744206Y184701D01*
X745342Y186669D01*
X745930Y188864D01*
Y191136D01*
X745342Y193331D01*
X744206Y195299D01*
X742599Y196906D01*
X740631Y198042D01*
X738436Y198630D01*
D02*
G37*
G36*
X116604Y198296D02*
X114028D01*
X111541Y197630D01*
X109311Y196342D01*
X107490Y194521D01*
X106202Y192291D01*
X105536Y189804D01*
Y187229D01*
X106202Y184741D01*
X107490Y182511D01*
X109311Y180690D01*
X111541Y179403D01*
X114028Y178736D01*
X116604D01*
X119091Y179403D01*
X121321Y180690D01*
X123142Y182511D01*
X124430Y184741D01*
X125096Y187229D01*
Y189804D01*
X124430Y192291D01*
X123142Y194521D01*
X121321Y196342D01*
X119091Y197630D01*
X116604Y198296D01*
D02*
G37*
G36*
X763836Y173230D02*
X761564D01*
X759369Y172642D01*
X757401Y171506D01*
X755794Y169899D01*
X754658Y167931D01*
X754070Y165736D01*
Y163464D01*
X754658Y161269D01*
X755794Y159301D01*
X757401Y157694D01*
X759369Y156558D01*
X761564Y155970D01*
X763836D01*
X766031Y156558D01*
X767999Y157694D01*
X769606Y159301D01*
X770742Y161269D01*
X771330Y163464D01*
Y165736D01*
X770742Y167931D01*
X769606Y169899D01*
X767999Y171506D01*
X766031Y172642D01*
X763836Y173230D01*
D02*
G37*
G36*
X763970Y148581D02*
Y140470D01*
X772081D01*
X771450Y142824D01*
X770214Y144966D01*
X768466Y146714D01*
X766324Y147950D01*
X763970Y148581D01*
D02*
G37*
G36*
X761430Y148581D02*
X759076Y147950D01*
X756934Y146714D01*
X755186Y144966D01*
X753950Y142824D01*
X753319Y140470D01*
X761430D01*
Y148581D01*
D02*
G37*
G36*
Y137930D02*
X753319D01*
X753950Y135576D01*
X755186Y133434D01*
X756934Y131686D01*
X759076Y130450D01*
X761430Y129819D01*
Y137930D01*
D02*
G37*
G36*
X772081D02*
X763970D01*
Y129819D01*
X766324Y130450D01*
X768466Y131686D01*
X770214Y133434D01*
X771450Y135576D01*
X772081Y137930D01*
D02*
G37*
G36*
X772090Y123190D02*
X763970D01*
Y115070D01*
X772090D01*
Y123190D01*
D02*
G37*
G36*
X761430D02*
X753310D01*
Y115070D01*
X761430D01*
Y123190D01*
D02*
G37*
G36*
Y112530D02*
X753310D01*
Y104410D01*
X761430D01*
Y112530D01*
D02*
G37*
G36*
X98288Y86584D02*
X96784D01*
X95395Y86009D01*
X94331Y84945D01*
X93756Y83556D01*
Y82052D01*
X94331Y80663D01*
X95395Y79600D01*
X96784Y79024D01*
X98288D01*
X99677Y79600D01*
X100740Y80663D01*
X101316Y82052D01*
Y83556D01*
X100740Y84945D01*
X99677Y86009D01*
X98288Y86584D01*
D02*
G37*
%LPD*%
G36*
X555195Y632090D02*
X555173Y632033D01*
X555154Y631954D01*
X555137Y631855D01*
X555111Y631591D01*
X555095Y631243D01*
X555090Y630810D01*
X552550D01*
X552549Y631037D01*
X552486Y631954D01*
X552467Y632033D01*
X552445Y632090D01*
X552420Y632126D01*
X555220D01*
X555195Y632090D01*
D02*
G37*
G36*
X538067Y463100D02*
X537907Y462938D01*
X537302Y462246D01*
X537261Y462176D01*
X537236Y462120D01*
X537228Y462077D01*
X535248Y464057D01*
X535291Y464065D01*
X535347Y464090D01*
X535416Y464132D01*
X535499Y464190D01*
X535703Y464358D01*
X535961Y464594D01*
X536271Y464896D01*
X538067Y463100D01*
D02*
G37*
G36*
X635015Y454738D02*
X635072Y454716D01*
X635151Y454696D01*
X635251Y454679D01*
X635514Y454653D01*
X635862Y454638D01*
X636296Y454632D01*
Y452092D01*
X636068Y452091D01*
X635151Y452029D01*
X635072Y452009D01*
X635015Y451987D01*
X634979Y451962D01*
Y454762D01*
X635015Y454738D01*
D02*
G37*
G36*
X202578Y407401D02*
X202542Y407362D01*
X202511Y407301D01*
X202483Y407221D01*
X202458Y407119D01*
X202438Y406996D01*
X202408Y406689D01*
X202393Y406299D01*
X202391Y406073D01*
X199851Y406458D01*
X199796Y407723D01*
X202578Y407401D01*
D02*
G37*
G36*
X202391Y394064D02*
X202446Y392799D01*
X199665Y393122D01*
X199700Y393161D01*
X199732Y393221D01*
X199760Y393302D01*
X199784Y393404D01*
X199805Y393526D01*
X199834Y393833D01*
X199849Y394224D01*
X199851Y394450D01*
X202391Y394064D01*
D02*
G37*
%LPC*%
G36*
X135427Y740733D02*
X133923D01*
X132534Y740157D01*
X131470Y739094D01*
X130895Y737704D01*
Y736201D01*
X131470Y734811D01*
X132534Y733748D01*
X133923Y733173D01*
X135427D01*
X136816Y733748D01*
X137879Y734811D01*
X138455Y736201D01*
Y737704D01*
X137879Y739094D01*
X136816Y740157D01*
X135427Y740733D01*
D02*
G37*
G36*
X141487Y667517D02*
X139983D01*
X138594Y666942D01*
X137531Y665878D01*
X136955Y664489D01*
Y662985D01*
X137531Y661596D01*
X138594Y660533D01*
X139983Y659957D01*
X141487D01*
X142877Y660533D01*
X143940Y661596D01*
X144515Y662985D01*
Y664489D01*
X143940Y665878D01*
X142877Y666942D01*
X141487Y667517D01*
D02*
G37*
G36*
X53060Y651308D02*
X51556D01*
X50167Y650732D01*
X49104Y649669D01*
X48528Y648279D01*
Y646776D01*
X49104Y645386D01*
X50167Y644323D01*
X51556Y643748D01*
X53060D01*
X54450Y644323D01*
X55513Y645386D01*
X56088Y646776D01*
Y648279D01*
X55513Y649669D01*
X54450Y650732D01*
X53060Y651308D01*
D02*
G37*
G36*
X144262Y649251D02*
X142758D01*
X141369Y648675D01*
X140306Y647612D01*
X139730Y646223D01*
Y644719D01*
X140306Y643329D01*
X141369Y642266D01*
X142758Y641691D01*
X144262D01*
X145651Y642266D01*
X146714Y643329D01*
X147290Y644719D01*
Y646223D01*
X146714Y647612D01*
X145651Y648675D01*
X144262Y649251D01*
D02*
G37*
G36*
X46340Y641402D02*
X44836D01*
X43447Y640826D01*
X42384Y639763D01*
X41808Y638373D01*
Y636870D01*
X42384Y635480D01*
X43447Y634417D01*
X44836Y633842D01*
X46340D01*
X47730Y634417D01*
X48793Y635480D01*
X49368Y636870D01*
Y638373D01*
X48793Y639763D01*
X47730Y640826D01*
X46340Y641402D01*
D02*
G37*
G36*
X140469Y636664D02*
X138965D01*
X137576Y636088D01*
X136512Y635025D01*
X135937Y633636D01*
Y632132D01*
X136512Y630743D01*
X137576Y629679D01*
X138965Y629104D01*
X140469D01*
X141858Y629679D01*
X142922Y630743D01*
X143497Y632132D01*
Y633636D01*
X142922Y635025D01*
X141858Y636088D01*
X140469Y636664D01*
D02*
G37*
G36*
X53584Y622270D02*
X52080D01*
X50691Y621694D01*
X49627Y620631D01*
X49052Y619242D01*
Y617738D01*
X49627Y616349D01*
X50691Y615285D01*
X52080Y614710D01*
X53584D01*
X54973Y615285D01*
X56037Y616349D01*
X56612Y617738D01*
Y619242D01*
X56037Y620631D01*
X54973Y621694D01*
X53584Y622270D01*
D02*
G37*
G36*
Y612364D02*
X52080D01*
X50691Y611788D01*
X49627Y610725D01*
X49052Y609336D01*
Y607832D01*
X49627Y606443D01*
X50691Y605379D01*
X52080Y604804D01*
X53584D01*
X54973Y605379D01*
X56037Y606443D01*
X56612Y607832D01*
Y609336D01*
X56037Y610725D01*
X54973Y611788D01*
X53584Y612364D01*
D02*
G37*
G36*
X46950Y587764D02*
X45446D01*
X44057Y587188D01*
X42994Y586125D01*
X42418Y584736D01*
Y583232D01*
X42994Y581842D01*
X44057Y580779D01*
X45446Y580204D01*
X46950D01*
X48339Y580779D01*
X49403Y581842D01*
X49978Y583232D01*
Y584736D01*
X49403Y586125D01*
X48339Y587188D01*
X46950Y587764D01*
D02*
G37*
G36*
X35889D02*
X34385D01*
X32996Y587188D01*
X31932Y586125D01*
X31357Y584736D01*
Y583232D01*
X31932Y581842D01*
X32996Y580779D01*
X34385Y580204D01*
X35889D01*
X37278Y580779D01*
X38342Y581842D01*
X38917Y583232D01*
Y584736D01*
X38342Y586125D01*
X37278Y587188D01*
X35889Y587764D01*
D02*
G37*
G36*
X145667Y583761D02*
X144163D01*
X142774Y583186D01*
X141711Y582122D01*
X141135Y580733D01*
Y579229D01*
X141711Y577840D01*
X142774Y576777D01*
X144163Y576201D01*
X145667D01*
X147056Y576777D01*
X148120Y577840D01*
X148695Y579229D01*
Y580733D01*
X148120Y582122D01*
X147056Y583186D01*
X145667Y583761D01*
D02*
G37*
G36*
X134606D02*
X133102D01*
X131713Y583186D01*
X130649Y582122D01*
X130074Y580733D01*
Y579229D01*
X130649Y577840D01*
X131713Y576777D01*
X133102Y576201D01*
X134606D01*
X135995Y576777D01*
X137058Y577840D01*
X137634Y579229D01*
Y580733D01*
X137058Y582122D01*
X135995Y583186D01*
X134606Y583761D01*
D02*
G37*
G36*
X30358Y579310D02*
X28854D01*
X27465Y578735D01*
X26402Y577671D01*
X25826Y576282D01*
Y574778D01*
X26402Y573389D01*
X27465Y572325D01*
X28854Y571750D01*
X30358D01*
X31748Y572325D01*
X32811Y573389D01*
X33386Y574778D01*
Y576282D01*
X32811Y577671D01*
X31748Y578735D01*
X30358Y579310D01*
D02*
G37*
G36*
X57140Y138146D02*
X55636D01*
X54247Y137570D01*
X53183Y136507D01*
X52608Y135118D01*
Y133614D01*
X53183Y132225D01*
X54247Y131161D01*
X55636Y130586D01*
X57140D01*
X58529Y131161D01*
X59592Y132225D01*
X60168Y133614D01*
Y135118D01*
X59592Y136507D01*
X58529Y137570D01*
X57140Y138146D01*
D02*
G37*
G36*
X116604Y144908D02*
X114028D01*
X111541Y144242D01*
X109311Y142954D01*
X107490Y141133D01*
X106202Y138903D01*
X105536Y136416D01*
Y133840D01*
X106202Y131353D01*
X107490Y129123D01*
X109311Y127302D01*
X111541Y126014D01*
X114028Y125348D01*
X116604D01*
X119091Y126014D01*
X121321Y127302D01*
X123142Y129123D01*
X124430Y131353D01*
X125096Y133840D01*
Y136416D01*
X124430Y138903D01*
X123142Y141133D01*
X121321Y142954D01*
X119091Y144242D01*
X116604Y144908D01*
D02*
G37*
G36*
X247827Y126970D02*
X246323D01*
X244933Y126395D01*
X243870Y125331D01*
X243295Y123942D01*
Y122438D01*
X243870Y121049D01*
X244933Y119986D01*
X246323Y119410D01*
X247827D01*
X249216Y119986D01*
X250279Y121049D01*
X250855Y122438D01*
Y123942D01*
X250279Y125331D01*
X249216Y126395D01*
X247827Y126970D01*
D02*
G37*
G36*
X229329D02*
X227825D01*
X226436Y126395D01*
X225373Y125331D01*
X224797Y123942D01*
Y122438D01*
X225373Y121049D01*
X226436Y119986D01*
X227825Y119410D01*
X229329D01*
X230718Y119986D01*
X231782Y121049D01*
X232357Y122438D01*
Y123942D01*
X231782Y125331D01*
X230718Y126395D01*
X229329Y126970D01*
D02*
G37*
G36*
X247827Y115540D02*
X246323D01*
X244933Y114965D01*
X243870Y113901D01*
X243295Y112512D01*
Y111008D01*
X243870Y109619D01*
X244933Y108555D01*
X246323Y107980D01*
X247827D01*
X249216Y108555D01*
X250279Y109619D01*
X250855Y111008D01*
Y112512D01*
X250279Y113901D01*
X249216Y114965D01*
X247827Y115540D01*
D02*
G37*
G36*
X229329D02*
X227825D01*
X226436Y114965D01*
X225373Y113901D01*
X224797Y112512D01*
Y111008D01*
X225373Y109619D01*
X226436Y108555D01*
X227825Y107980D01*
X229329D01*
X230718Y108555D01*
X231782Y109619D01*
X232357Y111008D01*
Y112512D01*
X231782Y113901D01*
X230718Y114965D01*
X229329Y115540D01*
D02*
G37*
G36*
X116604Y119508D02*
X114028D01*
X111541Y118841D01*
X109311Y117554D01*
X107490Y115733D01*
X106202Y113503D01*
X105536Y111016D01*
Y108440D01*
X106202Y105953D01*
X107490Y103723D01*
X109311Y101902D01*
X111541Y100615D01*
X114028Y99948D01*
X116604D01*
X119091Y100615D01*
X121321Y101902D01*
X123142Y103723D01*
X124430Y105953D01*
X125096Y108440D01*
Y111016D01*
X124430Y113503D01*
X123142Y115733D01*
X121321Y117554D01*
X119091Y118841D01*
X116604Y119508D01*
D02*
G37*
G36*
X167500Y749148D02*
X165132Y748837D01*
X162926Y747923D01*
X161031Y746469D01*
X159577Y744574D01*
X158663Y742368D01*
X158352Y740000D01*
X158663Y737632D01*
X159577Y735426D01*
X161031Y733531D01*
X162926Y732077D01*
X165132Y731163D01*
X167500Y730852D01*
X169868Y731163D01*
X172074Y732077D01*
X173969Y733531D01*
X175423Y735426D01*
X176337Y737632D01*
X176648Y740000D01*
X176337Y742368D01*
X175423Y744574D01*
X173969Y746469D01*
X172074Y747923D01*
X169868Y748837D01*
X167500Y749148D01*
D02*
G37*
G36*
Y701648D02*
X165132Y701337D01*
X162926Y700423D01*
X161031Y698969D01*
X159577Y697074D01*
X158663Y694868D01*
X158352Y692500D01*
X158663Y690132D01*
X159577Y687926D01*
X161031Y686031D01*
X162926Y684577D01*
X165132Y683663D01*
X167500Y683352D01*
X169868Y683663D01*
X172074Y684577D01*
X173969Y686031D01*
X175423Y687926D01*
X176337Y690132D01*
X176648Y692500D01*
X176337Y694868D01*
X175423Y697074D01*
X173969Y698969D01*
X172074Y700423D01*
X169868Y701337D01*
X167500Y701648D01*
D02*
G37*
G36*
X161507Y575382D02*
X160032Y575088D01*
X158782Y574253D01*
X157946Y573002D01*
X157653Y571528D01*
X157946Y570053D01*
X158782Y568802D01*
X160032Y567967D01*
X161507Y567673D01*
X162982Y567967D01*
X164232Y568802D01*
X165068Y570053D01*
X165361Y571528D01*
X165068Y573002D01*
X164232Y574253D01*
X162982Y575088D01*
X161507Y575382D01*
D02*
G37*
G36*
X100843Y563559D02*
X99368Y563266D01*
X98118Y562430D01*
X97282Y561180D01*
X96989Y559705D01*
X97282Y558230D01*
X98118Y556980D01*
X99368Y556144D01*
X100843Y555851D01*
X102318Y556144D01*
X103568Y556980D01*
X104404Y558230D01*
X104697Y559705D01*
X104404Y561180D01*
X103568Y562430D01*
X102318Y563266D01*
X100843Y563559D01*
D02*
G37*
G36*
X217678Y562908D02*
X216203Y562615D01*
X214953Y561779D01*
X214117Y560529D01*
X213824Y559054D01*
X214117Y557579D01*
X214953Y556329D01*
X216203Y555493D01*
X217678Y555200D01*
X219153Y555493D01*
X220403Y556329D01*
X221239Y557579D01*
X221532Y559054D01*
X221239Y560529D01*
X220403Y561779D01*
X219153Y562615D01*
X217678Y562908D01*
D02*
G37*
G36*
X334772Y562654D02*
X333297Y562361D01*
X332047Y561525D01*
X331211Y560275D01*
X330918Y558800D01*
X331211Y557325D01*
X332047Y556075D01*
X333297Y555239D01*
X334772Y554946D01*
X336247Y555239D01*
X337497Y556075D01*
X338333Y557325D01*
X338626Y558800D01*
X338333Y560275D01*
X337497Y561525D01*
X336247Y562361D01*
X334772Y562654D01*
D02*
G37*
G36*
X451358Y562146D02*
X449883Y561853D01*
X448633Y561017D01*
X447797Y559767D01*
X447504Y558292D01*
X447797Y556817D01*
X448633Y555567D01*
X449883Y554731D01*
X451358Y554438D01*
X452833Y554731D01*
X454083Y555567D01*
X454919Y556817D01*
X455212Y558292D01*
X454919Y559767D01*
X454083Y561017D01*
X452833Y561853D01*
X451358Y562146D01*
D02*
G37*
G36*
X192230Y558859D02*
X190756Y558566D01*
X189505Y557731D01*
X188670Y556480D01*
X188376Y555005D01*
X188670Y553531D01*
X189505Y552280D01*
X190756Y551445D01*
X192230Y551151D01*
X193705Y551445D01*
X194956Y552280D01*
X195791Y553531D01*
X196085Y555005D01*
X195791Y556480D01*
X194956Y557731D01*
X193705Y558566D01*
X192230Y558859D01*
D02*
G37*
G36*
X75462Y558175D02*
X73987Y557882D01*
X72736Y557047D01*
X71901Y555796D01*
X71607Y554321D01*
X71901Y552846D01*
X72736Y551596D01*
X73987Y550761D01*
X75462Y550467D01*
X76936Y550761D01*
X78187Y551596D01*
X79022Y552846D01*
X79316Y554321D01*
X79022Y555796D01*
X78187Y557047D01*
X76936Y557882D01*
X75462Y558175D01*
D02*
G37*
G36*
X425167Y555981D02*
X423692Y555687D01*
X422442Y554852D01*
X421606Y553602D01*
X421313Y552127D01*
X421606Y550652D01*
X422442Y549402D01*
X423692Y548566D01*
X425167Y548273D01*
X426642Y548566D01*
X427892Y549402D01*
X428728Y550652D01*
X429021Y552127D01*
X428728Y553602D01*
X427892Y554852D01*
X426642Y555687D01*
X425167Y555981D01*
D02*
G37*
G36*
X308598D02*
X307124Y555687D01*
X305873Y554852D01*
X305038Y553602D01*
X304744Y552127D01*
X305038Y550652D01*
X305873Y549402D01*
X307124Y548566D01*
X308598Y548273D01*
X310073Y548566D01*
X311324Y549402D01*
X312159Y550652D01*
X312453Y552127D01*
X312159Y553602D01*
X311324Y554852D01*
X310073Y555687D01*
X308598Y555981D01*
D02*
G37*
G36*
X220220Y517519D02*
X218716D01*
X217327Y516944D01*
X216263Y515880D01*
X215688Y514491D01*
Y512987D01*
X216263Y511598D01*
X217327Y510535D01*
X218716Y509959D01*
X220220D01*
X221609Y510535D01*
X222672Y511598D01*
X223248Y512987D01*
Y514491D01*
X222672Y515880D01*
X221609Y516944D01*
X220220Y517519D01*
D02*
G37*
G36*
X242061Y489717D02*
X240557D01*
X239168Y489142D01*
X238105Y488078D01*
X237529Y486689D01*
Y485185D01*
X238105Y483796D01*
X239168Y482733D01*
X240557Y482157D01*
X242061D01*
X243450Y482733D01*
X244514Y483796D01*
X245089Y485185D01*
Y486689D01*
X244514Y488078D01*
X243450Y489142D01*
X242061Y489717D01*
D02*
G37*
G36*
X233704Y485776D02*
X232200D01*
X230811Y485201D01*
X229748Y484137D01*
X229172Y482748D01*
Y481245D01*
X229748Y479855D01*
X230811Y478792D01*
X232200Y478216D01*
X233704D01*
X235093Y478792D01*
X236157Y479855D01*
X236732Y481245D01*
Y482748D01*
X236157Y484137D01*
X235093Y485201D01*
X233704Y485776D01*
D02*
G37*
G36*
X380580Y517183D02*
X379076D01*
X377687Y516607D01*
X376624Y515544D01*
X376048Y514154D01*
Y512651D01*
X376624Y511261D01*
X377687Y510198D01*
X379076Y509622D01*
X380580D01*
X381969Y510198D01*
X383033Y511261D01*
X383608Y512651D01*
Y514154D01*
X383033Y515544D01*
X381969Y516607D01*
X380580Y517183D01*
D02*
G37*
G36*
X93740Y519761D02*
X92236D01*
X90847Y519185D01*
X89784Y518122D01*
X89208Y516732D01*
Y515229D01*
X89784Y513839D01*
X90847Y512776D01*
X92236Y512201D01*
X93740D01*
X95129Y512776D01*
X96193Y513839D01*
X96768Y515229D01*
Y516732D01*
X96193Y518122D01*
X95129Y519185D01*
X93740Y519761D01*
D02*
G37*
G36*
X103651Y517519D02*
X102148D01*
X100758Y516944D01*
X99695Y515880D01*
X99119Y514491D01*
Y512987D01*
X99695Y511598D01*
X100758Y510535D01*
X102148Y509959D01*
X103651D01*
X105041Y510535D01*
X106104Y511598D01*
X106679Y512987D01*
Y514491D01*
X106104Y515880D01*
X105041Y516944D01*
X103651Y517519D01*
D02*
G37*
G36*
X116160Y513047D02*
X114656D01*
X113267Y512472D01*
X112204Y511409D01*
X111628Y510019D01*
Y508516D01*
X112204Y507126D01*
X113267Y506063D01*
X114656Y505487D01*
X116160D01*
X117549Y506063D01*
X118613Y507126D01*
X119188Y508516D01*
Y510019D01*
X118613Y511409D01*
X117549Y512472D01*
X116160Y513047D01*
D02*
G37*
G36*
X488142Y214169D02*
X486638D01*
X485248Y213594D01*
X484185Y212530D01*
X483610Y211141D01*
Y209637D01*
X484185Y208248D01*
X485248Y207185D01*
X486638Y206609D01*
X488142D01*
X489531Y207185D01*
X490594Y208248D01*
X491170Y209637D01*
Y211141D01*
X490594Y212530D01*
X489531Y213594D01*
X488142Y214169D01*
D02*
G37*
G36*
X403895Y145924D02*
Y143348D01*
X406471D01*
X406049Y144366D01*
X404913Y145503D01*
X403895Y145924D01*
D02*
G37*
G36*
X401355D02*
X400336Y145503D01*
X399200Y144366D01*
X398778Y143348D01*
X401355D01*
Y145924D01*
D02*
G37*
G36*
X429895D02*
Y143348D01*
X432471D01*
X432049Y144366D01*
X430913Y145503D01*
X429895Y145924D01*
D02*
G37*
G36*
X416895D02*
Y143348D01*
X419471D01*
X419049Y144366D01*
X417913Y145503D01*
X416895Y145924D01*
D02*
G37*
G36*
X427355D02*
X426336Y145503D01*
X425200Y144366D01*
X424778Y143348D01*
X427355D01*
Y145924D01*
D02*
G37*
G36*
X414355D02*
X413336Y145503D01*
X412200Y144366D01*
X411778Y143348D01*
X414355D01*
Y145924D01*
D02*
G37*
G36*
X442895D02*
Y143348D01*
X445471D01*
X445050Y144366D01*
X443913Y145503D01*
X442895Y145924D01*
D02*
G37*
G36*
X440355D02*
X439336Y145503D01*
X438200Y144366D01*
X437778Y143348D01*
X440355D01*
Y145924D01*
D02*
G37*
G36*
X406471Y140808D02*
X403895D01*
Y138231D01*
X404913Y138653D01*
X406049Y139789D01*
X406471Y140808D01*
D02*
G37*
G36*
X440355Y140808D02*
X437778D01*
X438200Y139789D01*
X439336Y138653D01*
X440355Y138231D01*
Y140808D01*
D02*
G37*
G36*
X432471Y140808D02*
X429895D01*
Y138231D01*
X430913Y138653D01*
X432049Y139789D01*
X432471Y140808D01*
D02*
G37*
G36*
X419471D02*
X416895D01*
Y138231D01*
X417913Y138653D01*
X419049Y139789D01*
X419471Y140808D01*
D02*
G37*
G36*
X427355D02*
X424778D01*
X425200Y139789D01*
X426336Y138653D01*
X427355Y138231D01*
Y140808D01*
D02*
G37*
G36*
X414355D02*
X411778D01*
X412200Y139789D01*
X413336Y138653D01*
X414355Y138231D01*
Y140808D01*
D02*
G37*
G36*
X445471Y140808D02*
X442895D01*
Y138231D01*
X443913Y138653D01*
X445050Y139789D01*
X445471Y140808D01*
D02*
G37*
G36*
X401355Y140808D02*
X398778D01*
X399200Y139789D01*
X400336Y138653D01*
X401355Y138231D01*
Y140808D01*
D02*
G37*
G36*
X403895Y132924D02*
Y130348D01*
X406471D01*
X406049Y131366D01*
X404913Y132502D01*
X403895Y132924D01*
D02*
G37*
G36*
X401355D02*
X400336Y132502D01*
X399200Y131366D01*
X398778Y130348D01*
X401355D01*
Y132924D01*
D02*
G37*
G36*
X429895D02*
Y130347D01*
X432471D01*
X432049Y131366D01*
X430913Y132502D01*
X429895Y132924D01*
D02*
G37*
G36*
X416895D02*
Y130347D01*
X419471D01*
X419049Y131366D01*
X417913Y132502D01*
X416895Y132924D01*
D02*
G37*
G36*
X427355D02*
X426336Y132502D01*
X425200Y131366D01*
X424778Y130347D01*
X427355D01*
Y132924D01*
D02*
G37*
G36*
X414355D02*
X413336Y132502D01*
X412200Y131366D01*
X411778Y130347D01*
X414355D01*
Y132924D01*
D02*
G37*
G36*
X442895D02*
Y130347D01*
X445471D01*
X445050Y131366D01*
X443913Y132502D01*
X442895Y132924D01*
D02*
G37*
G36*
X440355D02*
X439336Y132502D01*
X438200Y131366D01*
X437778Y130347D01*
X440355D01*
Y132924D01*
D02*
G37*
G36*
X406471Y127808D02*
X403895D01*
Y125231D01*
X404913Y125653D01*
X406049Y126789D01*
X406471Y127808D01*
D02*
G37*
G36*
X440355Y127808D02*
X437778D01*
X438200Y126789D01*
X439336Y125653D01*
X440355Y125231D01*
Y127808D01*
D02*
G37*
G36*
X432471Y127808D02*
X429895D01*
Y125231D01*
X430913Y125653D01*
X432049Y126789D01*
X432471Y127808D01*
D02*
G37*
G36*
X419471D02*
X416895D01*
Y125231D01*
X417913Y125653D01*
X419049Y126789D01*
X419471Y127808D01*
D02*
G37*
G36*
X427355D02*
X424778D01*
X425200Y126789D01*
X426336Y125653D01*
X427355Y125231D01*
Y127808D01*
D02*
G37*
G36*
X414355D02*
X411778D01*
X412200Y126789D01*
X413336Y125653D01*
X414355Y125231D01*
Y127808D01*
D02*
G37*
G36*
X445471Y127808D02*
X442895D01*
Y125231D01*
X443913Y125653D01*
X445050Y126789D01*
X445471Y127808D01*
D02*
G37*
G36*
X401355Y127808D02*
X398778D01*
X399200Y126789D01*
X400336Y125653D01*
X401355Y125231D01*
Y127808D01*
D02*
G37*
G36*
X649141Y163096D02*
X647666Y162802D01*
X646415Y161967D01*
X645580Y160716D01*
X645286Y159242D01*
X645580Y157767D01*
X646415Y156516D01*
X647666Y155681D01*
X649141Y155387D01*
X650615Y155681D01*
X651598Y156337D01*
X652597Y155860D01*
X652767Y155707D01*
X652691Y155327D01*
X652985Y153852D01*
X653820Y152602D01*
X655071Y151767D01*
X656546Y151473D01*
X658020Y151767D01*
X659271Y152602D01*
X660106Y153852D01*
X660400Y155327D01*
X660106Y156802D01*
X659271Y158053D01*
X658020Y158888D01*
X656546Y159181D01*
X655071Y158888D01*
X654089Y158232D01*
X653089Y158709D01*
X652919Y158861D01*
X652995Y159242D01*
X652701Y160716D01*
X651866Y161967D01*
X650615Y162802D01*
X649141Y163096D01*
D02*
G37*
G36*
X738570Y148504D02*
Y140470D01*
X746604D01*
X746448Y141651D01*
X745502Y143935D01*
X743997Y145897D01*
X742036Y147402D01*
X739751Y148348D01*
X738570Y148504D01*
D02*
G37*
G36*
X736030Y148504D02*
X734849Y148348D01*
X732564Y147402D01*
X730603Y145897D01*
X729098Y143935D01*
X728152Y141651D01*
X727996Y140470D01*
X736030D01*
Y148504D01*
D02*
G37*
G36*
Y137930D02*
X727996D01*
X728152Y136749D01*
X729098Y134465D01*
X730603Y132503D01*
X732564Y130998D01*
X734849Y130052D01*
X736030Y129896D01*
Y137930D01*
D02*
G37*
G36*
X746604D02*
X738570D01*
Y129896D01*
X739751Y130052D01*
X742036Y130998D01*
X743997Y132503D01*
X745502Y134465D01*
X746448Y136749D01*
X746604Y137930D01*
D02*
G37*
G36*
X738570Y123104D02*
Y115070D01*
X746604D01*
X746448Y116251D01*
X745502Y118535D01*
X743997Y120497D01*
X742036Y122002D01*
X739751Y122948D01*
X738570Y123104D01*
D02*
G37*
G36*
X736030Y123104D02*
X734849Y122948D01*
X732564Y122002D01*
X730603Y120497D01*
X729098Y118535D01*
X728152Y116251D01*
X727996Y115070D01*
X736030D01*
Y123104D01*
D02*
G37*
G36*
Y112530D02*
X727996D01*
X728152Y111349D01*
X729098Y109065D01*
X730603Y107103D01*
X732564Y105598D01*
X734849Y104652D01*
X736030Y104496D01*
Y112530D01*
D02*
G37*
G36*
X746604D02*
X738570D01*
Y104496D01*
X739751Y104652D01*
X742036Y105598D01*
X743997Y107103D01*
X745502Y109065D01*
X746448Y111349D01*
X746604Y112530D01*
D02*
G37*
G36*
X588842Y91647D02*
X587367Y91354D01*
X586117Y90518D01*
X585281Y89268D01*
X584988Y87793D01*
X585281Y86318D01*
X586117Y85068D01*
X587367Y84232D01*
X588842Y83939D01*
X590317Y84232D01*
X591567Y85068D01*
X592403Y86318D01*
X592696Y87793D01*
X592403Y89268D01*
X591567Y90518D01*
X590317Y91354D01*
X588842Y91647D01*
D02*
G37*
G36*
X626270Y78739D02*
Y71270D01*
X633739D01*
X633603Y72305D01*
X632713Y74453D01*
X631298Y76298D01*
X629453Y77713D01*
X627305Y78603D01*
X626270Y78739D01*
D02*
G37*
G36*
X623730D02*
X622695Y78603D01*
X620547Y77713D01*
X618702Y76298D01*
X617287Y74453D01*
X616397Y72305D01*
X616261Y71270D01*
X623730D01*
Y78739D01*
D02*
G37*
G36*
X606270D02*
Y71270D01*
X613739D01*
X613603Y72305D01*
X612713Y74453D01*
X611298Y76298D01*
X609453Y77713D01*
X607305Y78603D01*
X606270Y78739D01*
D02*
G37*
G36*
X603730D02*
X602695Y78603D01*
X600547Y77713D01*
X598702Y76298D01*
X597287Y74453D01*
X596397Y72305D01*
X596261Y71270D01*
X603730D01*
Y78739D01*
D02*
G37*
G36*
X586270D02*
Y71270D01*
X593739D01*
X593603Y72305D01*
X592713Y74453D01*
X591298Y76298D01*
X589453Y77713D01*
X587305Y78603D01*
X586270Y78739D01*
D02*
G37*
G36*
X583730D02*
X582695Y78603D01*
X580547Y77713D01*
X578702Y76298D01*
X577287Y74453D01*
X576397Y72305D01*
X576261Y71270D01*
X583730D01*
Y78739D01*
D02*
G37*
G36*
X633739Y68730D02*
X626270D01*
Y61261D01*
X627305Y61397D01*
X629453Y62287D01*
X631298Y63702D01*
X632713Y65547D01*
X633603Y67695D01*
X633739Y68730D01*
D02*
G37*
G36*
X623730D02*
X616261D01*
X616397Y67695D01*
X617287Y65547D01*
X618702Y63702D01*
X620547Y62287D01*
X622695Y61397D01*
X623730Y61261D01*
Y68730D01*
D02*
G37*
G36*
X613739D02*
X606270D01*
Y61261D01*
X607305Y61397D01*
X609453Y62287D01*
X611298Y63702D01*
X612713Y65547D01*
X613603Y67695D01*
X613739Y68730D01*
D02*
G37*
G36*
X603730D02*
X596261D01*
X596397Y67695D01*
X597287Y65547D01*
X598702Y63702D01*
X600547Y62287D01*
X602695Y61397D01*
X603730Y61261D01*
Y68730D01*
D02*
G37*
G36*
X593739D02*
X586270D01*
Y61261D01*
X587305Y61397D01*
X589453Y62287D01*
X591298Y63702D01*
X592713Y65547D01*
X593603Y67695D01*
X593739Y68730D01*
D02*
G37*
G36*
X583730D02*
X576261D01*
X576397Y67695D01*
X577287Y65547D01*
X578702Y63702D01*
X580547Y62287D01*
X582695Y61397D01*
X583730Y61261D01*
Y68730D01*
D02*
G37*
G36*
X746862Y751190D02*
X745358D01*
X743969Y750614D01*
X742905Y749551D01*
X742330Y748162D01*
Y746658D01*
X742905Y745269D01*
X743969Y744205D01*
X745358Y743630D01*
X746862D01*
X748251Y744205D01*
X749314Y745269D01*
X749890Y746658D01*
Y748162D01*
X749314Y749551D01*
X748251Y750614D01*
X746862Y751190D01*
D02*
G37*
G36*
X764642Y742300D02*
X763138D01*
X761749Y741724D01*
X760685Y740661D01*
X760110Y739272D01*
Y737768D01*
X760685Y736379D01*
X761749Y735315D01*
X763138Y734740D01*
X764642D01*
X766031Y735315D01*
X767094Y736379D01*
X767670Y737768D01*
Y739272D01*
X767094Y740661D01*
X766031Y741724D01*
X764642Y742300D01*
D02*
G37*
G36*
X730984Y721898D02*
X729480D01*
X728091Y721323D01*
X727027Y720259D01*
X726452Y718870D01*
Y717366D01*
X727027Y715977D01*
X728091Y714914D01*
X729480Y714338D01*
X730984D01*
X732373Y714914D01*
X733436Y715977D01*
X734012Y717366D01*
Y718870D01*
X733436Y720259D01*
X732373Y721323D01*
X730984Y721898D01*
D02*
G37*
G36*
X715306Y721873D02*
X713803D01*
X712413Y721297D01*
X711350Y720234D01*
X710775Y718845D01*
Y717341D01*
X711350Y715952D01*
X712413Y714888D01*
X713803Y714313D01*
X715306D01*
X716696Y714888D01*
X717759Y715952D01*
X718335Y717341D01*
Y718845D01*
X717759Y720234D01*
X716696Y721297D01*
X715306Y721873D01*
D02*
G37*
G36*
X743784Y618320D02*
X742281D01*
X740891Y617744D01*
X739828Y616681D01*
X739253Y615292D01*
Y613788D01*
X739828Y612399D01*
X740577Y611650D01*
X739828Y610901D01*
X739253Y609512D01*
Y608008D01*
X739828Y606619D01*
X740891Y605555D01*
X742281Y604980D01*
X743784D01*
X745174Y605555D01*
X746237Y606619D01*
X746813Y608008D01*
Y609512D01*
X746237Y610901D01*
X745488Y611650D01*
X746237Y612399D01*
X746813Y613788D01*
Y615292D01*
X746237Y616681D01*
X745174Y617744D01*
X743784Y618320D01*
D02*
G37*
G36*
Y593594D02*
X742281D01*
X740891Y593019D01*
X739828Y591955D01*
X739253Y590566D01*
Y589062D01*
X739828Y587673D01*
X740577Y586924D01*
X739828Y586175D01*
X739253Y584786D01*
Y583282D01*
X739828Y581893D01*
X740891Y580830D01*
X742281Y580254D01*
X743784D01*
X745174Y580830D01*
X746237Y581893D01*
X746813Y583282D01*
Y584786D01*
X746237Y586175D01*
X745488Y586924D01*
X746237Y587673D01*
X746813Y589062D01*
Y590566D01*
X746237Y591955D01*
X745174Y593019D01*
X743784Y593594D01*
D02*
G37*
G36*
X743570Y568376D02*
X742066D01*
X740677Y567800D01*
X739614Y566737D01*
X739038Y565348D01*
Y563844D01*
X739614Y562455D01*
X740363Y561706D01*
X739614Y560957D01*
X739038Y559568D01*
Y558064D01*
X739614Y556675D01*
X740677Y555611D01*
X742066Y555036D01*
X743570D01*
X744959Y555611D01*
X746023Y556675D01*
X746598Y558064D01*
Y559568D01*
X746023Y560957D01*
X745274Y561706D01*
X746023Y562455D01*
X746598Y563844D01*
Y565348D01*
X746023Y566737D01*
X744959Y567800D01*
X743570Y568376D01*
D02*
G37*
G36*
X746862Y525190D02*
X745358D01*
X743969Y524614D01*
X742905Y523551D01*
X742330Y522162D01*
Y520658D01*
X742905Y519269D01*
X743969Y518205D01*
X745358Y517630D01*
X746862D01*
X748251Y518205D01*
X749314Y519269D01*
X749890Y520658D01*
Y522162D01*
X749314Y523551D01*
X748251Y524614D01*
X746862Y525190D01*
D02*
G37*
G36*
X764642Y516300D02*
X763138D01*
X761749Y515724D01*
X760685Y514661D01*
X760110Y513272D01*
Y511768D01*
X760685Y510379D01*
X761749Y509315D01*
X763138Y508740D01*
X764642D01*
X766031Y509315D01*
X767094Y510379D01*
X767670Y511768D01*
Y513272D01*
X767094Y514661D01*
X766031Y515724D01*
X764642Y516300D01*
D02*
G37*
G36*
X406270Y78801D02*
Y71270D01*
X413801D01*
X413228Y73408D01*
X412066Y75422D01*
X410422Y77066D01*
X408408Y78228D01*
X406270Y78801D01*
D02*
G37*
G36*
X403730D02*
X401592Y78228D01*
X399578Y77066D01*
X397934Y75422D01*
X396772Y73408D01*
X396199Y71270D01*
X403730D01*
Y78801D01*
D02*
G37*
G36*
X366270D02*
Y71270D01*
X373801D01*
X373228Y73408D01*
X372066Y75422D01*
X370422Y77066D01*
X368408Y78228D01*
X366270Y78801D01*
D02*
G37*
G36*
X363730D02*
X361592Y78228D01*
X359578Y77066D01*
X357934Y75422D01*
X356772Y73408D01*
X356199Y71270D01*
X363730D01*
Y78801D01*
D02*
G37*
G36*
X286270D02*
Y71270D01*
X293801D01*
X293228Y73408D01*
X292066Y75422D01*
X290422Y77066D01*
X288408Y78228D01*
X286270Y78801D01*
D02*
G37*
G36*
X283730D02*
X281592Y78228D01*
X279578Y77066D01*
X277934Y75422D01*
X276772Y73408D01*
X276199Y71270D01*
X283730D01*
Y78801D01*
D02*
G37*
G36*
X546062Y78070D02*
X543937D01*
X541885Y77520D01*
X540045Y76458D01*
X538542Y74955D01*
X537480Y73115D01*
X536930Y71062D01*
Y68938D01*
X537480Y66885D01*
X538542Y65045D01*
X540045Y63542D01*
X541885Y62480D01*
X543937Y61930D01*
X546062D01*
X548115Y62480D01*
X549955Y63542D01*
X551458Y65045D01*
X552520Y66885D01*
X553070Y68938D01*
Y71062D01*
X552520Y73115D01*
X551458Y74955D01*
X549955Y76458D01*
X548115Y77520D01*
X546062Y78070D01*
D02*
G37*
G36*
X526062D02*
X523938D01*
X521885Y77520D01*
X520045Y76458D01*
X518542Y74955D01*
X517480Y73115D01*
X516930Y71062D01*
Y68938D01*
X517480Y66885D01*
X518542Y65045D01*
X520045Y63542D01*
X521885Y62480D01*
X523938Y61930D01*
X526062D01*
X528115Y62480D01*
X529955Y63542D01*
X531458Y65045D01*
X532520Y66885D01*
X533070Y68938D01*
Y71062D01*
X532520Y73115D01*
X531458Y74955D01*
X529955Y76458D01*
X528115Y77520D01*
X526062Y78070D01*
D02*
G37*
G36*
X506062D02*
X503937D01*
X501885Y77520D01*
X500045Y76458D01*
X498542Y74955D01*
X497480Y73115D01*
X496930Y71062D01*
Y68938D01*
X497480Y66885D01*
X498542Y65045D01*
X500045Y63542D01*
X501885Y62480D01*
X503937Y61930D01*
X506062D01*
X508115Y62480D01*
X509955Y63542D01*
X511458Y65045D01*
X512520Y66885D01*
X513070Y68938D01*
Y71062D01*
X512520Y73115D01*
X511458Y74955D01*
X509955Y76458D01*
X508115Y77520D01*
X506062Y78070D01*
D02*
G37*
G36*
X486062D02*
X483938D01*
X481885Y77520D01*
X480045Y76458D01*
X478542Y74955D01*
X477480Y73115D01*
X476930Y71062D01*
Y68938D01*
X477480Y66885D01*
X478542Y65045D01*
X480045Y63542D01*
X481885Y62480D01*
X483938Y61930D01*
X486062D01*
X488115Y62480D01*
X489955Y63542D01*
X491458Y65045D01*
X492520Y66885D01*
X493070Y68938D01*
Y71062D01*
X492520Y73115D01*
X491458Y74955D01*
X489955Y76458D01*
X488115Y77520D01*
X486062Y78070D01*
D02*
G37*
G36*
X426062D02*
X423938D01*
X421885Y77520D01*
X420045Y76458D01*
X418542Y74955D01*
X417480Y73115D01*
X416930Y71062D01*
Y68938D01*
X417480Y66885D01*
X418542Y65045D01*
X420045Y63542D01*
X421885Y62480D01*
X423938Y61930D01*
X426062D01*
X428115Y62480D01*
X429955Y63542D01*
X431458Y65045D01*
X432520Y66885D01*
X433070Y68938D01*
Y71062D01*
X432520Y73115D01*
X431458Y74955D01*
X429955Y76458D01*
X428115Y77520D01*
X426062Y78070D01*
D02*
G37*
G36*
X386062D02*
X383938D01*
X381885Y77520D01*
X380045Y76458D01*
X378542Y74955D01*
X377480Y73115D01*
X376930Y71062D01*
Y68938D01*
X377480Y66885D01*
X378542Y65045D01*
X380045Y63542D01*
X381885Y62480D01*
X383938Y61930D01*
X386062D01*
X388115Y62480D01*
X389955Y63542D01*
X391458Y65045D01*
X392520Y66885D01*
X393070Y68938D01*
Y71062D01*
X392520Y73115D01*
X391458Y74955D01*
X389955Y76458D01*
X388115Y77520D01*
X386062Y78070D01*
D02*
G37*
G36*
X346062D02*
X343938D01*
X341885Y77520D01*
X340045Y76458D01*
X338542Y74955D01*
X337480Y73115D01*
X336930Y71062D01*
Y68938D01*
X337480Y66885D01*
X338542Y65045D01*
X340045Y63542D01*
X341885Y62480D01*
X343938Y61930D01*
X346062D01*
X348115Y62480D01*
X349955Y63542D01*
X351458Y65045D01*
X352520Y66885D01*
X353070Y68938D01*
Y71062D01*
X352520Y73115D01*
X351458Y74955D01*
X349955Y76458D01*
X348115Y77520D01*
X346062Y78070D01*
D02*
G37*
G36*
X326062D02*
X323938D01*
X321885Y77520D01*
X320045Y76458D01*
X318542Y74955D01*
X317480Y73115D01*
X316930Y71062D01*
Y68938D01*
X317480Y66885D01*
X318542Y65045D01*
X320045Y63542D01*
X321885Y62480D01*
X323938Y61930D01*
X326062D01*
X328115Y62480D01*
X329955Y63542D01*
X331458Y65045D01*
X332520Y66885D01*
X333070Y68938D01*
Y71062D01*
X332520Y73115D01*
X331458Y74955D01*
X329955Y76458D01*
X328115Y77520D01*
X326062Y78070D01*
D02*
G37*
G36*
X306062D02*
X303938D01*
X301885Y77520D01*
X300045Y76458D01*
X298542Y74955D01*
X297480Y73115D01*
X296930Y71062D01*
Y68938D01*
X297480Y66885D01*
X298542Y65045D01*
X300045Y63542D01*
X301885Y62480D01*
X303938Y61930D01*
X306062D01*
X308115Y62480D01*
X309955Y63542D01*
X311458Y65045D01*
X312520Y66885D01*
X313070Y68938D01*
Y71062D01*
X312520Y73115D01*
X311458Y74955D01*
X309955Y76458D01*
X308115Y77520D01*
X306062Y78070D01*
D02*
G37*
G36*
X266062D02*
X263937D01*
X261885Y77520D01*
X260045Y76458D01*
X258542Y74955D01*
X257480Y73115D01*
X256930Y71062D01*
Y68938D01*
X257480Y66885D01*
X258542Y65045D01*
X260045Y63542D01*
X261885Y62480D01*
X263937Y61930D01*
X266062D01*
X268115Y62480D01*
X269955Y63542D01*
X271458Y65045D01*
X272520Y66885D01*
X273070Y68938D01*
Y71062D01*
X272520Y73115D01*
X271458Y74955D01*
X269955Y76458D01*
X268115Y77520D01*
X266062Y78070D01*
D02*
G37*
G36*
X246062D02*
X243938D01*
X241885Y77520D01*
X240045Y76458D01*
X238542Y74955D01*
X237480Y73115D01*
X236930Y71062D01*
Y68938D01*
X237480Y66885D01*
X238542Y65045D01*
X240045Y63542D01*
X241885Y62480D01*
X243938Y61930D01*
X246062D01*
X248115Y62480D01*
X249955Y63542D01*
X251458Y65045D01*
X252520Y66885D01*
X253070Y68938D01*
Y71062D01*
X252520Y73115D01*
X251458Y74955D01*
X249955Y76458D01*
X248115Y77520D01*
X246062Y78070D01*
D02*
G37*
G36*
X226062D02*
X223938D01*
X221885Y77520D01*
X220045Y76458D01*
X218542Y74955D01*
X217480Y73115D01*
X216930Y71062D01*
Y68938D01*
X217480Y66885D01*
X218542Y65045D01*
X220045Y63542D01*
X221885Y62480D01*
X223938Y61930D01*
X226062D01*
X228115Y62480D01*
X229955Y63542D01*
X231458Y65045D01*
X232520Y66885D01*
X233070Y68938D01*
Y71062D01*
X232520Y73115D01*
X231458Y74955D01*
X229955Y76458D01*
X228115Y77520D01*
X226062Y78070D01*
D02*
G37*
G36*
X453801Y68730D02*
X446270D01*
Y61199D01*
X448408Y61772D01*
X450422Y62934D01*
X452066Y64578D01*
X453228Y66592D01*
X453801Y68730D01*
D02*
G37*
G36*
X443730D02*
X436199D01*
X436772Y66592D01*
X437934Y64578D01*
X439578Y62934D01*
X441592Y61772D01*
X443730Y61199D01*
Y68730D01*
D02*
G37*
G36*
X413801D02*
X406270D01*
Y61199D01*
X408408Y61772D01*
X410422Y62934D01*
X412066Y64578D01*
X413228Y66592D01*
X413801Y68730D01*
D02*
G37*
G36*
X403730D02*
X396199D01*
X396772Y66592D01*
X397934Y64578D01*
X399578Y62934D01*
X401592Y61772D01*
X403730Y61199D01*
Y68730D01*
D02*
G37*
G36*
X373801D02*
X366270D01*
Y61199D01*
X368408Y61772D01*
X370422Y62934D01*
X372066Y64578D01*
X373228Y66592D01*
X373801Y68730D01*
D02*
G37*
G36*
X363730D02*
X356199D01*
X356772Y66592D01*
X357934Y64578D01*
X359578Y62934D01*
X361592Y61772D01*
X363730Y61199D01*
Y68730D01*
D02*
G37*
G36*
X293801D02*
X286270D01*
Y61199D01*
X288408Y61772D01*
X290422Y62934D01*
X292066Y64578D01*
X293228Y66592D01*
X293801Y68730D01*
D02*
G37*
G36*
X283730D02*
X276199D01*
X276772Y66592D01*
X277934Y64578D01*
X279578Y62934D01*
X281592Y61772D01*
X283730Y61199D01*
Y68730D01*
D02*
G37*
G36*
X446270Y58801D02*
Y51270D01*
X453801D01*
X453228Y53408D01*
X452066Y55422D01*
X450422Y57066D01*
X448408Y58228D01*
X446270Y58801D01*
D02*
G37*
G36*
X443730D02*
X441592Y58228D01*
X439578Y57066D01*
X437934Y55422D01*
X436772Y53408D01*
X436199Y51270D01*
X443730D01*
Y58801D01*
D02*
G37*
G36*
X406270D02*
Y51270D01*
X413801D01*
X413228Y53408D01*
X412066Y55422D01*
X410422Y57066D01*
X408408Y58228D01*
X406270Y58801D01*
D02*
G37*
G36*
X403730D02*
X401592Y58228D01*
X399578Y57066D01*
X397934Y55422D01*
X396772Y53408D01*
X396199Y51270D01*
X403730D01*
Y58801D01*
D02*
G37*
G36*
X366270D02*
Y51270D01*
X373801D01*
X373228Y53408D01*
X372066Y55422D01*
X370422Y57066D01*
X368408Y58228D01*
X366270Y58801D01*
D02*
G37*
G36*
X363730D02*
X361592Y58228D01*
X359578Y57066D01*
X357934Y55422D01*
X356772Y53408D01*
X356199Y51270D01*
X363730D01*
Y58801D01*
D02*
G37*
G36*
X286270D02*
Y51270D01*
X293801D01*
X293228Y53408D01*
X292066Y55422D01*
X290422Y57066D01*
X288408Y58228D01*
X286270Y58801D01*
D02*
G37*
G36*
X283730D02*
X281592Y58228D01*
X279578Y57066D01*
X277934Y55422D01*
X276772Y53408D01*
X276199Y51270D01*
X283730D01*
Y58801D01*
D02*
G37*
G36*
X226270D02*
Y51270D01*
X233801D01*
X233228Y53408D01*
X232066Y55422D01*
X230422Y57066D01*
X228408Y58228D01*
X226270Y58801D01*
D02*
G37*
G36*
X223730D02*
X221592Y58228D01*
X219578Y57066D01*
X217934Y55422D01*
X216772Y53408D01*
X216199Y51270D01*
X223730D01*
Y58801D01*
D02*
G37*
G36*
X661748Y73280D02*
X658252D01*
X654874Y72375D01*
X651846Y70627D01*
X649373Y68154D01*
X647625Y65126D01*
X646720Y61748D01*
Y58252D01*
X647625Y54874D01*
X649373Y51846D01*
X651846Y49373D01*
X654874Y47625D01*
X658252Y46720D01*
X661748D01*
X665126Y47625D01*
X668154Y49373D01*
X670627Y51846D01*
X672375Y54874D01*
X673280Y58252D01*
Y61748D01*
X672375Y65126D01*
X670627Y68154D01*
X668154Y70627D01*
X665126Y72375D01*
X661748Y73280D01*
D02*
G37*
G36*
X191748D02*
X188252D01*
X184874Y72375D01*
X181846Y70627D01*
X179373Y68154D01*
X177625Y65126D01*
X176720Y61748D01*
Y58252D01*
X177625Y54874D01*
X179373Y51846D01*
X181846Y49373D01*
X184874Y47625D01*
X188252Y46720D01*
X191748D01*
X195126Y47625D01*
X198154Y49373D01*
X200627Y51846D01*
X202375Y54874D01*
X203280Y58252D01*
Y61748D01*
X202375Y65126D01*
X200627Y68154D01*
X198154Y70627D01*
X195126Y72375D01*
X191748Y73280D01*
D02*
G37*
G36*
X566062Y58070D02*
X563938D01*
X561885Y57520D01*
X560045Y56458D01*
X558542Y54955D01*
X557480Y53115D01*
X556930Y51062D01*
Y48938D01*
X557480Y46885D01*
X558542Y45045D01*
X560045Y43542D01*
X561885Y42480D01*
X563938Y41930D01*
X566062D01*
X568115Y42480D01*
X569955Y43542D01*
X571458Y45045D01*
X572520Y46885D01*
X573070Y48938D01*
Y51062D01*
X572520Y53115D01*
X571458Y54955D01*
X569955Y56458D01*
X568115Y57520D01*
X566062Y58070D01*
D02*
G37*
G36*
X546062D02*
X543937D01*
X541885Y57520D01*
X540045Y56458D01*
X538542Y54955D01*
X537480Y53115D01*
X536930Y51062D01*
Y48938D01*
X537480Y46885D01*
X538542Y45045D01*
X540045Y43542D01*
X541885Y42480D01*
X543937Y41930D01*
X546062D01*
X548115Y42480D01*
X549955Y43542D01*
X551458Y45045D01*
X552520Y46885D01*
X553070Y48938D01*
Y51062D01*
X552520Y53115D01*
X551458Y54955D01*
X549955Y56458D01*
X548115Y57520D01*
X546062Y58070D01*
D02*
G37*
G36*
X526062D02*
X523938D01*
X521885Y57520D01*
X520045Y56458D01*
X518542Y54955D01*
X517480Y53115D01*
X516930Y51062D01*
Y48938D01*
X517480Y46885D01*
X518542Y45045D01*
X520045Y43542D01*
X521885Y42480D01*
X523938Y41930D01*
X526062D01*
X528115Y42480D01*
X529955Y43542D01*
X531458Y45045D01*
X532520Y46885D01*
X533070Y48938D01*
Y51062D01*
X532520Y53115D01*
X531458Y54955D01*
X529955Y56458D01*
X528115Y57520D01*
X526062Y58070D01*
D02*
G37*
G36*
X506062D02*
X503937D01*
X501885Y57520D01*
X500045Y56458D01*
X498542Y54955D01*
X497480Y53115D01*
X496930Y51062D01*
Y48938D01*
X497480Y46885D01*
X498542Y45045D01*
X500045Y43542D01*
X501885Y42480D01*
X503937Y41930D01*
X506062D01*
X508115Y42480D01*
X509955Y43542D01*
X511458Y45045D01*
X512520Y46885D01*
X513070Y48938D01*
Y51062D01*
X512520Y53115D01*
X511458Y54955D01*
X509955Y56458D01*
X508115Y57520D01*
X506062Y58070D01*
D02*
G37*
G36*
X486062D02*
X483938D01*
X481885Y57520D01*
X480045Y56458D01*
X478542Y54955D01*
X477480Y53115D01*
X476930Y51062D01*
Y48938D01*
X477480Y46885D01*
X478542Y45045D01*
X480045Y43542D01*
X481885Y42480D01*
X483938Y41930D01*
X486062D01*
X488115Y42480D01*
X489955Y43542D01*
X491458Y45045D01*
X492520Y46885D01*
X493070Y48938D01*
Y51062D01*
X492520Y53115D01*
X491458Y54955D01*
X489955Y56458D01*
X488115Y57520D01*
X486062Y58070D01*
D02*
G37*
G36*
X466062D02*
X463938D01*
X461885Y57520D01*
X460045Y56458D01*
X458542Y54955D01*
X457480Y53115D01*
X456930Y51062D01*
Y48938D01*
X457480Y46885D01*
X458542Y45045D01*
X460045Y43542D01*
X461885Y42480D01*
X463938Y41930D01*
X466062D01*
X468115Y42480D01*
X469955Y43542D01*
X471458Y45045D01*
X472520Y46885D01*
X473070Y48938D01*
Y51062D01*
X472520Y53115D01*
X471458Y54955D01*
X469955Y56458D01*
X468115Y57520D01*
X466062Y58070D01*
D02*
G37*
G36*
X426062D02*
X423938D01*
X421885Y57520D01*
X420045Y56458D01*
X418542Y54955D01*
X417480Y53115D01*
X416930Y51062D01*
Y48938D01*
X417480Y46885D01*
X418542Y45045D01*
X420045Y43542D01*
X421885Y42480D01*
X423938Y41930D01*
X426062D01*
X428115Y42480D01*
X429955Y43542D01*
X431458Y45045D01*
X432520Y46885D01*
X433070Y48938D01*
Y51062D01*
X432520Y53115D01*
X431458Y54955D01*
X429955Y56458D01*
X428115Y57520D01*
X426062Y58070D01*
D02*
G37*
G36*
X386062D02*
X383938D01*
X381885Y57520D01*
X380045Y56458D01*
X378542Y54955D01*
X377480Y53115D01*
X376930Y51062D01*
Y48938D01*
X377480Y46885D01*
X378542Y45045D01*
X380045Y43542D01*
X381885Y42480D01*
X383938Y41930D01*
X386062D01*
X388115Y42480D01*
X389955Y43542D01*
X391458Y45045D01*
X392520Y46885D01*
X393070Y48938D01*
Y51062D01*
X392520Y53115D01*
X391458Y54955D01*
X389955Y56458D01*
X388115Y57520D01*
X386062Y58070D01*
D02*
G37*
G36*
X346062D02*
X343938D01*
X341885Y57520D01*
X340045Y56458D01*
X338542Y54955D01*
X337480Y53115D01*
X336930Y51062D01*
Y48938D01*
X337480Y46885D01*
X338542Y45045D01*
X340045Y43542D01*
X341885Y42480D01*
X343938Y41930D01*
X346062D01*
X348115Y42480D01*
X349955Y43542D01*
X351458Y45045D01*
X352520Y46885D01*
X353070Y48938D01*
Y51062D01*
X352520Y53115D01*
X351458Y54955D01*
X349955Y56458D01*
X348115Y57520D01*
X346062Y58070D01*
D02*
G37*
G36*
X326062D02*
X323938D01*
X321885Y57520D01*
X320045Y56458D01*
X318542Y54955D01*
X317480Y53115D01*
X316930Y51062D01*
Y48938D01*
X317480Y46885D01*
X318542Y45045D01*
X320045Y43542D01*
X321885Y42480D01*
X323938Y41930D01*
X326062D01*
X328115Y42480D01*
X329955Y43542D01*
X331458Y45045D01*
X332520Y46885D01*
X333070Y48938D01*
Y51062D01*
X332520Y53115D01*
X331458Y54955D01*
X329955Y56458D01*
X328115Y57520D01*
X326062Y58070D01*
D02*
G37*
G36*
X306062D02*
X303938D01*
X301885Y57520D01*
X300045Y56458D01*
X298542Y54955D01*
X297480Y53115D01*
X296930Y51062D01*
Y48938D01*
X297480Y46885D01*
X298542Y45045D01*
X300045Y43542D01*
X301885Y42480D01*
X303938Y41930D01*
X306062D01*
X308115Y42480D01*
X309955Y43542D01*
X311458Y45045D01*
X312520Y46885D01*
X313070Y48938D01*
Y51062D01*
X312520Y53115D01*
X311458Y54955D01*
X309955Y56458D01*
X308115Y57520D01*
X306062Y58070D01*
D02*
G37*
G36*
X266062D02*
X263937D01*
X261885Y57520D01*
X260045Y56458D01*
X258542Y54955D01*
X257480Y53115D01*
X256930Y51062D01*
Y48938D01*
X257480Y46885D01*
X258542Y45045D01*
X260045Y43542D01*
X261885Y42480D01*
X263937Y41930D01*
X266062D01*
X268115Y42480D01*
X269955Y43542D01*
X271458Y45045D01*
X272520Y46885D01*
X273070Y48938D01*
Y51062D01*
X272520Y53115D01*
X271458Y54955D01*
X269955Y56458D01*
X268115Y57520D01*
X266062Y58070D01*
D02*
G37*
G36*
X246062D02*
X243938D01*
X241885Y57520D01*
X240045Y56458D01*
X238542Y54955D01*
X237480Y53115D01*
X236930Y51062D01*
Y48938D01*
X237480Y46885D01*
X238542Y45045D01*
X240045Y43542D01*
X241885Y42480D01*
X243938Y41930D01*
X246062D01*
X248115Y42480D01*
X249955Y43542D01*
X251458Y45045D01*
X252520Y46885D01*
X253070Y48938D01*
Y51062D01*
X252520Y53115D01*
X251458Y54955D01*
X249955Y56458D01*
X248115Y57520D01*
X246062Y58070D01*
D02*
G37*
G36*
X453801Y48730D02*
X446270D01*
Y41199D01*
X448408Y41772D01*
X450422Y42934D01*
X452066Y44578D01*
X453228Y46592D01*
X453801Y48730D01*
D02*
G37*
G36*
X443730D02*
X436199D01*
X436772Y46592D01*
X437934Y44578D01*
X439578Y42934D01*
X441592Y41772D01*
X443730Y41199D01*
Y48730D01*
D02*
G37*
G36*
X413801D02*
X406270D01*
Y41199D01*
X408408Y41772D01*
X410422Y42934D01*
X412066Y44578D01*
X413228Y46592D01*
X413801Y48730D01*
D02*
G37*
G36*
X403730D02*
X396199D01*
X396772Y46592D01*
X397934Y44578D01*
X399578Y42934D01*
X401592Y41772D01*
X403730Y41199D01*
Y48730D01*
D02*
G37*
G36*
X373801D02*
X366270D01*
Y41199D01*
X368408Y41772D01*
X370422Y42934D01*
X372066Y44578D01*
X373228Y46592D01*
X373801Y48730D01*
D02*
G37*
G36*
X363730D02*
X356199D01*
X356772Y46592D01*
X357934Y44578D01*
X359578Y42934D01*
X361592Y41772D01*
X363730Y41199D01*
Y48730D01*
D02*
G37*
G36*
X293801D02*
X286270D01*
Y41199D01*
X288408Y41772D01*
X290422Y42934D01*
X292066Y44578D01*
X293228Y46592D01*
X293801Y48730D01*
D02*
G37*
G36*
X283730D02*
X276199D01*
X276772Y46592D01*
X277934Y44578D01*
X279578Y42934D01*
X281592Y41772D01*
X283730Y41199D01*
Y48730D01*
D02*
G37*
G36*
X233801D02*
X226270D01*
Y41199D01*
X228408Y41772D01*
X230422Y42934D01*
X232066Y44578D01*
X233228Y46592D01*
X233801Y48730D01*
D02*
G37*
G36*
X223730D02*
X216199D01*
X216772Y46592D01*
X217934Y44578D01*
X219578Y42934D01*
X221592Y41772D01*
X223730Y41199D01*
Y48730D01*
D02*
G37*
%LPD*%
D10*
X155093Y420370D02*
X228274D01*
X136274Y401550D02*
X155093Y420370D01*
X52736Y401550D02*
X136274D01*
X133777Y408097D02*
X152400Y426720D01*
X49098Y408097D02*
X133777D01*
X131720Y414782D02*
X149381Y432444D01*
X52856Y414782D02*
X131720D01*
X48993Y397807D02*
X52736Y401550D01*
X237899Y331252D02*
Y410745D01*
X228274Y420370D02*
X237899Y410745D01*
X232616Y426720D02*
X245436Y413900D01*
Y335262D02*
X254458Y326240D01*
X245436Y335262D02*
Y413900D01*
X252713Y338618D02*
X258528Y332803D01*
X252713Y338618D02*
Y413931D01*
X234200Y432444D02*
X252713Y413931D01*
X258528Y332803D02*
X273253D01*
X353995Y413546D01*
X358234Y407670D02*
X448032D01*
X254458Y326240D02*
X276805D01*
X358234Y407670D01*
X249390Y319761D02*
X280141D01*
X237899Y331252D02*
X249390Y319761D01*
X280141D02*
X361063Y400682D01*
X445840D02*
X469136Y377385D01*
X361063Y400682D02*
X445840D01*
X469136Y377385D02*
X471943D01*
X472108Y377220D01*
X473432Y382270D02*
X489060D01*
X448032Y407670D02*
X473432Y382270D01*
X489060D02*
X489106Y382316D01*
X499110Y336902D02*
Y472440D01*
X152400Y426720D02*
X232616D01*
X353995Y413546D02*
X454026D01*
X149381Y432444D02*
X234200D01*
X454026Y413546D02*
X478928Y388644D01*
X338981Y508638D02*
X342900Y512557D01*
Y531359D01*
X320467Y508638D02*
X338981D01*
X337375Y536884D02*
X342900Y531359D01*
X427899Y288304D02*
X434323Y281879D01*
X421465Y288304D02*
X427899D01*
X418387Y285226D02*
X421465Y288304D01*
X418073Y285226D02*
X418387D01*
X381059Y281703D02*
X390240D01*
X353702Y273035D02*
X372391D01*
X381059Y281703D01*
X337511Y256845D02*
X353702Y273035D01*
X390240Y281703D02*
X390519Y281982D01*
X270713Y255782D02*
X277229D01*
X53458Y250732D02*
X265663D01*
X270713Y255782D01*
X43763Y260427D02*
Y419845D01*
Y260427D02*
X53458Y250732D01*
X49422Y425503D02*
X57860D01*
X43763Y419845D02*
X49422Y425503D01*
X57860D02*
X87358Y455000D01*
X87753D01*
X89953Y457200D02*
X97480D01*
X87753Y455000D02*
X89953Y457200D01*
X97480D02*
X110266D01*
X119380Y448086D01*
Y433252D02*
Y448086D01*
X119409Y433252D02*
X129584Y423077D01*
X129613D01*
X119380Y433252D02*
X119409D01*
X426069Y281870D02*
X436837Y271102D01*
X499582D01*
X514702Y281849D02*
X514981Y281570D01*
X513639Y281879D02*
X513669Y281849D01*
X514702D01*
X434323Y281879D02*
X513639D01*
X499582Y271102D02*
X505000Y276520D01*
X522336Y276688D02*
Y372040D01*
X529489Y379193D01*
X533963D01*
X507978Y254714D02*
X527538Y274274D01*
Y365949D01*
X504931Y259283D02*
X522336Y276688D01*
X397373Y247311D02*
X404776Y254714D01*
X507978D01*
X401959Y259283D02*
X504931D01*
X388003Y321070D02*
Y332798D01*
X383844Y336956D02*
X388003Y332798D01*
X304963Y336956D02*
X383844D01*
X382110Y315177D02*
X388003Y321070D01*
X300216Y332209D02*
X304963Y336956D01*
X179193Y336661D02*
Y348567D01*
X208959Y378333D01*
X190887Y352559D02*
X216299Y377971D01*
X190887Y336400D02*
Y352559D01*
X330223Y176553D02*
X433548D01*
X330200Y176530D02*
X330223Y176553D01*
X433548D02*
X433571Y176576D01*
X201121Y391772D02*
Y408751D01*
X200891Y391542D02*
X201121Y391772D01*
Y408751D02*
X201351Y408981D01*
X216299Y377971D02*
Y396181D01*
X665663Y635342D02*
X672503D01*
X679312Y628534D01*
Y469390D02*
Y628534D01*
X663445Y633196D02*
X663516D01*
X665663Y635342D01*
X672327Y462406D02*
X679312Y469390D01*
X648646Y462406D02*
X672327D01*
X633550Y453362D02*
X639603D01*
X648646Y462406D01*
X553820Y480649D02*
Y633555D01*
X535228Y462057D02*
X553820Y480649D01*
X250585Y441009D02*
Y449838D01*
X165099Y484964D02*
X215459D01*
X250585Y449838D01*
X243570Y438940D02*
X267542Y414968D01*
X243570Y438940D02*
Y447895D01*
X211659Y479806D02*
X243570Y447895D01*
X273823Y480010D02*
X316565Y522752D01*
X324006D01*
X333089Y531834D01*
X333388D01*
X387529Y497236D02*
X423593Y533300D01*
X319630Y497236D02*
X387529D01*
X261443Y448300D02*
X278091Y431651D01*
X261443Y448300D02*
Y505833D01*
X278091Y388027D02*
Y431651D01*
X281055Y465320D02*
X287713D01*
X319630Y497236D01*
X284045Y375236D02*
Y435425D01*
X277497Y368688D02*
Y368688D01*
X284045Y375236D01*
X267542Y358733D02*
X277497Y368688D01*
X273823Y445647D02*
X284045Y435425D01*
X267542Y377478D02*
X278091Y388027D01*
X273823Y445647D02*
Y480010D01*
X296511Y533337D02*
X300831D01*
X301055Y533113D02*
X306975D01*
X300831Y533337D02*
X301055Y533113D01*
X267542Y504367D02*
X296511Y533337D01*
X267542Y452458D02*
Y504367D01*
X306975Y533113D02*
X307199Y533337D01*
X445507Y536884D02*
X452049D01*
X455007Y533926D01*
X440457Y531834D02*
X445507Y536884D01*
X455007Y527270D02*
Y533926D01*
X431431Y503694D02*
X455007Y527270D01*
X267542Y339988D02*
X306502Y378949D01*
Y475981D02*
X322227Y491706D01*
X306502Y378949D02*
Y475981D01*
X322227Y491706D02*
X409828D01*
X328939Y536884D02*
X337375D01*
X250585Y441009D02*
X272592Y419002D01*
X255763Y445492D02*
X267542Y433713D01*
X255763Y445492D02*
Y494673D01*
X226457Y523978D02*
X255763Y494673D01*
X216820Y531834D02*
X235441D01*
X261443Y505833D01*
X272592Y401273D02*
Y419002D01*
X267542Y396223D02*
X272592Y401273D01*
X162814Y479806D02*
X211659D01*
X192838Y508677D02*
X196772Y512611D01*
X185575Y520344D02*
X192901D01*
X196772Y512611D02*
Y516474D01*
X192901Y520344D02*
X196772Y516474D01*
X179531Y526388D02*
X185575Y520344D01*
X185515Y544976D02*
X194179D01*
X207320Y531834D01*
X179531Y526388D02*
Y538991D01*
X185515Y544976D01*
X204832Y523978D02*
X226457D01*
X323889Y531834D02*
X328939Y536884D01*
X62184Y538319D02*
X68220Y544355D01*
X62184Y529744D02*
Y538319D01*
Y529744D02*
X82381Y509548D01*
X78231Y544355D02*
X90752Y531834D01*
X68220Y544355D02*
X78231D01*
X80615Y526784D02*
X115836D01*
X74062Y533337D02*
X80615Y526784D01*
X115836D02*
X162814Y479806D01*
X100252Y531834D02*
X118229D01*
X165099Y484964D01*
X195399Y533411D02*
X204832Y523978D01*
X409828Y491706D02*
X449957Y531834D01*
D14*
X621395Y486448D02*
Y529537D01*
X592250Y457303D02*
X621395Y486448D01*
X592250Y414750D02*
Y457303D01*
X621395Y529537D02*
X637548Y545689D01*
X576567Y248970D02*
X597015Y228522D01*
Y200685D02*
Y228522D01*
X540000Y651500D02*
X547313Y644187D01*
Y546315D02*
Y644187D01*
X624804Y129822D02*
Y172896D01*
X597015Y200685D02*
X624804Y172896D01*
X275379Y302564D02*
X278032D01*
X303736Y276860D02*
Y276860D01*
X275342Y302600D02*
X275379Y302564D01*
X278032D02*
X303736Y276860D01*
X275291Y302600D02*
X275342D01*
X303530Y276860D02*
X331218D01*
X240030Y302456D02*
X275147D01*
X275291Y302600D01*
X227690Y290116D02*
X240030Y302456D01*
X336340Y281982D02*
X364079D01*
X331218Y276860D02*
X336340Y281982D01*
X321915Y146121D02*
Y206815D01*
X303530Y225200D02*
X321915Y206815D01*
X262030Y225200D02*
X303530D01*
X419058Y295533D02*
Y359430D01*
X348726Y225200D02*
X419058Y295533D01*
X303530Y225200D02*
X348726D01*
X221713Y451180D02*
X231631Y441262D01*
X132444Y451180D02*
X221713D01*
X134509Y329568D02*
X208194D01*
X231769Y353144D01*
X134509Y329568D02*
Y344509D01*
X231769Y353144D02*
Y365715D01*
X134509Y344509D02*
X176530Y386530D01*
X592250Y414750D02*
X599440Y407560D01*
Y361950D02*
Y407560D01*
X576539Y248970D02*
Y339049D01*
X599440Y361950D01*
X223520Y186690D02*
X262030Y225200D01*
X431886Y79975D02*
X455025D01*
X465000Y70000D02*
X465000D01*
X455025Y79975D02*
X465000Y70000D01*
X392430Y119380D02*
X392481D01*
X348657D02*
X392430D01*
X321915Y146121D02*
X348657Y119380D01*
X392481D02*
X431886Y79975D01*
X524904Y223421D02*
X550990D01*
X476285D02*
X524904D01*
X525780Y222545D01*
Y116840D02*
Y222545D01*
X336978Y107702D02*
X348657Y119380D01*
X550990Y223421D02*
X576539Y248970D01*
X465365Y212500D02*
X476285Y223421D01*
X428475Y212500D02*
X465365D01*
X321915Y206815D02*
X422790D01*
X303530Y225200D02*
Y257810D01*
Y276860D01*
X422790Y206815D02*
X428475Y212500D01*
X115316Y290116D02*
X227690D01*
X131840Y451216D02*
X132407D01*
X55331Y477520D02*
X105537D01*
X131840Y451216D01*
X132407D02*
X132444Y451180D01*
X60964Y451843D02*
X69850D01*
X55331Y457476D02*
Y477520D01*
Y457476D02*
X60964Y451843D01*
X55331Y477520D02*
Y533639D01*
X51087Y537883D02*
X55331Y533639D01*
X51087Y537883D02*
Y537935D01*
X637548Y545689D02*
X670344D01*
X620000Y563237D02*
Y651500D01*
Y563237D02*
X637548Y545689D01*
D23*
X838006Y6350D02*
G03*
X843656Y11988I0J5650D01*
G01*
X12006Y843650D02*
G03*
X6356Y838012I0J-5650D01*
G01*
X843656Y838000D02*
G03*
X838024Y843650I-5650J0D01*
G01*
X6356Y12000D02*
G03*
X11994Y6350I5650J0D01*
G01*
X843656Y706779D02*
Y837975D01*
X843656Y696779D02*
X843656Y706779D01*
X843656Y426780D02*
Y696779D01*
X843656Y416780D02*
X843656Y426780D01*
X843656Y156780D02*
Y416780D01*
X843656Y146780D02*
X843656Y156780D01*
X843656Y12000D02*
Y146780D01*
X700857Y6350D02*
X837981D01*
X690857Y6350D02*
X700857Y6350D01*
X430857Y6350D02*
X690857D01*
X706321Y843650D02*
X838006D01*
X696321Y843650D02*
X706321Y843650D01*
X426322Y843650D02*
X696321D01*
X416322Y843650D02*
X426322Y843650D01*
X156323Y843650D02*
X416322D01*
X146323Y843650D02*
X156323Y843650D01*
X12024Y843650D02*
X146323D01*
X420857Y6350D02*
X430857Y6350D01*
X150858Y6350D02*
X420857D01*
X140858Y6350D02*
X150858Y6350D01*
X12006Y6350D02*
X140858D01*
X6356Y705502D02*
Y838000D01*
X6356Y695502D02*
X6356Y705502D01*
X6356Y425503D02*
Y695502D01*
X6356Y415503D02*
X6356Y425503D01*
X6356Y155503D02*
Y415503D01*
X6356Y145503D02*
X6356Y155503D01*
X6356Y12025D02*
Y145503D01*
D132*
X660000Y60000D02*
D03*
X190000D02*
D03*
D134*
X225000Y70000D02*
D03*
Y50000D02*
D03*
X245000Y70000D02*
D03*
Y50000D02*
D03*
X265000Y70000D02*
D03*
Y50000D02*
D03*
X285000Y70000D02*
D03*
Y50000D02*
D03*
X305000Y70000D02*
D03*
Y50000D02*
D03*
X325000Y70000D02*
D03*
Y50000D02*
D03*
X345000Y70000D02*
D03*
Y50000D02*
D03*
X365000Y70000D02*
D03*
Y50000D02*
D03*
X385000Y70000D02*
D03*
Y50000D02*
D03*
X405000Y70000D02*
D03*
Y50000D02*
D03*
X425000Y70000D02*
D03*
Y50000D02*
D03*
X445000Y70000D02*
D03*
Y50000D02*
D03*
X465000Y70000D02*
D03*
Y50000D02*
D03*
X485000Y70000D02*
D03*
Y50000D02*
D03*
X505000Y70000D02*
D03*
Y50000D02*
D03*
X525000Y70000D02*
D03*
Y50000D02*
D03*
X545000Y70000D02*
D03*
Y50000D02*
D03*
X565000Y70000D02*
D03*
Y50000D02*
D03*
X585000Y70000D02*
D03*
Y50000D02*
D03*
X605000Y70000D02*
D03*
Y50000D02*
D03*
X625000Y70000D02*
D03*
Y50000D02*
D03*
D135*
X402625Y129078D02*
D03*
Y142078D02*
D03*
X415625Y129078D02*
D03*
Y142078D02*
D03*
X428625Y129078D02*
D03*
Y142078D02*
D03*
X441625Y129078D02*
D03*
Y142078D02*
D03*
D136*
X477500Y740000D02*
D03*
X662500D02*
D03*
X477500Y692500D02*
D03*
X662500D02*
D03*
X167500Y740000D02*
D03*
X352500D02*
D03*
X167500Y692500D02*
D03*
X352500D02*
D03*
D137*
X762700Y215400D02*
D03*
Y190000D02*
D03*
X737300Y266200D02*
D03*
X762700D02*
D03*
X737300Y240800D02*
D03*
X762700D02*
D03*
X737300Y215400D02*
D03*
Y190000D02*
D03*
Y164600D02*
D03*
X762700D02*
D03*
X737300Y139200D02*
D03*
X762700D02*
D03*
X737300Y113800D02*
D03*
D138*
X762700D02*
D03*
D139*
X115316Y109728D02*
D03*
Y135128D02*
D03*
Y188516D02*
D03*
Y213916D02*
D03*
Y239316D02*
D03*
Y264716D02*
D03*
D140*
Y160528D02*
D03*
Y290116D02*
D03*
D141*
X19560Y52440D02*
D03*
X52440Y19560D02*
D03*
X19560D02*
D03*
X52440Y52440D02*
D03*
X59250Y36000D02*
D03*
X36000Y13140D02*
D03*
X12750Y36000D02*
D03*
X36000Y59250D02*
D03*
Y837250D02*
D03*
X12750Y814000D02*
D03*
X36000Y791140D02*
D03*
X59250Y814000D02*
D03*
X52440Y830440D02*
D03*
X19560Y797560D02*
D03*
X52440D02*
D03*
X19560Y830440D02*
D03*
X797560D02*
D03*
X830440Y797560D02*
D03*
X797560D02*
D03*
X830440Y830440D02*
D03*
X837250Y814000D02*
D03*
X814000Y791140D02*
D03*
X790750Y814000D02*
D03*
X814000Y837250D02*
D03*
Y59250D02*
D03*
X790750Y36000D02*
D03*
X814000Y13140D02*
D03*
X837250Y36000D02*
D03*
X830440Y52440D02*
D03*
X797560Y19560D02*
D03*
X830440D02*
D03*
X797560Y52440D02*
D03*
D142*
X36000Y36000D02*
D03*
Y814000D02*
D03*
X814000D02*
D03*
Y36000D02*
D03*
D143*
X422582Y430111D02*
D03*
X410346Y433755D02*
D03*
X389657Y419030D02*
D03*
X489106Y382316D02*
D03*
X472108Y377220D02*
D03*
X48993Y397807D02*
D03*
Y408202D02*
D03*
X418073Y285226D02*
D03*
X390519Y281982D02*
D03*
X337511Y256845D02*
D03*
X277229Y255782D02*
D03*
X52856Y414782D02*
D03*
X377160Y244888D02*
D03*
X495000Y276829D02*
D03*
X132702Y441139D02*
D03*
X167640Y444500D02*
D03*
X151152Y471180D02*
D03*
X426069Y281870D02*
D03*
X514981Y281570D02*
D03*
X505000Y276520D02*
D03*
X353822Y257674D02*
D03*
X372110D02*
D03*
X385416Y304412D02*
D03*
X533963Y379193D02*
D03*
X527538Y365949D02*
D03*
X597190Y344500D02*
D03*
X602967Y349307D02*
D03*
X182784Y155190D02*
D03*
X97088Y147618D02*
D03*
X275342Y302600D02*
D03*
X364079Y281982D02*
D03*
X478928Y388644D02*
D03*
X300216Y332209D02*
D03*
X382110Y315177D02*
D03*
X415701Y374569D02*
D03*
X416061Y384977D02*
D03*
X422176Y379941D02*
D03*
X422266Y389384D02*
D03*
X305922Y284480D02*
D03*
X323850Y413357D02*
D03*
X49512Y479461D02*
D03*
X489897Y290696D02*
D03*
Y309443D02*
D03*
X606641Y204605D02*
D03*
X626797D02*
D03*
X647169Y204158D02*
D03*
X656546Y155327D02*
D03*
X649141Y159242D02*
D03*
X249918Y649001D02*
D03*
X289987Y649315D02*
D03*
X410653Y546703D02*
D03*
X396514D02*
D03*
X293811Y547034D02*
D03*
X280517Y546888D02*
D03*
X166417Y546842D02*
D03*
X153347Y547156D02*
D03*
X43953Y547449D02*
D03*
X57652Y547562D02*
D03*
X282934Y447180D02*
D03*
X475359Y360563D02*
D03*
X484511Y342463D02*
D03*
X487975Y325303D02*
D03*
X447595Y342505D02*
D03*
X817287Y775782D02*
D03*
X797287D02*
D03*
X777287Y815782D02*
D03*
X767287Y795782D02*
D03*
X777287Y775782D02*
D03*
Y455782D02*
D03*
X767287Y435782D02*
D03*
X777287Y415782D02*
D03*
X767287Y395782D02*
D03*
X777287Y375782D02*
D03*
X767287Y355782D02*
D03*
X777287Y335782D02*
D03*
Y295782D02*
D03*
Y215782D02*
D03*
X757287Y815782D02*
D03*
X747287Y795782D02*
D03*
X757287Y775782D02*
D03*
Y495782D02*
D03*
X747287Y435782D02*
D03*
X757287Y415782D02*
D03*
X747287Y395782D02*
D03*
X757287Y375782D02*
D03*
X747287Y355782D02*
D03*
X757287Y335782D02*
D03*
Y295782D02*
D03*
Y255782D02*
D03*
X747287Y235782D02*
D03*
Y195782D02*
D03*
X757287Y175782D02*
D03*
Y95782D02*
D03*
X737287Y815782D02*
D03*
X727287Y795782D02*
D03*
X737287Y775782D02*
D03*
Y495782D02*
D03*
X727287Y475782D02*
D03*
Y315782D02*
D03*
X737287Y295782D02*
D03*
X727287Y275782D02*
D03*
Y235782D02*
D03*
Y195782D02*
D03*
X737287Y175782D02*
D03*
X717287Y815782D02*
D03*
X707287Y795782D02*
D03*
X717287Y775782D02*
D03*
Y495782D02*
D03*
X707287Y475782D02*
D03*
X717287Y455782D02*
D03*
X697287Y815782D02*
D03*
X687287Y795782D02*
D03*
X697287Y775782D02*
D03*
X687287Y755782D02*
D03*
X697287Y735782D02*
D03*
X687287Y715782D02*
D03*
X697287Y695782D02*
D03*
X687287Y675782D02*
D03*
X697287Y655782D02*
D03*
X687287Y635782D02*
D03*
X697287Y455782D02*
D03*
Y295782D02*
D03*
X687287Y275782D02*
D03*
X697287Y255782D02*
D03*
X677287Y815782D02*
D03*
X667286Y795782D02*
D03*
X677287Y775782D02*
D03*
X667286Y755782D02*
D03*
X677287Y735782D02*
D03*
X667286Y715782D02*
D03*
X677287Y695782D02*
D03*
X667286Y435782D02*
D03*
X677287Y375782D02*
D03*
Y295782D02*
D03*
X667286Y275782D02*
D03*
X677287Y255782D02*
D03*
X667286Y235782D02*
D03*
X677287Y135782D02*
D03*
X657286Y815782D02*
D03*
X647286Y795782D02*
D03*
X657286Y775782D02*
D03*
X647286Y755782D02*
D03*
Y715782D02*
D03*
X657286Y655782D02*
D03*
X647286Y555782D02*
D03*
X637286Y815782D02*
D03*
X627286Y795782D02*
D03*
X637286Y775782D02*
D03*
X627286Y755782D02*
D03*
X637286Y735782D02*
D03*
X627286Y715782D02*
D03*
X637286Y695782D02*
D03*
X627286Y635782D02*
D03*
X637286Y615782D02*
D03*
X627286Y395782D02*
D03*
Y355782D02*
D03*
X617286Y815782D02*
D03*
X607286Y795782D02*
D03*
X617286Y775782D02*
D03*
X607286Y755782D02*
D03*
X617286Y735782D02*
D03*
X607286Y715782D02*
D03*
X617286Y695782D02*
D03*
X607286Y595782D02*
D03*
Y555782D02*
D03*
Y515782D02*
D03*
X617286Y415782D02*
D03*
Y375782D02*
D03*
X597286Y815782D02*
D03*
X587286Y795782D02*
D03*
X597286Y775782D02*
D03*
X587286Y755782D02*
D03*
X597286Y735782D02*
D03*
X587286Y715782D02*
D03*
Y555782D02*
D03*
X577286Y815782D02*
D03*
X567286Y795782D02*
D03*
X577286Y775782D02*
D03*
X567286Y755782D02*
D03*
X577286Y735782D02*
D03*
X567286Y715782D02*
D03*
Y555782D02*
D03*
X577286Y415782D02*
D03*
X557286Y815782D02*
D03*
X547286Y795782D02*
D03*
X557286Y775782D02*
D03*
X547286Y755782D02*
D03*
X557286Y735782D02*
D03*
X547286Y715782D02*
D03*
Y515782D02*
D03*
X557286Y415782D02*
D03*
X537286Y815782D02*
D03*
X527286Y795782D02*
D03*
X537286Y775782D02*
D03*
X527286Y755782D02*
D03*
X537286Y735782D02*
D03*
X527286Y715782D02*
D03*
Y635782D02*
D03*
Y395782D02*
D03*
X517286Y815782D02*
D03*
X507286Y795782D02*
D03*
X517286Y775782D02*
D03*
X507286Y755782D02*
D03*
X517286Y735782D02*
D03*
X507286Y715782D02*
D03*
X517286Y375782D02*
D03*
Y335782D02*
D03*
X497286Y815782D02*
D03*
X487286Y795782D02*
D03*
X497286Y775782D02*
D03*
X487286Y755782D02*
D03*
X497286Y735782D02*
D03*
X487286Y715782D02*
D03*
X497286Y695782D02*
D03*
X487286Y675782D02*
D03*
Y595782D02*
D03*
X497286Y495782D02*
D03*
Y175782D02*
D03*
X477286Y815782D02*
D03*
X467286Y795782D02*
D03*
X477286Y775782D02*
D03*
X467286Y755782D02*
D03*
Y595782D02*
D03*
Y515782D02*
D03*
X477286Y175782D02*
D03*
Y135782D02*
D03*
X457286Y815782D02*
D03*
X447286Y795782D02*
D03*
X457286Y575782D02*
D03*
Y135782D02*
D03*
X437286Y815782D02*
D03*
X427286Y795782D02*
D03*
X437286Y695782D02*
D03*
X417286Y815782D02*
D03*
X407286Y795782D02*
D03*
Y635782D02*
D03*
X397286Y815782D02*
D03*
X387286Y795782D02*
D03*
X397286Y775782D02*
D03*
X387286Y755782D02*
D03*
Y675782D02*
D03*
X377286Y815782D02*
D03*
X367286Y795782D02*
D03*
X377286Y775782D02*
D03*
X367286Y755782D02*
D03*
Y675782D02*
D03*
X377286Y135782D02*
D03*
X357286Y815782D02*
D03*
X347286Y795782D02*
D03*
X357286Y775782D02*
D03*
X347286Y755782D02*
D03*
Y675782D02*
D03*
X357286Y575782D02*
D03*
Y215782D02*
D03*
X347286Y195782D02*
D03*
Y155782D02*
D03*
X337286Y815782D02*
D03*
X327286Y795782D02*
D03*
X337286Y775782D02*
D03*
X327286Y755782D02*
D03*
X337286Y735782D02*
D03*
Y575782D02*
D03*
Y95782D02*
D03*
X317286Y815782D02*
D03*
X307286Y795782D02*
D03*
X317286Y775782D02*
D03*
X307286Y755782D02*
D03*
X317286Y735782D02*
D03*
Y695782D02*
D03*
X307286Y195782D02*
D03*
X317286Y95782D02*
D03*
X297286Y815782D02*
D03*
X287286Y795782D02*
D03*
X297286Y775782D02*
D03*
X287286Y755782D02*
D03*
X297286Y735782D02*
D03*
X287286Y275782D02*
D03*
X297286Y255782D02*
D03*
Y135782D02*
D03*
Y95782D02*
D03*
X277286Y815782D02*
D03*
X267286Y795782D02*
D03*
X277286Y775782D02*
D03*
X267286Y755782D02*
D03*
X277286Y735782D02*
D03*
Y695782D02*
D03*
X267286Y595782D02*
D03*
Y275782D02*
D03*
Y195782D02*
D03*
X257286Y815782D02*
D03*
X247286Y795782D02*
D03*
X257286Y775782D02*
D03*
X247286Y755782D02*
D03*
X257286Y735782D02*
D03*
Y295782D02*
D03*
Y255782D02*
D03*
X237286Y815782D02*
D03*
X227286Y795782D02*
D03*
X237286Y775782D02*
D03*
X227286Y755782D02*
D03*
X237286Y735782D02*
D03*
X227286Y715782D02*
D03*
X237286Y695782D02*
D03*
Y575782D02*
D03*
X217286Y815782D02*
D03*
X207286Y795782D02*
D03*
X217286Y775782D02*
D03*
X207286Y755782D02*
D03*
X217286Y735782D02*
D03*
Y575782D02*
D03*
Y255782D02*
D03*
X207286Y195782D02*
D03*
X197286Y815782D02*
D03*
X187286Y795782D02*
D03*
X197286Y775782D02*
D03*
X187286Y755782D02*
D03*
X197286Y735782D02*
D03*
X187286Y715782D02*
D03*
X197286Y695782D02*
D03*
X187286Y275782D02*
D03*
X177286Y815782D02*
D03*
X157286D02*
D03*
X147286Y275782D02*
D03*
X157286Y255782D02*
D03*
X147286Y235782D02*
D03*
X157286Y215782D02*
D03*
X147286Y195782D02*
D03*
Y75782D02*
D03*
Y35782D02*
D03*
X137286Y815782D02*
D03*
X127286Y275782D02*
D03*
X137286Y255782D02*
D03*
Y215782D02*
D03*
X127286Y195782D02*
D03*
Y155782D02*
D03*
Y75782D02*
D03*
X137286Y55782D02*
D03*
X127286Y35782D02*
D03*
X117286Y815782D02*
D03*
X107286Y275782D02*
D03*
Y75782D02*
D03*
Y35782D02*
D03*
X97286Y815782D02*
D03*
Y495782D02*
D03*
X87286Y155782D02*
D03*
Y35782D02*
D03*
X77286Y815782D02*
D03*
X67286Y355782D02*
D03*
X77286Y175782D02*
D03*
X57286Y775782D02*
D03*
Y175782D02*
D03*
X37286Y775782D02*
D03*
X27286Y755782D02*
D03*
Y715782D02*
D03*
X37286Y695782D02*
D03*
X27286Y675782D02*
D03*
X837287Y785782D02*
D03*
X62286Y835782D02*
D03*
X79300Y60960D02*
D03*
X47276Y430788D02*
D03*
X97814Y485262D02*
D03*
X40865Y485125D02*
D03*
X58587Y393685D02*
D03*
X68312Y388681D02*
D03*
X296077Y215884D02*
D03*
X263057D02*
D03*
X279513D02*
D03*
X282702Y199390D02*
D03*
X292428Y194387D02*
D03*
X223520Y204963D02*
D03*
X207010Y204470D02*
D03*
X192606Y194387D02*
D03*
X182880Y199390D02*
D03*
X251460Y160020D02*
D03*
X271780D02*
D03*
X261620Y166370D02*
D03*
Y148590D02*
D03*
Y182880D02*
D03*
X746110Y747410D02*
D03*
X763890Y738520D02*
D03*
X746110Y521410D02*
D03*
X763890Y512520D02*
D03*
X746110Y318310D02*
D03*
X763890Y309420D02*
D03*
X764540Y459740D02*
D03*
X746760Y468630D02*
D03*
X247075Y111760D02*
D03*
Y123190D02*
D03*
X228577Y111760D02*
D03*
Y123190D02*
D03*
X521899Y84140D02*
D03*
X455216Y237395D02*
D03*
X652089Y87630D02*
D03*
X588842Y87793D02*
D03*
X515832Y87842D02*
D03*
X438068Y220555D02*
D03*
X442155Y224642D02*
D03*
X446242Y228729D02*
D03*
X450330Y232817D02*
D03*
X29606Y575530D02*
D03*
X40668D02*
D03*
X35137Y583984D02*
D03*
X46198D02*
D03*
X51729Y575530D02*
D03*
X397510Y188358D02*
D03*
X87875Y629800D02*
D03*
X81155Y619894D02*
D03*
X70892Y628531D02*
D03*
X64172Y618624D02*
D03*
X86673Y647630D02*
D03*
X79953Y637724D02*
D03*
X70101Y646399D02*
D03*
X63381Y636493D02*
D03*
X134675Y736953D02*
D03*
X45720Y752602D02*
D03*
X52440Y762508D02*
D03*
X71720Y752602D02*
D03*
X78440Y762508D02*
D03*
X108389Y761880D02*
D03*
X101669Y751974D02*
D03*
X98406Y762262D02*
D03*
X91686Y752355D02*
D03*
X88423Y761880D02*
D03*
X81703Y751974D02*
D03*
X419058Y359430D02*
D03*
X179193Y336661D02*
D03*
X190887Y336400D02*
D03*
X176530Y386530D02*
D03*
X134509Y329568D02*
D03*
X592250Y414750D02*
D03*
X485885Y448707D02*
D03*
X480401Y455896D02*
D03*
X223520Y186690D02*
D03*
X364490Y212500D02*
D03*
X428475D02*
D03*
X240030Y302456D02*
D03*
X303530Y257810D02*
D03*
X231631Y441262D02*
D03*
X231769Y365715D02*
D03*
X132444Y451180D02*
D03*
X69850Y451843D02*
D03*
X51087Y537935D02*
D03*
X159892Y537071D02*
D03*
X525780Y116840D02*
D03*
X392430Y119380D02*
D03*
X336978Y107702D02*
D03*
X624804Y129822D02*
D03*
X597015Y200685D02*
D03*
X633539Y239854D02*
D03*
X576539Y248970D02*
D03*
X320167Y424182D02*
D03*
X386080Y433755D02*
D03*
X323902Y467713D02*
D03*
X330200Y176530D02*
D03*
X433571Y176576D02*
D03*
X251460Y187960D02*
D03*
X579685Y359547D02*
D03*
X588010Y364490D02*
D03*
X612024Y353899D02*
D03*
X401959Y259283D02*
D03*
X397373Y247029D02*
D03*
X585802Y204661D02*
D03*
X129613Y423077D02*
D03*
X201351Y408981D02*
D03*
X200891Y391542D02*
D03*
X216299Y396181D02*
D03*
X208959Y378333D02*
D03*
X43763Y441193D02*
D03*
X97536Y82804D02*
D03*
X547408Y455451D02*
D03*
X487390Y210389D02*
D03*
X663445Y633196D02*
D03*
X650536Y452830D02*
D03*
X560588Y462149D02*
D03*
X498964Y336757D02*
D03*
X499110Y472440D02*
D03*
X535228Y462057D02*
D03*
X281055Y465320D02*
D03*
X405619Y498433D02*
D03*
X431431Y503694D02*
D03*
X320467Y508638D02*
D03*
X310476Y497181D02*
D03*
X241309Y485937D02*
D03*
X232952Y481996D02*
D03*
X323850Y432103D02*
D03*
Y450848D02*
D03*
X484630Y276520D02*
D03*
X714573Y543089D02*
D03*
X730250Y543114D02*
D03*
X714573Y705589D02*
D03*
X730250Y705614D02*
D03*
X730232Y718118D02*
D03*
X714555Y718093D02*
D03*
X721108Y340042D02*
D03*
X731502Y340018D02*
D03*
X538212Y200703D02*
D03*
X544812Y191177D02*
D03*
X532112D02*
D03*
X653618Y194109D02*
D03*
X652373Y145476D02*
D03*
X645016Y137004D02*
D03*
X660099Y136986D02*
D03*
X660118Y124361D02*
D03*
X645034Y124342D02*
D03*
X633550Y453362D02*
D03*
X670891Y473261D02*
D03*
X431596Y308273D02*
D03*
X474931Y307890D02*
D03*
X474998Y290696D02*
D03*
X474924Y342323D02*
D03*
X474966Y325163D02*
D03*
X431556Y360490D02*
D03*
X432133Y291211D02*
D03*
X432206Y325000D02*
D03*
Y342500D02*
D03*
X231619Y283649D02*
D03*
X485568Y232817D02*
D03*
X469950Y238764D02*
D03*
X185049Y222588D02*
D03*
X530515Y244712D02*
D03*
X539192Y237181D02*
D03*
X523505Y237389D02*
D03*
X460224Y499809D02*
D03*
X527975Y475662D02*
D03*
X416954Y444665D02*
D03*
X450000Y452500D02*
D03*
X470050Y432500D02*
D03*
X267542Y339988D02*
D03*
Y358733D02*
D03*
Y377478D02*
D03*
Y396223D02*
D03*
Y414968D02*
D03*
Y433713D02*
D03*
Y452458D02*
D03*
X450000Y432500D02*
D03*
X116101Y356075D02*
D03*
X105759Y355801D02*
D03*
X105127Y370919D02*
D03*
X116503Y371196D02*
D03*
X87358Y455000D02*
D03*
X475435Y214530D02*
D03*
X742818Y564596D02*
D03*
Y558816D02*
D03*
X743033Y614540D02*
D03*
Y608760D02*
D03*
Y589814D02*
D03*
Y584034D02*
D03*
X97480Y428180D02*
D03*
X403660Y536592D02*
D03*
X395657Y528903D02*
D03*
X287364Y536264D02*
D03*
X279088Y528903D02*
D03*
X291126Y627286D02*
D03*
X425167Y552127D02*
D03*
X308598D02*
D03*
X192230Y555005D02*
D03*
X114102Y518835D02*
D03*
X75462Y554321D02*
D03*
X262903Y627122D02*
D03*
Y615442D02*
D03*
X192838Y508677D02*
D03*
X330426Y698754D02*
D03*
X289972D02*
D03*
X249972D02*
D03*
X209972D02*
D03*
X495384Y575009D02*
D03*
X489853Y583463D02*
D03*
X478792D02*
D03*
X484323Y575009D02*
D03*
X473261D02*
D03*
X418766Y626424D02*
D03*
X451950D02*
D03*
X446419Y634878D02*
D03*
X435358D02*
D03*
X440888Y626424D02*
D03*
X424297Y634878D02*
D03*
X429827Y626424D02*
D03*
X128323Y571528D02*
D03*
X161507D02*
D03*
X155976Y579981D02*
D03*
X144915D02*
D03*
X150446Y571528D02*
D03*
X133854Y579981D02*
D03*
X139384Y571528D02*
D03*
X244892D02*
D03*
X278075D02*
D03*
X272545Y579981D02*
D03*
X261484D02*
D03*
X267014Y571528D02*
D03*
X250422Y579981D02*
D03*
X255953Y571528D02*
D03*
X372522D02*
D03*
X366991Y579981D02*
D03*
X383583Y571528D02*
D03*
X378052Y579981D02*
D03*
X389113D02*
D03*
X394644Y571528D02*
D03*
X361460D02*
D03*
X351028Y624078D02*
D03*
X323178Y624321D02*
D03*
X336805D02*
D03*
X216918Y620360D02*
D03*
X206493D02*
D03*
X196067D02*
D03*
X147128Y621407D02*
D03*
X139717Y632884D02*
D03*
X140735Y663737D02*
D03*
X446424Y668884D02*
D03*
Y704444D02*
D03*
X454788Y740040D02*
D03*
Y775600D02*
D03*
X406720Y669102D02*
D03*
Y704662D02*
D03*
Y740222D02*
D03*
X406654Y775716D02*
D03*
X89012Y233442D02*
D03*
X94600Y339692D02*
D03*
X52832Y608584D02*
D03*
Y618490D02*
D03*
X52308Y647528D02*
D03*
X45588Y637622D02*
D03*
X52506Y732533D02*
D03*
X45786Y722627D02*
D03*
X671576Y518922D02*
D03*
X681860Y633196D02*
D03*
X645281D02*
D03*
X572185Y633515D02*
D03*
X590381Y609470D02*
D03*
X627022Y609098D02*
D03*
X671090Y586705D02*
D03*
X562270Y496759D02*
D03*
X498653Y546862D02*
D03*
X488484D02*
D03*
X478316D02*
D03*
X356078D02*
D03*
X366628D02*
D03*
X377177D02*
D03*
X387726D02*
D03*
X239510D02*
D03*
X250059D02*
D03*
X260609D02*
D03*
X271158D02*
D03*
X122942D02*
D03*
X133491D02*
D03*
X144040D02*
D03*
X175688D02*
D03*
X209972Y648624D02*
D03*
X439699Y538718D02*
D03*
X322876Y538973D02*
D03*
X91009Y538718D02*
D03*
X100252D02*
D03*
X216820D02*
D03*
X207578D02*
D03*
X239014Y518617D02*
D03*
X125665Y692253D02*
D03*
X45778Y528903D02*
D03*
X547313Y546315D02*
D03*
X670344Y545689D02*
D03*
X620000Y651500D02*
D03*
X540000Y673595D02*
D03*
Y651500D02*
D03*
X56388Y134366D02*
D03*
X97536Y103497D02*
D03*
X355470Y513307D02*
D03*
X553820Y633555D02*
D03*
X488791Y520917D02*
D03*
X143510Y645471D02*
D03*
X330000Y676500D02*
D03*
X290000D02*
D03*
X250000D02*
D03*
X210000D02*
D03*
X144647Y722630D02*
D03*
Y736953D02*
D03*
Y750570D02*
D03*
X134443Y757301D02*
D03*
X144647Y762000D02*
D03*
X134226Y682041D02*
D03*
X520359Y678786D02*
D03*
X559936Y673595D02*
D03*
X599961Y673453D02*
D03*
X639908Y679047D02*
D03*
X119380Y433252D02*
D03*
X97480Y457200D02*
D03*
X82381Y509548D02*
D03*
X259120Y517453D02*
D03*
X230507Y511637D02*
D03*
X69267Y538260D02*
D03*
X451358Y558292D02*
D03*
X334772Y558800D02*
D03*
X217678Y559054D02*
D03*
X100843Y559705D02*
D03*
X379828Y513402D02*
D03*
X146691D02*
D03*
X418475Y538249D02*
D03*
X423768Y533337D02*
D03*
X303146Y538163D02*
D03*
X307199Y533337D02*
D03*
X440457Y531834D02*
D03*
X449957D02*
D03*
X323889D02*
D03*
X333388D02*
D03*
X207320D02*
D03*
X216820D02*
D03*
X195399Y533411D02*
D03*
X70500Y690302D02*
D03*
X74062Y533337D02*
D03*
X100252Y531834D02*
D03*
X90752D02*
D03*
X187330Y538295D02*
D03*
X330454Y650250D02*
D03*
X92988Y515981D02*
D03*
X115408Y509267D02*
D03*
X102899Y513739D02*
D03*
X209557Y515981D02*
D03*
X219468Y513739D02*
D03*
X326125Y515981D02*
D03*
X348545Y509267D02*
D03*
X336036Y513739D02*
D03*
X442523Y499936D02*
D03*
X453080Y514849D02*
D03*
X447715Y507438D02*
D03*
X842125Y8881D02*
D03*
X833882Y6347D02*
D03*
X822198Y6858D02*
D03*
X6021Y795118D02*
D03*
X795220Y844373D02*
D03*
X806283Y844220D02*
D03*
X844819Y795831D02*
D03*
X844804Y806704D02*
D03*
X843620Y496780D02*
D03*
Y486780D02*
D03*
X720856Y6379D02*
D03*
X710856D02*
D03*
X130858D02*
D03*
X6386Y195503D02*
D03*
Y205503D02*
D03*
Y675502D02*
D03*
Y415503D02*
D03*
Y235503D02*
D03*
Y245503D02*
D03*
X596322Y843614D02*
D03*
X843620Y236780D02*
D03*
X6386Y475503D02*
D03*
Y215503D02*
D03*
Y375503D02*
D03*
Y115503D02*
D03*
Y655502D02*
D03*
X140858Y6379D02*
D03*
X516322Y843614D02*
D03*
X843620Y386780D02*
D03*
X220858Y6379D02*
D03*
X6386Y25503D02*
D03*
X90858Y6379D02*
D03*
X6386Y325503D02*
D03*
X756321Y843614D02*
D03*
X116323D02*
D03*
X120858Y6379D02*
D03*
X843620Y636779D02*
D03*
X810856Y6379D02*
D03*
X476322Y843614D02*
D03*
X843620Y766779D02*
D03*
Y96780D02*
D03*
X310857Y6379D02*
D03*
X226322Y843614D02*
D03*
X6386Y685502D02*
D03*
X146323Y843614D02*
D03*
X6386Y285503D02*
D03*
X843620Y136780D02*
D03*
X36323Y843614D02*
D03*
X843620Y836779D02*
D03*
Y76780D02*
D03*
X826321Y843614D02*
D03*
X843620Y676779D02*
D03*
X580857Y6379D02*
D03*
X6386Y555503D02*
D03*
X680857Y6379D02*
D03*
X843620Y716779D02*
D03*
Y656779D02*
D03*
X10860Y6560D02*
D03*
X206322Y843614D02*
D03*
X410857Y6379D02*
D03*
X843620Y696779D02*
D03*
X446322Y843614D02*
D03*
X40858Y6379D02*
D03*
X706321Y843614D02*
D03*
X800856Y6379D02*
D03*
X6386Y315503D02*
D03*
X843620Y826779D02*
D03*
X750856Y6379D02*
D03*
X520857D02*
D03*
X843620Y606779D02*
D03*
Y546779D02*
D03*
Y56780D02*
D03*
X690857Y6379D02*
D03*
X6386Y55504D02*
D03*
X300857Y6379D02*
D03*
X626322Y843614D02*
D03*
X843620Y446780D02*
D03*
Y376780D02*
D03*
Y326780D02*
D03*
Y286780D02*
D03*
X6386Y495503D02*
D03*
X843620Y256780D02*
D03*
X76323Y843614D02*
D03*
X196322D02*
D03*
X270857Y6379D02*
D03*
X6386Y65504D02*
D03*
X530857Y6379D02*
D03*
X6386Y505503D02*
D03*
X56323Y843614D02*
D03*
X766321D02*
D03*
X570857Y6379D02*
D03*
X843620Y666779D02*
D03*
X60858Y6379D02*
D03*
X843620Y536779D02*
D03*
X6386Y345503D02*
D03*
X843620Y396780D02*
D03*
X6386Y295503D02*
D03*
X666322Y843614D02*
D03*
X190858Y6379D02*
D03*
X6386Y365503D02*
D03*
X256322Y843614D02*
D03*
X406322D02*
D03*
X843620Y106780D02*
D03*
X6386Y445503D02*
D03*
X360857Y6379D02*
D03*
X843620Y26781D02*
D03*
X640857Y6379D02*
D03*
X6386Y145503D02*
D03*
Y135503D02*
D03*
X646322Y843614D02*
D03*
X6386Y75503D02*
D03*
Y805502D02*
D03*
Y515503D02*
D03*
Y725502D02*
D03*
Y395503D02*
D03*
X236322Y843614D02*
D03*
X843620Y36780D02*
D03*
X6386Y105503D02*
D03*
Y155503D02*
D03*
X180858Y6379D02*
D03*
X6386Y605502D02*
D03*
X166323Y843614D02*
D03*
X566322D02*
D03*
X843620Y516780D02*
D03*
X6386Y15504D02*
D03*
Y265503D02*
D03*
X490857Y6379D02*
D03*
X843620Y46780D02*
D03*
X466322Y843614D02*
D03*
X6386Y45504D02*
D03*
X636322Y843614D02*
D03*
X786321D02*
D03*
X843620Y596779D02*
D03*
Y816779D02*
D03*
X456322Y843614D02*
D03*
X726321D02*
D03*
X843620Y506780D02*
D03*
Y116780D02*
D03*
Y296780D02*
D03*
X620857Y6379D02*
D03*
X50858D02*
D03*
X6386Y585502D02*
D03*
X500857Y6379D02*
D03*
X200858D02*
D03*
X6386Y705502D02*
D03*
X486322Y843614D02*
D03*
X6386Y755502D02*
D03*
Y695502D02*
D03*
X336322Y843614D02*
D03*
X6386Y85503D02*
D03*
X843620Y166780D02*
D03*
X6386Y485503D02*
D03*
X843620Y336780D02*
D03*
X420857Y6379D02*
D03*
X776321Y843614D02*
D03*
X843620Y466780D02*
D03*
X350857Y6379D02*
D03*
X6386Y175503D02*
D03*
X46323Y843614D02*
D03*
X696321D02*
D03*
X80858Y6379D02*
D03*
X843620Y756779D02*
D03*
Y626779D02*
D03*
X510857Y6379D02*
D03*
X760856D02*
D03*
X296322Y843614D02*
D03*
X843620Y456780D02*
D03*
X480857Y6379D02*
D03*
X656322Y843614D02*
D03*
X843620Y436780D02*
D03*
X6386Y95503D02*
D03*
X110858Y6379D02*
D03*
X843620Y736779D02*
D03*
Y246780D02*
D03*
X340857Y6379D02*
D03*
X266322Y843614D02*
D03*
X6386Y615502D02*
D03*
X70858Y6379D02*
D03*
X176323Y843614D02*
D03*
X346322D02*
D03*
X376322D02*
D03*
X616322D02*
D03*
X843620Y746779D02*
D03*
Y346780D02*
D03*
Y226780D02*
D03*
X330857Y6379D02*
D03*
X843620Y776779D02*
D03*
Y646779D02*
D03*
X6386Y575502D02*
D03*
X106323Y843614D02*
D03*
X186322D02*
D03*
X276322D02*
D03*
X306322D02*
D03*
X676322D02*
D03*
X6386Y745502D02*
D03*
Y785502D02*
D03*
X426322Y843614D02*
D03*
X370857Y6379D02*
D03*
X843620Y196780D02*
D03*
X546322Y843614D02*
D03*
X746321D02*
D03*
X843620Y576779D02*
D03*
X550857Y6379D02*
D03*
X843620Y356780D02*
D03*
X286322Y843614D02*
D03*
X576322D02*
D03*
X436322D02*
D03*
X6386Y275503D02*
D03*
Y185503D02*
D03*
X290857Y6379D02*
D03*
X6386Y765502D02*
D03*
X86323Y843614D02*
D03*
X790856Y6379D02*
D03*
X136323Y843614D02*
D03*
X156323D02*
D03*
X6386Y565503D02*
D03*
Y825502D02*
D03*
X843620Y206780D02*
D03*
Y126780D02*
D03*
Y146780D02*
D03*
X6386Y125503D02*
D03*
X240858Y6379D02*
D03*
X6386Y225503D02*
D03*
X843620Y706779D02*
D03*
X170858Y6379D02*
D03*
X536322Y843614D02*
D03*
X540857Y6379D02*
D03*
X843620Y266780D02*
D03*
Y726779D02*
D03*
X320857Y6379D02*
D03*
X770856D02*
D03*
X6386Y435503D02*
D03*
X386322Y843614D02*
D03*
X843620Y316780D02*
D03*
X6386Y165503D02*
D03*
X506322Y843614D02*
D03*
X843620Y686779D02*
D03*
Y416780D02*
D03*
X12233Y843614D02*
D03*
X590857Y6379D02*
D03*
X380857D02*
D03*
X6386Y625502D02*
D03*
X843620Y426780D02*
D03*
X6386Y535503D02*
D03*
X843620Y16781D02*
D03*
X260857Y6379D02*
D03*
X6386Y465503D02*
D03*
X816321Y843614D02*
D03*
X216322D02*
D03*
X843620Y476780D02*
D03*
X150858Y6379D02*
D03*
X450857D02*
D03*
X210858D02*
D03*
X526322Y843614D02*
D03*
X780856Y6379D02*
D03*
X606322Y843614D02*
D03*
X843620Y566779D02*
D03*
X650857Y6379D02*
D03*
X6386Y595502D02*
D03*
X230858Y6379D02*
D03*
X20858D02*
D03*
X686321Y843614D02*
D03*
X843620Y66780D02*
D03*
Y276780D02*
D03*
X6386Y815502D02*
D03*
X670857Y6379D02*
D03*
X6386Y525503D02*
D03*
X843620Y86780D02*
D03*
X356322Y843614D02*
D03*
X610857Y6379D02*
D03*
X556322Y843614D02*
D03*
X843620Y556779D02*
D03*
Y366780D02*
D03*
X586322Y843614D02*
D03*
X716321D02*
D03*
X600857Y6379D02*
D03*
X700857D02*
D03*
X843620Y786779D02*
D03*
X6386Y355503D02*
D03*
X843620Y176780D02*
D03*
X96323Y843614D02*
D03*
X6386Y455503D02*
D03*
X126323Y843614D02*
D03*
X6386Y635502D02*
D03*
X843620Y616779D02*
D03*
X560857Y6379D02*
D03*
X470857D02*
D03*
X6386Y665502D02*
D03*
Y735502D02*
D03*
Y775502D02*
D03*
X390857Y6379D02*
D03*
X30858D02*
D03*
X6386Y305503D02*
D03*
X326322Y843614D02*
D03*
X366322D02*
D03*
X630857Y6379D02*
D03*
X396322Y843614D02*
D03*
X843620Y216780D02*
D03*
X280857Y6379D02*
D03*
X440857D02*
D03*
X6386Y545503D02*
D03*
X160858Y6379D02*
D03*
X66323Y843614D02*
D03*
X843620Y186780D02*
D03*
X736321Y843614D02*
D03*
X100858Y6379D02*
D03*
X430857D02*
D03*
X843620Y156780D02*
D03*
X6386Y835502D02*
D03*
Y255503D02*
D03*
Y385503D02*
D03*
Y715502D02*
D03*
X496322Y843614D02*
D03*
X246322D02*
D03*
X843620Y306780D02*
D03*
X400857Y6379D02*
D03*
X6386Y335503D02*
D03*
X416322Y843614D02*
D03*
X730856Y6379D02*
D03*
X26323Y843614D02*
D03*
X316322D02*
D03*
X843620Y406780D02*
D03*
X660857Y6379D02*
D03*
X460857D02*
D03*
X250858D02*
D03*
X740856D02*
D03*
X6386Y405503D02*
D03*
Y425503D02*
D03*
Y645502D02*
D03*
X843620Y586779D02*
D03*
X6386Y35503D02*
D03*
X843620Y526780D02*
D03*
X836321Y843614D02*
D03*
D146*
X833850Y833093D02*
D03*
X833634Y15871D02*
D03*
X18491Y15655D02*
D03*
X22754Y826751D02*
D03*
M02*
