G04*
G04 #@! TF.GenerationSoftware,Altium Limited,Altium Designer,24.1.2 (44)*
G04*
G04 Layer_Color=128*
%FSLAX44Y44*%
%MOMM*%
G71*
G04*
G04 #@! TF.SameCoordinates,AB6F2FAD-27B6-4F6E-A281-B90BD4242C19*
G04*
G04*
G04 #@! TF.FilePolarity,Positive*
G04*
G01*
G75*
%ADD17C,0.1270*%
D17*
X401625Y129078D02*
X403625D01*
X402625Y128078D02*
Y130078D01*
X401625Y142078D02*
X403625D01*
X402625Y141078D02*
Y143078D01*
X414625Y129078D02*
X416625D01*
X415625Y128078D02*
Y130078D01*
X414625Y142078D02*
X416625D01*
X415625Y141078D02*
Y143078D01*
X440625Y129078D02*
X442625D01*
X441625Y128078D02*
Y130078D01*
X440625Y142078D02*
X442625D01*
X441625Y141078D02*
Y143078D01*
X648500Y60000D02*
X671500D01*
X660000Y48500D02*
Y71500D01*
X178500Y60000D02*
X201500D01*
X190000Y48500D02*
Y71500D01*
X221250Y70000D02*
X228750D01*
X225000Y66250D02*
Y73750D01*
X221250Y50000D02*
X228750D01*
X225000Y46250D02*
Y53750D01*
X241250Y70000D02*
X248750D01*
X245000Y66250D02*
Y73750D01*
X241250Y50000D02*
X248750D01*
X245000Y46250D02*
Y53750D01*
X261250Y70000D02*
X268750D01*
X265000Y66250D02*
Y73750D01*
X261250Y50000D02*
X268750D01*
X265000Y46250D02*
Y53750D01*
X281250Y70000D02*
X288750D01*
X285000Y66250D02*
Y73750D01*
X281250Y50000D02*
X288750D01*
X285000Y46250D02*
Y53750D01*
X301250Y70000D02*
X308750D01*
X305000Y66250D02*
Y73750D01*
X301250Y50000D02*
X308750D01*
X305000Y46250D02*
Y53750D01*
X321250Y70000D02*
X328750D01*
X325000Y66250D02*
Y73750D01*
X321250Y50000D02*
X328750D01*
X325000Y46250D02*
Y53750D01*
X341250Y70000D02*
X348750D01*
X345000Y66250D02*
Y73750D01*
X341250Y50000D02*
X348750D01*
X345000Y46250D02*
Y53750D01*
X361250Y70000D02*
X368750D01*
X365000Y66250D02*
Y73750D01*
X361250Y50000D02*
X368750D01*
X365000Y46250D02*
Y53750D01*
X381250Y70000D02*
X388750D01*
X385000Y66250D02*
Y73750D01*
X381250Y50000D02*
X388750D01*
X385000Y46250D02*
Y53750D01*
X401250Y70000D02*
X408750D01*
X405000Y66250D02*
Y73750D01*
X401250Y50000D02*
X408750D01*
X405000Y46250D02*
Y53750D01*
X421250Y70000D02*
X428750D01*
X425000Y66250D02*
Y73750D01*
X421250Y50000D02*
X428750D01*
X425000Y46250D02*
Y53750D01*
X441250Y70000D02*
X448750D01*
X445000Y66250D02*
Y73750D01*
X441250Y50000D02*
X448750D01*
X445000Y46250D02*
Y53750D01*
X461250Y70000D02*
X468750D01*
X465000Y66250D02*
Y73750D01*
X461250Y50000D02*
X468750D01*
X465000Y46250D02*
Y53750D01*
X481250Y70000D02*
X488750D01*
X485000Y66250D02*
Y73750D01*
X481250Y50000D02*
X488750D01*
X485000Y46250D02*
Y53750D01*
X501250Y70000D02*
X508750D01*
X505000Y66250D02*
Y73750D01*
X501250Y50000D02*
X508750D01*
X505000Y46250D02*
Y53750D01*
X521250Y70000D02*
X528750D01*
X525000Y66250D02*
Y73750D01*
X521250Y50000D02*
X528750D01*
X525000Y46250D02*
Y53750D01*
X541250Y70000D02*
X548750D01*
X545000Y66250D02*
Y73750D01*
X541250Y50000D02*
X548750D01*
X545000Y46250D02*
Y53750D01*
X561250Y70000D02*
X568750D01*
X565000Y66250D02*
Y73750D01*
X561250Y50000D02*
X568750D01*
X565000Y46250D02*
Y53750D01*
X581250Y70000D02*
X588750D01*
X585000Y66250D02*
Y73750D01*
X581250Y50000D02*
X588750D01*
X585000Y46250D02*
Y53750D01*
X601250Y70000D02*
X608750D01*
X605000Y66250D02*
Y73750D01*
X601250Y50000D02*
X608750D01*
X605000Y46250D02*
Y53750D01*
X621250Y70000D02*
X628750D01*
X625000Y66250D02*
Y73750D01*
X621250Y50000D02*
X628750D01*
X625000Y46250D02*
Y53750D01*
X472750Y740000D02*
X482250D01*
X477500Y735250D02*
Y744750D01*
X657750Y740000D02*
X667250D01*
X662500Y735250D02*
Y744750D01*
X472750Y692500D02*
X482250D01*
X477500Y687750D02*
Y697250D01*
X657750Y692500D02*
X667250D01*
X662500Y687750D02*
Y697250D01*
X162750Y740000D02*
X172250D01*
X167500Y735250D02*
Y744750D01*
X347750Y740000D02*
X357250D01*
X352500Y735250D02*
Y744750D01*
X162750Y692500D02*
X172250D01*
X167500Y687750D02*
Y697250D01*
X347750Y692500D02*
X357250D01*
X352500Y687750D02*
Y697250D01*
X757600Y215400D02*
X767800D01*
X762700Y210300D02*
Y220500D01*
X757600Y190000D02*
X767800D01*
X762700Y184900D02*
Y195100D01*
X732200Y266200D02*
X742400D01*
X737300Y261100D02*
Y271300D01*
X757600Y266200D02*
X767800D01*
X762700Y261100D02*
Y271300D01*
X732200Y240800D02*
X742400D01*
X737300Y235700D02*
Y245900D01*
X757600Y240800D02*
X767800D01*
X762700Y235700D02*
Y245900D01*
X732200Y215400D02*
X742400D01*
X737300Y210300D02*
Y220500D01*
X732200Y190000D02*
X742400D01*
X737300Y184900D02*
Y195100D01*
X732200Y164600D02*
X742400D01*
X737300Y159500D02*
Y169700D01*
X757600Y164600D02*
X767800D01*
X762700Y159500D02*
Y169700D01*
X732200Y139200D02*
X742400D01*
X737300Y134100D02*
Y144300D01*
X757600Y139200D02*
X767800D01*
X762700Y134100D02*
Y144300D01*
X732200Y113800D02*
X742400D01*
X737300Y108700D02*
Y118900D01*
X757600Y113800D02*
X767800D01*
X762700Y108700D02*
Y118900D01*
X109816Y109728D02*
X120816D01*
X115316Y104228D02*
Y115228D01*
X109816Y135128D02*
X120816D01*
X115316Y129628D02*
Y140628D01*
X109816Y160528D02*
X120816D01*
X115316Y155028D02*
Y166028D01*
X109816Y188516D02*
X120816D01*
X115316Y183016D02*
Y194016D01*
X109816Y213916D02*
X120816D01*
X115316Y208416D02*
Y219416D01*
X109816Y239316D02*
X120816D01*
X115316Y233816D02*
Y244816D01*
X109816Y264716D02*
X120816D01*
X115316Y259216D02*
Y270216D01*
X109816Y290116D02*
X120816D01*
X115316Y284616D02*
Y295616D01*
X17060Y52440D02*
X22060D01*
X19560Y49940D02*
Y54940D01*
X49940Y19560D02*
X54940D01*
X52440Y17060D02*
Y22060D01*
X17060Y19560D02*
X22060D01*
X19560Y17060D02*
Y22060D01*
X49940Y52440D02*
X54940D01*
X52440Y49940D02*
Y54940D01*
X56750Y36000D02*
X61750D01*
X59250Y33500D02*
Y38500D01*
X33500Y13140D02*
X38500D01*
X36000Y10640D02*
Y15640D01*
X10250Y36000D02*
X15250D01*
X12750Y33500D02*
Y38500D01*
X33500Y59250D02*
X38500D01*
X36000Y56750D02*
Y61750D01*
X19500Y36000D02*
X52500D01*
X36000Y19500D02*
Y52500D01*
X19500Y814000D02*
X52500D01*
X36000Y797500D02*
Y830500D01*
X33500Y837250D02*
X38500D01*
X36000Y834750D02*
Y839750D01*
X10250Y814000D02*
X15250D01*
X12750Y811500D02*
Y816500D01*
X33500Y791140D02*
X38500D01*
X36000Y788640D02*
Y793640D01*
X56750Y814000D02*
X61750D01*
X59250Y811500D02*
Y816500D01*
X49940Y830440D02*
X54940D01*
X52440Y827940D02*
Y832940D01*
X17060Y797560D02*
X22060D01*
X19560Y795060D02*
Y800060D01*
X49940Y797560D02*
X54940D01*
X52440Y795060D02*
Y800060D01*
X17060Y830440D02*
X22060D01*
X19560Y827940D02*
Y832940D01*
X795060Y830440D02*
X800060D01*
X797560Y827940D02*
Y832940D01*
X827940Y797560D02*
X832940D01*
X830440Y795060D02*
Y800060D01*
X795060Y797560D02*
X800060D01*
X797560Y795060D02*
Y800060D01*
X827940Y830440D02*
X832940D01*
X830440Y827940D02*
Y832940D01*
X834750Y814000D02*
X839750D01*
X837250Y811500D02*
Y816500D01*
X811500Y791140D02*
X816500D01*
X814000Y788640D02*
Y793640D01*
X788250Y814000D02*
X793250D01*
X790750Y811500D02*
Y816500D01*
X811500Y837250D02*
X816500D01*
X814000Y834750D02*
Y839750D01*
X797500Y814000D02*
X830500D01*
X814000Y797500D02*
Y830500D01*
X797500Y36000D02*
X830500D01*
X814000Y19500D02*
Y52500D01*
X811500Y59250D02*
X816500D01*
X814000Y56750D02*
Y61750D01*
X788250Y36000D02*
X793250D01*
X790750Y33500D02*
Y38500D01*
X811500Y13140D02*
X816500D01*
X814000Y10640D02*
Y15640D01*
X834750Y36000D02*
X839750D01*
X837250Y33500D02*
Y38500D01*
X827940Y52440D02*
X832940D01*
X830440Y49940D02*
Y54940D01*
X795060Y19560D02*
X800060D01*
X797560Y17060D02*
Y22060D01*
X827940Y19560D02*
X832940D01*
X830440Y17060D02*
Y22060D01*
X795060Y52440D02*
X800060D01*
X797560Y49940D02*
Y54940D01*
X421582Y430111D02*
X423582D01*
X422582Y429111D02*
Y431111D01*
X409346Y433755D02*
X411346D01*
X410346Y432755D02*
Y434755D01*
X388657Y419030D02*
X390657D01*
X389657Y418030D02*
Y420029D01*
X488106Y382316D02*
X490106D01*
X489106Y381316D02*
Y383316D01*
X471108Y377220D02*
X473108D01*
X472108Y376220D02*
Y378220D01*
X47993Y397807D02*
X49993D01*
X48993Y396807D02*
Y398807D01*
X47993Y408202D02*
X49993D01*
X48993Y407202D02*
Y409202D01*
X417073Y285226D02*
X419073D01*
X418073Y284226D02*
Y286226D01*
X389519Y281982D02*
X391519D01*
X390519Y280982D02*
Y282982D01*
X336511Y256845D02*
X338512D01*
X337511Y255845D02*
Y257845D01*
X276229Y255782D02*
X278229D01*
X277229Y254782D02*
Y256782D01*
X51856Y414782D02*
X53856D01*
X52856Y413783D02*
Y415783D01*
X376160Y244888D02*
X378160D01*
X377160Y243888D02*
Y245888D01*
X494000Y276829D02*
X496000D01*
X495000Y275829D02*
Y277829D01*
X131701Y441139D02*
X133701D01*
X132702Y440139D02*
Y442139D01*
X166640Y444500D02*
X168640D01*
X167640Y443500D02*
Y445500D01*
X150152Y471180D02*
X152152D01*
X151152Y470180D02*
Y472180D01*
X425069Y281870D02*
X427069D01*
X426069Y280870D02*
Y282870D01*
X513981Y281570D02*
X515981D01*
X514981Y280570D02*
Y282570D01*
X504000Y276520D02*
X506000D01*
X505000Y275520D02*
Y277520D01*
X352822Y257674D02*
X354822D01*
X353822Y256674D02*
Y258674D01*
X371110Y257674D02*
X373110D01*
X372110Y256674D02*
Y258674D01*
X384416Y304412D02*
X386416D01*
X385416Y303412D02*
Y305412D01*
X532963Y379193D02*
X534963D01*
X533963Y378193D02*
Y380193D01*
X526538Y365949D02*
X528538D01*
X527538Y364949D02*
Y366949D01*
X596190Y344500D02*
X598190D01*
X597190Y343500D02*
Y345500D01*
X601967Y349307D02*
X603967D01*
X602967Y348307D02*
Y350307D01*
X181784Y155190D02*
X183784D01*
X182784Y154190D02*
Y156190D01*
X96088Y147618D02*
X98088D01*
X97088Y146618D02*
Y148618D01*
X274342Y302600D02*
X276342D01*
X275342Y301600D02*
Y303600D01*
X363079Y281982D02*
X365079D01*
X364079Y280982D02*
Y282982D01*
X477928Y388644D02*
X479928D01*
X478928Y387644D02*
Y389644D01*
X299216Y332209D02*
X301216D01*
X300216Y331209D02*
Y333209D01*
X381110Y315177D02*
X383110D01*
X382110Y314177D02*
Y316177D01*
X414701Y374569D02*
X416701D01*
X415701Y373569D02*
Y375569D01*
X415061Y384977D02*
X417061D01*
X416061Y383977D02*
Y385977D01*
X421176Y379941D02*
X423176D01*
X422176Y378941D02*
Y380941D01*
X421266Y389384D02*
X423266D01*
X422266Y388384D02*
Y390384D01*
X304922Y284480D02*
X306922D01*
X305922Y283480D02*
Y285480D01*
X322850Y413357D02*
X324850D01*
X323850Y412357D02*
Y414357D01*
X48512Y479461D02*
X50512D01*
X49512Y478461D02*
Y480461D01*
X488897Y290696D02*
X490897D01*
X489897Y289696D02*
Y291696D01*
X488897Y309443D02*
X490897D01*
X489897Y308443D02*
Y310443D01*
X605641Y204605D02*
X607641D01*
X606641Y203605D02*
Y205605D01*
X625797Y204605D02*
X627797D01*
X626797Y203605D02*
Y205605D01*
X646169Y204158D02*
X648169D01*
X647169Y203158D02*
Y205158D01*
X655546Y155327D02*
X657546D01*
X656546Y154327D02*
Y156327D01*
X648141Y159242D02*
X650141D01*
X649141Y158242D02*
Y160242D01*
X248918Y649001D02*
X250917D01*
X249918Y648001D02*
Y650001D01*
X288987Y649315D02*
X290987D01*
X289987Y648315D02*
Y650315D01*
X409654Y546703D02*
X411654D01*
X410653Y545703D02*
Y547703D01*
X395514Y546703D02*
X397514D01*
X396514Y545703D02*
Y547703D01*
X292811Y547034D02*
X294811D01*
X293811Y546034D02*
Y548034D01*
X279517Y546888D02*
X281517D01*
X280517Y545888D02*
Y547888D01*
X165417Y546842D02*
X167417D01*
X166417Y545842D02*
Y547842D01*
X152347Y547156D02*
X154347D01*
X153347Y546156D02*
Y548156D01*
X42953Y547449D02*
X44953D01*
X43953Y546449D02*
Y548449D01*
X56652Y547562D02*
X58652D01*
X57652Y546562D02*
Y548562D01*
X281934Y447180D02*
X283934D01*
X282934Y446180D02*
Y448180D01*
X474358Y360563D02*
X476358D01*
X475359Y359563D02*
Y361563D01*
X483511Y342463D02*
X485511D01*
X484511Y341463D02*
Y343463D01*
X486975Y325303D02*
X488975D01*
X487975Y324303D02*
Y326303D01*
X446596Y342505D02*
X448596D01*
X447595Y341505D02*
Y343505D01*
X816286Y775782D02*
X818287D01*
X817287Y774782D02*
Y776783D01*
X796286Y775782D02*
X798287D01*
X797287Y774782D02*
Y776783D01*
X776286Y815782D02*
X778287D01*
X777287Y814782D02*
Y816783D01*
X766286Y795782D02*
X768287D01*
X767287Y794782D02*
Y796783D01*
X776286Y775782D02*
X778287D01*
X777287Y774782D02*
Y776783D01*
X776286Y455782D02*
X778287D01*
X777287Y454782D02*
Y456782D01*
X766286Y435782D02*
X768287D01*
X767287Y434782D02*
Y436782D01*
X776286Y415782D02*
X778287D01*
X777287Y414782D02*
Y416782D01*
X766286Y395782D02*
X768287D01*
X767287Y394782D02*
Y396782D01*
X776286Y375782D02*
X778287D01*
X777287Y374782D02*
Y376782D01*
X766286Y355782D02*
X768287D01*
X767287Y354782D02*
Y356782D01*
X776286Y335782D02*
X778287D01*
X777287Y334782D02*
Y336782D01*
X776286Y295782D02*
X778287D01*
X777287Y294782D02*
Y296782D01*
X776286Y215782D02*
X778287D01*
X777287Y214782D02*
Y216782D01*
X756286Y815782D02*
X758287D01*
X757287Y814782D02*
Y816783D01*
X746286Y795782D02*
X748287D01*
X747287Y794782D02*
Y796783D01*
X756286Y775782D02*
X758287D01*
X757287Y774782D02*
Y776783D01*
X756286Y495782D02*
X758287D01*
X757287Y494782D02*
Y496782D01*
X746286Y435782D02*
X748287D01*
X747287Y434782D02*
Y436782D01*
X756286Y415782D02*
X758287D01*
X757287Y414782D02*
Y416782D01*
X746286Y395782D02*
X748287D01*
X747287Y394782D02*
Y396782D01*
X756286Y375782D02*
X758287D01*
X757287Y374782D02*
Y376782D01*
X746286Y355782D02*
X748287D01*
X747287Y354782D02*
Y356782D01*
X756286Y335782D02*
X758287D01*
X757287Y334782D02*
Y336782D01*
X756286Y295782D02*
X758287D01*
X757287Y294782D02*
Y296782D01*
X756286Y255782D02*
X758287D01*
X757287Y254782D02*
Y256782D01*
X746286Y235782D02*
X748287D01*
X747287Y234782D02*
Y236782D01*
X746286Y195782D02*
X748287D01*
X747287Y194782D02*
Y196782D01*
X756286Y175782D02*
X758287D01*
X757287Y174782D02*
Y176782D01*
X756286Y95782D02*
X758287D01*
X757287Y94782D02*
Y96782D01*
X736286Y815782D02*
X738287D01*
X737287Y814782D02*
Y816783D01*
X726286Y795782D02*
X728287D01*
X727287Y794782D02*
Y796783D01*
X736286Y775782D02*
X738287D01*
X737287Y774782D02*
Y776783D01*
X736286Y495782D02*
X738287D01*
X737287Y494782D02*
Y496782D01*
X726286Y475782D02*
X728287D01*
X727287Y474782D02*
Y476782D01*
X726286Y315782D02*
X728287D01*
X727287Y314782D02*
Y316782D01*
X736286Y295782D02*
X738287D01*
X737287Y294782D02*
Y296782D01*
X726286Y275782D02*
X728287D01*
X727287Y274782D02*
Y276782D01*
X726286Y235782D02*
X728287D01*
X727287Y234782D02*
Y236782D01*
X726286Y195782D02*
X728287D01*
X727287Y194782D02*
Y196782D01*
X736286Y175782D02*
X738287D01*
X737287Y174782D02*
Y176782D01*
X716286Y815782D02*
X718287D01*
X717287Y814782D02*
Y816783D01*
X706286Y795782D02*
X708287D01*
X707287Y794782D02*
Y796783D01*
X716286Y775782D02*
X718287D01*
X717287Y774782D02*
Y776783D01*
X716286Y495782D02*
X718287D01*
X717287Y494782D02*
Y496782D01*
X706286Y475782D02*
X708287D01*
X707287Y474782D02*
Y476782D01*
X716286Y455782D02*
X718287D01*
X717287Y454782D02*
Y456782D01*
X696286Y815782D02*
X698287D01*
X697287Y814782D02*
Y816783D01*
X686286Y795782D02*
X688287D01*
X687287Y794782D02*
Y796783D01*
X696286Y775782D02*
X698287D01*
X697287Y774782D02*
Y776783D01*
X686286Y755782D02*
X688287D01*
X687287Y754782D02*
Y756783D01*
X696286Y735782D02*
X698287D01*
X697287Y734782D02*
Y736783D01*
X686286Y715782D02*
X688287D01*
X687287Y714782D02*
Y716783D01*
X696286Y695782D02*
X698287D01*
X697287Y694782D02*
Y696783D01*
X686286Y675782D02*
X688287D01*
X687287Y674782D02*
Y676782D01*
X696286Y655782D02*
X698287D01*
X697287Y654782D02*
Y656782D01*
X686286Y635782D02*
X688287D01*
X687287Y634782D02*
Y636782D01*
X696286Y455782D02*
X698287D01*
X697287Y454782D02*
Y456782D01*
X696286Y295782D02*
X698287D01*
X697287Y294782D02*
Y296782D01*
X686286Y275782D02*
X688287D01*
X687287Y274782D02*
Y276782D01*
X696286Y255782D02*
X698287D01*
X697287Y254782D02*
Y256782D01*
X676286Y815782D02*
X678287D01*
X677287Y814782D02*
Y816783D01*
X666286Y795782D02*
X668286D01*
X667286Y794782D02*
Y796783D01*
X676286Y775782D02*
X678287D01*
X677287Y774782D02*
Y776783D01*
X666286Y755782D02*
X668286D01*
X667286Y754782D02*
Y756783D01*
X676286Y735782D02*
X678287D01*
X677287Y734782D02*
Y736783D01*
X666286Y715782D02*
X668286D01*
X667286Y714782D02*
Y716783D01*
X676286Y695782D02*
X678287D01*
X677287Y694782D02*
Y696783D01*
X666286Y435782D02*
X668286D01*
X667286Y434782D02*
Y436782D01*
X676286Y375782D02*
X678287D01*
X677287Y374782D02*
Y376782D01*
X676286Y295782D02*
X678287D01*
X677287Y294782D02*
Y296782D01*
X666286Y275782D02*
X668286D01*
X667286Y274782D02*
Y276782D01*
X676286Y255782D02*
X678287D01*
X677287Y254782D02*
Y256782D01*
X666286Y235782D02*
X668286D01*
X667286Y234782D02*
Y236782D01*
X676286Y135782D02*
X678287D01*
X677287Y134782D02*
Y136782D01*
X656286Y815782D02*
X658286D01*
X657286Y814782D02*
Y816783D01*
X646286Y795782D02*
X648286D01*
X647286Y794782D02*
Y796783D01*
X656286Y775782D02*
X658286D01*
X657286Y774782D02*
Y776783D01*
X646286Y755782D02*
X648286D01*
X647286Y754782D02*
Y756783D01*
X646286Y715782D02*
X648286D01*
X647286Y714782D02*
Y716783D01*
X656286Y655782D02*
X658286D01*
X657286Y654782D02*
Y656782D01*
X646286Y555782D02*
X648286D01*
X647286Y554782D02*
Y556782D01*
X636286Y815782D02*
X638286D01*
X637286Y814782D02*
Y816783D01*
X626286Y795782D02*
X628286D01*
X627286Y794782D02*
Y796783D01*
X636286Y775782D02*
X638286D01*
X637286Y774782D02*
Y776783D01*
X626286Y755782D02*
X628286D01*
X627286Y754782D02*
Y756783D01*
X636286Y735782D02*
X638286D01*
X637286Y734782D02*
Y736783D01*
X626286Y715782D02*
X628286D01*
X627286Y714782D02*
Y716783D01*
X636286Y695782D02*
X638286D01*
X637286Y694782D02*
Y696783D01*
X626286Y635782D02*
X628286D01*
X627286Y634782D02*
Y636782D01*
X636286Y615782D02*
X638286D01*
X637286Y614782D02*
Y616782D01*
X626286Y395782D02*
X628286D01*
X627286Y394782D02*
Y396782D01*
X626286Y355782D02*
X628286D01*
X627286Y354782D02*
Y356782D01*
X616286Y815782D02*
X618286D01*
X617286Y814782D02*
Y816783D01*
X606286Y795782D02*
X608286D01*
X607286Y794782D02*
Y796783D01*
X616286Y775782D02*
X618286D01*
X617286Y774782D02*
Y776783D01*
X606286Y755782D02*
X608286D01*
X607286Y754782D02*
Y756783D01*
X616286Y735782D02*
X618286D01*
X617286Y734782D02*
Y736783D01*
X606286Y715782D02*
X608286D01*
X607286Y714782D02*
Y716783D01*
X616286Y695782D02*
X618286D01*
X617286Y694782D02*
Y696783D01*
X606286Y595782D02*
X608286D01*
X607286Y594782D02*
Y596782D01*
X606286Y555782D02*
X608286D01*
X607286Y554782D02*
Y556782D01*
X606286Y515782D02*
X608286D01*
X607286Y514782D02*
Y516782D01*
X616286Y415782D02*
X618286D01*
X617286Y414782D02*
Y416782D01*
X616286Y375782D02*
X618286D01*
X617286Y374782D02*
Y376782D01*
X596286Y815782D02*
X598286D01*
X597286Y814782D02*
Y816783D01*
X586286Y795782D02*
X588286D01*
X587286Y794782D02*
Y796783D01*
X596286Y775782D02*
X598286D01*
X597286Y774782D02*
Y776783D01*
X586286Y755782D02*
X588286D01*
X587286Y754782D02*
Y756783D01*
X596286Y735782D02*
X598286D01*
X597286Y734782D02*
Y736783D01*
X586286Y715782D02*
X588286D01*
X587286Y714782D02*
Y716783D01*
X586286Y555782D02*
X588286D01*
X587286Y554782D02*
Y556782D01*
X576286Y815782D02*
X578286D01*
X577286Y814782D02*
Y816783D01*
X566286Y795782D02*
X568286D01*
X567286Y794782D02*
Y796783D01*
X576286Y775782D02*
X578286D01*
X577286Y774782D02*
Y776783D01*
X566286Y755782D02*
X568286D01*
X567286Y754782D02*
Y756783D01*
X576286Y735782D02*
X578286D01*
X577286Y734782D02*
Y736783D01*
X566286Y715782D02*
X568286D01*
X567286Y714782D02*
Y716783D01*
X566286Y555782D02*
X568286D01*
X567286Y554782D02*
Y556782D01*
X576286Y415782D02*
X578286D01*
X577286Y414782D02*
Y416782D01*
X556286Y815782D02*
X558286D01*
X557286Y814782D02*
Y816783D01*
X546286Y795782D02*
X548286D01*
X547286Y794782D02*
Y796783D01*
X556286Y775782D02*
X558286D01*
X557286Y774782D02*
Y776783D01*
X546286Y755782D02*
X548286D01*
X547286Y754782D02*
Y756783D01*
X556286Y735782D02*
X558286D01*
X557286Y734782D02*
Y736783D01*
X546286Y715782D02*
X548286D01*
X547286Y714782D02*
Y716783D01*
X546286Y515782D02*
X548286D01*
X547286Y514782D02*
Y516782D01*
X556286Y415782D02*
X558286D01*
X557286Y414782D02*
Y416782D01*
X536286Y815782D02*
X538286D01*
X537286Y814782D02*
Y816783D01*
X526286Y795782D02*
X528286D01*
X527286Y794782D02*
Y796783D01*
X536286Y775782D02*
X538286D01*
X537286Y774782D02*
Y776783D01*
X526286Y755782D02*
X528286D01*
X527286Y754782D02*
Y756783D01*
X536286Y735782D02*
X538286D01*
X537286Y734782D02*
Y736783D01*
X526286Y715782D02*
X528286D01*
X527286Y714782D02*
Y716783D01*
X526286Y635782D02*
X528286D01*
X527286Y634782D02*
Y636782D01*
X526286Y395782D02*
X528286D01*
X527286Y394782D02*
Y396782D01*
X516286Y815782D02*
X518286D01*
X517286Y814782D02*
Y816783D01*
X506286Y795782D02*
X508286D01*
X507286Y794782D02*
Y796783D01*
X516286Y775782D02*
X518286D01*
X517286Y774782D02*
Y776783D01*
X506286Y755782D02*
X508286D01*
X507286Y754782D02*
Y756783D01*
X516286Y735782D02*
X518286D01*
X517286Y734782D02*
Y736783D01*
X506286Y715782D02*
X508286D01*
X507286Y714782D02*
Y716783D01*
X516286Y375782D02*
X518286D01*
X517286Y374782D02*
Y376782D01*
X516286Y335782D02*
X518286D01*
X517286Y334782D02*
Y336782D01*
X496286Y815782D02*
X498286D01*
X497286Y814782D02*
Y816783D01*
X486286Y795782D02*
X488286D01*
X487286Y794782D02*
Y796783D01*
X496286Y775782D02*
X498286D01*
X497286Y774782D02*
Y776783D01*
X486286Y755782D02*
X488286D01*
X487286Y754782D02*
Y756783D01*
X496286Y735782D02*
X498286D01*
X497286Y734782D02*
Y736783D01*
X486286Y715782D02*
X488286D01*
X487286Y714782D02*
Y716783D01*
X496286Y695782D02*
X498286D01*
X497286Y694782D02*
Y696783D01*
X486286Y675782D02*
X488286D01*
X487286Y674782D02*
Y676782D01*
X486286Y595782D02*
X488286D01*
X487286Y594782D02*
Y596782D01*
X496286Y495782D02*
X498286D01*
X497286Y494782D02*
Y496782D01*
X496286Y175782D02*
X498286D01*
X497286Y174782D02*
Y176782D01*
X476286Y815782D02*
X478286D01*
X477286Y814782D02*
Y816783D01*
X466286Y795782D02*
X468286D01*
X467286Y794782D02*
Y796783D01*
X476286Y775782D02*
X478286D01*
X477286Y774782D02*
Y776783D01*
X466286Y755782D02*
X468286D01*
X467286Y754782D02*
Y756783D01*
X466286Y595782D02*
X468286D01*
X467286Y594782D02*
Y596782D01*
X466286Y515782D02*
X468286D01*
X467286Y514782D02*
Y516782D01*
X476286Y175782D02*
X478286D01*
X477286Y174782D02*
Y176782D01*
X476286Y135782D02*
X478286D01*
X477286Y134782D02*
Y136782D01*
X456286Y815782D02*
X458286D01*
X457286Y814782D02*
Y816783D01*
X446286Y795782D02*
X448286D01*
X447286Y794782D02*
Y796783D01*
X456286Y575782D02*
X458286D01*
X457286Y574782D02*
Y576782D01*
X456286Y135782D02*
X458286D01*
X457286Y134782D02*
Y136782D01*
X436286Y815782D02*
X438286D01*
X437286Y814782D02*
Y816783D01*
X426286Y795782D02*
X428286D01*
X427286Y794782D02*
Y796783D01*
X436286Y695782D02*
X438286D01*
X437286Y694782D02*
Y696783D01*
X416286Y815782D02*
X418286D01*
X417286Y814782D02*
Y816783D01*
X406286Y795782D02*
X408286D01*
X407286Y794782D02*
Y796783D01*
X406286Y635782D02*
X408286D01*
X407286Y634782D02*
Y636782D01*
X396286Y815782D02*
X398286D01*
X397286Y814782D02*
Y816783D01*
X386286Y795782D02*
X388286D01*
X387286Y794782D02*
Y796783D01*
X396286Y775782D02*
X398286D01*
X397286Y774782D02*
Y776783D01*
X386286Y755782D02*
X388286D01*
X387286Y754782D02*
Y756783D01*
X386286Y675782D02*
X388286D01*
X387286Y674782D02*
Y676782D01*
X376286Y815782D02*
X378286D01*
X377286Y814782D02*
Y816783D01*
X366286Y795782D02*
X368286D01*
X367286Y794782D02*
Y796783D01*
X376286Y775782D02*
X378286D01*
X377286Y774782D02*
Y776783D01*
X366286Y755782D02*
X368286D01*
X367286Y754782D02*
Y756783D01*
X366286Y675782D02*
X368286D01*
X367286Y674782D02*
Y676782D01*
X376286Y135782D02*
X378286D01*
X377286Y134782D02*
Y136782D01*
X356286Y815782D02*
X358286D01*
X357286Y814782D02*
Y816783D01*
X346286Y795782D02*
X348286D01*
X347286Y794782D02*
Y796783D01*
X356286Y775782D02*
X358286D01*
X357286Y774782D02*
Y776783D01*
X346286Y755782D02*
X348286D01*
X347286Y754782D02*
Y756783D01*
X346286Y675782D02*
X348286D01*
X347286Y674782D02*
Y676782D01*
X356286Y575782D02*
X358286D01*
X357286Y574782D02*
Y576782D01*
X356286Y215782D02*
X358286D01*
X357286Y214782D02*
Y216782D01*
X346286Y195782D02*
X348286D01*
X347286Y194782D02*
Y196782D01*
X346286Y155782D02*
X348286D01*
X347286Y154782D02*
Y156782D01*
X336286Y815782D02*
X338286D01*
X337286Y814782D02*
Y816783D01*
X326286Y795782D02*
X328286D01*
X327286Y794782D02*
Y796783D01*
X336286Y775782D02*
X338286D01*
X337286Y774782D02*
Y776783D01*
X326286Y755782D02*
X328286D01*
X327286Y754782D02*
Y756783D01*
X336286Y735782D02*
X338286D01*
X337286Y734782D02*
Y736783D01*
X336286Y575782D02*
X338286D01*
X337286Y574782D02*
Y576782D01*
X336286Y95782D02*
X338286D01*
X337286Y94782D02*
Y96782D01*
X316286Y815782D02*
X318286D01*
X317286Y814782D02*
Y816783D01*
X306286Y795782D02*
X308286D01*
X307286Y794782D02*
Y796783D01*
X316286Y775782D02*
X318286D01*
X317286Y774782D02*
Y776783D01*
X306286Y755782D02*
X308286D01*
X307286Y754782D02*
Y756783D01*
X316286Y735782D02*
X318286D01*
X317286Y734782D02*
Y736783D01*
X316286Y695782D02*
X318286D01*
X317286Y694782D02*
Y696783D01*
X306286Y195782D02*
X308286D01*
X307286Y194782D02*
Y196782D01*
X316286Y95782D02*
X318286D01*
X317286Y94782D02*
Y96782D01*
X296286Y815782D02*
X298286D01*
X297286Y814782D02*
Y816783D01*
X286286Y795782D02*
X288286D01*
X287286Y794782D02*
Y796783D01*
X296286Y775782D02*
X298286D01*
X297286Y774782D02*
Y776783D01*
X286286Y755782D02*
X288286D01*
X287286Y754782D02*
Y756783D01*
X296286Y735782D02*
X298286D01*
X297286Y734782D02*
Y736783D01*
X286286Y275782D02*
X288286D01*
X287286Y274782D02*
Y276782D01*
X296286Y255782D02*
X298286D01*
X297286Y254782D02*
Y256782D01*
X296286Y135782D02*
X298286D01*
X297286Y134782D02*
Y136782D01*
X296286Y95782D02*
X298286D01*
X297286Y94782D02*
Y96782D01*
X276286Y815782D02*
X278286D01*
X277286Y814782D02*
Y816783D01*
X266286Y795782D02*
X268286D01*
X267286Y794782D02*
Y796783D01*
X276286Y775782D02*
X278286D01*
X277286Y774782D02*
Y776783D01*
X266286Y755782D02*
X268286D01*
X267286Y754782D02*
Y756783D01*
X276286Y735782D02*
X278286D01*
X277286Y734782D02*
Y736783D01*
X276286Y695782D02*
X278286D01*
X277286Y694782D02*
Y696783D01*
X266286Y595782D02*
X268286D01*
X267286Y594782D02*
Y596782D01*
X266286Y275782D02*
X268286D01*
X267286Y274782D02*
Y276782D01*
X266286Y195782D02*
X268286D01*
X267286Y194782D02*
Y196782D01*
X256286Y815782D02*
X258286D01*
X257286Y814782D02*
Y816783D01*
X246286Y795782D02*
X248286D01*
X247286Y794782D02*
Y796783D01*
X256286Y775782D02*
X258286D01*
X257286Y774782D02*
Y776783D01*
X246286Y755782D02*
X248286D01*
X247286Y754782D02*
Y756783D01*
X256286Y735782D02*
X258286D01*
X257286Y734782D02*
Y736783D01*
X256286Y295782D02*
X258286D01*
X257286Y294782D02*
Y296782D01*
X256286Y255782D02*
X258286D01*
X257286Y254782D02*
Y256782D01*
X236286Y815782D02*
X238286D01*
X237286Y814782D02*
Y816783D01*
X226286Y795782D02*
X228286D01*
X227286Y794782D02*
Y796783D01*
X236286Y775782D02*
X238286D01*
X237286Y774782D02*
Y776783D01*
X226286Y755782D02*
X228286D01*
X227286Y754782D02*
Y756783D01*
X236286Y735782D02*
X238286D01*
X237286Y734782D02*
Y736783D01*
X226286Y715782D02*
X228286D01*
X227286Y714782D02*
Y716783D01*
X236286Y695782D02*
X238286D01*
X237286Y694782D02*
Y696783D01*
X236286Y575782D02*
X238286D01*
X237286Y574782D02*
Y576782D01*
X216286Y815782D02*
X218286D01*
X217286Y814782D02*
Y816783D01*
X206286Y795782D02*
X208286D01*
X207286Y794782D02*
Y796783D01*
X216286Y775782D02*
X218286D01*
X217286Y774782D02*
Y776783D01*
X206286Y755782D02*
X208286D01*
X207286Y754782D02*
Y756783D01*
X216286Y735782D02*
X218286D01*
X217286Y734782D02*
Y736783D01*
X216286Y575782D02*
X218286D01*
X217286Y574782D02*
Y576782D01*
X216286Y255782D02*
X218286D01*
X217286Y254782D02*
Y256782D01*
X206286Y195782D02*
X208286D01*
X207286Y194782D02*
Y196782D01*
X196286Y815782D02*
X198286D01*
X197286Y814782D02*
Y816783D01*
X186286Y795782D02*
X188286D01*
X187286Y794782D02*
Y796783D01*
X196286Y775782D02*
X198286D01*
X197286Y774782D02*
Y776783D01*
X186286Y755782D02*
X188286D01*
X187286Y754782D02*
Y756783D01*
X196286Y735782D02*
X198286D01*
X197286Y734782D02*
Y736783D01*
X186286Y715782D02*
X188286D01*
X187286Y714782D02*
Y716783D01*
X196286Y695782D02*
X198286D01*
X197286Y694782D02*
Y696783D01*
X186286Y275782D02*
X188286D01*
X187286Y274782D02*
Y276782D01*
X176286Y815782D02*
X178286D01*
X177286Y814782D02*
Y816783D01*
X156286Y815782D02*
X158286D01*
X157286Y814782D02*
Y816783D01*
X146286Y275782D02*
X148286D01*
X147286Y274782D02*
Y276782D01*
X156286Y255782D02*
X158286D01*
X157286Y254782D02*
Y256782D01*
X146286Y235782D02*
X148286D01*
X147286Y234782D02*
Y236782D01*
X156286Y215782D02*
X158286D01*
X157286Y214782D02*
Y216782D01*
X146286Y195782D02*
X148286D01*
X147286Y194782D02*
Y196782D01*
X146286Y75782D02*
X148286D01*
X147286Y74782D02*
Y76782D01*
X146286Y35782D02*
X148286D01*
X147286Y34782D02*
Y36782D01*
X136286Y815782D02*
X138286D01*
X137286Y814782D02*
Y816783D01*
X126286Y275782D02*
X128286D01*
X127286Y274782D02*
Y276782D01*
X136286Y255782D02*
X138286D01*
X137286Y254782D02*
Y256782D01*
X136286Y215782D02*
X138286D01*
X137286Y214782D02*
Y216782D01*
X126286Y195782D02*
X128286D01*
X127286Y194782D02*
Y196782D01*
X126286Y155782D02*
X128286D01*
X127286Y154782D02*
Y156782D01*
X126286Y75782D02*
X128286D01*
X127286Y74782D02*
Y76782D01*
X136286Y55782D02*
X138286D01*
X137286Y54782D02*
Y56782D01*
X126286Y35782D02*
X128286D01*
X127286Y34782D02*
Y36782D01*
X116286Y815782D02*
X118286D01*
X117286Y814782D02*
Y816783D01*
X106286Y275782D02*
X108286D01*
X107286Y274782D02*
Y276782D01*
X106286Y75782D02*
X108286D01*
X107286Y74782D02*
Y76782D01*
X106286Y35782D02*
X108286D01*
X107286Y34782D02*
Y36782D01*
X96286Y815782D02*
X98286D01*
X97286Y814782D02*
Y816783D01*
X96286Y495782D02*
X98286D01*
X97286Y494782D02*
Y496782D01*
X86286Y155782D02*
X88286D01*
X87286Y154782D02*
Y156782D01*
X86286Y35782D02*
X88286D01*
X87286Y34782D02*
Y36782D01*
X76286Y815782D02*
X78286D01*
X77286Y814782D02*
Y816783D01*
X66286Y355782D02*
X68286D01*
X67286Y354782D02*
Y356782D01*
X76286Y175782D02*
X78286D01*
X77286Y174782D02*
Y176782D01*
X56286Y775782D02*
X58286D01*
X57286Y774782D02*
Y776783D01*
X56286Y175782D02*
X58286D01*
X57286Y174782D02*
Y176782D01*
X36286Y775782D02*
X38286D01*
X37286Y774782D02*
Y776783D01*
X26286Y755782D02*
X28286D01*
X27286Y754782D02*
Y756783D01*
X26286Y715782D02*
X28286D01*
X27286Y714782D02*
Y716783D01*
X36286Y695782D02*
X38286D01*
X37286Y694782D02*
Y696783D01*
X26286Y675782D02*
X28286D01*
X27286Y674782D02*
Y676782D01*
X836286Y785782D02*
X838287D01*
X837287Y784782D02*
Y786783D01*
X61286Y835782D02*
X63286D01*
X62286Y834782D02*
Y836783D01*
X78300Y60960D02*
X80300D01*
X79300Y59960D02*
Y61960D01*
X46276Y430788D02*
X48276D01*
X47276Y429789D02*
Y431788D01*
X96813Y485262D02*
X98813D01*
X97814Y484263D02*
Y486263D01*
X39865Y485125D02*
X41865D01*
X40865Y484124D02*
Y486124D01*
X57586Y393685D02*
X59587D01*
X58587Y392685D02*
Y394684D01*
X67312Y388681D02*
X69312D01*
X68312Y387681D02*
Y389681D01*
X295077Y215884D02*
X297076D01*
X296077Y214884D02*
Y216884D01*
X262057Y215884D02*
X264056D01*
X263057Y214884D02*
Y216884D01*
X278512Y215884D02*
X280513D01*
X279513Y214884D02*
Y216884D01*
X281702Y199390D02*
X283702D01*
X282702Y198390D02*
Y200390D01*
X291428Y194387D02*
X293428D01*
X292428Y193387D02*
Y195387D01*
X222520Y204963D02*
X224520D01*
X223520Y203963D02*
Y205963D01*
X206010Y204470D02*
X208010D01*
X207010Y203470D02*
Y205470D01*
X191606Y194387D02*
X193606D01*
X192606Y193387D02*
Y195387D01*
X181880Y199390D02*
X183880D01*
X182880Y198390D02*
Y200390D01*
X250460Y160020D02*
X252460D01*
X251460Y159020D02*
Y161020D01*
X270780Y160020D02*
X272780D01*
X271780Y159020D02*
Y161020D01*
X260620Y166370D02*
X262620D01*
X261620Y165370D02*
Y167370D01*
X260620Y148590D02*
X262620D01*
X261620Y147590D02*
Y149590D01*
X260620Y182880D02*
X262620D01*
X261620Y181880D02*
Y183880D01*
X745110Y747410D02*
X747110D01*
X746110Y746410D02*
Y748410D01*
X762890Y738520D02*
X764890D01*
X763890Y737520D02*
Y739520D01*
X745110Y521410D02*
X747110D01*
X746110Y520410D02*
Y522410D01*
X762890Y512520D02*
X764890D01*
X763890Y511520D02*
Y513520D01*
X745110Y318310D02*
X747110D01*
X746110Y317310D02*
Y319310D01*
X762890Y309420D02*
X764890D01*
X763890Y308420D02*
Y310420D01*
X763540Y459740D02*
X765540D01*
X764540Y458740D02*
Y460740D01*
X745760Y468630D02*
X747760D01*
X746760Y467630D02*
Y469630D01*
X246075Y111760D02*
X248075D01*
X247075Y110760D02*
Y112760D01*
X246075Y123190D02*
X248075D01*
X247075Y122190D02*
Y124190D01*
X227577Y111760D02*
X229577D01*
X228577Y110760D02*
Y112760D01*
X227577Y123190D02*
X229577D01*
X228577Y122190D02*
Y124190D01*
X520899Y84140D02*
X522899D01*
X521899Y83140D02*
Y85140D01*
X454216Y237395D02*
X456216D01*
X455216Y236395D02*
Y238395D01*
X651089Y87630D02*
X653089D01*
X652089Y86630D02*
Y88630D01*
X587842Y87793D02*
X589842D01*
X588842Y86793D02*
Y88793D01*
X514832Y87842D02*
X516832D01*
X515832Y86842D02*
Y88842D01*
X437068Y220555D02*
X439068D01*
X438068Y219555D02*
Y221555D01*
X441155Y224642D02*
X443155D01*
X442155Y223642D02*
Y225642D01*
X445243Y228729D02*
X447243D01*
X446242Y227729D02*
Y229729D01*
X449330Y232817D02*
X451330D01*
X450330Y231817D02*
Y233816D01*
X28606Y575530D02*
X30606D01*
X29606Y574530D02*
Y576530D01*
X39668Y575530D02*
X41668D01*
X40668Y574530D02*
Y576530D01*
X34137Y583984D02*
X36137D01*
X35137Y582984D02*
Y584984D01*
X45198Y583984D02*
X47198D01*
X46198Y582984D02*
Y584984D01*
X50729Y575530D02*
X52729D01*
X51729Y574530D02*
Y576530D01*
X396510Y188358D02*
X398510D01*
X397510Y187358D02*
Y189358D01*
X86875Y629800D02*
X88875D01*
X87875Y628801D02*
Y630801D01*
X80155Y619894D02*
X82155D01*
X81155Y618895D02*
Y620895D01*
X69892Y628531D02*
X71892D01*
X70892Y627531D02*
Y629530D01*
X63172Y618624D02*
X65172D01*
X64172Y617625D02*
Y619624D01*
X85673Y647630D02*
X87673D01*
X86673Y646630D02*
Y648630D01*
X78953Y637724D02*
X80953D01*
X79953Y636724D02*
Y638724D01*
X69101Y646399D02*
X71101D01*
X70101Y645399D02*
Y647399D01*
X62381Y636493D02*
X64381D01*
X63381Y635493D02*
Y637493D01*
X133675Y736953D02*
X135675D01*
X134675Y735953D02*
Y737953D01*
X44720Y752602D02*
X46720D01*
X45720Y751602D02*
Y753602D01*
X51440Y762508D02*
X53440D01*
X52440Y761508D02*
Y763508D01*
X70720Y752602D02*
X72720D01*
X71720Y751602D02*
Y753602D01*
X77440Y762508D02*
X79440D01*
X78440Y761508D02*
Y763508D01*
X107389Y761880D02*
X109389D01*
X108389Y760881D02*
Y762880D01*
X100669Y751974D02*
X102669D01*
X101669Y750975D02*
Y752974D01*
X97406Y762262D02*
X99406D01*
X98406Y761262D02*
Y763261D01*
X90686Y752355D02*
X92686D01*
X91686Y751356D02*
Y753355D01*
X87423Y761880D02*
X89423D01*
X88423Y760881D02*
Y762880D01*
X80703Y751974D02*
X82703D01*
X81703Y750975D02*
Y752974D01*
X418058Y359430D02*
X420058D01*
X419058Y358430D02*
Y360430D01*
X178193Y336661D02*
X180193D01*
X179193Y335662D02*
Y337662D01*
X189887Y336400D02*
X191887D01*
X190887Y335400D02*
Y337400D01*
X175530Y386530D02*
X177530D01*
X176530Y385530D02*
Y387530D01*
X133509Y329568D02*
X135509D01*
X134509Y328568D02*
Y330568D01*
X591250Y414750D02*
X593250D01*
X592250Y413750D02*
Y415750D01*
X484885Y448707D02*
X486885D01*
X485885Y447707D02*
Y449707D01*
X479402Y455896D02*
X481401D01*
X480401Y454897D02*
Y456897D01*
X222520Y186690D02*
X224520D01*
X223520Y185690D02*
Y187690D01*
X363490Y212500D02*
X365490D01*
X364490Y211500D02*
Y213500D01*
X427475Y212500D02*
X429475D01*
X428475Y211500D02*
Y213500D01*
X239030Y302456D02*
X241030D01*
X240030Y301456D02*
Y303456D01*
X302530Y257810D02*
X304530D01*
X303530Y256810D02*
Y258810D01*
X230631Y441262D02*
X232631D01*
X231631Y440262D02*
Y442262D01*
X230769Y365715D02*
X232769D01*
X231769Y364715D02*
Y366715D01*
X131444Y451180D02*
X133444D01*
X132444Y450180D02*
Y452180D01*
X68850Y451843D02*
X70850D01*
X69850Y450844D02*
Y452844D01*
X50087Y537935D02*
X52087D01*
X51087Y536935D02*
Y538935D01*
X158892Y537071D02*
X160892D01*
X159892Y536071D02*
Y538071D01*
X524780Y116840D02*
X526780D01*
X525780Y115840D02*
Y117840D01*
X391430Y119380D02*
X393430D01*
X392430Y118380D02*
Y120380D01*
X335978Y107702D02*
X337978D01*
X336978Y106702D02*
Y108702D01*
X623804Y129822D02*
X625804D01*
X624804Y128822D02*
Y130822D01*
X596015Y200685D02*
X598015D01*
X597015Y199685D02*
Y201685D01*
X632539Y239854D02*
X634539D01*
X633539Y238854D02*
Y240854D01*
X575539Y248970D02*
X577539D01*
X576539Y247970D02*
Y249970D01*
X319167Y424182D02*
X321167D01*
X320167Y423182D02*
Y425182D01*
X385080Y433755D02*
X387080D01*
X386080Y432755D02*
Y434755D01*
X322902Y467713D02*
X324902D01*
X323902Y466712D02*
Y468712D01*
X329200Y176530D02*
X331200D01*
X330200Y175530D02*
Y177530D01*
X432570Y176576D02*
X434571D01*
X433571Y175576D02*
Y177576D01*
X250460Y187960D02*
X252460D01*
X251460Y186960D02*
Y188960D01*
X578685Y359547D02*
X580685D01*
X579685Y358547D02*
Y360547D01*
X587010Y364490D02*
X589010D01*
X588010Y363490D02*
Y365490D01*
X611024Y353899D02*
X613024D01*
X612024Y352900D02*
Y354899D01*
X400960Y259283D02*
X402960D01*
X401959Y258283D02*
Y260283D01*
X396373Y247029D02*
X398373D01*
X397373Y246029D02*
Y248029D01*
X584802Y204661D02*
X586802D01*
X585802Y203661D02*
Y205661D01*
X128613Y423077D02*
X130613D01*
X129613Y422077D02*
Y424077D01*
X200351Y408981D02*
X202351D01*
X201351Y407981D02*
Y409981D01*
X199891Y391542D02*
X201891D01*
X200891Y390542D02*
Y392542D01*
X215299Y396181D02*
X217299D01*
X216299Y395181D02*
Y397181D01*
X207959Y378333D02*
X209959D01*
X208959Y377333D02*
Y379333D01*
X42763Y441193D02*
X44763D01*
X43763Y440192D02*
Y442192D01*
X96536Y82804D02*
X98536D01*
X97536Y81804D02*
Y83804D01*
X546408Y455451D02*
X548408D01*
X547408Y454451D02*
Y456451D01*
X486390Y210389D02*
X488390D01*
X487390Y209389D02*
Y211389D01*
X662445Y633196D02*
X664445D01*
X663445Y632196D02*
Y634196D01*
X649536Y452830D02*
X651536D01*
X650536Y451830D02*
Y453830D01*
X559588Y462149D02*
X561588D01*
X560588Y461149D02*
Y463149D01*
X497964Y336757D02*
X499964D01*
X498964Y335756D02*
Y337756D01*
X498110Y472440D02*
X500110D01*
X499110Y471440D02*
Y473440D01*
X534228Y462057D02*
X536228D01*
X535228Y461057D02*
Y463057D01*
X280055Y465320D02*
X282055D01*
X281055Y464319D02*
Y466320D01*
X404619Y498433D02*
X406619D01*
X405619Y497433D02*
Y499433D01*
X430431Y503694D02*
X432431D01*
X431431Y502694D02*
Y504694D01*
X319467Y508638D02*
X321467D01*
X320467Y507638D02*
Y509638D01*
X309476Y497181D02*
X311476D01*
X310476Y496181D02*
Y498181D01*
X240309Y485937D02*
X242309D01*
X241309Y484937D02*
Y486937D01*
X231952Y481996D02*
X233952D01*
X232952Y480996D02*
Y482996D01*
X322850Y432103D02*
X324850D01*
X323850Y431102D02*
Y433102D01*
X322850Y450848D02*
X324850D01*
X323850Y449847D02*
Y451847D01*
X483630Y276520D02*
X485630D01*
X484630Y275520D02*
Y277520D01*
X713573Y543089D02*
X715573D01*
X714573Y542089D02*
Y544089D01*
X729250Y543114D02*
X731250D01*
X730250Y542114D02*
Y544114D01*
X713573Y705589D02*
X715573D01*
X714573Y704589D02*
Y706589D01*
X729250Y705614D02*
X731250D01*
X730250Y704614D02*
Y706614D01*
X729232Y718118D02*
X731232D01*
X730232Y717118D02*
Y719118D01*
X713555Y718093D02*
X715555D01*
X714555Y717093D02*
Y719093D01*
X720108Y340042D02*
X722108D01*
X721108Y339042D02*
Y341042D01*
X730502Y340018D02*
X732502D01*
X731502Y339018D02*
Y341018D01*
X537212Y200703D02*
X539212D01*
X538212Y199703D02*
Y201703D01*
X543812Y191177D02*
X545812D01*
X544812Y190177D02*
Y192177D01*
X531112Y191177D02*
X533112D01*
X532112Y190177D02*
Y192177D01*
X652618Y194109D02*
X654618D01*
X653618Y193109D02*
Y195109D01*
X651373Y145476D02*
X653373D01*
X652373Y144476D02*
Y146476D01*
X644016Y137004D02*
X646016D01*
X645016Y136004D02*
Y138004D01*
X659100Y136986D02*
X661099D01*
X660099Y135985D02*
Y137985D01*
X659118Y124361D02*
X661118D01*
X660118Y123361D02*
Y125361D01*
X644034Y124342D02*
X646034D01*
X645034Y123343D02*
Y125343D01*
X632551Y453362D02*
X634551D01*
X633550Y452362D02*
Y454362D01*
X669891Y473261D02*
X671891D01*
X670891Y472261D02*
Y474261D01*
X430596Y308273D02*
X432596D01*
X431596Y307273D02*
Y309273D01*
X473931Y307890D02*
X475931D01*
X474931Y306890D02*
Y308890D01*
X473998Y290696D02*
X475998D01*
X474998Y289696D02*
Y291696D01*
X473924Y342323D02*
X475924D01*
X474924Y341323D02*
Y343323D01*
X473966Y325163D02*
X475966D01*
X474966Y324163D02*
Y326163D01*
X430556Y360490D02*
X432556D01*
X431556Y359490D02*
Y361490D01*
X431133Y291211D02*
X433133D01*
X432133Y290211D02*
Y292211D01*
X431206Y325000D02*
X433206D01*
X432206Y324000D02*
Y326000D01*
X431206Y342500D02*
X433206D01*
X432206Y341500D02*
Y343500D01*
X230619Y283649D02*
X232619D01*
X231619Y282649D02*
Y284649D01*
X484567Y232817D02*
X486567D01*
X485568Y231817D02*
Y233816D01*
X468950Y238764D02*
X470950D01*
X469950Y237764D02*
Y239764D01*
X184049Y222588D02*
X186049D01*
X185049Y221588D02*
Y223588D01*
X529515Y244712D02*
X531515D01*
X530515Y243712D02*
Y245712D01*
X538191Y237181D02*
X540191D01*
X539192Y236181D02*
Y238181D01*
X522505Y237389D02*
X524505D01*
X523505Y236389D02*
Y238389D01*
X459224Y499809D02*
X461223D01*
X460224Y498809D02*
Y500809D01*
X526975Y475662D02*
X528975D01*
X527975Y474662D02*
Y476662D01*
X415954Y444665D02*
X417954D01*
X416954Y443665D02*
Y445665D01*
X449000Y452500D02*
X451000D01*
X450000Y451500D02*
Y453500D01*
X469050Y432500D02*
X471050D01*
X470050Y431500D02*
Y433500D01*
X266542Y339988D02*
X268542D01*
X267542Y338988D02*
Y340988D01*
X266542Y358733D02*
X268542D01*
X267542Y357733D02*
Y359733D01*
X266542Y377478D02*
X268542D01*
X267542Y376478D02*
Y378478D01*
X266542Y396223D02*
X268542D01*
X267542Y395223D02*
Y397223D01*
X266542Y414968D02*
X268542D01*
X267542Y413968D02*
Y415968D01*
X266542Y433713D02*
X268542D01*
X267542Y432713D02*
Y434713D01*
X266542Y452458D02*
X268542D01*
X267542Y451458D02*
Y453458D01*
X449000Y432500D02*
X451000D01*
X450000Y431500D02*
Y433500D01*
X115101Y356075D02*
X117101D01*
X116101Y355075D02*
Y357075D01*
X104759Y355801D02*
X106759D01*
X105759Y354801D02*
Y356801D01*
X104127Y370919D02*
X106127D01*
X105127Y369920D02*
Y371919D01*
X115503Y371196D02*
X117503D01*
X116503Y370196D02*
Y372196D01*
X86358Y455000D02*
X88358D01*
X87358Y454000D02*
Y456000D01*
X474435Y214530D02*
X476435D01*
X475435Y213530D02*
Y215530D01*
X741818Y564596D02*
X743818D01*
X742818Y563596D02*
Y565596D01*
X741818Y558816D02*
X743818D01*
X742818Y557816D02*
Y559816D01*
X742033Y614540D02*
X744033D01*
X743033Y613540D02*
Y615540D01*
X742033Y608760D02*
X744033D01*
X743033Y607760D02*
Y609760D01*
X742033Y589814D02*
X744033D01*
X743033Y588814D02*
Y590814D01*
X742033Y584034D02*
X744033D01*
X743033Y583034D02*
Y585034D01*
X96480Y428180D02*
X98480D01*
X97480Y427180D02*
Y429180D01*
X402660Y536592D02*
X404660D01*
X403660Y535592D02*
Y537592D01*
X394657Y528903D02*
X396657D01*
X395657Y527902D02*
Y529902D01*
X286364Y536264D02*
X288364D01*
X287364Y535264D02*
Y537264D01*
X278088Y528903D02*
X280089D01*
X279088Y527902D02*
Y529902D01*
X290126Y627286D02*
X292127D01*
X291126Y626286D02*
Y628286D01*
X424167Y552127D02*
X426167D01*
X425167Y551127D02*
Y553127D01*
X307598Y552127D02*
X309599D01*
X308598Y551127D02*
Y553127D01*
X191231Y555005D02*
X193230D01*
X192230Y554005D02*
Y556005D01*
X113102Y518835D02*
X115102D01*
X114102Y517835D02*
Y519835D01*
X74461Y554321D02*
X76462D01*
X75462Y553321D02*
Y555321D01*
X261903Y627122D02*
X263903D01*
X262903Y626122D02*
Y628122D01*
X261903Y615442D02*
X263903D01*
X262903Y614442D02*
Y616442D01*
X191838Y508677D02*
X193838D01*
X192838Y507677D02*
Y509677D01*
X329426Y698754D02*
X331426D01*
X330426Y697754D02*
Y699754D01*
X288972Y698754D02*
X290972D01*
X289972Y697754D02*
Y699754D01*
X248972Y698754D02*
X250972D01*
X249972Y697754D02*
Y699754D01*
X208972Y698754D02*
X210972D01*
X209972Y697754D02*
Y699754D01*
X494384Y575009D02*
X496384D01*
X495384Y574009D02*
Y576009D01*
X488853Y583463D02*
X490853D01*
X489853Y582463D02*
Y584463D01*
X477792Y583463D02*
X479792D01*
X478792Y582463D02*
Y584463D01*
X483322Y575009D02*
X485322D01*
X484323Y574009D02*
Y576009D01*
X472261Y575009D02*
X474261D01*
X473261Y574009D02*
Y576009D01*
X417766Y626424D02*
X419766D01*
X418766Y625424D02*
Y627424D01*
X450950Y626424D02*
X452950D01*
X451950Y625424D02*
Y627424D01*
X445419Y634878D02*
X447419D01*
X446419Y633878D02*
Y635878D01*
X434358Y634878D02*
X436358D01*
X435358Y633878D02*
Y635878D01*
X439888Y626424D02*
X441888D01*
X440888Y625424D02*
Y627424D01*
X423297Y634878D02*
X425297D01*
X424297Y633878D02*
Y635878D01*
X428827Y626424D02*
X430827D01*
X429827Y625424D02*
Y627424D01*
X127323Y571528D02*
X129323D01*
X128323Y570528D02*
Y572528D01*
X160507Y571528D02*
X162507D01*
X161507Y570528D02*
Y572528D01*
X154976Y579981D02*
X156976D01*
X155976Y578981D02*
Y580981D01*
X143915Y579981D02*
X145915D01*
X144915Y578981D02*
Y580981D01*
X149446Y571528D02*
X151446D01*
X150446Y570528D02*
Y572528D01*
X132854Y579981D02*
X134854D01*
X133854Y578981D02*
Y580981D01*
X138385Y571528D02*
X140385D01*
X139384Y570528D02*
Y572528D01*
X243892Y571528D02*
X245892D01*
X244892Y570528D02*
Y572528D01*
X277075Y571528D02*
X279075D01*
X278075Y570528D02*
Y572528D01*
X271545Y579981D02*
X273545D01*
X272545Y578981D02*
Y580981D01*
X260484Y579981D02*
X262484D01*
X261484Y578981D02*
Y580981D01*
X266014Y571528D02*
X268014D01*
X267014Y570528D02*
Y572528D01*
X249422Y579981D02*
X251422D01*
X250422Y578981D02*
Y580981D01*
X254953Y571528D02*
X256953D01*
X255953Y570528D02*
Y572528D01*
X371521Y571528D02*
X373521D01*
X372522Y570528D02*
Y572528D01*
X365991Y579981D02*
X367991D01*
X366991Y578981D02*
Y580981D01*
X382583Y571528D02*
X384583D01*
X383583Y570528D02*
Y572528D01*
X377052Y579981D02*
X379052D01*
X378052Y578981D02*
Y580981D01*
X388113Y579981D02*
X390113D01*
X389113Y578981D02*
Y580981D01*
X393644Y571528D02*
X395644D01*
X394644Y570528D02*
Y572528D01*
X360460Y571528D02*
X362460D01*
X361460Y570528D02*
Y572528D01*
X350028Y624078D02*
X352028D01*
X351028Y623078D02*
Y625078D01*
X322178Y624321D02*
X324178D01*
X323178Y623321D02*
Y625321D01*
X335806Y624321D02*
X337805D01*
X336805Y623321D02*
Y625321D01*
X215918Y620360D02*
X217918D01*
X216918Y619360D02*
Y621360D01*
X205493Y620360D02*
X207493D01*
X206493Y619360D02*
Y621360D01*
X195067Y620360D02*
X197067D01*
X196067Y619360D02*
Y621360D01*
X146128Y621407D02*
X148128D01*
X147128Y620407D02*
Y622407D01*
X138717Y632884D02*
X140717D01*
X139717Y631884D02*
Y633884D01*
X139735Y663737D02*
X141735D01*
X140735Y662737D02*
Y664737D01*
X445424Y668884D02*
X447424D01*
X446424Y667884D02*
Y669884D01*
X445424Y704444D02*
X447424D01*
X446424Y703444D02*
Y705444D01*
X453788Y740040D02*
X455788D01*
X454788Y739040D02*
Y741040D01*
X453788Y775600D02*
X455788D01*
X454788Y774600D02*
Y776600D01*
X405720Y669102D02*
X407720D01*
X406720Y668102D02*
Y670102D01*
X405720Y704662D02*
X407720D01*
X406720Y703662D02*
Y705662D01*
X405720Y740222D02*
X407720D01*
X406720Y739222D02*
Y741222D01*
X405654Y775716D02*
X407654D01*
X406654Y774716D02*
Y776716D01*
X88012Y233442D02*
X90012D01*
X89012Y232442D02*
Y234442D01*
X93600Y339692D02*
X95600D01*
X94600Y338692D02*
Y340692D01*
X51832Y608584D02*
X53832D01*
X52832Y607584D02*
Y609584D01*
X51832Y618490D02*
X53832D01*
X52832Y617490D02*
Y619490D01*
X51308Y647528D02*
X53308D01*
X52308Y646528D02*
Y648528D01*
X44588Y637622D02*
X46588D01*
X45588Y636622D02*
Y638622D01*
X51506Y732533D02*
X53506D01*
X52506Y731533D02*
Y733533D01*
X44786Y722627D02*
X46786D01*
X45786Y721627D02*
Y723627D01*
X670576Y518922D02*
X672576D01*
X671576Y517922D02*
Y519922D01*
X680860Y633196D02*
X682859D01*
X681860Y632196D02*
Y634196D01*
X644281Y633196D02*
X646281D01*
X645281Y632196D02*
Y634196D01*
X571185Y633515D02*
X573185D01*
X572185Y632515D02*
Y634515D01*
X589381Y609470D02*
X591381D01*
X590381Y608470D02*
Y610470D01*
X626022Y609098D02*
X628022D01*
X627022Y608098D02*
Y610098D01*
X670090Y586705D02*
X672090D01*
X671090Y585705D02*
Y587705D01*
X561270Y496759D02*
X563270D01*
X562270Y495759D02*
Y497759D01*
X497653Y546862D02*
X499653D01*
X498653Y545862D02*
Y547862D01*
X487484Y546862D02*
X489484D01*
X488484Y545862D02*
Y547862D01*
X477316Y546862D02*
X479316D01*
X478316Y545862D02*
Y547862D01*
X355079Y546862D02*
X357079D01*
X356078Y545862D02*
Y547862D01*
X365628Y546862D02*
X367628D01*
X366628Y545862D02*
Y547862D01*
X376177Y546862D02*
X378177D01*
X377177Y545862D02*
Y547862D01*
X386726Y546862D02*
X388726D01*
X387726Y545862D02*
Y547862D01*
X238510Y546862D02*
X240510D01*
X239510Y545862D02*
Y547862D01*
X249059Y546862D02*
X251059D01*
X250059Y545862D02*
Y547862D01*
X259609Y546862D02*
X261609D01*
X260609Y545862D02*
Y547862D01*
X270158Y546862D02*
X272158D01*
X271158Y545862D02*
Y547862D01*
X121941Y546862D02*
X123941D01*
X122942Y545862D02*
Y547862D01*
X132491Y546862D02*
X134491D01*
X133491Y545862D02*
Y547862D01*
X143040Y546862D02*
X145040D01*
X144040Y545862D02*
Y547862D01*
X174688Y546862D02*
X176688D01*
X175688Y545862D02*
Y547862D01*
X208972Y648624D02*
X210972D01*
X209972Y647625D02*
Y649624D01*
X438699Y538718D02*
X440699D01*
X439699Y537719D02*
Y539719D01*
X321876Y538973D02*
X323876D01*
X322876Y537972D02*
Y539972D01*
X90009Y538718D02*
X92009D01*
X91009Y537719D02*
Y539719D01*
X99251Y538718D02*
X101251D01*
X100252Y537719D02*
Y539719D01*
X215820Y538718D02*
X217820D01*
X216820Y537719D02*
Y539719D01*
X206578Y538718D02*
X208578D01*
X207578Y537719D02*
Y539719D01*
X238014Y518617D02*
X240014D01*
X239014Y517617D02*
Y519617D01*
X124665Y692253D02*
X126665D01*
X125665Y691253D02*
Y693252D01*
X44778Y528903D02*
X46778D01*
X45778Y527902D02*
Y529902D01*
X546313Y546315D02*
X548313D01*
X547313Y545315D02*
Y547315D01*
X669344Y545689D02*
X671344D01*
X670344Y544689D02*
Y546689D01*
X619000Y651500D02*
X621000D01*
X620000Y650500D02*
Y652500D01*
X539000Y673595D02*
X541000D01*
X540000Y672595D02*
Y674595D01*
X539000Y651500D02*
X541000D01*
X540000Y650500D02*
Y652500D01*
X55388Y134366D02*
X57388D01*
X56388Y133366D02*
Y135366D01*
X96536Y103497D02*
X98536D01*
X97536Y102497D02*
Y104496D01*
X354469Y513307D02*
X356469D01*
X355470Y512307D02*
Y514307D01*
X552820Y633555D02*
X554820D01*
X553820Y632555D02*
Y634555D01*
X487791Y520917D02*
X489791D01*
X488791Y519917D02*
Y521917D01*
X142510Y645471D02*
X144510D01*
X143510Y644471D02*
Y646471D01*
X329000Y676500D02*
X331000D01*
X330000Y675500D02*
Y677500D01*
X289000Y676500D02*
X291000D01*
X290000Y675500D02*
Y677500D01*
X249000Y676500D02*
X251000D01*
X250000Y675500D02*
Y677500D01*
X209000Y676500D02*
X211000D01*
X210000Y675500D02*
Y677500D01*
X143647Y722630D02*
X145647D01*
X144647Y721630D02*
Y723630D01*
X143647Y736953D02*
X145647D01*
X144647Y735953D02*
Y737953D01*
X143647Y750570D02*
X145647D01*
X144647Y749570D02*
Y751570D01*
X133443Y757301D02*
X135443D01*
X134443Y756301D02*
Y758301D01*
X143647Y762000D02*
X145647D01*
X144647Y761000D02*
Y763000D01*
X133226Y682041D02*
X135226D01*
X134226Y681041D02*
Y683041D01*
X519359Y678786D02*
X521359D01*
X520359Y677786D02*
Y679786D01*
X558936Y673595D02*
X560936D01*
X559936Y672595D02*
Y674595D01*
X598960Y673453D02*
X600961D01*
X599961Y672453D02*
Y674453D01*
X638908Y679047D02*
X640908D01*
X639908Y678047D02*
Y680047D01*
X118380Y433252D02*
X120380D01*
X119380Y432252D02*
Y434252D01*
X96480Y457200D02*
X98480D01*
X97480Y456200D02*
Y458200D01*
X81381Y509548D02*
X83381D01*
X82381Y508548D02*
Y510547D01*
X258120Y517453D02*
X260120D01*
X259120Y516453D02*
Y518453D01*
X229507Y511637D02*
X231507D01*
X230507Y510637D02*
Y512637D01*
X68267Y538260D02*
X70267D01*
X69267Y537260D02*
Y539260D01*
X450358Y558292D02*
X452358D01*
X451358Y557292D02*
Y559292D01*
X333772Y558800D02*
X335772D01*
X334772Y557800D02*
Y559800D01*
X216678Y559054D02*
X218678D01*
X217678Y558054D02*
Y560054D01*
X99843Y559705D02*
X101843D01*
X100843Y558705D02*
Y560705D01*
X378828Y513402D02*
X380828D01*
X379828Y512402D02*
Y514403D01*
X145691Y513402D02*
X147691D01*
X146691Y512402D02*
Y514403D01*
X417475Y538249D02*
X419475D01*
X418475Y537249D02*
Y539249D01*
X422768Y533337D02*
X424768D01*
X423768Y532337D02*
Y534337D01*
X302146Y538163D02*
X304146D01*
X303146Y537163D02*
Y539163D01*
X306199Y533337D02*
X308200D01*
X307199Y532337D02*
Y534337D01*
X439457Y531834D02*
X441457D01*
X440457Y530834D02*
Y532834D01*
X448957Y531834D02*
X450957D01*
X449957Y530834D02*
Y532834D01*
X322889Y531834D02*
X324889D01*
X323889Y530834D02*
Y532834D01*
X332388Y531834D02*
X334389D01*
X333388Y530834D02*
Y532834D01*
X206320Y531834D02*
X208320D01*
X207320Y530834D02*
Y532834D01*
X215820Y531834D02*
X217820D01*
X216820Y530834D02*
Y532834D01*
X194399Y533411D02*
X196399D01*
X195399Y532411D02*
Y534411D01*
X69500Y690302D02*
X71500D01*
X70500Y689302D02*
Y691301D01*
X73063Y533337D02*
X75062D01*
X74062Y532337D02*
Y534337D01*
X99251Y531834D02*
X101251D01*
X100252Y530834D02*
Y532834D01*
X89752Y531834D02*
X91752D01*
X90752Y530834D02*
Y532834D01*
X186331Y538295D02*
X188330D01*
X187330Y537295D02*
Y539295D01*
X329454Y650250D02*
X331454D01*
X330454Y649250D02*
Y651250D01*
X91988Y515981D02*
X93988D01*
X92988Y514981D02*
Y516981D01*
X114408Y509267D02*
X116408D01*
X115408Y508267D02*
Y510267D01*
X101899Y513739D02*
X103899D01*
X102899Y512739D02*
Y514739D01*
X208557Y515981D02*
X210557D01*
X209557Y514981D02*
Y516981D01*
X218468Y513739D02*
X220468D01*
X219468Y512739D02*
Y514739D01*
X325125Y515981D02*
X327125D01*
X326125Y514981D02*
Y516981D01*
X347545Y509267D02*
X349545D01*
X348545Y508267D02*
Y510267D01*
X335036Y513739D02*
X337036D01*
X336036Y512739D02*
Y514739D01*
X441523Y499936D02*
X443523D01*
X442523Y498936D02*
Y500936D01*
X452080Y514849D02*
X454080D01*
X453080Y513849D02*
Y515849D01*
X446715Y507438D02*
X448715D01*
X447715Y506438D02*
Y508438D01*
X841125Y8881D02*
X843125D01*
X842125Y7881D02*
Y9881D01*
X832882Y6347D02*
X834882D01*
X833882Y5347D02*
Y7347D01*
X821198Y6858D02*
X823198D01*
X822198Y5858D02*
Y7858D01*
X5021Y795118D02*
X7021D01*
X6021Y794118D02*
Y796118D01*
X794220Y844373D02*
X796220D01*
X795220Y843373D02*
Y845373D01*
X805283Y844220D02*
X807283D01*
X806283Y843220D02*
Y845220D01*
X843819Y795831D02*
X845819D01*
X844819Y794831D02*
Y796831D01*
X843804Y806704D02*
X845804D01*
X844804Y805704D02*
Y807704D01*
X842620Y496780D02*
X844620D01*
X843620Y495779D02*
Y497780D01*
X842620Y486780D02*
X844620D01*
X843620Y485779D02*
Y487780D01*
X719856Y6379D02*
X721857D01*
X720856Y5379D02*
Y7379D01*
X709856Y6379D02*
X711857D01*
X710856Y5379D02*
Y7379D01*
X129858Y6379D02*
X131858D01*
X130858Y5379D02*
Y7379D01*
X5386Y195503D02*
X7386D01*
X6386Y194503D02*
Y196503D01*
X5386Y205503D02*
X7386D01*
X6386Y204503D02*
Y206503D01*
X5386Y675502D02*
X7386D01*
X6386Y674502D02*
Y676502D01*
X5386Y415503D02*
X7386D01*
X6386Y414503D02*
Y416503D01*
X5386Y235503D02*
X7386D01*
X6386Y234503D02*
Y236503D01*
X5386Y245503D02*
X7386D01*
X6386Y244503D02*
Y246503D01*
X595322Y843614D02*
X597322D01*
X596322Y842614D02*
Y844614D01*
X842620Y236780D02*
X844620D01*
X843620Y235780D02*
Y237780D01*
X5386Y475503D02*
X7386D01*
X6386Y474503D02*
Y476503D01*
X5386Y215503D02*
X7386D01*
X6386Y214503D02*
Y216503D01*
X5386Y375503D02*
X7386D01*
X6386Y374503D02*
Y376503D01*
X5386Y115503D02*
X7386D01*
X6386Y114503D02*
Y116503D01*
X5386Y655502D02*
X7386D01*
X6386Y654502D02*
Y656502D01*
X139858Y6379D02*
X141858D01*
X140858Y5379D02*
Y7379D01*
X515322Y843614D02*
X517322D01*
X516322Y842614D02*
Y844614D01*
X842620Y386780D02*
X844620D01*
X843620Y385780D02*
Y387780D01*
X219858Y6379D02*
X221857D01*
X220858Y5379D02*
Y7379D01*
X5386Y25503D02*
X7386D01*
X6386Y24504D02*
Y26504D01*
X89858Y6379D02*
X91858D01*
X90858Y5379D02*
Y7379D01*
X5386Y325503D02*
X7386D01*
X6386Y324503D02*
Y326503D01*
X755321Y843614D02*
X757321D01*
X756321Y842614D02*
Y844614D01*
X115323Y843614D02*
X117323D01*
X116323Y842614D02*
Y844614D01*
X119858Y6379D02*
X121858D01*
X120858Y5379D02*
Y7379D01*
X842620Y636779D02*
X844620D01*
X843620Y635779D02*
Y637779D01*
X809856Y6379D02*
X811856D01*
X810856Y5379D02*
Y7379D01*
X475322Y843614D02*
X477322D01*
X476322Y842614D02*
Y844614D01*
X842620Y766779D02*
X844620D01*
X843620Y765779D02*
Y767779D01*
X842620Y96780D02*
X844620D01*
X843620Y95780D02*
Y97780D01*
X309857Y6379D02*
X311857D01*
X310857Y5379D02*
Y7379D01*
X225322Y843614D02*
X227323D01*
X226322Y842614D02*
Y844614D01*
X5386Y685502D02*
X7386D01*
X6386Y684502D02*
Y686502D01*
X145323Y843614D02*
X147323D01*
X146323Y842614D02*
Y844614D01*
X5386Y285503D02*
X7386D01*
X6386Y284503D02*
Y286503D01*
X842620Y136780D02*
X844620D01*
X843620Y135780D02*
Y137780D01*
X35323Y843614D02*
X37323D01*
X36323Y842614D02*
Y844614D01*
X842620Y836779D02*
X844620D01*
X843620Y835779D02*
Y837779D01*
X842620Y76780D02*
X844620D01*
X843620Y75780D02*
Y77780D01*
X825321Y843614D02*
X827321D01*
X826321Y842614D02*
Y844614D01*
X842620Y676779D02*
X844620D01*
X843620Y675779D02*
Y677779D01*
X579857Y6379D02*
X581857D01*
X580857Y5379D02*
Y7379D01*
X5386Y555503D02*
X7386D01*
X6386Y554502D02*
Y556502D01*
X679857Y6379D02*
X681857D01*
X680857Y5379D02*
Y7379D01*
X842620Y716779D02*
X844620D01*
X843620Y715779D02*
Y717779D01*
X842620Y656779D02*
X844620D01*
X843620Y655779D02*
Y657779D01*
X9860Y6560D02*
X11860D01*
X10860Y5560D02*
Y7560D01*
X205322Y843614D02*
X207323D01*
X206322Y842614D02*
Y844614D01*
X409857Y6379D02*
X411857D01*
X410857Y5379D02*
Y7379D01*
X842620Y696779D02*
X844620D01*
X843620Y695779D02*
Y697779D01*
X445322Y843614D02*
X447322D01*
X446322Y842614D02*
Y844614D01*
X39858Y6379D02*
X41858D01*
X40858Y5379D02*
Y7379D01*
X705322Y843614D02*
X707321D01*
X706321Y842614D02*
Y844614D01*
X799856Y6379D02*
X801856D01*
X800856Y5379D02*
Y7379D01*
X5386Y315503D02*
X7386D01*
X6386Y314503D02*
Y316503D01*
X842620Y826779D02*
X844620D01*
X843620Y825779D02*
Y827779D01*
X749856Y6379D02*
X751857D01*
X750856Y5379D02*
Y7379D01*
X519857Y6379D02*
X521857D01*
X520857Y5379D02*
Y7379D01*
X842620Y606779D02*
X844620D01*
X843620Y605779D02*
Y607779D01*
X842620Y546779D02*
X844620D01*
X843620Y545779D02*
Y547779D01*
X842620Y56780D02*
X844620D01*
X843620Y55780D02*
Y57780D01*
X689857Y6379D02*
X691857D01*
X690857Y5379D02*
Y7379D01*
X5386Y55504D02*
X7386D01*
X6386Y54503D02*
Y56504D01*
X299857Y6379D02*
X301857D01*
X300857Y5379D02*
Y7379D01*
X625322Y843614D02*
X627322D01*
X626322Y842614D02*
Y844614D01*
X842620Y446780D02*
X844620D01*
X843620Y445780D02*
Y447780D01*
X842620Y376780D02*
X844620D01*
X843620Y375780D02*
Y377780D01*
X842620Y326780D02*
X844620D01*
X843620Y325780D02*
Y327780D01*
X842620Y286780D02*
X844620D01*
X843620Y285780D02*
Y287780D01*
X5386Y495503D02*
X7386D01*
X6386Y494503D02*
Y496503D01*
X842620Y256780D02*
X844620D01*
X843620Y255780D02*
Y257780D01*
X75323Y843614D02*
X77323D01*
X76323Y842614D02*
Y844614D01*
X195322Y843614D02*
X197323D01*
X196322Y842614D02*
Y844614D01*
X269857Y6379D02*
X271857D01*
X270857Y5379D02*
Y7379D01*
X5386Y65504D02*
X7386D01*
X6386Y64503D02*
Y66503D01*
X529857Y6379D02*
X531857D01*
X530857Y5379D02*
Y7379D01*
X5386Y505503D02*
X7386D01*
X6386Y504503D02*
Y506503D01*
X55323Y843614D02*
X57323D01*
X56323Y842614D02*
Y844614D01*
X765321Y843614D02*
X767321D01*
X766321Y842614D02*
Y844614D01*
X569857Y6379D02*
X571857D01*
X570857Y5379D02*
Y7379D01*
X842620Y666779D02*
X844620D01*
X843620Y665779D02*
Y667779D01*
X59858Y6379D02*
X61858D01*
X60858Y5379D02*
Y7379D01*
X842620Y536779D02*
X844620D01*
X843620Y535779D02*
Y537779D01*
X5386Y345503D02*
X7386D01*
X6386Y344503D02*
Y346503D01*
X842620Y396780D02*
X844620D01*
X843620Y395780D02*
Y397780D01*
X5386Y295503D02*
X7386D01*
X6386Y294503D02*
Y296503D01*
X665322Y843614D02*
X667322D01*
X666322Y842614D02*
Y844614D01*
X189858Y6379D02*
X191858D01*
X190858Y5379D02*
Y7379D01*
X5386Y365503D02*
X7386D01*
X6386Y364503D02*
Y366503D01*
X255322Y843614D02*
X257322D01*
X256322Y842614D02*
Y844614D01*
X405322Y843614D02*
X407322D01*
X406322Y842614D02*
Y844614D01*
X842620Y106780D02*
X844620D01*
X843620Y105780D02*
Y107780D01*
X5386Y445503D02*
X7386D01*
X6386Y444503D02*
Y446503D01*
X359857Y6379D02*
X361857D01*
X360857Y5379D02*
Y7379D01*
X842620Y26781D02*
X844620D01*
X843620Y25780D02*
Y27780D01*
X639857Y6379D02*
X641857D01*
X640857Y5379D02*
Y7379D01*
X5386Y145503D02*
X7386D01*
X6386Y144503D02*
Y146503D01*
X5386Y135503D02*
X7386D01*
X6386Y134503D02*
Y136503D01*
X645322Y843614D02*
X647322D01*
X646322Y842614D02*
Y844614D01*
X5386Y75503D02*
X7386D01*
X6386Y74503D02*
Y76503D01*
X5386Y805502D02*
X7386D01*
X6386Y804502D02*
Y806502D01*
X5386Y515503D02*
X7386D01*
X6386Y514503D02*
Y516502D01*
X5386Y725502D02*
X7386D01*
X6386Y724502D02*
Y726502D01*
X5386Y395503D02*
X7386D01*
X6386Y394503D02*
Y396503D01*
X235322Y843614D02*
X237322D01*
X236322Y842614D02*
Y844614D01*
X842620Y36780D02*
X844620D01*
X843620Y35780D02*
Y37780D01*
X5386Y105503D02*
X7386D01*
X6386Y104503D02*
Y106503D01*
X5386Y155503D02*
X7386D01*
X6386Y154503D02*
Y156503D01*
X179858Y6379D02*
X181858D01*
X180858Y5379D02*
Y7379D01*
X5386Y605502D02*
X7386D01*
X6386Y604502D02*
Y606502D01*
X165323Y843614D02*
X167323D01*
X166323Y842614D02*
Y844614D01*
X565322Y843614D02*
X567322D01*
X566322Y842614D02*
Y844614D01*
X842620Y516780D02*
X844620D01*
X843620Y515779D02*
Y517780D01*
X5386Y15504D02*
X7386D01*
X6386Y14504D02*
Y16503D01*
X5386Y265503D02*
X7386D01*
X6386Y264503D02*
Y266503D01*
X489857Y6379D02*
X491857D01*
X490857Y5379D02*
Y7379D01*
X842620Y46780D02*
X844620D01*
X843620Y45780D02*
Y47780D01*
X465322Y843614D02*
X467322D01*
X466322Y842614D02*
Y844614D01*
X5386Y45504D02*
X7386D01*
X6386Y44503D02*
Y46504D01*
X635322Y843614D02*
X637322D01*
X636322Y842614D02*
Y844614D01*
X785321Y843614D02*
X787321D01*
X786321Y842614D02*
Y844614D01*
X842620Y596779D02*
X844620D01*
X843620Y595779D02*
Y597779D01*
X842620Y816779D02*
X844620D01*
X843620Y815779D02*
Y817779D01*
X455322Y843614D02*
X457322D01*
X456322Y842614D02*
Y844614D01*
X725322Y843614D02*
X727321D01*
X726321Y842614D02*
Y844614D01*
X842620Y506780D02*
X844620D01*
X843620Y505779D02*
Y507780D01*
X842620Y116780D02*
X844620D01*
X843620Y115780D02*
Y117780D01*
X842620Y296780D02*
X844620D01*
X843620Y295780D02*
Y297780D01*
X619857Y6379D02*
X621857D01*
X620857Y5379D02*
Y7379D01*
X49858Y6379D02*
X51858D01*
X50858Y5379D02*
Y7379D01*
X5386Y585502D02*
X7386D01*
X6386Y584502D02*
Y586502D01*
X499857Y6379D02*
X501857D01*
X500857Y5379D02*
Y7379D01*
X199858Y6379D02*
X201858D01*
X200858Y5379D02*
Y7379D01*
X5386Y705502D02*
X7386D01*
X6386Y704502D02*
Y706502D01*
X485322Y843614D02*
X487322D01*
X486322Y842614D02*
Y844614D01*
X5386Y755502D02*
X7386D01*
X6386Y754502D02*
Y756502D01*
X5386Y695502D02*
X7386D01*
X6386Y694502D02*
Y696502D01*
X335322Y843614D02*
X337322D01*
X336322Y842614D02*
Y844614D01*
X5386Y85503D02*
X7386D01*
X6386Y84503D02*
Y86503D01*
X842620Y166780D02*
X844620D01*
X843620Y165780D02*
Y167780D01*
X5386Y485503D02*
X7386D01*
X6386Y484503D02*
Y486503D01*
X842620Y336780D02*
X844620D01*
X843620Y335780D02*
Y337780D01*
X419857Y6379D02*
X421857D01*
X420857Y5379D02*
Y7379D01*
X775321Y843614D02*
X777321D01*
X776321Y842614D02*
Y844614D01*
X842620Y466780D02*
X844620D01*
X843620Y465780D02*
Y467780D01*
X349857Y6379D02*
X351857D01*
X350857Y5379D02*
Y7379D01*
X5386Y175503D02*
X7386D01*
X6386Y174503D02*
Y176503D01*
X45323Y843614D02*
X47323D01*
X46323Y842614D02*
Y844614D01*
X695322Y843614D02*
X697321D01*
X696321Y842614D02*
Y844614D01*
X79858Y6379D02*
X81858D01*
X80858Y5379D02*
Y7379D01*
X842620Y756779D02*
X844620D01*
X843620Y755779D02*
Y757779D01*
X842620Y626779D02*
X844620D01*
X843620Y625779D02*
Y627779D01*
X509857Y6379D02*
X511857D01*
X510857Y5379D02*
Y7379D01*
X759856Y6379D02*
X761856D01*
X760856Y5379D02*
Y7379D01*
X295322Y843614D02*
X297322D01*
X296322Y842614D02*
Y844614D01*
X842620Y456780D02*
X844620D01*
X843620Y455780D02*
Y457780D01*
X479857Y6379D02*
X481857D01*
X480857Y5379D02*
Y7379D01*
X655322Y843614D02*
X657322D01*
X656322Y842614D02*
Y844614D01*
X842620Y436780D02*
X844620D01*
X843620Y435780D02*
Y437780D01*
X5386Y95503D02*
X7386D01*
X6386Y94503D02*
Y96503D01*
X109858Y6379D02*
X111858D01*
X110858Y5379D02*
Y7379D01*
X842620Y736779D02*
X844620D01*
X843620Y735779D02*
Y737779D01*
X842620Y246780D02*
X844620D01*
X843620Y245780D02*
Y247780D01*
X339857Y6379D02*
X341857D01*
X340857Y5379D02*
Y7379D01*
X265322Y843614D02*
X267322D01*
X266322Y842614D02*
Y844614D01*
X5386Y615502D02*
X7386D01*
X6386Y614502D02*
Y616502D01*
X69858Y6379D02*
X71858D01*
X70858Y5379D02*
Y7379D01*
X175323Y843614D02*
X177323D01*
X176323Y842614D02*
Y844614D01*
X345322Y843614D02*
X347322D01*
X346322Y842614D02*
Y844614D01*
X375322Y843614D02*
X377322D01*
X376322Y842614D02*
Y844614D01*
X615322Y843614D02*
X617322D01*
X616322Y842614D02*
Y844614D01*
X842620Y746779D02*
X844620D01*
X843620Y745779D02*
Y747779D01*
X842620Y346780D02*
X844620D01*
X843620Y345780D02*
Y347780D01*
X842620Y226780D02*
X844620D01*
X843620Y225780D02*
Y227780D01*
X329857Y6379D02*
X331857D01*
X330857Y5379D02*
Y7379D01*
X842620Y776779D02*
X844620D01*
X843620Y775779D02*
Y777779D01*
X842620Y646779D02*
X844620D01*
X843620Y645779D02*
Y647779D01*
X5386Y575502D02*
X7386D01*
X6386Y574502D02*
Y576502D01*
X105323Y843614D02*
X107323D01*
X106323Y842614D02*
Y844614D01*
X185322Y843614D02*
X187323D01*
X186322Y842614D02*
Y844614D01*
X275322Y843614D02*
X277322D01*
X276322Y842614D02*
Y844614D01*
X305322Y843614D02*
X307322D01*
X306322Y842614D02*
Y844614D01*
X675322Y843614D02*
X677322D01*
X676322Y842614D02*
Y844614D01*
X5386Y745502D02*
X7386D01*
X6386Y744502D02*
Y746502D01*
X5386Y785502D02*
X7386D01*
X6386Y784502D02*
Y786502D01*
X425322Y843614D02*
X427322D01*
X426322Y842614D02*
Y844614D01*
X369857Y6379D02*
X371857D01*
X370857Y5379D02*
Y7379D01*
X842620Y196780D02*
X844620D01*
X843620Y195780D02*
Y197780D01*
X545322Y843614D02*
X547322D01*
X546322Y842614D02*
Y844614D01*
X745321Y843614D02*
X747321D01*
X746321Y842614D02*
Y844614D01*
X842620Y576779D02*
X844620D01*
X843620Y575779D02*
Y577779D01*
X549857Y6379D02*
X551857D01*
X550857Y5379D02*
Y7379D01*
X842620Y356780D02*
X844620D01*
X843620Y355780D02*
Y357780D01*
X285322Y843614D02*
X287322D01*
X286322Y842614D02*
Y844614D01*
X575322Y843614D02*
X577322D01*
X576322Y842614D02*
Y844614D01*
X435322Y843614D02*
X437322D01*
X436322Y842614D02*
Y844614D01*
X5386Y275503D02*
X7386D01*
X6386Y274503D02*
Y276503D01*
X5386Y185503D02*
X7386D01*
X6386Y184503D02*
Y186503D01*
X289857Y6379D02*
X291857D01*
X290857Y5379D02*
Y7379D01*
X5386Y765502D02*
X7386D01*
X6386Y764502D02*
Y766502D01*
X85323Y843614D02*
X87323D01*
X86323Y842614D02*
Y844614D01*
X789856Y6379D02*
X791856D01*
X790856Y5379D02*
Y7379D01*
X135323Y843614D02*
X137323D01*
X136323Y842614D02*
Y844614D01*
X155323Y843614D02*
X157323D01*
X156323Y842614D02*
Y844614D01*
X5386Y565503D02*
X7386D01*
X6386Y564502D02*
Y566502D01*
X5386Y825502D02*
X7386D01*
X6386Y824502D02*
Y826502D01*
X842620Y206780D02*
X844620D01*
X843620Y205780D02*
Y207780D01*
X842620Y126780D02*
X844620D01*
X843620Y125780D02*
Y127780D01*
X842620Y146780D02*
X844620D01*
X843620Y145780D02*
Y147780D01*
X5386Y125503D02*
X7386D01*
X6386Y124503D02*
Y126503D01*
X239858Y6379D02*
X241857D01*
X240858Y5379D02*
Y7379D01*
X5386Y225503D02*
X7386D01*
X6386Y224503D02*
Y226503D01*
X842620Y706779D02*
X844620D01*
X843620Y705779D02*
Y707779D01*
X169858Y6379D02*
X171858D01*
X170858Y5379D02*
Y7379D01*
X535322Y843614D02*
X537322D01*
X536322Y842614D02*
Y844614D01*
X539857Y6379D02*
X541857D01*
X540857Y5379D02*
Y7379D01*
X842620Y266780D02*
X844620D01*
X843620Y265780D02*
Y267780D01*
X842620Y726779D02*
X844620D01*
X843620Y725779D02*
Y727779D01*
X319857Y6379D02*
X321857D01*
X320857Y5379D02*
Y7379D01*
X769856Y6379D02*
X771856D01*
X770856Y5379D02*
Y7379D01*
X5386Y435503D02*
X7386D01*
X6386Y434503D02*
Y436503D01*
X385322Y843614D02*
X387322D01*
X386322Y842614D02*
Y844614D01*
X842620Y316780D02*
X844620D01*
X843620Y315780D02*
Y317780D01*
X5386Y165503D02*
X7386D01*
X6386Y164503D02*
Y166503D01*
X505322Y843614D02*
X507322D01*
X506322Y842614D02*
Y844614D01*
X842620Y686779D02*
X844620D01*
X843620Y685779D02*
Y687779D01*
X842620Y416780D02*
X844620D01*
X843620Y415780D02*
Y417780D01*
X11233Y843614D02*
X13233D01*
X12233Y842614D02*
Y844614D01*
X589857Y6379D02*
X591857D01*
X590857Y5379D02*
Y7379D01*
X379857Y6379D02*
X381857D01*
X380857Y5379D02*
Y7379D01*
X5386Y625502D02*
X7386D01*
X6386Y624502D02*
Y626502D01*
X842620Y426780D02*
X844620D01*
X843620Y425780D02*
Y427780D01*
X5386Y535503D02*
X7386D01*
X6386Y534502D02*
Y536502D01*
X842620Y16781D02*
X844620D01*
X843620Y15781D02*
Y17780D01*
X259857Y6379D02*
X261857D01*
X260857Y5379D02*
Y7379D01*
X5386Y465503D02*
X7386D01*
X6386Y464503D02*
Y466503D01*
X815321Y843614D02*
X817321D01*
X816321Y842614D02*
Y844614D01*
X215322Y843614D02*
X217323D01*
X216322Y842614D02*
Y844614D01*
X842620Y476780D02*
X844620D01*
X843620Y475780D02*
Y477780D01*
X149858Y6379D02*
X151858D01*
X150858Y5379D02*
Y7379D01*
X449857Y6379D02*
X451857D01*
X450857Y5379D02*
Y7379D01*
X209858Y6379D02*
X211857D01*
X210858Y5379D02*
Y7379D01*
X525322Y843614D02*
X527322D01*
X526322Y842614D02*
Y844614D01*
X779856Y6379D02*
X781856D01*
X780856Y5379D02*
Y7379D01*
X605322Y843614D02*
X607322D01*
X606322Y842614D02*
Y844614D01*
X842620Y566779D02*
X844620D01*
X843620Y565779D02*
Y567779D01*
X649857Y6379D02*
X651857D01*
X650857Y5379D02*
Y7379D01*
X5386Y595502D02*
X7386D01*
X6386Y594502D02*
Y596502D01*
X229858Y6379D02*
X231857D01*
X230858Y5379D02*
Y7379D01*
X19858Y6379D02*
X21858D01*
X20858Y5379D02*
Y7379D01*
X685322Y843614D02*
X687321D01*
X686321Y842614D02*
Y844614D01*
X842620Y66780D02*
X844620D01*
X843620Y65780D02*
Y67780D01*
X842620Y276780D02*
X844620D01*
X843620Y275780D02*
Y277780D01*
X5386Y815502D02*
X7386D01*
X6386Y814502D02*
Y816502D01*
X669857Y6379D02*
X671857D01*
X670857Y5379D02*
Y7379D01*
X5386Y525503D02*
X7386D01*
X6386Y524502D02*
Y526502D01*
X842620Y86780D02*
X844620D01*
X843620Y85780D02*
Y87780D01*
X355322Y843614D02*
X357322D01*
X356322Y842614D02*
Y844614D01*
X609857Y6379D02*
X611857D01*
X610857Y5379D02*
Y7379D01*
X555322Y843614D02*
X557322D01*
X556322Y842614D02*
Y844614D01*
X842620Y556779D02*
X844620D01*
X843620Y555779D02*
Y557779D01*
X842620Y366780D02*
X844620D01*
X843620Y365780D02*
Y367780D01*
X585322Y843614D02*
X587322D01*
X586322Y842614D02*
Y844614D01*
X715322Y843614D02*
X717321D01*
X716321Y842614D02*
Y844614D01*
X599857Y6379D02*
X601857D01*
X600857Y5379D02*
Y7379D01*
X699857Y6379D02*
X701857D01*
X700857Y5379D02*
Y7379D01*
X842620Y786779D02*
X844620D01*
X843620Y785779D02*
Y787779D01*
X5386Y355503D02*
X7386D01*
X6386Y354503D02*
Y356503D01*
X842620Y176780D02*
X844620D01*
X843620Y175780D02*
Y177780D01*
X95323Y843614D02*
X97323D01*
X96323Y842614D02*
Y844614D01*
X5386Y455503D02*
X7386D01*
X6386Y454503D02*
Y456503D01*
X125323Y843614D02*
X127323D01*
X126323Y842614D02*
Y844614D01*
X5386Y635502D02*
X7386D01*
X6386Y634502D02*
Y636502D01*
X842620Y616779D02*
X844620D01*
X843620Y615779D02*
Y617779D01*
X559857Y6379D02*
X561857D01*
X560857Y5379D02*
Y7379D01*
X469857Y6379D02*
X471857D01*
X470857Y5379D02*
Y7379D01*
X5386Y665502D02*
X7386D01*
X6386Y664502D02*
Y666502D01*
X5386Y735502D02*
X7386D01*
X6386Y734502D02*
Y736502D01*
X5386Y775502D02*
X7386D01*
X6386Y774502D02*
Y776502D01*
X389857Y6379D02*
X391857D01*
X390857Y5379D02*
Y7379D01*
X29858Y6379D02*
X31858D01*
X30858Y5379D02*
Y7379D01*
X5386Y305503D02*
X7386D01*
X6386Y304503D02*
Y306503D01*
X325322Y843614D02*
X327322D01*
X326322Y842614D02*
Y844614D01*
X365322Y843614D02*
X367322D01*
X366322Y842614D02*
Y844614D01*
X629857Y6379D02*
X631857D01*
X630857Y5379D02*
Y7379D01*
X395322Y843614D02*
X397322D01*
X396322Y842614D02*
Y844614D01*
X842620Y216780D02*
X844620D01*
X843620Y215780D02*
Y217780D01*
X279857Y6379D02*
X281857D01*
X280857Y5379D02*
Y7379D01*
X439857Y6379D02*
X441857D01*
X440857Y5379D02*
Y7379D01*
X5386Y545503D02*
X7386D01*
X6386Y544502D02*
Y546502D01*
X159858Y6379D02*
X161858D01*
X160858Y5379D02*
Y7379D01*
X65323Y843614D02*
X67323D01*
X66323Y842614D02*
Y844614D01*
X842620Y186780D02*
X844620D01*
X843620Y185780D02*
Y187780D01*
X735321Y843614D02*
X737321D01*
X736321Y842614D02*
Y844614D01*
X99858Y6379D02*
X101858D01*
X100858Y5379D02*
Y7379D01*
X429857Y6379D02*
X431857D01*
X430857Y5379D02*
Y7379D01*
X842620Y156780D02*
X844620D01*
X843620Y155780D02*
Y157780D01*
X5386Y835502D02*
X7386D01*
X6386Y834502D02*
Y836502D01*
X5386Y255503D02*
X7386D01*
X6386Y254503D02*
Y256503D01*
X5386Y385503D02*
X7386D01*
X6386Y384503D02*
Y386503D01*
X5386Y715502D02*
X7386D01*
X6386Y714502D02*
Y716502D01*
X495322Y843614D02*
X497322D01*
X496322Y842614D02*
Y844614D01*
X245322Y843614D02*
X247322D01*
X246322Y842614D02*
Y844614D01*
X842620Y306780D02*
X844620D01*
X843620Y305780D02*
Y307780D01*
X399857Y6379D02*
X401857D01*
X400857Y5379D02*
Y7379D01*
X5386Y335503D02*
X7386D01*
X6386Y334503D02*
Y336503D01*
X415322Y843614D02*
X417322D01*
X416322Y842614D02*
Y844614D01*
X729856Y6379D02*
X731857D01*
X730856Y5379D02*
Y7379D01*
X25323Y843614D02*
X27323D01*
X26323Y842614D02*
Y844614D01*
X315322Y843614D02*
X317322D01*
X316322Y842614D02*
Y844614D01*
X842620Y406780D02*
X844620D01*
X843620Y405780D02*
Y407780D01*
X659857Y6379D02*
X661857D01*
X660857Y5379D02*
Y7379D01*
X459857Y6379D02*
X461857D01*
X460857Y5379D02*
Y7379D01*
X249858Y6379D02*
X251857D01*
X250858Y5379D02*
Y7379D01*
X739856Y6379D02*
X741857D01*
X740856Y5379D02*
Y7379D01*
X5386Y405503D02*
X7386D01*
X6386Y404503D02*
Y406503D01*
X5386Y425503D02*
X7386D01*
X6386Y424503D02*
Y426503D01*
X5386Y645502D02*
X7386D01*
X6386Y644502D02*
Y646502D01*
X842620Y586779D02*
X844620D01*
X843620Y585779D02*
Y587779D01*
X5386Y35503D02*
X7386D01*
X6386Y34504D02*
Y36504D01*
X842620Y526780D02*
X844620D01*
X843620Y525779D02*
Y527780D01*
X835321Y843614D02*
X837321D01*
X836321Y842614D02*
Y844614D01*
M02*
