M48
;Layer_Color=9474304
;FILE_FORMAT=4:2
METRIC,LZ
;TYPE=PLATED
T01F00S00C0.20
T02F00S00C0.50
T03F00S00C0.75
T04F00S00C0.95
T05F00S00C1.02
T06F00S00C1.10
T07F00S00C3.30
;TYPE=NON_PLATED
T08F00S00C2.30
%
T01
X000109Y000066
X000209Y000064
X000309
X000409
X000509
X000609
X000709
X000809
X000909
X001009
X001109
X001209
X001309
X001409
X001509
X001609
X001709
X001809
X001909
X002009
X002109
X002209
X002309
X002409
X002286Y001118
Y001232
X002235Y001867
Y00205
X00207Y002045
X002073Y001958
X001926Y001944
X001829Y001994
X00185Y002226
X001573Y002158
X001373
X001473Y001958
X001273
Y001558
X000971Y001476
X000873Y001558
X000773Y001758
X000573
X000564Y001344
X000064Y001355
Y001455
Y001555
Y001655
Y001755
Y001855
Y001955
Y002055
Y002155
Y002255
Y001255
Y001155
Y001055
Y000955
Y000855
Y000755
Y000655
Y000555
Y000455
Y000355
Y000255
Y000155
X000873Y000358
X001073
X001273
X001473
X001373Y000558
X001473Y000758
X001273
X001073
X000975Y000828
Y001035
X000793Y00061
X001828Y001552
X002515Y0016
X002616Y001664
X002718Y0016
X002616Y001486
Y001829
X002515Y00188
X002673Y001958
X002827Y001994
X002924Y001944
X003073Y001958
X002961Y002159
X002795
X002631
X003573Y002158
X003645Y002125
X003473Y001958
X003302Y001765
X003473Y001558
X003773Y001358
X003924Y001194
X004026Y001291
X004156
Y001421
X004026
X004286
X004416
Y001291
X004286
X004573Y001358
X004773
Y001758
X004973
X004874Y002104
X004754Y002145
X004381Y002206
X004422Y002246
X004462Y002287
X004285Y002125
X004336Y001766
X003975Y001884
X005321Y001912
X005448
X005382Y002007
X005858Y002047
X00597Y002007
X006066Y002046
X006268
X006248Y001298
X005888Y000878
X005219Y000841
X005158Y000878
X005258Y001168
X005209Y000064
X005309
X005409
X005509
X005609
X005709
X005809
X005909
X006009
X006109
X006209
X006309
X006409
X005109
X005009
X004909
X004809
X004709
X004609
X004509
X004409
X004309
X004209
X004109
X004009
X003909
X003809
X003709
X003609
X003509
X003409
X003309
X003209
X003109
X003009
X002909
X002809
X002709
X002609
X002509
X002471Y001118
Y001232
X002973Y001358
Y000958
X003173
X003373
X00337Y001077
X00645Y001243
X00645Y00137
X006601Y00137
X006601Y001244
X006773Y001358
X006524Y001455
X006565Y001553
X006491Y001592
X006536Y001941
X006472Y002042
X007273Y001958
X007473
X007573Y001758
X007373
X007773Y002158
X008436Y002168
Y002268
Y002068
Y001968
Y001868
Y001768
Y001668
Y001568
Y001468
Y001368
Y001268
Y001168
Y001068
Y000968
Y000868
Y000768
Y000668
Y000568
Y000468
Y000368
Y000268
Y000168
X008421Y000089
X008339Y000063
X008222Y000069
X008109Y000064
X008009
X007909
X007809
X007709
X007609
X007509
X007409
X007309
X007209
X007109
X007009
X006909
X006809
X006709
X006609
X006509
X006521Y000876
X007573Y000958
X007473Y002358
X007273
Y002758
X007373Y002958
X007573
X007773
X007639Y003094
X007461Y003183
X007273Y003158
X007315Y0034
X007211Y0034
X007573Y003358
X007773
X007673Y003558
X007473
X007573Y003758
X007773
X007673Y003958
X007473
X007573Y004158
X007773
X007673Y004358
X007473
X007468Y004686
X007273Y004758
X007073
X007173Y004958
X007373
X007573
X007639Y005125
X007461Y005214
X007303Y005431
X007146Y005431
X007428Y005588
Y005646
X00743Y00584
Y005898
Y006088
Y006145
X006711Y005867
X006703Y005457
X006716Y005189
X006709Y004733
X006505Y004528
X006673Y004358
X006973Y004558
X007173
X007645Y004597
X007773Y004558
X008436Y004568
Y004468
Y004368
Y004268
Y004168
Y004068
Y003968
Y003868
Y003768
Y003668
Y003568
Y003468
Y003368
Y003268
Y003168
Y003068
Y002968
Y002868
Y002768
Y002668
Y002568
Y002468
Y002368
X007573Y002558
X006973
X006773
X006873Y002758
X006673
X006773Y002958
X006973
X006673Y002358
X006773Y003758
X006473Y005558
X008436Y005568
Y005468
Y005368
Y005268
Y005168
Y005068
Y004968
Y004868
Y004768
Y004668
Y005668
Y005768
Y005868
Y005968
Y006068
Y006168
Y006268
X006373Y006158
X00627Y006091
X006073Y005958
X005904Y006095
X005873Y005558
X006073
Y005158
X005473
X005473Y005463
X005673Y005558
X005623Y004968
X005606Y004621
X005474Y004555
X005352Y004621
X00528Y004757
X004991Y004724
X004973Y004958
X004888Y005209
X004885Y005469
X004987
X004783
X004733Y00575
X004843
X004954
X004899Y005835
X004788
X004873Y005958
X004673
X004573Y005758
X004514Y005583
X0045Y005318
X004405
X004397Y005387
X004238Y005333
X004185Y005382
X004107Y005467
X003965
X003877Y005469
X003772
X003666
X003561
X003615Y005715
X003573Y005758
X00367Y0058
X003781
X003891
X003836Y005715
X003725
X003946
X003957Y005289
X004037Y005366
X004252Y005521
X004314Y005037
X004425Y004999
X004477Y005074
X004531Y005148
X004673Y005158
X004602Y004998
X004056Y004984
X003798Y005134
X003555Y005133
X003485Y005093
X00336Y005137
X003261Y00516
X003205Y005086
X003105Y004972
X003072Y005333
X003031Y005382
X002874Y005363
X002791Y005289
X002805Y005469
X002712Y005469
X002606
X002501
X002449Y005715
X00256
X00267
X002781
X002725Y0058
X002615
X002504
X002673Y005958
X002629Y006154
Y006271
X002911Y006273
X003232Y006243
X003368
X00351Y006241
X003373Y005758
X003348Y005588
X003334Y005318
X003239
X003229Y00539
X003086Y005521
X002938Y00547
X002591Y005175
X002675Y004525
Y004337
Y00415
Y003962
Y003775
Y003587
Y0034
X003002Y003322
X003059Y002845
X002873Y002758
X002673
X002772Y002558
X002573
X002973
X003035Y002578
X003375Y002568
X003538Y002577
X003721
X003772Y002449
X003974Y00247
X00402Y002593
X003905Y00282
X003641
X003854Y003044
X003821Y003152
X004316Y003083
X004322Y00325
Y003425
X004476Y003425
X004749Y003423
X004845Y003425
X00499Y003368
X005173Y003358
X00488Y003253
X00475Y003252
X004749Y003079
X004899Y003094
Y002907
X00475
X004846Y002765
X00495Y002768
X00505Y002765
X00515Y002816
X005305Y002447
X005235Y002374
X005392Y002372
X005765Y00249
X006335Y002399
X006273Y003558
X00612Y003539
X00603Y003493
X005972Y003445
X00588Y003645
X005797Y003595
X006173Y003758
X006273Y003958
X006173Y004158
X005922Y004147
X005773Y004158
X005573
X005273Y003958
X00534Y003792
X005275Y003659
X005173Y003758
X004891Y003823
X004789Y003886
X004721Y003772
X004754Y003606
X004316Y003605
X004191Y003594
X004157Y003746
X004161Y00385
X004223Y003894
X004222Y003799
X004226Y004301
X004103Y004338
X00417Y004447
X0045Y004525
Y004325
X004701
X004859Y004487
X004804Y004559
X003861Y004338
X003897Y00419
X003238Y004134
X003202Y004242
X003238Y004321
Y004508
X003239Y004677
X002811Y004653
X002829Y004472
X002753Y003026
X002573Y002958
X004181Y002852
X004261Y002819
X004321Y002912
X004503Y002328
X004552Y002374
X004699Y002388
X004856Y002328
X006336Y004534
X004519Y006264
X004409
X004298
X004188
X002169Y006204
X002065
X001961
X001471Y006214
X001449Y0058
X00156
X001615Y005715
X001504
X001394
X001283
X001339Y0058
X001335Y005469
X001229
X00144
X001533Y005472
X001664Y005468
X001757Y005469
X001873Y005383
X001954Y005334
X002073Y005318
X002076Y005387
X002168
Y005318
X002195Y005137
X002096Y00516
X001928Y005087
X002305Y005116
X00239Y005186
X002395Y005469
X002373Y005758
X002173
X002177Y005591
X001922Y00555
X001599Y005371
X001467Y005134
X001154Y005093
X001141Y005188
X001029Y005137
X00093Y00516
X000824Y005095
X000973Y004958
X000978Y004853
X000975Y004572
X000874Y00455
X000699Y004518
X000438Y004412
X000473Y004308
X000529Y004148
X00049Y004082
Y003978
X000586Y003937
X000683Y003887
X000673Y003558
X001058Y003558
X001161Y003561
X001165Y003712
X001051Y003709
X000946Y003397
X001345Y003296
X001792Y003367
X001909Y003364
X00209Y003783
X002009Y003915
X002014Y00409
X002163Y003962
X002318Y003657
X0024Y003025
X002316Y002836
X002173Y002558
X001873Y002758
X001473
X001273
X001073
X001373Y002558
X001573
X001473Y002358
X00089Y002334
X000064Y002355
Y002455
Y002555
Y002655
Y002755
Y002855
Y002955
Y003055
Y003155
Y003255
Y003355
Y003455
Y003555
Y003655
Y003755
Y003855
Y003955
Y004055
Y004155
Y004255
Y004355
Y004455
Y004555
Y004655
Y004755
Y004855
Y004955
Y005055
Y005155
Y005255
Y005355
Y005455
Y005555
Y005655
Y005755
Y005855
Y005955
Y006055
Y006155
Y006255
X000528Y006185
Y006086
X000642Y006186
X000709Y006285
X000812Y006199
X000462Y00584
X000351
X000296Y005755
X000407
X000517
X000577Y005476
X00044Y005474
X000511Y005379
X000458Y005289
X000741Y005333
X000693Y005383
X00091Y005387
X000908Y005318
X001003
Y005387
X001008Y005597
X000755Y005543
X000495Y004795
X000409Y004851
X000975Y004282
X001194Y004333
X001296Y004231
X001327Y004411
X001324Y004512
X001512Y004712
X001676Y004445
X001765Y003865
X002316Y004413
X00233Y00482
X002413Y004859
X0021Y006486
X0021Y006765
X0021Y006988
X001973Y006958
X001873Y007158
X001973Y007358
X002173
X002373
X002273Y007558
X002073
X001873
X001973Y007758
X002173
X002373
X002273Y007958
X002073
X001873
X001973Y008158
X002173
X002373
X002363Y008436
X002263
X002163
X002063
X001963
X001863
X001763
X001663
X001563
X001463
X001363
X001263
X001163
X001063
X000963
X000863
X000763
X000663
X000563
X000463
X000363
X000263
X000122
X000064Y008355
Y008255
Y008155
Y008055
X00006Y007951
X000064Y007855
Y007755
Y007655
Y007555
Y007455
Y007355
Y007255
Y007155
Y007055
Y006955
Y006855
Y006755
Y006655
Y006555
Y006455
Y006355
X000456Y006376
X000523Y006475
X000701Y006464
X000634Y006365
X0008Y006377
X000879Y006298
X000867Y006476
X000705Y006903
X000373Y006958
X000273Y007158
X000458Y007226
X000525Y007325
X000457Y007526
X000524Y007625
X000573Y007758
X000373
X000273Y007558
X000717Y007526
X000817Y00752
X000917Y007524
X001017Y00752
X000984Y007623
X001084Y007619
X000884
X000784Y007625
X000773Y008158
X000973
X001173
X001373
X001573
X001773
X001446Y00762
Y007506
Y00737
X001347
X001344Y007573
X001446Y007226
X001257Y006923
X001342Y00682
X001407Y006637
X001435Y006455
X001397Y006329
X000273Y006758
X000623Y008358
X002273Y007158
X002373Y006958
X0025Y006988
X0025Y006765
X002499Y00649
X0029Y006493
X0029Y006765
X0029Y006988
X002773Y006958
X003173
X003304Y006988
X0033Y006765
X003473Y006758
X003673
X003873
X004067Y006691
X004073Y006358
X004243Y006349
X004354
X004464
X004464Y006689
Y007044
X004373Y006958
X004067Y007047
Y007402
X003873Y007558
X003673
X003473
X003273
X003073
X002873
X002673
X002473
X002573Y007758
X002773
X002973
X003173
X003373
X003573
X003773
X003973
X004067Y007757
X004073Y007958
X004273
X004473
X004673
X004873
X005073
X005273
X005473
X005673
X005873
X006073
X006273
X006373Y008158
X006173
X005973
X005773
X005573
X005373
X005173
X004973
X004773
X004573
X004373
X004173
X003973
X003773
X003573
X003373
X003173
X002973
X002773
X002573
X002563Y008436
X002663
X002763
X002863
X002963
X003063
X003163
X003263
X003363
X003463
X003563
X003663
X003763
X003863
X003963
X004063
X004163
X004263
X004363
X004463
X004563
X004663
X004763
X004863
X004963
X005063
X005163
X005263
X005363
X005463
X005563
X005663
X005763
X005863
X005963
X006063
X006163
X006263
X006363
X006373Y007758
X006173
X005973
X005773
X005573
X005373
X005173
X004973
X004773
X004548Y007756
X004673Y007558
X004873
X005073
X005273
X005473
X005673
X005873
X006073
X006273
X006373Y007358
X006173
X005973
X005773
X005573
X005373
X005173
X004973
X005073Y007158
X005273
X005473
X005673
X005873
X006073
X006273
X006373Y006958
X006399Y00679
X006173Y006958
X006Y006735
X005599Y006736
X0054
Y006515
X005273Y006358
X005538Y006336
X005722Y006335
X006273Y006358
X0062Y006515
X005204Y006788
X004873Y006758
X004973Y006958
X004873Y007158
X004548Y0074
X003373Y007358
X003173
X002973
X002773
X002573
X002673Y007958
X002873
X003073
X003273
X003473
X003673
X003873
X002473
X002463Y008436
X003305Y006503
X006453Y006332
X006634
X006819
X006873Y006358
X006973Y006558
X006873Y006758
X006973Y006958
X006773
X006873Y007158
X006673
X006473
Y007558
X006673
X006873
X006973Y007758
X007173
X007373
X007573
X007773
X007973
X008173
X008436Y007768
Y007668
Y007568
Y007468
Y007368
Y007268
Y007168
Y007068
Y006968
Y006868
Y006768
Y006668
Y006568
Y006468
Y006368
Y007868
X008373Y007858
X008448Y007958
X008448Y008067
X008436Y008168
Y008268
Y008368
X008363Y008436
X008263
X008163
X008063Y008442
X007952Y008444
X007863Y008436
X007763
X007663
X007563
X007463
X007363
X007263
X007163
X007063
X006963
X006863
X006763
X006663
X006563
X006463
X006573Y008158
X006773
X006973
X007173
X007373
X007573
X007773
X007673Y007958
X007473
X007273
X007073
X006873
X006673
X006473
X006573Y007758
X006773
Y007358
X006973
X007146Y007181
X007146Y007056
X007303Y007056
X007302Y007181
X007461Y007474
X007639Y007385
X006573Y006558
T02
X000196Y000196
X00036Y000131
X000524Y000196
X000593Y00036
X000524Y000524
X00036Y000593
X000196Y000524
X000127Y00036
X007907
X007976Y000196
X00814Y000131
X008304Y000196
X008372Y00036
X008304Y000524
X00814Y000593
X007976Y000524
X000524Y007976
X00036Y007911
X000196Y007976
X000127Y00814
X000196Y008304
X00036Y008372
X000524Y008304
X000593Y00814
X007907
X007976Y008304
X00814Y008372
X008304Y008304
X008372Y00814
X008304Y007976
X00814Y007911
X007976Y007976
T03
X00225Y0005
Y0007
X00245
X00265
Y0005
X00245
X00285
Y0007
X00305
X00325
Y0005
X00305
X00345
X00365
Y0007
X00345
X00385
X00405
Y0005
X00385
X00425
Y0007
X00445
X00465
Y0005
X00445
X00485
X00505
Y0007
X00485
X00525
X00545
Y0005
X00525
X00565
Y0007
X00585
X00605
Y0005
X00585
X00625
Y0007
T04
X001675Y006925
Y0074
X003525
Y006925
X004775
Y0074
X006625
Y006925
T05
X007373Y001138
Y001392
Y001646
Y0019
X007627
Y002154
X007373
X007627Y001646
Y001392
Y001138
Y002408
Y002662
X007373
Y002408
T06
X001153Y001097
Y001351
Y001605
Y001885
Y002139
Y002393
Y002647
Y002901
T07
X00036Y00036
X00814
X00036Y00814
X00814
T08
X0019Y0006
X0066
M30
