G04*
G04 #@! TF.GenerationSoftware,Altium Limited,Altium Designer,24.1.2 (44)*
G04*
G04 Layer_Color=255*
%FSLAX44Y44*%
%MOMM*%
G71*
G04*
G04 #@! TF.SameCoordinates,AB6F2FAD-27B6-4F6E-A281-B90BD4242C19*
G04*
G04*
G04 #@! TF.FilePolarity,Positive*
G04*
G01*
G75*
G04:AMPARAMS|DCode=26|XSize=0.95mm|YSize=0.85mm|CornerRadius=0.2125mm|HoleSize=0mm|Usage=FLASHONLY|Rotation=180.000|XOffset=0mm|YOffset=0mm|HoleType=Round|Shape=RoundedRectangle|*
%AMROUNDEDRECTD26*
21,1,0.9500,0.4250,0,0,180.0*
21,1,0.5250,0.8500,0,0,180.0*
1,1,0.4250,-0.2625,0.2125*
1,1,0.4250,0.2625,0.2125*
1,1,0.4250,0.2625,-0.2125*
1,1,0.4250,-0.2625,-0.2125*
%
%ADD26ROUNDEDRECTD26*%
G04:AMPARAMS|DCode=27|XSize=0.95mm|YSize=0.85mm|CornerRadius=0.2125mm|HoleSize=0mm|Usage=FLASHONLY|Rotation=90.000|XOffset=0mm|YOffset=0mm|HoleType=Round|Shape=RoundedRectangle|*
%AMROUNDEDRECTD27*
21,1,0.9500,0.4250,0,0,90.0*
21,1,0.5250,0.8500,0,0,90.0*
1,1,0.4250,0.2125,0.2625*
1,1,0.4250,0.2125,-0.2625*
1,1,0.4250,-0.2125,-0.2625*
1,1,0.4250,-0.2125,0.2625*
%
%ADD27ROUNDEDRECTD27*%
%ADD37O,0.6000X1.8000*%
%ADD48R,1.8000X1.8000*%
%ADD132C,0.3000*%
%ADD133C,2.3000*%
%ADD134R,1.2580X1.2580*%
%ADD135C,1.2580*%
%ADD136C,1.4580*%
%ADD137C,1.3700*%
%ADD138R,1.3700X1.3700*%
%ADD139C,1.6000*%
%ADD140R,1.6000X1.6000*%
%ADD141C,1.0000*%
%ADD142C,6.0000*%
%ADD147R,1.3000X1.1500*%
G04:AMPARAMS|DCode=148|XSize=1.64mm|YSize=0.59mm|CornerRadius=0.1475mm|HoleSize=0mm|Usage=FLASHONLY|Rotation=0.000|XOffset=0mm|YOffset=0mm|HoleType=Round|Shape=RoundedRectangle|*
%AMROUNDEDRECTD148*
21,1,1.6400,0.2950,0,0,0.0*
21,1,1.3450,0.5900,0,0,0.0*
1,1,0.2950,0.6725,-0.1475*
1,1,0.2950,-0.6725,-0.1475*
1,1,0.2950,-0.6725,0.1475*
1,1,0.2950,0.6725,0.1475*
%
%ADD148ROUNDEDRECTD148*%
%ADD149R,2.0000X4.2000*%
%ADD150O,1.8000X0.6000*%
%ADD151R,2.7178X3.4036*%
%ADD152R,0.2746X0.8048*%
%ADD153R,0.8048X0.2746*%
%ADD154R,2.6500X2.6500*%
G04:AMPARAMS|DCode=155|XSize=1.75mm|YSize=1.25mm|CornerRadius=0.2438mm|HoleSize=0mm|Usage=FLASHONLY|Rotation=270.000|XOffset=0mm|YOffset=0mm|HoleType=Round|Shape=RoundedRectangle|*
%AMROUNDEDRECTD155*
21,1,1.7500,0.7625,0,0,270.0*
21,1,1.2625,1.2500,0,0,270.0*
1,1,0.4875,-0.3813,-0.6313*
1,1,0.4875,-0.3813,0.6313*
1,1,0.4875,0.3813,0.6313*
1,1,0.4875,0.3813,-0.6313*
%
%ADD155ROUNDEDRECTD155*%
%ADD156R,1.1000X1.0000*%
D26*
X451395Y143240D02*
D03*
Y127740D02*
D03*
X468756Y143240D02*
D03*
Y127740D02*
D03*
X486116Y127740D02*
D03*
Y143240D02*
D03*
X503477Y127740D02*
D03*
Y143240D02*
D03*
X520837Y127740D02*
D03*
Y143240D02*
D03*
X538197Y143240D02*
D03*
Y127740D02*
D03*
X555558Y127740D02*
D03*
Y143240D02*
D03*
X572918Y127740D02*
D03*
Y143240D02*
D03*
X590279Y143240D02*
D03*
Y127740D02*
D03*
X607639Y127740D02*
D03*
Y143240D02*
D03*
X624999Y127740D02*
D03*
Y143240D02*
D03*
X432972D02*
D03*
Y127740D02*
D03*
X210000Y691910D02*
D03*
Y676410D02*
D03*
X250000D02*
D03*
Y691910D02*
D03*
X290000Y676410D02*
D03*
Y691910D02*
D03*
X330454D02*
D03*
Y676410D02*
D03*
X53866Y355470D02*
D03*
Y370970D02*
D03*
X119444Y361106D02*
D03*
Y376606D02*
D03*
X102966Y361007D02*
D03*
Y376507D02*
D03*
X353138Y356550D02*
D03*
Y372050D02*
D03*
X391393D02*
D03*
Y356550D02*
D03*
X372266D02*
D03*
Y372050D02*
D03*
X334010D02*
D03*
Y356550D02*
D03*
X337227Y143240D02*
D03*
Y127740D02*
D03*
X354587D02*
D03*
Y143240D02*
D03*
X371947Y127740D02*
D03*
Y143240D02*
D03*
X389308Y143240D02*
D03*
Y127740D02*
D03*
X216370Y407361D02*
D03*
Y422861D02*
D03*
X236504Y422750D02*
D03*
Y407250D02*
D03*
X400549Y309101D02*
D03*
Y324601D02*
D03*
X417190Y309101D02*
D03*
Y324601D02*
D03*
X681860Y513316D02*
D03*
Y528816D02*
D03*
Y545433D02*
D03*
Y560933D02*
D03*
X681860Y593050D02*
D03*
Y577550D02*
D03*
X535544Y528816D02*
D03*
Y513316D02*
D03*
X535544Y545433D02*
D03*
Y560933D02*
D03*
Y577550D02*
D03*
Y593050D02*
D03*
X535544Y481200D02*
D03*
Y496700D02*
D03*
X553740D02*
D03*
Y481200D02*
D03*
X572060Y481200D02*
D03*
Y496700D02*
D03*
X590381Y481200D02*
D03*
Y496700D02*
D03*
X608827Y481200D02*
D03*
Y496700D02*
D03*
X627147Y481200D02*
D03*
Y496700D02*
D03*
X645343Y481200D02*
D03*
Y496700D02*
D03*
X663664Y481200D02*
D03*
Y496700D02*
D03*
X681984Y496700D02*
D03*
Y481200D02*
D03*
X535419Y625166D02*
D03*
Y609666D02*
D03*
X553833Y625166D02*
D03*
Y609666D02*
D03*
X571998Y625166D02*
D03*
Y609666D02*
D03*
X590287Y625166D02*
D03*
Y609666D02*
D03*
X608577Y625166D02*
D03*
Y609666D02*
D03*
X626866Y625166D02*
D03*
Y609666D02*
D03*
X645281Y625166D02*
D03*
Y609666D02*
D03*
X681859Y625166D02*
D03*
Y609666D02*
D03*
X663445Y609666D02*
D03*
Y625166D02*
D03*
X198611Y422861D02*
D03*
Y407361D02*
D03*
D27*
X315144Y284416D02*
D03*
X330644D02*
D03*
X350704D02*
D03*
X366204D02*
D03*
X275104Y301248D02*
D03*
X290604D02*
D03*
X290780Y320040D02*
D03*
X275280D02*
D03*
X275280Y339957D02*
D03*
X290780D02*
D03*
X198484Y436212D02*
D03*
X182984D02*
D03*
X160755Y436071D02*
D03*
X145255D02*
D03*
X290780Y358702D02*
D03*
X275280D02*
D03*
X275280Y377447D02*
D03*
X290780D02*
D03*
X275280Y396059D02*
D03*
X290780D02*
D03*
X275280Y414937D02*
D03*
X290780D02*
D03*
X275280Y433682D02*
D03*
X290780D02*
D03*
X290780Y452427D02*
D03*
X275280D02*
D03*
Y471172D02*
D03*
X290780D02*
D03*
X551517Y245146D02*
D03*
X567017D02*
D03*
X347616Y245638D02*
D03*
X332116D02*
D03*
X490719Y342366D02*
D03*
X475219D02*
D03*
X490719Y325271D02*
D03*
X475219D02*
D03*
X490719Y308177D02*
D03*
X475219D02*
D03*
X490719Y291083D02*
D03*
X475219D02*
D03*
X312056Y245638D02*
D03*
X296556D02*
D03*
X447456Y291083D02*
D03*
X431956D02*
D03*
X447456Y308177D02*
D03*
X431956D02*
D03*
X447456Y325271D02*
D03*
X431956D02*
D03*
X447456Y342366D02*
D03*
X431956D02*
D03*
X431958Y360781D02*
D03*
X447458D02*
D03*
Y378231D02*
D03*
X431958D02*
D03*
X393750Y452500D02*
D03*
X409250D02*
D03*
X34160Y82804D02*
D03*
X49660D02*
D03*
X34160Y103497D02*
D03*
X49660D02*
D03*
X34160Y124189D02*
D03*
X49660D02*
D03*
X34160Y144881D02*
D03*
X49660D02*
D03*
X34160Y186265D02*
D03*
X49660D02*
D03*
X34160Y165573D02*
D03*
X49660D02*
D03*
D37*
X597644Y527031D02*
D03*
X584944D02*
D03*
X572243D02*
D03*
X559543D02*
D03*
X597644Y583531D02*
D03*
X584944D02*
D03*
X572243D02*
D03*
X559543D02*
D03*
X657334Y527031D02*
D03*
X644633D02*
D03*
X631934D02*
D03*
X619234D02*
D03*
X657334Y583531D02*
D03*
X644633D02*
D03*
X631934D02*
D03*
X619234D02*
D03*
D48*
X232733Y388601D02*
D03*
Y348601D02*
D03*
D132*
X402625Y129078D02*
D03*
Y142078D02*
D03*
X415625Y129078D02*
D03*
Y142078D02*
D03*
X441625Y129078D02*
D03*
Y142078D02*
D03*
D133*
X660000Y60000D02*
D03*
X190000D02*
D03*
D134*
X225000Y70000D02*
D03*
D135*
Y50000D02*
D03*
X245000Y70000D02*
D03*
Y50000D02*
D03*
X265000Y70000D02*
D03*
Y50000D02*
D03*
X285000Y70000D02*
D03*
Y50000D02*
D03*
X305000Y70000D02*
D03*
Y50000D02*
D03*
X325000Y70000D02*
D03*
Y50000D02*
D03*
X345000Y70000D02*
D03*
Y50000D02*
D03*
X365000Y70000D02*
D03*
Y50000D02*
D03*
X385000Y70000D02*
D03*
Y50000D02*
D03*
X405000Y70000D02*
D03*
Y50000D02*
D03*
X425000Y70000D02*
D03*
Y50000D02*
D03*
X445000Y70000D02*
D03*
Y50000D02*
D03*
X465000Y70000D02*
D03*
Y50000D02*
D03*
X485000Y70000D02*
D03*
Y50000D02*
D03*
X505000Y70000D02*
D03*
Y50000D02*
D03*
X525000Y70000D02*
D03*
Y50000D02*
D03*
X545000Y70000D02*
D03*
Y50000D02*
D03*
X565000Y70000D02*
D03*
Y50000D02*
D03*
X585000Y70000D02*
D03*
Y50000D02*
D03*
X605000Y70000D02*
D03*
Y50000D02*
D03*
X625000Y70000D02*
D03*
Y50000D02*
D03*
D136*
X477500Y740000D02*
D03*
X662500D02*
D03*
X477500Y692500D02*
D03*
X662500D02*
D03*
X167500Y740000D02*
D03*
X352500D02*
D03*
X167500Y692500D02*
D03*
X352500D02*
D03*
D137*
X762700Y215400D02*
D03*
Y190000D02*
D03*
X737300Y266200D02*
D03*
X762700D02*
D03*
X737300Y240800D02*
D03*
X762700D02*
D03*
X737300Y215400D02*
D03*
Y190000D02*
D03*
Y164600D02*
D03*
X762700D02*
D03*
X737300Y139200D02*
D03*
X762700D02*
D03*
X737300Y113800D02*
D03*
D138*
X762700D02*
D03*
D139*
X115316Y109728D02*
D03*
Y135128D02*
D03*
Y188516D02*
D03*
Y213916D02*
D03*
Y239316D02*
D03*
Y264716D02*
D03*
D140*
Y160528D02*
D03*
Y290116D02*
D03*
D141*
X19560Y52440D02*
D03*
X52440Y19560D02*
D03*
X19560D02*
D03*
X52440Y52440D02*
D03*
X59250Y36000D02*
D03*
X36000Y13140D02*
D03*
X12750Y36000D02*
D03*
X36000Y59250D02*
D03*
Y837250D02*
D03*
X12750Y814000D02*
D03*
X36000Y791140D02*
D03*
X59250Y814000D02*
D03*
X52440Y830440D02*
D03*
X19560Y797560D02*
D03*
X52440D02*
D03*
X19560Y830440D02*
D03*
X797560D02*
D03*
X830440Y797560D02*
D03*
X797560D02*
D03*
X830440Y830440D02*
D03*
X837250Y814000D02*
D03*
X814000Y791140D02*
D03*
X790750Y814000D02*
D03*
X814000Y837250D02*
D03*
Y59250D02*
D03*
X790750Y36000D02*
D03*
X814000Y13140D02*
D03*
X837250Y36000D02*
D03*
X830440Y52440D02*
D03*
X797560Y19560D02*
D03*
X830440D02*
D03*
X797560Y52440D02*
D03*
D142*
X36000Y36000D02*
D03*
Y814000D02*
D03*
X814000D02*
D03*
Y36000D02*
D03*
D147*
X82816Y383720D02*
D03*
Y352720D02*
D03*
D148*
X315280Y302260D02*
D03*
Y314960D02*
D03*
Y327660D02*
D03*
Y340360D02*
D03*
X367980D02*
D03*
Y327660D02*
D03*
Y314960D02*
D03*
Y302260D02*
D03*
D149*
X192400Y304720D02*
D03*
X149000D02*
D03*
D150*
X143410Y346376D02*
D03*
Y359076D02*
D03*
Y371776D02*
D03*
Y384476D02*
D03*
X199910Y346376D02*
D03*
Y359076D02*
D03*
Y371776D02*
D03*
Y384476D02*
D03*
D151*
X171657Y365732D02*
D03*
D152*
X77430Y439726D02*
D03*
X82430D02*
D03*
X87430D02*
D03*
X92430D02*
D03*
X97430D02*
D03*
X102430D02*
D03*
Y401678D02*
D03*
X97430D02*
D03*
X92430D02*
D03*
X87430D02*
D03*
X82430D02*
D03*
X77430D02*
D03*
D153*
X108954Y433202D02*
D03*
Y428202D02*
D03*
Y423202D02*
D03*
Y418202D02*
D03*
Y413202D02*
D03*
Y408202D02*
D03*
X70906D02*
D03*
Y413202D02*
D03*
Y418202D02*
D03*
Y423202D02*
D03*
Y428202D02*
D03*
Y433202D02*
D03*
D154*
X89930Y420702D02*
D03*
D155*
X166905Y410746D02*
D03*
X138905D02*
D03*
D156*
X69232Y165573D02*
D03*
X86232D02*
D03*
X69232Y186265D02*
D03*
X86232D02*
D03*
X69232Y144881D02*
D03*
X86232D02*
D03*
X69232Y124189D02*
D03*
X86232D02*
D03*
X69232Y103497D02*
D03*
X86232D02*
D03*
X69232Y82804D02*
D03*
X86232D02*
D03*
M02*
