M48
;Layer_Color=9474304
;FILE_FORMAT=4:2
METRIC,TZ
;TYPE=PLATED
T01F00S00C0.20
T02F00S00C0.50
T03F00S00C0.75
T04F00S00C0.95
T05F00S00C1.02
T06F00S00C1.10
T07F00S00C3.30
;TYPE=NON_PLATED
T08F00S00C2.30
%
T01
X109Y66
X209Y64
X309
X409
X509
X609
X709
X809
X909
X1009
X1109
X1209
X1309
X1409
X1509
X1609
X1709
X1809
X1909
X2009
X2109
X2209
X2309
X2409
X2286Y1118
Y1232
X2235Y1867
Y2050
X2070Y2045
X2073Y1958
X1926Y1944
X1829Y1994
X1850Y2226
X1573Y2158
X1373
X1473Y1958
X1273
Y1558
X971Y1476
X873Y1558
X773Y1758
X573
X673Y1958
X873
X773Y2158
X573
X473Y1958
X64Y1955
Y2055
Y2155
Y2255
Y1855
Y1755
Y1655
Y1555
Y1455
Y1355
Y1255
Y1155
Y1055
Y955
Y855
Y755
Y655
Y555
Y455
Y355
Y255
Y155
X873Y358
X1073
X1273
X1473
X1373Y558
X1473Y758
X1273
X1073
X975Y828
Y1035
X793Y610
X564Y1344
X1828Y1552
X2515Y1600
X2616Y1664
X2718Y1600
X2616Y1486
Y1829
X2515Y1880
X2673Y1958
X2827Y1994
X2924Y1944
X3073Y1958
X2961Y2159
X2795
X2631
X3573Y2158
X3645Y2125
X3473Y1958
X3302Y1765
X3492Y1524
X3573Y1358
X3773
X4026Y1421
X4156
X4286
Y1291
X4156
X4026
X3973Y958
X3373
X3173
X2973
Y1358
X2471Y1232
Y1118
X2509Y64
X2609
X2709
X2809
X2909
X3009
X3109
X3209
X3309
X3409
X3509
X3609
X3709
X3809
X3909
X4009
X4109
X4209
X4309
X4409
X4509
X4609
X4709
X4809
X4909
X5009
X5109
X5209
X5309
X5409
X5509
X5609
X5709
X5809
X5909
X6009
X6109
X6209
X6309
X6409
X5888Y878
X5599Y1135
X5551Y1199
X5419
X5388Y1063
X5243Y1131
X5271Y851
X5194Y853
X5133Y1554
X5321Y1912
X5448
X5382Y2007
X5858Y2047
X5972Y1985
X6038Y2052
X5641Y1648
X4912Y2131
X4796Y2151
X4381Y2206
X4422Y2246
X4462Y2287
X4285Y2125
X4503Y1885
X3975Y1884
X3951Y1609
X4416Y1421
Y1291
X4573Y1358
X6450Y1370
X6450Y1243
X6601Y1244
X6601Y1370
X6524Y1455
X6565Y1553
X6491Y1592
X6536Y1941
X7273Y1958
X7473
X7573Y1758
X7373
X7773Y2158
X8436Y2168
Y2268
Y2068
Y1968
Y1868
Y1768
Y1668
Y1568
Y1468
Y1368
Y1268
Y1168
Y1068
Y968
Y868
Y768
Y668
Y568
Y468
Y368
Y268
Y168
X8421Y89
X8339Y63
X8222Y69
X8109Y64
X8009
X7909
X7809
X7709
X7609
X7509
X7409
X7309
X7209
X7109
X7009
X6909
X6809
X6709
X6609
X6509
X6521Y876
X6773Y1358
X7573Y958
X7473Y2358
X7273
Y2758
X7373Y2958
X7573
X7773
X7639Y3094
X7461Y3183
X7273Y3158
X7315Y3400
X7211Y3400
X7573Y3358
X7773
X7673Y3558
X7473
X7573Y3758
X7773
X7673Y3958
X7473
X7573Y4158
X7773
X7673Y4358
X7473
X7468Y4686
X7273Y4758
X7073
X7173Y4958
X7373
X7573
X7639Y5125
X7461Y5214
X7303Y5431
X7146Y5431
X7428Y5588
Y5646
X7430Y5840
Y5898
Y6088
Y6145
X6711Y5867
X6703Y5457
X6716Y5189
X6673Y5158
X6549Y4890
X6709Y4733
X6505Y4528
X6673Y4358
X6973Y4558
X7173
X7645Y4597
X7773Y4558
X8436Y4568
Y4468
Y4368
Y4268
Y4168
Y4068
Y3968
Y3868
Y3768
Y3668
Y3568
Y3468
Y3368
Y3268
Y3168
Y3068
Y2968
Y2868
Y2768
Y2668
Y2568
Y2468
Y2368
X7573Y2558
X6965Y2758
X6873
X6673
X6775Y2961
X6973Y2958
X6773Y3758
X6473Y5558
X8436Y5568
Y5468
Y5368
Y5268
Y5168
Y5068
Y4968
Y4868
Y4768
Y4668
Y5668
Y5768
Y5868
Y5968
Y6068
Y6168
Y6268
X6373Y6158
X6270Y6091
X6087Y5937
X6087Y5648
X6073Y5558
X5873
X5673
X5473Y5463
X5473Y5158
X5623Y4968
X5606Y4621
X5474Y4555
X5352Y4621
X5280Y4757
X4991Y4724
X4973Y4958
X4991Y5036
X4888Y5209
X4885Y5469
X4987
X4783
X4733Y5750
X4843
X4954
X4899Y5835
X4788
X4873Y5958
X4673
X4573Y5758
X4514Y5583
X4500Y5318
X4405
X4397Y5387
X4238Y5333
X4185Y5382
X4107Y5467
X3965
X3877Y5469
X3772
X3666
X3561
X3541Y5231
X3555Y5139
X3485Y5093
X3360Y5137
X3261Y5160
X3205Y5086
X3105Y4972
X3072Y5333
X3031Y5382
X2874Y5363
X2791Y5289
X2805Y5469
X2712Y5469
X2606
X2501
X2449Y5715
X2560
X2670
X2781
X2725Y5800
X2615
X2504
X2673Y5958
X2629Y6154
Y6271
X2911Y6273
X3232Y6243
X3368
X3510Y6241
X3573Y5758
X3615Y5715
X3725
X3836
X3946
X3891Y5800
X3781
X3670
X3373Y5758
X3348Y5588
X3334Y5318
X3239
X3229Y5390
X3086Y5521
X2938Y5470
X2591Y5175
X2675Y4525
Y4337
Y4150
Y3962
Y3775
Y3587
Y3400
X3002Y3322
X3059Y2845
X2873Y2758
X2673
X2772Y2558
X2973
X3035Y2578
X3375Y2568
X3538Y2577
X3721
X3772Y2449
X3974Y2470
X4020Y2593
X3905Y2820
X3641
X3854Y3044
X3821Y3152
X4316Y3083
X4322Y3250
Y3425
X4476Y3425
X4749Y3423
X4845Y3425
X4990Y3368
X4880Y3253
X4750Y3252
X4749Y3079
X4899Y3094
Y2907
X4750
X4846Y2765
X4950Y2768
X5050Y2765
X5150Y2816
X5117Y3061
X5018Y2974
X5376Y2945
Y3088
X5362Y3518
X5275Y3659
X5340Y3792
X5294Y3925
X5173Y3758
X4891Y3823
X4873Y3958
X4789Y3886
X4721Y3772
X4754Y3606
X4316Y3605
X4191Y3594
X4157Y3746
X4161Y3850
X4223Y3894
X4222Y3799
X4226Y4301
X4103Y4338
Y4190
X3897
X3861Y4338
X4170Y4447
X4500Y4525
Y4325
X4701
X4859Y4487
X4804Y4559
X4702Y5085
X4650Y5175
X4531Y5148
X4477Y5074
X4425Y4999
X4314Y5037
X4056Y4984
X4037Y5366
X3957Y5289
X3877Y5212
X3798Y5140
X3645Y5182
X3239Y4677
X3238Y4508
X3224Y4337
X3202Y4242
X3238Y4134
X2829Y4472
X2811Y4653
X2753Y3026
X2573Y2958
X4181Y2852
X4261Y2819
X4321Y2912
X4503Y2328
X4552Y2374
X4699Y2388
X4856Y2328
X5235Y2374
X5357Y2373
X5305Y2447
X5593Y2374
X5765Y2490
X6302Y2374
X6161Y3459
X6030Y3493
X5972Y3445
X6065Y3680
X6237Y3678
X6177Y3779
X6273Y3958
X6173Y4158
X5922Y4147
X5799Y4163
X5738Y4102
X5679Y4167
X5551Y4169
X5495Y4096
X5613
X5679Y4037
X5551Y4031
X5829Y3868
X5753Y3746
X5806Y4742
X6087Y4812
X6046Y5086
X6073Y5158
X6336Y4534
X5904Y6095
X4519Y6264
X4409
X4298
X4188
X4252Y5521
X4602Y4998
X2413Y4859
X2330Y4820
X2305Y5116
X2195Y5137
X2096Y5160
X2073Y5318
X2076Y5387
X2168
Y5318
X1954Y5334
X1873Y5383
X1757Y5469
X1664Y5468
X1533Y5472
X1440Y5469
X1335
X1229
X1283Y5715
X1394
X1504
X1615
X1560Y5800
X1449
X1339
X1008Y5597
X1003Y5387
Y5318
X908
X910Y5387
X693Y5383
X741Y5333
X755Y5543
X577Y5476
X440Y5474
X511Y5379
X458Y5289
X64Y5255
Y5155
Y5055
Y4955
Y4855
Y4755
Y4655
Y4555
Y4455
Y4355
Y4255
Y4155
Y4055
Y3955
Y3855
Y3755
Y3655
Y3555
Y3455
Y3355
Y3255
Y3155
Y3055
Y2955
Y2855
Y2755
Y2655
Y2555
Y2455
Y2355
X473Y2358
X673
X890Y2334
X873Y2758
X1073
X1273
X1473
X1873
X2316Y2836
X2400Y3025
X2318Y3657
X2090Y3783
X2009Y3915
X2014Y4090
X2163Y3962
X1765Y3865
X1792Y3367
X1909Y3364
X1673Y3158
X1345Y3296
X1073Y3158
X873
X773Y2958
X573
X673Y2758
Y3558
X683Y3887
X586Y3937
X490Y3978
Y4082
X529Y4148
X473Y4308
X438Y4412
X699Y4518
X874Y4550
X975Y4572
X978Y4853
X973Y4958
X1029Y5137
X930Y5160
X824Y5095
X1154Y5093
X1141Y5188
X1467Y5134
X1599Y5371
X1922Y5550
X2177Y5591
X2173Y5758
X2373
X2395Y5469
X2390Y5186
X1928Y5087
X1512Y4712
X1324Y4512
X1327Y4411
X1296Y4231
X1194Y4333
X975Y4282
X1051Y3709
X1165Y3712
X1161Y3561
X1058Y3558
X946Y3397
X1473Y2358
X1676Y4445
X2316Y4413
X2169Y6204
X2065
X1961
X1471Y6214
X812Y6199
X642Y6186
X528Y6185
Y6086
X462Y5840
X351
X296Y5755
X407
X517
X64Y5755
Y5855
Y5955
Y6055
Y6155
Y6255
Y5655
Y5555
Y5455
Y5355
X409Y4851
X495Y4795
X709Y6285
X634Y6365
X701Y6464
X867Y6476
X800Y6377
X879Y6298
X456Y6376
X523Y6475
X64Y6455
Y6555
Y6655
Y6755
Y6855
Y6955
Y7055
Y7155
Y7255
Y7355
Y7455
Y7555
Y7655
Y7755
Y7855
X60Y7951
X64Y8055
Y8155
Y8255
Y8355
X122Y8436
X263
X363
X463
X563
X663
X763
X863
X963
X1063
X1163
X1263
X1363
X1463
X1563
X1663
X1763
X1863
X1963
X2063
X2163
X2263
X2363
X2373Y8158
X2173
X1973
X1773
X1573
X1373
X1173
X973
X773
X623Y8358
X573Y7758
X524Y7625
X457Y7526
X273Y7558
X373Y7758
X784Y7625
X884Y7619
X984Y7623
X1084Y7619
X1017Y7520
X917Y7524
X817Y7520
X717Y7526
X525Y7325
X458Y7226
X273Y7158
X373Y6958
X273Y6758
X705Y6903
X1257Y6923
X1342Y6820
X1407Y6637
X1435Y6455
X1397Y6329
X2100Y6486
X2100Y6765
X2100Y6988
X1973Y6958
X1873Y7158
X1973Y7358
X2173
X2373
X2273Y7558
X2073
X1873
X1973Y7758
X2173
X2373
X2273Y7958
X2073
X1873
X1446Y7620
Y7506
Y7370
X1347
X1344Y7573
X1446Y7226
X2273Y7158
X2373Y6958
X64Y6355
X2499Y6490
X2500Y6765
X2500Y6988
X2773Y6958
X2900Y6988
X2900Y6765
X2900Y6493
X3305Y6503
X3300Y6765
X3473Y6758
X3673
X3873
X4067Y6691
X4073Y6358
X4243Y6349
X4354
X4464
X4464Y6689
Y7044
X4373Y6958
X4067Y7047
Y7402
X3873Y7558
X3673
X3473
X3273
X3073
X2873
X2673
X2473
X2573Y7758
X2773
X2973
X3173
X3373
X3573
X3773
X3973
X4067Y7757
X4073Y7958
X4273
X4473
X4673
X4873
X5073
X5273
X5473
X5673
X5873
X6073
X6273
X6373Y8158
X6173
X5973
X5773
X5573
X5373
X5173
X4973
X4773
X4573
X4373
X4173
X3973
X3773
X3573
X3373
X3173
X2973
X2773
X2573
X2563Y8436
X2663
X2763
X2863
X2963
X3063
X3163
X3263
X3363
X3463
X3563
X3663
X3763
X3863
X3963
X4063
X4163
X4263
X4363
X4463
X4563
X4663
X4763
X4863
X4963
X5063
X5163
X5263
X5363
X5463
X5563
X5663
X5763
X5863
X5963
X6063
X6163
X6263
X6363
X6373Y7758
X6173
X5973
X5773
X5573
X5373
X5173
X4973
X4773
X4548Y7756
X4673Y7558
X4873
X5073
X5273
X5473
X5673
X5873
X6073
X6273
X6373Y7358
X6173
X5973
X5773
X5573
X5373
X5173
X4973
X5073Y7158
X5273
X5473
X5673
X5873
X6073
X6273
X6373Y6958
X6399Y6790
X6173Y6958
X6000Y6735
X5599Y6736
X5400
Y6515
X5273Y6358
X5538Y6336
X5673Y6358
X5722Y6335
X6273Y6358
X6200Y6515
X5204Y6788
X4873Y6758
X4973Y6958
X4873Y7158
X4548Y7400
X3373Y7358
X3173
X2973
X2773
X2573
X2673Y7958
X2873
X3073
X3273
X3473
X3673
X3873
X2473
X2463Y8436
X3173Y6958
X3304Y6988
X6473Y7158
X6673
X6873
X7146Y7181
X7146Y7056
X7303Y7056
X7302Y7181
X7461Y7474
X7639Y7385
X7573Y7758
X7773
X7973
X8173
X8436Y7768
Y7668
Y7568
Y7468
Y7368
Y7268
Y7168
Y7068
Y6968
Y6868
Y6768
Y6668
Y6568
Y6468
Y6368
Y7868
X8373Y7858
X8448Y7958
X8448Y8067
X8436Y8168
Y8268
Y8368
X8363Y8436
X8263
X8163
X8063Y8442
X7952Y8444
X7863Y8436
X7763
X7663
X7563
X7463
X7363
X7263
X7163
X7063
X6963
X6863
X6763
X6663
X6563
X6463
X6573Y8158
X6773
X6973
X7173
X7373
X7573
X7773
X7673Y7958
X7473
X7273
X7073
X6873
X6673
X6473
X6573Y7758
X6773
X6973
X7173
X7373
X6873Y7558
X6673
X6473
X6773Y7358
X6973
Y6958
X6773
X6873Y6758
X6973Y6558
X6873Y6358
X6819Y6332
X6634
X6453
X6573Y6558
T02
X196Y196
X360Y131
X524Y196
X593Y360
X524Y524
X360Y593
X196Y524
X127Y360
X7907
X7976Y524
X8140Y593
X8304Y524
X8372Y360
X8304Y196
X8140Y131
X7976Y196
X524Y7976
X360Y7911
X196Y7976
X127Y8140
X196Y8304
X360Y8372
X524Y8304
X593Y8140
X7907
X7976Y8304
X8140Y8372
X8304Y8304
X8372Y8140
X8304Y7976
X8140Y7911
X7976Y7976
T03
X2250Y500
Y700
X2450
X2650
X2850
X3050
X3250
X3450
X3650
X3850
X4050
X4250
X4450
X4650
X4850
X5050
X5250
X5450
X5650
X5850
X6050
X6250
Y500
X6050
X5850
X5650
X5450
X5250
X5050
X4850
X4650
X4450
X4250
X4050
X3850
X3650
X3450
X3250
X3050
X2850
X2650
X2450
T04
X1675Y6925
Y7400
X3525
Y6925
X4775
Y7400
X6625
Y6925
T05
X7373Y1138
X7627
Y1392
X7373
Y1646
X7627
Y1900
X7373
Y2154
X7627
Y2408
X7373
Y2662
X7627
T06
X1153Y1097
Y1351
Y1605
Y1885
Y2139
Y2393
Y2647
Y2901
T07
X360Y360
X8140
X360Y8140
X8140
T08
X1900Y600
X6600
M30
