G04*
G04 #@! TF.GenerationSoftware,Altium Limited,Altium Designer,24.1.2 (44)*
G04*
G04 Layer_Color=128*
%FSLAX44Y44*%
%MOMM*%
G71*
G04*
G04 #@! TF.SameCoordinates,7A6031A1-F91E-48BD-AA25-0F05F42D70C2*
G04*
G04*
G04 #@! TF.FilePolarity,Positive*
G04*
G01*
G75*
%ADD23C,1.2300*%
G04:AMPARAMS|DCode=24|XSize=0.95mm|YSize=0.85mm|CornerRadius=0.2125mm|HoleSize=0mm|Usage=FLASHONLY|Rotation=90.000|XOffset=0mm|YOffset=0mm|HoleType=Round|Shape=RoundedRectangle|*
%AMROUNDEDRECTD24*
21,1,0.9500,0.4250,0,0,90.0*
21,1,0.5250,0.8500,0,0,90.0*
1,1,0.4250,0.2125,0.2625*
1,1,0.4250,0.2125,-0.2625*
1,1,0.4250,-0.2125,-0.2625*
1,1,0.4250,-0.2125,0.2625*
%
%ADD24ROUNDEDRECTD24*%
G04:AMPARAMS|DCode=26|XSize=0.95mm|YSize=0.85mm|CornerRadius=0.2125mm|HoleSize=0mm|Usage=FLASHONLY|Rotation=180.000|XOffset=0mm|YOffset=0mm|HoleType=Round|Shape=RoundedRectangle|*
%AMROUNDEDRECTD26*
21,1,0.9500,0.4250,0,0,180.0*
21,1,0.5250,0.8500,0,0,180.0*
1,1,0.4250,-0.2625,0.2125*
1,1,0.4250,0.2625,0.2125*
1,1,0.4250,0.2625,-0.2125*
1,1,0.4250,-0.2625,-0.2125*
%
%ADD26ROUNDEDRECTD26*%
%ADD35O,0.6000X1.8000*%
%ADD46R,1.8000X1.8000*%
%ADD147R,1.3000X1.1500*%
G04:AMPARAMS|DCode=148|XSize=1.64mm|YSize=0.59mm|CornerRadius=0.1475mm|HoleSize=0mm|Usage=FLASHONLY|Rotation=0.000|XOffset=0mm|YOffset=0mm|HoleType=Round|Shape=RoundedRectangle|*
%AMROUNDEDRECTD148*
21,1,1.6400,0.2950,0,0,0.0*
21,1,1.3450,0.5900,0,0,0.0*
1,1,0.2950,0.6725,-0.1475*
1,1,0.2950,-0.6725,-0.1475*
1,1,0.2950,-0.6725,0.1475*
1,1,0.2950,0.6725,0.1475*
%
%ADD148ROUNDEDRECTD148*%
%ADD149R,2.0000X4.2000*%
%ADD150O,1.8000X0.6000*%
%ADD152R,0.2746X0.8048*%
%ADD153R,0.8048X0.2746*%
%ADD154R,2.6500X2.6500*%
G04:AMPARAMS|DCode=155|XSize=1.75mm|YSize=1.25mm|CornerRadius=0.2438mm|HoleSize=0mm|Usage=FLASHONLY|Rotation=270.000|XOffset=0mm|YOffset=0mm|HoleType=Round|Shape=RoundedRectangle|*
%AMROUNDEDRECTD155*
21,1,1.7500,0.7625,0,0,270.0*
21,1,1.2625,1.2500,0,0,270.0*
1,1,0.4875,-0.3813,-0.6313*
1,1,0.4875,-0.3813,0.6313*
1,1,0.4875,0.3813,0.6313*
1,1,0.4875,0.3813,-0.6313*
%
%ADD155ROUNDEDRECTD155*%
%ADD156R,1.1000X1.0000*%
G36*
X837997Y837997D02*
X837984Y830638D01*
X837837D01*
X830440Y838035D01*
X837959D01*
X837997Y837997D01*
D02*
G37*
G36*
X19362Y837984D02*
Y837837D01*
X11965Y830440D01*
Y837959D01*
X12003Y837997D01*
X19362Y837984D01*
D02*
G37*
G36*
X102180Y421702D02*
X90930D01*
Y432952D01*
X102180D01*
Y421702D01*
D02*
G37*
G36*
X88930D02*
X77680D01*
Y432952D01*
X88930D01*
Y421702D01*
D02*
G37*
G36*
X102180Y408452D02*
X90930D01*
Y419702D01*
X102180D01*
Y408452D01*
D02*
G37*
G36*
X88930D02*
X77680D01*
Y419702D01*
X88930D01*
Y408452D01*
D02*
G37*
G36*
X838035Y12041D02*
X837997Y12003D01*
X830638Y12016D01*
Y12163D01*
X838035Y19560D01*
Y12041D01*
D02*
G37*
G36*
X19560Y11965D02*
X12041D01*
X12003Y12003D01*
X12016Y19362D01*
X12163D01*
X19560Y11965D01*
D02*
G37*
D23*
X12006Y843650D02*
G03*
X6356Y838012I0J-5650D01*
G01*
X6356Y12000D02*
G03*
X11994Y6350I5650J0D01*
G01*
X838006Y6350D02*
G03*
X843656Y11988I0J5650D01*
G01*
X843656Y838000D02*
G03*
X838024Y843650I-5650J0D01*
G01*
X6356Y155503D02*
Y415503D01*
X843656Y706779D02*
Y837975D01*
X843656Y696779D02*
X843656Y706779D01*
X843656Y426780D02*
Y696779D01*
X843656Y416780D02*
X843656Y426780D01*
X843656Y156780D02*
Y416780D01*
X843656Y146780D02*
X843656Y156780D01*
X843656Y12000D02*
Y146780D01*
X700857Y6350D02*
X837981D01*
X690857Y6350D02*
X700857Y6350D01*
X430857Y6350D02*
X690857D01*
X706321Y843650D02*
X838006D01*
X696321Y843650D02*
X706321Y843650D01*
X426322Y843650D02*
X696321D01*
X416322Y843650D02*
X426322Y843650D01*
X156323Y843650D02*
X416322D01*
X146323Y843650D02*
X156323Y843650D01*
X12024Y843650D02*
X146323D01*
X420857Y6350D02*
X430857Y6350D01*
X265000Y6350D02*
X420857D01*
X12006Y6350D02*
X140858D01*
X150858Y6350D01*
X265000D01*
X6356Y705502D02*
Y838000D01*
X6356Y695502D02*
X6356Y705502D01*
X6356Y425503D02*
Y695502D01*
X6356Y415503D02*
X6356Y425503D01*
X6356Y145503D02*
X6356Y155503D01*
X6356Y12025D02*
Y145503D01*
D24*
X315144Y284416D02*
D03*
X330644D02*
D03*
X350704D02*
D03*
X366204D02*
D03*
X275104Y301248D02*
D03*
X290604D02*
D03*
X290780Y320040D02*
D03*
X275280D02*
D03*
X275280Y339957D02*
D03*
X290780D02*
D03*
X198484Y436212D02*
D03*
X182984D02*
D03*
X160755Y436071D02*
D03*
X145255D02*
D03*
X290780Y358702D02*
D03*
X275280D02*
D03*
X275280Y377447D02*
D03*
X290780D02*
D03*
X275280Y396059D02*
D03*
X290780D02*
D03*
X275280Y414937D02*
D03*
X290780D02*
D03*
X275280Y433682D02*
D03*
X290780D02*
D03*
X290780Y452427D02*
D03*
X275280D02*
D03*
Y471172D02*
D03*
X290780D02*
D03*
X551517Y245146D02*
D03*
X567017D02*
D03*
X475219Y360423D02*
D03*
X490719D02*
D03*
Y342366D02*
D03*
X475219D02*
D03*
X490719Y325271D02*
D03*
X475219D02*
D03*
X490719Y308177D02*
D03*
X475219D02*
D03*
X490719Y291083D02*
D03*
X475219D02*
D03*
X490719Y378355D02*
D03*
X475219D02*
D03*
X447456Y291083D02*
D03*
X431956D02*
D03*
X447456Y308177D02*
D03*
X431956D02*
D03*
X447456Y325271D02*
D03*
X431956D02*
D03*
X447456Y342366D02*
D03*
X431956D02*
D03*
X431958Y360781D02*
D03*
X447458D02*
D03*
Y378231D02*
D03*
X431958D02*
D03*
X535250Y308177D02*
D03*
X519750D02*
D03*
X535250Y360423D02*
D03*
X519750D02*
D03*
X393750Y452500D02*
D03*
X409250D02*
D03*
X34160Y82804D02*
D03*
X49660D02*
D03*
X34160Y103497D02*
D03*
X49660D02*
D03*
X34160Y124189D02*
D03*
X49660D02*
D03*
X34160Y144881D02*
D03*
X49660D02*
D03*
X34160Y186265D02*
D03*
X49660D02*
D03*
X34160Y165573D02*
D03*
X49660D02*
D03*
D26*
X210000Y691910D02*
D03*
Y676410D02*
D03*
X250000D02*
D03*
Y691910D02*
D03*
X290000Y676410D02*
D03*
Y691910D02*
D03*
X330454D02*
D03*
Y676410D02*
D03*
X53866Y355470D02*
D03*
Y370970D02*
D03*
X119444Y361106D02*
D03*
Y376606D02*
D03*
X102966Y361007D02*
D03*
Y376507D02*
D03*
X353138Y356550D02*
D03*
Y372050D02*
D03*
X391393D02*
D03*
Y356550D02*
D03*
X372266D02*
D03*
Y372050D02*
D03*
X334010D02*
D03*
Y356550D02*
D03*
X337227Y143240D02*
D03*
Y127740D02*
D03*
X354587D02*
D03*
Y143240D02*
D03*
X371947Y127740D02*
D03*
Y143240D02*
D03*
X389308Y143240D02*
D03*
Y127740D02*
D03*
X451395Y127740D02*
D03*
Y143240D02*
D03*
X468756Y127740D02*
D03*
Y143240D02*
D03*
X486116Y143240D02*
D03*
Y127740D02*
D03*
X503477Y143240D02*
D03*
Y127740D02*
D03*
X520837Y143240D02*
D03*
Y127740D02*
D03*
X538197Y127740D02*
D03*
Y143240D02*
D03*
X555558Y143240D02*
D03*
Y127740D02*
D03*
X572918Y143240D02*
D03*
Y127740D02*
D03*
X590279Y127740D02*
D03*
Y143240D02*
D03*
X607639Y143240D02*
D03*
Y127740D02*
D03*
X624999Y143240D02*
D03*
Y127740D02*
D03*
X216370Y407361D02*
D03*
Y422861D02*
D03*
X236504Y422750D02*
D03*
Y407250D02*
D03*
X681860Y513316D02*
D03*
Y528816D02*
D03*
Y545433D02*
D03*
Y560933D02*
D03*
X681860Y593050D02*
D03*
Y577550D02*
D03*
X535544Y528816D02*
D03*
Y513316D02*
D03*
X535544Y545433D02*
D03*
Y560933D02*
D03*
Y577550D02*
D03*
Y593050D02*
D03*
X535544Y481200D02*
D03*
Y496700D02*
D03*
X553740D02*
D03*
Y481200D02*
D03*
X572060Y481200D02*
D03*
Y496700D02*
D03*
X590381Y481200D02*
D03*
Y496700D02*
D03*
X608827Y481200D02*
D03*
Y496700D02*
D03*
X627147Y481200D02*
D03*
Y496700D02*
D03*
X645343Y481200D02*
D03*
Y496700D02*
D03*
X663664Y481200D02*
D03*
Y496700D02*
D03*
X681984Y496700D02*
D03*
Y481200D02*
D03*
X535419Y625166D02*
D03*
Y609666D02*
D03*
X553833Y625166D02*
D03*
Y609666D02*
D03*
X571998Y625166D02*
D03*
Y609666D02*
D03*
X590287Y625166D02*
D03*
Y609666D02*
D03*
X608577Y625166D02*
D03*
Y609666D02*
D03*
X626866Y625166D02*
D03*
Y609666D02*
D03*
X645281Y625166D02*
D03*
Y609666D02*
D03*
X681859Y625166D02*
D03*
Y609666D02*
D03*
X663445Y609666D02*
D03*
Y625166D02*
D03*
X198611Y422861D02*
D03*
Y407361D02*
D03*
D35*
X597644Y527031D02*
D03*
X584944D02*
D03*
X572243D02*
D03*
X559543D02*
D03*
X597644Y583531D02*
D03*
X584944D02*
D03*
X572243D02*
D03*
X559543D02*
D03*
X657334Y527031D02*
D03*
X644633D02*
D03*
X631934D02*
D03*
X619234D02*
D03*
X657334Y583531D02*
D03*
X644633D02*
D03*
X631934D02*
D03*
X619234D02*
D03*
D46*
X232733Y388601D02*
D03*
Y348601D02*
D03*
D147*
X82816Y383720D02*
D03*
Y352720D02*
D03*
D148*
X315280Y302260D02*
D03*
Y314960D02*
D03*
Y327660D02*
D03*
Y340360D02*
D03*
X367980D02*
D03*
Y327660D02*
D03*
Y314960D02*
D03*
Y302260D02*
D03*
D149*
X192400Y304720D02*
D03*
X149000D02*
D03*
D150*
X143410Y346376D02*
D03*
Y359076D02*
D03*
Y371776D02*
D03*
Y384476D02*
D03*
X199910Y346376D02*
D03*
Y359076D02*
D03*
Y371776D02*
D03*
Y384476D02*
D03*
D152*
X77430Y439726D02*
D03*
X82430D02*
D03*
X87430D02*
D03*
X92430D02*
D03*
X97430D02*
D03*
X102430D02*
D03*
Y401678D02*
D03*
X97430D02*
D03*
X92430D02*
D03*
X87430D02*
D03*
X82430D02*
D03*
X77430D02*
D03*
D153*
X108954Y433202D02*
D03*
Y428202D02*
D03*
Y423202D02*
D03*
Y418202D02*
D03*
Y413202D02*
D03*
Y408202D02*
D03*
X70906D02*
D03*
Y413202D02*
D03*
Y418202D02*
D03*
Y423202D02*
D03*
Y428202D02*
D03*
Y433202D02*
D03*
D154*
X89930Y420702D02*
D03*
D155*
X166905Y410746D02*
D03*
X138905D02*
D03*
D156*
X69232Y165573D02*
D03*
X86232D02*
D03*
X69232Y186265D02*
D03*
X86232D02*
D03*
X69232Y144881D02*
D03*
X86232D02*
D03*
X69232Y124189D02*
D03*
X86232D02*
D03*
X69232Y103497D02*
D03*
X86232D02*
D03*
X69232Y82804D02*
D03*
X86232D02*
D03*
M02*
